<svg id="Profile" xmlns="http://www.w3.org/2000/svg" width="10.609" height="13.229" viewBox="0 0 10.609 13.229">
  <path id="Profile-2" data-name="Profile" d="M4.408,13.226a4.261,4.261,0,0,0-.533-.035A10.689,10.689,0,0,1,2.325,13,2.855,2.855,0,0,1,.186,11.821,1.622,1.622,0,0,1,.18,10.333,2.816,2.816,0,0,1,2.325,9.156,11.4,11.4,0,0,1,3.88,8.962a17.891,17.891,0,0,1,2.869,0A11.688,11.688,0,0,1,8.3,9.156a2.887,2.887,0,0,1,2.139,1.177,1.624,1.624,0,0,1,0,1.465,2.768,2.768,0,0,1-2.151,1.177,11.13,11.13,0,0,1-1.549.2,13.235,13.235,0,0,1-1.452.052ZM1.826,3.571A3.527,3.527,0,0,1,5.308,0,3.527,3.527,0,0,1,8.79,3.571,3.528,3.528,0,0,1,5.308,7.143,3.528,3.528,0,0,1,1.826,3.571Z" transform="translate(-0.002 0)" fill="#068dfa"/>
</svg>
