<svg xmlns="http://www.w3.org/2000/svg" width="15.104" height="14.201" viewBox="0 0 15.104 14.201">
  <g id="XMLID_1_" transform="translate(0 -15.3)">
    <path id="XMLID_15_" d="M4.44,15.3v3.564H15.1V15.3ZM14.2,17.961H5.319V16.179H14.2v1.782ZM4.44,24.182H15.1V20.619H4.44Zm.879-2.661H14.2V23.3H5.319ZM4.44,29.5H15.1V25.964H4.44Zm.879-2.661H14.2v1.782H5.319ZM0,18.864H3.564V15.3H0Zm.879-2.684H2.661v1.782H.879Zm-.879,8H3.564V20.619H0Zm.879-2.661H2.661V23.3H.879ZM0,29.5H3.564V25.964H0ZM.879,26.84H2.661v1.782H.879Z" transform="translate(0 0)" fill="#97aabc"/>
  </g>
</svg>
