<svg width="24" height="24" viewBox="0 0 24 24" fill="none" xmlns="http://www.w3.org/2000/svg">
<path fill-rule="evenodd" clip-rule="evenodd" d="M0 9C0 8.44772 0.447715 8 1 8H23C23.5523 8 24 8.44772 24 9C24 9.55228 23.5523 10 23 10H1C0.447715 10 0 9.55228 0 9Z" fill="#0D0E0E"/>
<path fill-rule="evenodd" clip-rule="evenodd" d="M12 0C12.5523 0 13 0.447715 13 1V5C13 5.55228 12.5523 6 12 6C11.4477 6 11 5.55228 11 5V1C11 0.447715 11.4477 0 12 0Z" fill="#0D0E0E"/>
<path fill-rule="evenodd" clip-rule="evenodd" d="M6 0C6.55228 0 7 0.447715 7 1V5C7 5.55228 6.55228 6 6 6C5.44772 6 5 5.55228 5 5V1C5 0.447715 5.44772 0 6 0Z" fill="#0D0E0E"/>
<path fill-rule="evenodd" clip-rule="evenodd" d="M18 0C18.5523 0 19 0.447715 19 1V5C19 5.55228 18.5523 6 18 6C17.4477 6 17 5.55228 17 5V1C17 0.447715 17.4477 0 18 0Z" fill="#0D0E0E"/>
<path fill-rule="evenodd" clip-rule="evenodd" d="M4 4C2.89543 4 2 4.89543 2 6V20C2 21.1046 2.89543 22 4 22H20C21.1046 22 22 21.1046 22 20V6C22 4.89543 21.1046 4 20 4H4ZM0 6C0 3.79086 1.79086 2 4 2H20C22.2091 2 24 3.79086 24 6V20C24 22.2091 22.2091 24 20 24H4C1.79086 24 0 22.2091 0 20V6Z" fill="black"/>
<path d="M10.9887 20V12H13.0113V20H10.9887ZM8 17.0113V14.9887H16V17.0113H8Z" fill="black"/>
</svg>
