<svg xmlns="http://www.w3.org/2000/svg" width="13.62" height="15.784" viewBox="0 0 13.62 15.784">
  <g id="refresh_1_" data-name="refresh (1)" transform="translate(-35.1 0.002)" fill="none">
    <path d="M47.454,12.091l-4.392,3.6c-.277.195-.506.078-.506-.261V14.186a7.3,7.3,0,0,1-7.43-5.79c-.114-.5.159-.681.3-.655.183.035.281.4.445.654.987,1.539,5.207,1.635,6.681,1.153V8.05c0-.339.228-.456.506-.263l4.392,3.6A.4.4,0,0,1,47.454,12.091ZM36.365,4.4l4.393,3.6c.277.192.505.076.505-.263v-1.5c1.474-.483,5.693-.385,6.68,1.153.165.257.263.619.446.654.144.026.418-.159.3-.655a7.3,7.3,0,0,0-7.43-5.79V.354c0-.339-.228-.456-.505-.262l-4.392,3.6A.4.4,0,0,0,36.365,4.4Z" stroke="none"/>
    <path d="M 43.55662536621094 13.99073314666748 L 46.30695724487305 11.73756694793701 L 43.55632781982422 9.484310150146484 L 43.55632781982422 10.27254009246826 L 42.86759567260742 10.49812030792236 C 42.26254653930664 10.6963005065918 41.38113784790039 10.80543994903564 40.38574600219727 10.80543994903564 C 39.63096618652344 10.80543994903564 38.22853088378906 10.73884010314941 36.99829483032227 10.31346893310547 C 37.87566757202148 11.69826030731201 39.52162551879883 13.1544075012207 42.56710433959961 13.18632984161377 L 43.55662536621094 13.19671058654785 L 43.55662536621094 13.99073314666748 M 40.26336669921875 6.297038078308105 L 40.26336669921875 5.508350372314453 L 40.95210647583008 5.282770156860352 C 41.55674743652344 5.08473014831543 42.43746566772461 4.97566032409668 43.43202590942383 4.97566032409668 C 44.18704986572266 4.97566032409668 45.59022903442383 5.042294025421143 46.82107543945312 5.468084335327148 C 45.94395446777344 4.083302974700928 44.29788970947266 2.626837253570557 41.25153732299805 2.594550371170044 L 40.26213455200195 2.584070205688477 L 40.26213455200195 1.790201544761658 L 37.5121955871582 4.043431282043457 L 40.26336669921875 6.297038078308105 M 42.81154251098633 15.78246212005615 C 42.65971755981445 15.78246212005615 42.55662536621094 15.65518474578857 42.55662536621094 15.42713069915771 L 42.55662536621094 14.18628025054932 C 37.26303482055664 14.13079071044922 35.54803466796875 10.22510051727295 35.12691497802734 8.396650314331055 C 35.01285552978516 7.900620937347412 35.2862548828125 7.715336322784424 35.42996597290039 7.741540431976318 C 35.61308670043945 7.776380062103271 35.71050643920898 8.138609886169434 35.87543487548828 8.395110130310059 C 36.86195755004883 9.933768272399902 41.08240509033203 10.03057193756104 42.55632781982422 9.547800064086914 L 42.55632781982422 8.049520492553711 C 42.55632781982422 7.710397243499756 42.78477096557617 7.593871593475342 43.06222534179688 7.786860466003418 L 47.45407485961914 11.38457012176514 C 47.73245620727539 11.57940006256104 47.73245620727539 11.89817047119141 47.45407485961914 12.09053993225098 L 43.06252670288086 15.68825054168701 C 42.97148513793945 15.75207996368408 42.88568878173828 15.78246212005615 42.81154251098633 15.78246212005615 Z M 41.00773620605469 8.08765983581543 C 40.93394470214844 8.087656021118164 40.84865188598633 8.057743072509766 40.75808715820312 7.994950294494629 L 36.36530685424805 4.39663028717041 C 36.08784484863281 4.201790332794189 36.08784484863281 3.884260177612305 36.36530685424805 3.690340280532837 L 40.75685501098633 0.09202025830745697 C 41.03368377685547 -0.102193146944046 41.26213455200195 0.01494465582072735 41.26213455200195 0.3540602624416351 L 41.26213455200195 1.594610214233398 C 46.55696487426758 1.650720238685608 48.27103424072266 5.555480480194092 48.69184494018555 7.384850025177002 C 48.80714797973633 7.880900859832764 48.53300094604492 8.065840721130371 48.3894157409668 8.039660453796387 C 48.20691680908203 8.004819869995117 48.1088752746582 7.642890453338623 47.94363784790039 7.386090278625488 C 46.95619201660156 5.84804105758667 42.73728179931641 5.75031852722168 41.26336669921875 6.233090400695801 L 41.26336669921875 7.731680393218994 C 41.26336669921875 7.960308074951172 41.16001510620117 8.087666511535645 41.00773620605469 8.08765983581543 Z" stroke="none" fill="#fff"/>
  </g>
</svg>
