<svg xmlns="http://www.w3.org/2000/svg" width="167.825" height="74.19" viewBox="0 0 167.825 74.19">
  <g id="Group_20" data-name="Group 20" transform="translate(-4874 -1732)">
    <g id="Group_12" data-name="Group 12" transform="translate(4874 1732)">
      <g id="logo-logo_1_" transform="translate(0 0)">
        <g id="Group_1" data-name="Group 1" transform="translate(23.842)">
          <path id="Path_1" data-name="Path 1" d="M-472.349,585.8a61.963,61.963,0,0,0-8.938,7.6,64.79,64.79,0,0,0-7.541,9c-3.29,4.816-6.384,3.585-9.035-2.007a34.646,34.646,0,0,0-6.987-9.556,34.934,34.934,0,0,0-9.549-6.987c-5.583-2.656-6.834-5.751-2.033-9.053a66.536,66.536,0,0,0,9.026-7.517,61.011,61.011,0,0,0,7.56-8.974c3.288-4.82,6.93-4.115,9.848,1.143a42.407,42.407,0,0,0,7.217,9.318,42.475,42.475,0,0,0,9.334,7.208c5.261,2.915,5.913,6.532,1.1,9.826" transform="translate(519.406 -555.066)" fill="#afda19"/>
        </g>
        <g id="Group_2" data-name="Group 2" transform="translate(23.672 19.482)">
          <path id="Path_2" data-name="Path 2" d="M-472.307,581.079a61.837,61.837,0,0,0-8.938,7.6,64.7,64.7,0,0,0-7.541,9c-3.29,4.814-6.384,3.583-9.035-2.009a34.667,34.667,0,0,0-6.986-9.554,34.921,34.921,0,0,0-9.549-6.987c-5.583-2.657-6.834-5.752-2.033-9.053a66.564,66.564,0,0,0,9.026-7.517,61,61,0,0,0,7.56-8.975c3.288-4.818,6.929-4.115,9.848,1.144a42.315,42.315,0,0,0,7.217,9.318,42.438,42.438,0,0,0,9.333,7.209c5.261,2.915,5.912,6.531,1.1,9.826" transform="translate(519.364 -550.343)" fill="#de097c"/>
        </g>
        <g id="Group_3" data-name="Group 3" transform="translate(3.565 10.553)">
          <path id="Path_3" data-name="Path 3" d="M-440.557,612.706a52.184,52.184,0,0,0-7.524,6.4,54.592,54.592,0,0,0-6.348,7.578c-2.769,4.052-5.373,3.016-7.605-1.691a29.174,29.174,0,0,0-5.881-8.044,29.406,29.406,0,0,0-8.038-5.88c-4.7-2.237-5.753-4.841-1.711-7.621a55.95,55.95,0,0,0,7.6-6.328,51.261,51.261,0,0,0,6.364-7.555c2.768-4.055,5.833-3.463,8.29.963a35.7,35.7,0,0,0,6.075,7.845,35.743,35.743,0,0,0,7.858,6.067c4.429,2.453,4.977,5.5.923,8.272" transform="translate(480.168 -586.834)" fill="#449cc7"/>
        </g>
        <g id="Group_4" data-name="Group 4" transform="translate(0 37.713)">
          <path id="Path_4" data-name="Path 4" d="M-403.922,645.334a39.094,39.094,0,0,0-5.641,4.8,40.772,40.772,0,0,0-4.76,5.679c-2.077,3.041-4.029,2.263-5.7-1.266a21.894,21.894,0,0,0-4.41-6.032,22.051,22.051,0,0,0-6.027-4.409c-3.524-1.678-4.313-3.63-1.283-5.714a41.948,41.948,0,0,0,5.7-4.745,38.416,38.416,0,0,0,4.772-5.665c2.076-3.041,4.374-2.6,6.217.722a26.739,26.739,0,0,0,4.555,5.882,26.76,26.76,0,0,0,5.892,4.549c3.32,1.841,3.732,4.124.692,6.2" transform="translate(433.624 -625.935)" fill="#e6681a"/>
        </g>
        <g id="Group_5" data-name="Group 5" transform="translate(24.329 43.864)">
          <path id="Path_5" data-name="Path 5" d="M-404.959,649.172a37.3,37.3,0,0,0-5.386,4.578,39.066,39.066,0,0,0-4.544,5.423c-1.982,2.9-3.847,2.16-5.444-1.21a20.873,20.873,0,0,0-4.21-5.758,21.054,21.054,0,0,0-5.754-4.21c-3.365-1.6-4.118-3.465-1.225-5.455a40.108,40.108,0,0,0,5.439-4.53,36.769,36.769,0,0,0,4.556-5.408c1.982-2.9,4.175-2.48,5.934.689a25.565,25.565,0,0,0,4.349,5.617,25.588,25.588,0,0,0,5.624,4.342c3.17,1.757,3.563,3.936.662,5.922" transform="translate(433.314 -630.65)" fill="#f3bf0a"/>
        </g>
        <g id="Group_6" data-name="Group 6" transform="translate(34.802 26.852)">
          <path id="Path_6" data-name="Path 6" d="M-344.7,725.948c4.054-2.773,3.505-5.818-.923-8.272q-1.1-.608-2.13-1.3a65.272,65.272,0,0,1-4.448,4.845q-.432.427-.872.847a42.579,42.579,0,0,1,3.6,3.224c.8.794,1.567,1.62,2.306,2.481q1.2-.952,2.469-1.825" transform="translate(353.072 -716.376)" fill="#131312"/>
        </g>
        <g id="Group_7" data-name="Group 7" transform="translate(23.675 32.544)">
          <path id="Path_7" data-name="Path 7" d="M-369.308,709.406a56.712,56.712,0,0,1,5.408-6.253,57.57,57.57,0,0,1,5.055-4.571c-.739-.861-1.511-1.687-2.306-2.481a42.549,42.549,0,0,0-3.6-3.224,65.829,65.829,0,0,1-8.154,6.669c-4.8,3.3-3.55,6.4,2.033,9.053q.8.378,1.562.806" transform="translate(375.877 -692.877)" fill="#1f2354"/>
        </g>
        <g id="Group_8" data-name="Group 8" transform="translate(23.844 17.218)">
          <path id="Path_8" data-name="Path 8" d="M-360.839,716.251a65.24,65.24,0,0,0,4.448-4.845,38.244,38.244,0,0,1-5.728-4.766,39.531,39.531,0,0,1-4.183-4.869q-1.65,1.31-3.393,2.512c-4.8,3.3-3.55,6.4,2.033,9.053a31.081,31.081,0,0,1,5.952,3.763l.872-.847" transform="translate(372.67 -701.771)" fill="#267836"/>
        </g>
        <g id="Group_9" data-name="Group 9" transform="translate(32.387 43.865)">
          <path id="Path_9" data-name="Path 9" d="M-380.231,678c2.9-1.986,2.509-4.165-.662-5.922a25.588,25.588,0,0,1-5.624-4.342,25.567,25.567,0,0,1-4.349-5.617c-1.758-3.169-3.953-3.592-5.934-.689A35.93,35.93,0,0,1-400.527,666a39.23,39.23,0,0,1,5.842,4.868,34.661,34.661,0,0,1,6.986,9.554,16.987,16.987,0,0,0,1.554,2.7q.261-.271.527-.54A37.317,37.317,0,0,1-380.231,678" transform="translate(400.527 -659.48)" fill="#d81e25"/>
        </g>
        <g id="Group_10" data-name="Group 10" transform="translate(24.33 52.082)">
          <path id="Path_10" data-name="Path 10" d="M-329.259,729.06c2.422-1.656,2.653-3.443.968-5.031a39.232,39.232,0,0,1-4.546,3.673c-2.353,1.618-2.293,3.153-.38,4.531a35.814,35.814,0,0,1,3.958-3.173" transform="translate(334.629 -724.029)" fill="#e14c1e"/>
        </g>
        <g id="Group_11" data-name="Group 11" transform="translate(13.446 37.714)">
          <path id="Path_11" data-name="Path 11" d="M-358.578,708.337c2.137,4.508,4.617,5.65,7.256,2.177a26.849,26.849,0,0,1-5.838-4.519,26.748,26.748,0,0,1-4.555-5.882c-1.522-2.741-3.354-3.522-5.115-2,.827.694,1.617,1.425,2.371,2.179a29.183,29.183,0,0,1,5.882,8.044" transform="translate(366.831 -697.346)" fill="#213e1c"/>
        </g>
      </g>
      <path id="Path_12" data-name="Path 12" d="M1100.032,1011.665l-1.52-4.089c-3.354,0-6.693-.005-10.031.017-.156,0-.385.222-.451.391-.471,1.207-.909,2.427-1.368,3.673h-5.842l9.289-24.245h6.466l9.293,24.254Zm-6.69-19.069-3.757,10.447h7.513C1095.851,999.57,1094.619,996.145,1093.342,992.6Z" transform="translate(-952.853 -973.826)" fill="#1383d9"/>
      <path id="Path_13" data-name="Path 13" d="M902.094,1000.9l4.4,2.137a10.668,10.668,0,0,1-6.668,5.462,12.921,12.921,0,0,1-12.745-3.163,11.534,11.534,0,0,1-3.526-8.322,12.51,12.51,0,0,1,2.3-8.018,12.127,12.127,0,0,1,7.807-4.806,12.944,12.944,0,0,1,6.461.276,11.071,11.071,0,0,1,6.38,5.371l-4.421,2.193a6.67,6.67,0,0,0-3.119-2.954,7.2,7.2,0,0,0-9.559,4.228,8.328,8.328,0,0,0,1.323,8.546c2.628,3.227,8.423,3.816,11.151-.613C901.939,1001.134,902.011,1001.03,902.094,1000.9Z" transform="translate(-779.119 -970.745)" fill="#1383d9"/>
      <path id="Path_14" data-name="Path 14" d="M720.328,987.542h17.016v4.469H725.472v5.243h11.6v4.507H725.451v9.99h-5.123Q720.328,999.689,720.328,987.542Z" transform="translate(-635.381 -973.941)" fill="#1383d9"/>
    </g>
    <path id="Path_73" data-name="Path 73" d="M-315.487-121.477v2.117h-3.766V-108.4h-2.835V-119.36h-3.766v-2.117Zm4.9,4.309a3.86,3.86,0,0,1,1.427-1.293,4.224,4.224,0,0,1,2.015-.468v2.754h-.749a3.026,3.026,0,0,0-2.015.581,2.553,2.553,0,0,0-.678,2.023v5.171h-2.835v-10.38h2.835Zm4.616,3.541a5.64,5.64,0,0,1,.678-2.792,4.754,4.754,0,0,1,1.842-1.874,5.209,5.209,0,0,1,2.6-.656,4.874,4.874,0,0,1,2.2.468,4.386,4.386,0,0,1,1.508,1.18v-1.48h2.855v10.38h-2.855v-1.518a4.137,4.137,0,0,1-1.508,1.208,4.921,4.921,0,0,1-2.217.478,5.056,5.056,0,0,1-2.581-.674,4.87,4.87,0,0,1-1.842-1.9A5.732,5.732,0,0,1-305.971-113.626Zm8.828.037a3.161,3.161,0,0,0-.4-1.639,2.748,2.748,0,0,0-1.093-1.049,3.106,3.106,0,0,0-1.478-.365,3.052,3.052,0,0,0-1.458.356,2.789,2.789,0,0,0-1.083,1.04,3.064,3.064,0,0,0-.415,1.621,3.163,3.163,0,0,0,.415,1.639,2.868,2.868,0,0,0,1.093,1.077,2.948,2.948,0,0,0,1.448.375,3.106,3.106,0,0,0,1.478-.365,2.748,2.748,0,0,0,1.093-1.049A3.161,3.161,0,0,0-297.143-113.589Zm7.066-6.426a1.807,1.807,0,0,1-1.245-.44,1.406,1.406,0,0,1-.5-1.1,1.406,1.406,0,0,1,.5-1.1,1.807,1.807,0,0,1,1.245-.44,1.807,1.807,0,0,1,1.245.44,1.406,1.406,0,0,1,.5,1.1,1.406,1.406,0,0,1-.5,1.1A1.807,1.807,0,0,1-290.077-120.015Zm1.4,1.237v10.38h-2.835v-10.38Zm9.01-.15a4.515,4.515,0,0,1,3.24,1.171,4.289,4.289,0,0,1,1.235,3.269v6.089h-2.835v-5.733a2.566,2.566,0,0,0-.668-1.9,2.469,2.469,0,0,0-1.822-.665,2.532,2.532,0,0,0-1.853.665,2.544,2.544,0,0,0-.678,1.9v5.733h-2.835v-10.38h2.835v1.293a3.883,3.883,0,0,1,1.448-1.059A4.785,4.785,0,0,1-279.67-118.929Zm8.605-1.087a1.807,1.807,0,0,1-1.245-.44,1.406,1.406,0,0,1-.5-1.1,1.406,1.406,0,0,1,.5-1.1,1.807,1.807,0,0,1,1.245-.44,1.807,1.807,0,0,1,1.245.44,1.406,1.406,0,0,1,.5,1.1,1.406,1.406,0,0,1-.5,1.1A1.807,1.807,0,0,1-271.065-120.015Zm1.4,1.237v10.38H-272.5v-10.38Zm9.01-.15a4.515,4.515,0,0,1,3.24,1.171,4.289,4.289,0,0,1,1.235,3.269v6.089h-2.835v-5.733a2.566,2.566,0,0,0-.668-1.9,2.469,2.469,0,0,0-1.822-.665,2.532,2.532,0,0,0-1.853.665,2.544,2.544,0,0,0-.678,1.9v5.733h-2.835v-10.38h2.835v1.293a3.882,3.882,0,0,1,1.448-1.059A4.785,4.785,0,0,1-260.658-118.929Zm11.561-.019a5.023,5.023,0,0,1,2.207.459,3.992,3.992,0,0,1,1.5,1.19v-1.48h2.855v10.455a5.228,5.228,0,0,1-.628,2.576,4.484,4.484,0,0,1-1.883,1.8,6.413,6.413,0,0,1-3.037.665,6.871,6.871,0,0,1-3.918-1.03,3.769,3.769,0,0,1-1.731-2.81h2.814a1.97,1.97,0,0,0,.962,1.134,3.563,3.563,0,0,0,1.792.422,2.9,2.9,0,0,0,2-.684,2.628,2.628,0,0,0,.769-2.07v-1.611a4.222,4.222,0,0,1-1.508,1.218,4.8,4.8,0,0,1-2.2.487,5.111,5.111,0,0,1-2.592-.674,4.848,4.848,0,0,1-1.853-1.9,5.732,5.732,0,0,1-.678-2.82,5.64,5.64,0,0,1,.678-2.792,4.754,4.754,0,0,1,1.842-1.874A5.209,5.209,0,0,1-249.1-118.947Zm3.705,5.358a3.162,3.162,0,0,0-.4-1.639,2.748,2.748,0,0,0-1.093-1.049,3.106,3.106,0,0,0-1.478-.365,3.052,3.052,0,0,0-1.458.356,2.788,2.788,0,0,0-1.083,1.04,3.063,3.063,0,0,0-.415,1.621,3.163,3.163,0,0,0,.415,1.639,2.868,2.868,0,0,0,1.093,1.077,2.948,2.948,0,0,0,1.448.375,3.106,3.106,0,0,0,1.478-.365,2.748,2.748,0,0,0,1.093-1.049A3.161,3.161,0,0,0-245.391-113.589Z" transform="translate(5284.362 1897.562)" fill="#1383d9"/>
  </g>
</svg>
