<svg width="27" height="27" viewBox="0 0 27 27" fill="none" xmlns="http://www.w3.org/2000/svg">
<path fill-rule="evenodd" clip-rule="evenodd" d="M0 9C0 8.44772 0.447715 8 1 8H23C23.5523 8 24 8.44772 24 9C24 9.55228 23.5523 10 23 10H1C0.447715 10 0 9.55228 0 9Z" fill="#0D0E0E"/>
<path fill-rule="evenodd" clip-rule="evenodd" d="M12 0C12.5523 0 13 0.447715 13 1V5C13 5.55228 12.5523 6 12 6C11.4477 6 11 5.55228 11 5V1C11 0.447715 11.4477 0 12 0Z" fill="#0D0E0E"/>
<path fill-rule="evenodd" clip-rule="evenodd" d="M6 0C6.55228 0 7 0.447715 7 1V5C7 5.55228 6.55228 6 6 6C5.44772 6 5 5.55228 5 5V1C5 0.447715 5.44772 0 6 0Z" fill="#0D0E0E"/>
<path fill-rule="evenodd" clip-rule="evenodd" d="M18 0C18.5523 0 19 0.447715 19 1V5C19 5.55228 18.5523 6 18 6C17.4477 6 17 5.55228 17 5V1C17 0.447715 17.4477 0 18 0Z" fill="#0D0E0E"/>
<path fill-rule="evenodd" clip-rule="evenodd" d="M4 14C4 13.4477 4.44772 13 5 13H7C7.55228 13 8 13.4477 8 14C8 14.5523 7.55228 15 7 15H5C4.44772 15 4 14.5523 4 14Z" fill="#0D0E0E"/>
<path fill-rule="evenodd" clip-rule="evenodd" d="M10 14C10 13.4477 10.4477 13 11 13H13C13.5523 13 14 13.4477 14 14C14 14.5523 13.5523 15 13 15H11C10.4477 15 10 14.5523 10 14Z" fill="#0D0E0E"/>
<path fill-rule="evenodd" clip-rule="evenodd" d="M4 18C4 17.4477 4.44772 17 5 17H7C7.55228 17 8 17.4477 8 18C8 18.5523 7.55228 19 7 19H5C4.44772 19 4 18.5523 4 18Z" fill="#0D0E0E"/>
<path fill-rule="evenodd" clip-rule="evenodd" d="M20 27C23.866 27 27 23.866 27 20C27 16.134 23.866 13 20 13C16.134 13 13 16.134 13 20C13 23.866 16.134 27 20 27ZM19.2543 20.7798V23.0341H20.7798V20.7798H23.0341V19.2543H20.7798V17H19.2543V19.2543H17V20.7798H19.2543Z" fill="#0D0E0E"/>
<path fill-rule="evenodd" clip-rule="evenodd" d="M2 6C2 4.89543 2.89543 4 4 4H20C21.1046 4 22 4.89543 22 6V15H24V6C24 3.79086 22.2091 2 20 2H4C1.79086 2 0 3.79086 0 6V20C0 22.2091 1.79086 24 4 24H15V22H4C2.89543 22 2 21.1046 2 20V6Z" fill="#0D0E0E"/>
</svg>
