<svg xmlns="http://www.w3.org/2000/svg" width="18" height="18" viewBox="0 0 18 18">
  <g id="vuesax_bold_empty-wallet" data-name="vuesax/bold/empty-wallet" transform="translate(-236 -188)">
    <g id="empty-wallet" transform="translate(236 188)">
      <path id="Vector" d="M0,0H18V18H0Z" fill="none" opacity="0"/>
      <path id="Vector-2" data-name="Vector" d="M9.263,1.425v2.85H8.138V1.425a.3.3,0,0,0-.413-.278L1.777,3.39a1.007,1.007,0,0,0-.652.952v.5A2.8,2.8,0,0,0,0,7.1V4.342a2.136,2.136,0,0,1,1.38-2L7.335.09a1.482,1.482,0,0,1,.5-.09A1.429,1.429,0,0,1,9.263,1.425Z" transform="translate(1.875 1.538)" fill="#5b7891"/>
      <path id="Vector-3" data-name="Vector" d="M2.253.375v.75a.374.374,0,0,1-.367.375H.791A.776.776,0,0,1,0,.818a.749.749,0,0,1,.218-.6A.713.713,0,0,1,.746,0H1.878A.376.376,0,0,1,2.253.375Z" transform="translate(13.872 10.5)" fill="#5b7891"/>
      <path id="Vector-4" data-name="Vector" d="M12.735,3.9H13.5a.752.752,0,0,0,.75-.75V2.82A2.826,2.826,0,0,0,11.43,0H2.82a2.78,2.78,0,0,0-1.7.57A2.8,2.8,0,0,0,0,2.82V7.867a2.826,2.826,0,0,0,2.82,2.82h8.61a2.826,2.826,0,0,0,2.82-2.82V7.725a.752.752,0,0,0-.75-.75h-.653a1.628,1.628,0,0,1-1.6-1.14A1.545,1.545,0,0,1,12.735,3.9Zm-4.11-.15H3.375a.563.563,0,0,1,0-1.125h5.25a.563.563,0,0,1,0,1.125Z" transform="translate(1.875 5.813)" fill="#5b7891"/>
    </g>
  </g>
</svg>
