<svg xmlns="http://www.w3.org/2000/svg" width="18" height="18" viewBox="0 0 18 18">
  <g id="vuesax_bold_document-upload" data-name="vuesax/bold/document-upload" transform="translate(-364 -188)">
    <g id="document-upload" transform="translate(364 188)">
      <path id="Subtraction_7" data-name="Subtraction 7" d="M10.065,14.991H4.174A3.952,3.952,0,0,1,0,10.816V4.175A3.952,3.952,0,0,1,4.174,0H7.352A.75.75,0,0,1,8.1.75V2.916a3.227,3.227,0,0,0,3.223,3.223H13.49a.75.75,0,0,1,.749.75v3.928A3.952,3.952,0,0,1,10.065,14.991ZM5.34,5.445a3.785,3.785,0,0,0,.008,7.57h.014a3.785,3.785,0,0,0-.016-7.57Zm.012,6.378a.285.285,0,0,1-.284-.284v-.22H4.931a1.147,1.147,0,0,1-1.124-1.166.284.284,0,0,1,.284-.283.287.287,0,0,1,.283.283.579.579,0,0,0,.556.6h.136V9.472l-.571-.2a.944.944,0,0,1-.693-1A1.037,1.037,0,0,1,4.821,7.216h.246V7a.284.284,0,1,1,.568,0v.219h.137A1.147,1.147,0,0,1,6.895,8.383a.284.284,0,1,1-.567,0,.579.579,0,0,0-.556-.6H5.635v1.28l.571.2a.942.942,0,0,1,.693,1,1.037,1.037,0,0,1-1.018,1.052H5.635v.22A.284.284,0,0,1,5.351,11.823Zm.287-2.15v1.079h.242a.469.469,0,0,0,.451-.485c0-.328-.117-.393-.311-.462ZM4.821,7.784a.47.47,0,0,0-.446.489c0,.328.117.393.311.462l.382.132V7.784Z" transform="translate(1.881 1.505)" fill="#5b7891"/>
      <path id="Vector" d="M2.068,5.111c.715.008,1.707.008,2.557.008a.474.474,0,0,0,.353-.8C3.9,3.223,1.956,1.26.842.147A.492.492,0,0,0,0,.477V3.1A2.05,2.05,0,0,0,2.068,5.111Z" transform="translate(10.99 1.516)" fill="#5b7891"/>
      <path id="Vector-2" data-name="Vector" d="M0,0H18V18H0Z" transform="translate(18 18) rotate(180)" fill="none" opacity="0"/>
    </g>
  </g>
</svg>
