<svg xmlns="http://www.w3.org/2000/svg" width="431" height="444" viewBox="0 0 431 444">
  <g id="Group_317" data-name="Group 317" transform="translate(-785 -206)">
    <circle id="Ellipse_2" data-name="Ellipse 2" cx="173" cy="173" r="173" transform="translate(870 206)" fill="#c2d1df" opacity="0.16"/>
    <circle id="Ellipse_3" data-name="Ellipse 3" cx="62" cy="62" r="62" transform="translate(785 526)" fill="#c2d1df" opacity="0.15"/>
    <g id="Group_310" data-name="Group 310" transform="translate(785.392 405.388)">
      <path id="Path_145" data-name="Path 145" d="M119.384,205.767a10.884,10.884,0,1,1,10.884-10.884A10.953,10.953,0,0,1,119.384,205.767Zm0-18.33a7.447,7.447,0,1,0,7.447,7.447A7.432,7.432,0,0,0,119.384,187.437Z" transform="translate(-108.5 -184)" fill="#306fdd"/>
    </g>
    <g id="Group_311" data-name="Group 311" transform="translate(1087.841 414.553)">
      <path id="Path_146" data-name="Path 146" d="M383.384,213.767a10.884,10.884,0,1,1,10.884-10.884A10.953,10.953,0,0,1,383.384,213.767Zm0-18.33a7.447,7.447,0,1,0,7.447,7.447A7.432,7.432,0,0,0,383.384,195.437Z" transform="translate(-372.5 -192)" fill="#306fdd"/>
    </g>
    <path id="Path_147" data-name="Path 147" d="M383.165,278.937a5.728,5.728,0,1,1-5.728,5.728,5.673,5.673,0,0,1,5.728-5.728m0-3.437a9.165,9.165,0,1,0,9.165,9.165,9.192,9.192,0,0,0-9.165-9.165Z" transform="translate(715.559 234.714)" fill="#d4dfe8"/>
    <path id="Path_148" data-name="Path 148" d="M266.228,147.437a2.291,2.291,0,1,1-2.291,2.291,2.3,2.3,0,0,1,2.291-2.291m0-3.437a5.728,5.728,0,1,0,5.728,5.728A5.673,5.673,0,0,0,266.228,144Z" transform="translate(699.029 215.562)" fill="#d4dfe8"/>
    <path id="Path_149" data-name="Path 149" d="M124.228,295.437a2.291,2.291,0,1,1-2.291,2.291,2.3,2.3,0,0,1,2.291-2.291m0-3.437a5.728,5.728,0,1,0,5.728,5.728A5.673,5.673,0,0,0,124.228,292Z" transform="translate(678.349 237.117)" fill="#d4dfe8"/>
    <path id="Path_150" data-name="Path 150" d="M370.681,192.874a2.836,2.836,0,0,1,2.864,2.864v134.04a2.836,2.836,0,0,1-2.864,2.864H158.738a2.836,2.836,0,0,1-2.864-2.864V195.738a2.836,2.836,0,0,1,2.864-2.864H370.681m0-6.874H158.738A9.73,9.73,0,0,0,149,195.738v134.04a9.73,9.73,0,0,0,9.738,9.738H370.681a9.73,9.73,0,0,0,9.738-9.738V195.738A9.73,9.73,0,0,0,370.681,186Z" transform="translate(682.791 221.679)" fill="#d4dfe8" stroke="#d4dfe8" stroke-width="4"/>
    <path id="Path_151" data-name="Path 151" d="M396.4,336.874a22.973,22.973,0,0,1-21.882,16.039H160.287A23.081,23.081,0,0,1,138.4,336.874h258m7.9-6.874H130.5a29.727,29.727,0,0,0,29.787,29.787H374.521A29.727,29.727,0,0,0,404.308,330Z" transform="translate(680.096 245.651)" fill="#d4dfe8" stroke="#d4dfe8" stroke-width="4"/>
    <path id="Path_152" data-name="Path 152" d="M280.515,226.437a3.033,3.033,0,0,1,2.979,2.979v57.4l-6.53-5.27-2.177-1.718-2.177,1.718-10.654,8.249-6.416-5.385-2.062-1.718-2.177,1.489-8.249,5.957-9.509-4.812-1.6-.8-1.6.8-5.614,2.979V229.416a3.033,3.033,0,0,1,2.979-2.979h52.814m0-3.437h-52.7a6.405,6.405,0,0,0-6.416,6.416V294.03h0l10.654-5.5,11.456,5.728,9.967-7.1,8.592,7.1,12.831-9.967,12.144,9.853v-64.5a6.626,6.626,0,0,0-6.53-6.645Z" transform="translate(693.335 227.068)" fill="#306fdd"/>
    <g id="Group_312" data-name="Group 312" transform="translate(931.709 469.807)">
      <rect id="Rectangle_2" data-name="Rectangle 2" width="8.019" height="2.291" transform="translate(0 5.671) rotate(-45)" fill="#306fdd"/>
    </g>
    <g id="Group_313" data-name="Group 313" transform="translate(931.709 469.807)">
      <rect id="Rectangle_3" data-name="Rectangle 3" width="2.291" height="8.019" transform="translate(0 1.62) rotate(-45)" fill="#306fdd"/>
    </g>
    <g id="Group_314" data-name="Group 314" transform="translate(954.514 469.823)">
      <rect id="Rectangle_4" data-name="Rectangle 4" width="8.019" height="2.291" transform="translate(0 5.671) rotate(-45)" fill="#306fdd"/>
    </g>
    <g id="Group_315" data-name="Group 315" transform="translate(954.513 469.803)">
      <rect id="Rectangle_5" data-name="Rectangle 5" width="2.291" height="8.019" transform="translate(0 1.62) rotate(-45)" fill="#306fdd"/>
    </g>
    <g id="Group_316" data-name="Group 316" transform="translate(936.273 486.499)">
      <path id="Path_153" data-name="Path 153" d="M260.02,263.851a13.248,13.248,0,0,0-11.456-6.759,12.864,12.864,0,0,0-7.1,2.062l-1.26-1.948a15.446,15.446,0,0,1,8.363-2.406,15.1,15.1,0,0,1,13.4,7.9Z" transform="translate(-240.2 -254.8)" fill="#306fdd" stroke="#306fdd" stroke-width="1"/>
    </g>
  </g>
</svg>
