<svg xmlns="http://www.w3.org/2000/svg" width="12.142" height="12.142" viewBox="0 0 12.142 12.142">
  <g id="layer1" transform="translate(6.736 -289.914)">
    <path id="path823" d="M6.338.264a6.071,6.071,0,1,0,6.068,6.07A6.082,6.082,0,0,0,6.338.264Zm-.009,3.3a.552.552,0,0,1,.558.563V5.783H8.541a.552.552,0,1,1,0,1.1H6.887V8.541a.552.552,0,0,1-1.1,0V6.888H4.13a.553.553,0,0,1-.057-1.1h1.71V4.13a.552.552,0,0,1,.546-.563Z" transform="translate(-7 289.65)" fill="#fff" fill-rule="evenodd"/>
  </g>
</svg>
