<?xml version="1.0" encoding="utf-8"?>
<!-- Generator: Adobe Illustrator 16.0.0, SVG Export Plug-In . SVG Version: 6.00 Build 0)  -->
<!DOCTYPE svg PUBLIC "-//W3C//DTD SVG 1.1//EN" "http://www.w3.org/Graphics/SVG/1.1/DTD/svg11.dtd">
<svg version="1.1" id="Layer_1" xmlns="http://www.w3.org/2000/svg" xmlns:xlink="http://www.w3.org/1999/xlink" x="0px" y="0px"
	 width="100px" height="100px" viewBox="0 0 100 100" enable-background="new 0 0 100 100" xml:space="preserve">
<g>
	<path d="M78.297,55.442c-11.373,0-20.594,9.221-20.594,20.595c0,11.372,9.221,20.592,20.594,20.592s20.594-9.22,20.594-20.592
		C98.891,64.663,89.67,55.442,78.297,55.442z M81.5,78.784V92.97h-6.406V79.127l-11.67-13.844H93.17L81.5,78.784z"/>
	<path d="M37.454,35.261c0-15.069,12.216-27.286,27.286-27.285c15.068,0,27.287,12.217,27.285,27.285
		c0,6.028-1.959,11.597-5.27,16.111c2.232,0.744,4.334,1.77,6.262,3.041c3.705-5.462,5.873-12.054,5.873-19.152
		c0-18.86-15.289-34.149-34.15-34.15c-18.861,0-34.15,15.289-34.15,34.15c0,8.231,2.914,15.783,7.765,21.68l-5.559,5.56
		l-4.018-4.019L1.11,86.149l12.741,12.74l27.667-27.666l-4.017-4.017l5.56-5.561c2.998,2.466,6.426,4.429,10.15,5.765
		c0.822-2.199,1.926-4.259,3.268-6.141C45.448,57.77,37.454,47.45,37.454,35.261z"/>
</g>
</svg>
