<svg width="16" height="16" viewBox="0 0 16 16" fill="none" xmlns="http://www.w3.org/2000/svg">
<g clip-path="url(#clip0_1_2)">
<path d="M14.2397 8.11633C14.265 8.09096 14.2852 8.06081 14.2988 8.02763C14.3125 7.99445 14.3195 7.95889 14.3193 7.923C14.3192 7.88711 14.312 7.8516 14.2981 7.81852C14.2841 7.78544 14.2638 7.75544 14.2383 7.73025C14.1862 7.67929 14.1162 7.6508 14.0433 7.65093C13.9704 7.65107 13.9005 7.6798 13.8486 7.73096L7.92379 13.6558L1.99824 7.73025C1.94641 7.67879 1.8764 7.64979 1.80336 7.64953C1.73032 7.64926 1.66011 7.67775 1.60791 7.72884C1.5574 7.7801 1.52926 7.84929 1.52966 7.92126C1.53006 7.99322 1.55896 8.0621 1.61003 8.1128L7.73004 14.2328C7.78156 14.2843 7.85126 14.3136 7.92413 14.3143C7.997 14.3149 8.06721 14.2869 8.11966 14.2363L14.2397 8.11633Z" fill="#A9A9A9" stroke="#A9A9A9" stroke-width="2"/>
</g>
<defs>
<clipPath id="clip0_1_2">
<rect width="15.847" height="15.847" fill="white"/>
</clipPath>
</defs>
</svg>
