<?xml version="1.0" encoding="utf-8"?>
<!-- Generator: Adobe Illustrator 16.0.0, SVG Export Plug-In . SVG Version: 6.00 Build 0)  -->
<!DOCTYPE svg PUBLIC "-//W3C//DTD SVG 1.1//EN" "http://www.w3.org/Graphics/SVG/1.1/DTD/svg11.dtd">
<svg version="1.1" id="Layer_1" xmlns="http://www.w3.org/2000/svg" xmlns:xlink="http://www.w3.org/1999/xlink" x="0px" y="0px"
	 width="13.121px" height="13.121px" viewBox="0 0 13.121 13.121" enable-background="new 0 0 13.121 13.121" xml:space="preserve">
<g>
	<g>
		<polygon fill="#020000" points="2.666,5.758 1.768,4.819 6.803,-0.01 11.377,4.843 10.432,5.734 6.756,1.837 		"/>
	</g>
	<g>
		<polygon fill="#020000" points="6.318,13.131 1.744,8.279 2.69,7.387 6.365,11.284 10.453,7.364 11.354,8.302 		"/>
	</g>
</g>
<path fill="#FB1E1F" d="M6.562,0C4.809,0,3.16,0.683,1.921,1.922C0.683,3.161,0,4.808,0,6.561c0,3.617,2.943,6.56,6.562,6.56
	c3.618,0,6.56-2.941,6.56-6.56C13.122,2.943,10.18,0,6.562,0z M1,6.561c0-1.323,0.48-2.56,1.322-3.56l7.783,7.841
	c-0.963,0.799-2.198,1.28-3.543,1.28C3.495,12.122,1,9.627,1,6.561z M10.814,10.136L3.033,2.296C4.028,1.471,5.252,1,6.562,1
	c3.065,0,5.56,2.494,5.56,5.561C12.122,7.922,11.629,9.169,10.814,10.136z"/>
</svg>
