<svg xmlns="http://www.w3.org/2000/svg" width="32.936" height="20.007" viewBox="0 0 32.936 20.007">
  <g id="Group_542" data-name="Group 542" transform="translate(-2128.15 3863.228)">
    <path id="Union_2" data-name="Union 2" d="M139.4-1498.846a1.683,1.683,0,0,1,0-2.377l2.013-2.012H128.681a1.564,1.564,0,0,1-1.563-1.563,1.564,1.564,0,0,1,1.563-1.563H141.4l-2-2a1.671,1.671,0,0,1,0-2.376,1.681,1.681,0,0,1,2.377,0l4.753,4.753a1.712,1.712,0,0,1,.5,1.193,1.7,1.7,0,0,1-.494,1.188l-4.757,4.757a1.676,1.676,0,0,1-1.188.491A1.676,1.676,0,0,1,139.4-1498.846Z" transform="translate(2014.059 -2344.866)" fill="#1383d9"/>
    <path id="Union_1" data-name="Union 1" d="M133.063-1498.846l-4.753-4.754a1.707,1.707,0,0,1-.5-1.192,1.7,1.7,0,0,1,.493-1.189l4.757-4.756a1.682,1.682,0,0,1,2.376,0,1.68,1.68,0,0,1,0,2.376l-2.012,2.012h12.731a1.564,1.564,0,0,1,1.563,1.563,1.563,1.563,0,0,1-1.563,1.563H133.44l2,2a1.672,1.672,0,0,1,0,2.377,1.675,1.675,0,0,1-1.188.491A1.675,1.675,0,0,1,133.063-1498.846Z" transform="translate(2000.337 -2352)" fill="#a8d6fb"/>
  </g>
</svg>
