<svg xmlns="http://www.w3.org/2000/svg" width="10.821" height="10.553" viewBox="0 0 10.821 10.553">
  <g id="ascending-sort-svgrepo-com_2_" data-name="ascending-sort-svgrepo-com (2)" transform="translate(0 -3.736)">
    <path id="Path_3" data-name="Path 3" d="M5.725,4.454V4.1a.359.359,0,0,0-.359-.359H.359A.359.359,0,0,0,0,4.1v.359a.359.359,0,0,0,.359.359H5.366A.359.359,0,0,0,5.725,4.454Z" transform="translate(0 0)" fill="#8b98b9"/>
    <path id="Path_4" data-name="Path 4" d="M4.691,66.736H.359A.359.359,0,0,0,0,67.1v.359a.359.359,0,0,0,.359.359H4.691a.359.359,0,0,0,.359-.359V67.1A.359.359,0,0,0,4.691,66.736Z" transform="translate(0 -60.737)" fill="#8b98b9"/>
    <path id="Path_5" data-name="Path 5" d="M4.017,129.736H.359A.359.359,0,0,0,0,130.1v.359a.359.359,0,0,0,.359.359H4.017a.359.359,0,0,0,.359-.359V130.1A.359.359,0,0,0,4.017,129.736Z" transform="translate(0 -121.474)" fill="#8b98b9"/>
    <path id="Path_6" data-name="Path 6" d="M3.342,199.736H.359A.359.359,0,0,0,0,200.1v.359a.359.359,0,0,0,.359.359H3.342a.359.359,0,0,0,.359-.359V200.1A.359.359,0,0,0,3.342,199.736Z" transform="translate(0 -188.959)" fill="#8b98b9"/>
    <path id="Path_7" data-name="Path 7" d="M2.667,262.736H.359A.359.359,0,0,0,0,263.1v.359a.359.359,0,0,0,.359.359H2.667a.359.359,0,0,0,.359-.359V263.1A.359.359,0,0,0,2.667,262.736Z" transform="translate(0 -249.696)" fill="#8b98b9"/>
    <path id="Path_8" data-name="Path 8" d="M159.326,16.213l-.254-.254a.359.359,0,0,0-.508,0l-1.236,1.236V9.1a.359.359,0,0,0-.359-.359h-.359a.359.359,0,0,0-.359.359v8.1l-1.236-1.236a.359.359,0,0,0-.508,0l-.254.254a.359.359,0,0,0,0,.508L156.536,19a.359.359,0,0,0,.508,0l2.282-2.282A.359.359,0,0,0,159.326,16.213Z" transform="translate(-148.61 -4.82)" fill="#8b98b9"/>
  </g>
</svg>
