<svg xmlns="http://www.w3.org/2000/svg" width="41.127" height="41.126" viewBox="0 0 41.127 41.126">
  <g id="Group_981" data-name="Group 981" transform="translate(19017 -1566)">
    <g id="Group_979" data-name="Group 979" transform="translate(0 48)">
      <path id="Vector" d="M0,0H41.126V41.126H0Z" transform="translate(-19017 1518)" fill="none"/>
      <g id="Group_980" data-name="Group 980" transform="translate(577.929 -969)">
        <g id="Group_979-2" data-name="Group 979" transform="translate(-19589.496 2494)">
          <path id="Subtraction_15" data-name="Subtraction 15" d="M14.183,25H10.817c-.088-.246-.162-.467-.244-.711a4.186,4.186,0,0,0-1.358-2.374l1.715-1.761a7.81,7.81,0,1,0-5.948-5.525L3.306,16.178c-.478-1.04-1.321-1.323-2.6-1.751l-.043-.014C.453,14.34.233,14.266,0,14.183V10.817c.248-.088.488-.169.712-.244,1.309-.441,2.173-.732,2.642-1.861S3.417,6.766,2.8,5.53c-.1-.211-.216-.437-.332-.679L4.851,2.471c.242.115.474.23.673.329a5.253,5.253,0,0,0,2.227.757,2.477,2.477,0,0,0,.962-.2c1.13-.469,1.42-1.333,1.86-2.64l.016-.047c.072-.212.146-.432.229-.667h3.367c.08.225.152.437.22.642l.022.067c.44,1.311.731,2.177,1.86,2.645a2.5,2.5,0,0,0,.962.2A5.233,5.233,0,0,0,19.474,2.8c.261-.131.469-.232.675-.33l2.38,2.379c-.118.247-.232.478-.33.676-.615,1.238-1.021,2.056-.552,3.186s1.331,1.42,2.641,1.86l.071.024c.2.069.417.14.642.22v3.367c-.235.084-.456.158-.669.23l-.039.013c-1.312.44-2.179.731-2.647,1.862s-.062,1.953.556,3.193c.1.2.212.425.327.667l-2.38,2.381c-.223-.106-.429-.208-.627-.306l-.053-.026-.006,0a5.227,5.227,0,0,0-2.213-.753,2.45,2.45,0,0,0-.952.2c-1.138.474-1.429,1.34-1.869,2.65l-.033.1c-.066.194-.134.395-.21.608Z" transform="translate(5.261)" fill="#1383d9"/>
          <path id="Path_809" data-name="Path 809" d="M17.8,6.194a4.029,4.029,0,0,0,7.051-.339h-2.7a1.761,1.761,0,0,1-1.732-1.8,1.769,1.769,0,0,1,1.728-1.8h2.7A4.025,4.025,0,0,0,17.8,1.918L5.717,1.555a3.264,3.264,0,1,0,0,4.272L17.8,6.19ZM2.406,5.184l-.861-1.49.861-1.49,1.718,0,.861,1.49-.861,1.49H2.406Z" transform="translate(0 24.622) rotate(-45)" fill="#a8d6fb"/>
        </g>
      </g>
    </g>
  </g>
</svg>
