<svg xmlns="http://www.w3.org/2000/svg" width="14.698" height="15.513" viewBox="0 0 14.698 15.513">
  <g id="Layer_2" data-name="Layer 2" transform="translate(-2.987 -1.999)">
    <path id="attach" d="M8.133,17.511a5.086,5.086,0,0,1-3.617-1.535,4.9,4.9,0,0,1-.18-6.931l6.009-6.066A3.355,3.355,0,0,1,12.795,2a3.657,3.657,0,0,1,2.6,1.1,3.56,3.56,0,0,1,.122,5L9.48,14.172A2.074,2.074,0,0,1,8,14.785a2.221,2.221,0,0,1-1.592-.669,2.188,2.188,0,0,1-.065-3.078l5.576-5.6a.816.816,0,0,1,1.118,1.151l-5.576,5.6a.555.555,0,0,0,.065.776.637.637,0,0,0,.433.188.457.457,0,0,0,.327-.131l6.033-6.066a1.927,1.927,0,0,0-.122-2.7,1.943,1.943,0,0,0-2.67-.122L5.5,10.164a3.266,3.266,0,0,0,.18,4.629,3.445,3.445,0,0,0,2.449,1.053,3,3,0,0,0,2.131-.865l6.033-6.066a.817.817,0,0,1,1.159,1.151l-6.033,6.066a4.613,4.613,0,0,1-3.282,1.38Z" transform="translate(0 0)" fill="#007bff"/>
  </g>
</svg>
