<svg id="blue-delete-10435" xmlns="http://www.w3.org/2000/svg" width="10.495" height="12.654" viewBox="0 0 10.495 12.654">
  <path id="Path_164" data-name="Path 164" d="M45.614,50.6h-6.7a1.083,1.083,0,0,1-1.082-1.082V40.5a.562.562,0,0,1,.562-.562h7.744a.562.562,0,0,1,.562.562v9.011A1.083,1.083,0,0,1,45.614,50.6Zm-6.662-1.125h6.619V41.066H38.953Z" transform="translate(-37.015 -37.943)" fill="#1f65c3"/>
  <path id="Path_165" data-name="Path 165" d="M31.51,41.063H22.14a.562.562,0,1,1,0-1.125h9.37a.562.562,0,1,1,0,1.125Z" transform="translate(-21.578 -37.94)" fill="#1f65c3"/>
  <path id="Path_166" data-name="Path 166" d="M83.366,3.123h-3.6a.562.562,0,0,1-.562-.562V1.082A1.083,1.083,0,0,1,80.282,0h2.564a1.083,1.083,0,0,1,1.082,1.082V2.561A.562.562,0,0,1,83.366,3.123ZM80.325,2H82.8V1.125H80.325Z" transform="translate(-76.317)" fill="#1f65c3"/>
  <path id="Path_167" data-name="Path 167" d="M143.265,90.455a.562.562,0,0,1-.562-.562v-5.1a.562.562,0,0,1,1.125,0v5.1A.562.562,0,0,1,143.265,90.455Z" transform="translate(-136.643 -80.018)" fill="#1f65c3"/>
  <path id="Path_168" data-name="Path 168" d="M88.279,90.455a.562.562,0,0,1-.562-.562v-5.1a.562.562,0,0,1,1.125,0v5.1A.562.562,0,0,1,88.279,90.455Z" transform="translate(-84.408 -80.018)" fill="#1f65c3"/>
</svg>
