<svg id="Icon_ionic-ios-add-circle-outline" data-name="Icon ionic-ios-add-circle-outline" xmlns="http://www.w3.org/2000/svg" width="15.277" height="15.277" viewBox="0 0 15.277 15.277">
  <path id="Path_68" data-name="Path 68" d="M17.746,13.835H15.01V11.1a.588.588,0,0,0-1.175,0v2.736H11.1a.563.563,0,0,0-.588.588.569.569,0,0,0,.588.588h2.736v2.736a.569.569,0,0,0,.588.588.585.585,0,0,0,.588-.588V15.01h2.736a.588.588,0,1,0,0-1.175Z" transform="translate(-6.784 -6.784)" fill="#3e8cf5"/>
  <path id="Path_69" data-name="Path 69" d="M11.014,4.4A6.608,6.608,0,1,1,6.339,6.339,6.567,6.567,0,0,1,11.014,4.4m0-1.028a7.639,7.639,0,1,0,7.639,7.639,7.638,7.638,0,0,0-7.639-7.639Z" transform="translate(-3.375 -3.375)" fill="#3e8cf5"/>
</svg>
