<svg xmlns="http://www.w3.org/2000/svg" xmlns:xlink="http://www.w3.org/1999/xlink" width="257.343" height="243.52" viewBox="0 0 257.343 243.52">
  <defs>
    <linearGradient id="linear-gradient" y1="0.5" x2="1" y2="0.5" gradientUnits="objectBoundingBox">
      <stop offset="0" stop-color="#1383d9"/>
      <stop offset="1" stop-color="#3d6ceb"/>
    </linearGradient>
    <linearGradient id="linear-gradient-2" y1="0.5" x2="1" y2="0.5" gradientUnits="objectBoundingBox">
      <stop offset="0" stop-color="#40d5e6"/>
      <stop offset="1" stop-color="#57f"/>
    </linearGradient>
    <linearGradient id="linear-gradient-4" x1="0" y1="0.5" x2="1" y2="0.5" xlink:href="#linear-gradient-2"/>
    <linearGradient id="linear-gradient-6" y1="0.5" x2="1" y2="0.5" gradientUnits="objectBoundingBox">
      <stop offset="0" stop-color="#1383d9"/>
      <stop offset="1" stop-color="#4134f1"/>
    </linearGradient>
    <linearGradient id="linear-gradient-7" y1="0.5" x2="1" y2="0.5" gradientUnits="objectBoundingBox">
      <stop offset="0" stop-color="#3c32c9"/>
      <stop offset="1" stop-color="#1383d9"/>
    </linearGradient>
    <linearGradient id="linear-gradient-8" x1="0.5" y1="0.155" x2="0.5" y2="1.196" gradientUnits="objectBoundingBox">
      <stop offset="0" stop-color="#d3dae0"/>
      <stop offset="1" stop-color="#fff"/>
    </linearGradient>
  </defs>
  <g id="client_02" data-name="client 02" transform="translate(-435.624 -144.074)">
    <g id="Group_65" data-name="Group 65" transform="translate(447.391 246.685)">
      <g id="Group_57" data-name="Group 57" transform="translate(0.348 3.673)">
        <path id="Path_22" data-name="Path 22" d="M694.388,929.257a35.551,35.551,0,0,1-18.046-5.375c-4.228-2.811-9.711-3.795-13.566-4.125a45.057,45.057,0,0,0-7.431-.043l-.026-.266a45.384,45.384,0,0,1,7.48.043c3.886.333,9.416,1.327,13.691,4.169a35.29,35.29,0,0,0,17.895,5.33Z" transform="translate(-655.319 -919.318)" fill="#3f6480"/>
      </g>
      <g id="Group_61" data-name="Group 61" transform="translate(0)">
        <g id="Group_60" data-name="Group 60">
          <g id="Group_59" data-name="Group 59">
            <g id="Group_58" data-name="Group 58">
              <path id="Path_23" data-name="Path 23" d="M695.26,907.717c-2.818,3.183-14.789,5.149-21.893,1.437a65.121,65.121,0,0,1-9.788-6.566c-3.581-2.758-6.674-5.14-10.467-6l-.332-.075.294-.171a34.213,34.213,0,0,1,13.549-3.745,32.682,32.682,0,0,1,13.548,1.929,39.546,39.546,0,0,1,15.046,10.326l-.1.091.1-.091a1.892,1.892,0,0,1,.2,2.669C695.368,907.589,695.316,907.654,695.26,907.717Zm-41.749-11.3c3.7.93,6.732,3.268,10.231,5.963a64.881,64.881,0,0,0,9.749,6.541c3.209,1.677,7.819,2.336,12.649,1.809,4.089-.446,7.617-1.715,8.922-3.189q.077-.086.143-.173a1.632,1.632,0,0,0-.183-2.325c-10.289-10.936-21.106-12.655-28.369-12.172A34.6,34.6,0,0,0,653.511,896.413Z" transform="translate(-652.779 -892.526)" fill="#3f6480"/>
            </g>
          </g>
        </g>
      </g>
      <g id="Group_62" data-name="Group 62" transform="translate(10.058 0.579)">
        <rect id="Rectangle_98" data-name="Rectangle 98" width="0.267" height="4.936" transform="matrix(0.827, -0.562, 0.562, 0.827, 0, 0.15)" fill="#3f6480"/>
      </g>
      <g id="Group_63" data-name="Group 63" transform="translate(11.204 5.553)">
        <rect id="Rectangle_99" data-name="Rectangle 99" width="6.805" height="0.267" transform="matrix(0.735, -0.678, 0.678, 0.735, 0, 4.616)" fill="#3f6480"/>
      </g>
      <g id="Group_64" data-name="Group 64" transform="translate(20.744 0.466)">
        <rect id="Rectangle_100" data-name="Rectangle 100" width="0.267" height="7.667" transform="matrix(0.997, -0.075, 0.075, 0.997, 0, 0.02)" fill="#3f6480"/>
      </g>
    </g>
    <g id="Group_74" data-name="Group 74" transform="translate(446.076 209.561)">
      <g id="Group_66" data-name="Group 66" transform="translate(0.099 0.577)">
        <path id="Path_24" data-name="Path 24" d="M683.244,665.106a35.317,35.317,0,0,1-7.333-3.963,42.091,42.091,0,0,1-13-14.266,59.658,59.658,0,0,0-12.789-16.321,30.351,30.351,0,0,0-6.213-4.374l.108-.233a30.57,30.57,0,0,1,6.264,4.4,59.9,59.9,0,0,1,12.855,16.4,41.828,41.828,0,0,0,12.918,14.178,35.035,35.035,0,0,0,7.273,3.933Z" transform="translate(-643.912 -625.949)" fill="#3f6480"/>
      </g>
      <g id="Group_70" data-name="Group 70" transform="translate(0 0)">
        <g id="Group_69" data-name="Group 69">
          <g id="Group_68" data-name="Group 68">
            <g id="Group_67" data-name="Group 67">
              <path id="Path_25" data-name="Path 25" d="M692.416,660.828l-.724.133a34.154,34.154,0,0,1-6.048.365,43.671,43.671,0,0,1-14.107-2.6,39.513,39.513,0,0,1-16.155-11.115c-5.588-6.343-9.681-14.8-12.165-25.145l-.028-.117.114-.036a20.029,20.029,0,0,1,9.718.024,23.063,23.063,0,0,1,9,4.468,35.076,35.076,0,0,1,8.968,11.36c5.661,10.819,11,16.377,14.48,19.134,3.756,2.975,6.2,3.407,6.221,3.412ZM643.5,622.522c5.615,23.225,18.385,32.372,28.119,35.955a43.416,43.416,0,0,0,14.023,2.591,37.347,37.347,0,0,0,5.392-.269,18.611,18.611,0,0,1-5.719-3.3c-3.5-2.773-8.866-8.357-14.548-19.216-5.649-10.8-12.8-14.5-17.8-15.7A20.044,20.044,0,0,0,643.5,622.522Z" transform="translate(-643.19 -621.739)" fill="#3f6480"/>
            </g>
          </g>
        </g>
      </g>
      <g id="Group_71" data-name="Group 71" transform="translate(10.63 23.672)">
        <rect id="Rectangle_101" data-name="Rectangle 101" width="0.257" height="10.274" transform="matrix(0.044, -0.999, 0.999, 0.044, 0, 0.256)" fill="#3f6480"/>
      </g>
      <g id="Group_72" data-name="Group 72" transform="translate(17.506 4.317)">
        <rect id="Rectangle_102" data-name="Rectangle 102" width="0.257" height="14.416" transform="translate(0 0) rotate(-0.063)" fill="#3f6480"/>
      </g>
      <g id="Group_73" data-name="Group 73" transform="translate(2.738 9.177)">
        <rect id="Rectangle_103" data-name="Rectangle 103" width="0.257" height="8.323" transform="matrix(0.052, -0.999, 0.999, 0.052, 0, 0.256)" fill="#3f6480"/>
      </g>
    </g>
    <g id="Group_81" data-name="Group 81" transform="translate(644.637 179.924)">
      <g id="Group_79" data-name="Group 79" transform="translate(7.32 10.1)">
        <g id="Group_78" data-name="Group 78">
          <g id="Group_77" data-name="Group 77">
            <g id="Group_76" data-name="Group 76">
              <g id="Group_75" data-name="Group 75">
                <path id="Path_26" data-name="Path 26" d="M2148.95,487.286l-3.887-6.365a1.107,1.107,0,1,1,1.89-1.154l2.749,4.5,7.308-4.325a1.107,1.107,0,0,1,1.128,1.906Z" transform="translate(-2144.901 -479.237)" fill="#78c2ff"/>
              </g>
            </g>
          </g>
        </g>
      </g>
      <g id="Group_80" data-name="Group 80" transform="translate(0 0)">
        <path id="Path_27" data-name="Path 27" d="M2105.488,433.529a13.98,13.98,0,1,1,13.98-13.98A14,14,0,0,1,2105.488,433.529Zm0-25.963a11.983,11.983,0,1,0,11.983,11.983A12,12,0,0,0,2105.488,407.566Z" transform="translate(-2091.507 -405.569)" fill="#78c2ff"/>
      </g>
    </g>
    <g id="Group_88" data-name="Group 88" transform="translate(605.686 166.296)">
      <g id="Group_86" data-name="Group 86" transform="translate(4.523 6.242)">
        <g id="Group_85" data-name="Group 85">
          <g id="Group_84" data-name="Group 84">
            <g id="Group_83" data-name="Group 83">
              <g id="Group_82" data-name="Group 82">
                <path id="Path_28" data-name="Path 28" d="M1842.888,356.661l-2.4-3.933a.684.684,0,1,1,1.168-.713l1.7,2.781,4.516-2.673a.684.684,0,1,1,.7,1.178Z" transform="translate(-1840.385 -351.687)" fill="#78c2ff"/>
              </g>
            </g>
          </g>
        </g>
      </g>
      <g id="Group_87" data-name="Group 87">
        <path id="Path_29" data-name="Path 29" d="M1816.033,323.44a8.639,8.639,0,1,1,8.639-8.639A8.649,8.649,0,0,1,1816.033,323.44Zm0-16.045a7.405,7.405,0,1,0,7.405,7.405A7.414,7.414,0,0,0,1816.033,307.4Z" transform="translate(-1807.393 -306.161)" fill="#78c2ff"/>
      </g>
    </g>
    <g id="Group_95" data-name="Group 95" transform="translate(557.507 145.789)">
      <g id="Group_93" data-name="Group 93" transform="translate(6.94 9.574)">
        <g id="Group_92" data-name="Group 92">
          <g id="Group_91" data-name="Group 91">
            <g id="Group_90" data-name="Group 90">
              <g id="Group_89" data-name="Group 89">
                <path id="Path_30" data-name="Path 30" d="M1510.436,234.05l-3.685-6.033a1.05,1.05,0,0,1,1.792-1.094l2.606,4.267,6.928-4.1a1.05,1.05,0,1,1,1.069,1.807Z" transform="translate(-1506.597 -226.419)" fill="#78c2ff"/>
              </g>
            </g>
          </g>
        </g>
      </g>
      <g id="Group_94" data-name="Group 94" transform="translate(0 0)">
        <path id="Path_31" data-name="Path 31" d="M1469.226,183.09a13.253,13.253,0,1,1,13.253-13.253A13.268,13.268,0,0,1,1469.226,183.09Zm0-24.612a11.36,11.36,0,1,0,11.359,11.359A11.372,11.372,0,0,0,1469.226,158.477Z" transform="translate(-1455.973 -156.584)" fill="#78c2ff"/>
      </g>
    </g>
    <g id="Group_102" data-name="Group 102" transform="translate(522.185 166.088)">
      <g id="Group_100" data-name="Group 100" transform="translate(4.586 6.326)">
        <g id="Group_99" data-name="Group 99">
          <g id="Group_98" data-name="Group 98">
            <g id="Group_97" data-name="Group 97">
              <g id="Group_96" data-name="Group 96">
                <path id="Path_32" data-name="Path 32" d="M1234.323,355.832l-2.435-3.987a.694.694,0,1,1,1.184-.723l1.722,2.819,4.578-2.709a.694.694,0,0,1,.707,1.194Z" transform="translate(-1231.786 -350.79)" fill="#78c2ff"/>
              </g>
            </g>
          </g>
        </g>
      </g>
      <g id="Group_101" data-name="Group 101" transform="translate(0 0)">
        <path id="Path_33" data-name="Path 33" d="M1207.092,322.159a8.757,8.757,0,1,1,8.757-8.757A8.767,8.767,0,0,1,1207.092,322.159Zm0-16.263a7.506,7.506,0,1,0,7.506,7.506A7.515,7.515,0,0,0,1207.092,305.9Z" transform="translate(-1198.335 -304.645)" fill="#78c2ff"/>
      </g>
    </g>
    <g id="Group_109" data-name="Group 109" transform="translate(486.181 144.074)">
      <g id="Group_107" data-name="Group 107" transform="translate(5.741 7.92)">
        <g id="Group_106" data-name="Group 106">
          <g id="Group_105" data-name="Group 105">
            <g id="Group_104" data-name="Group 104">
              <g id="Group_103" data-name="Group 103">
                <path id="Path_34" data-name="Path 34" d="M980.772,208.152l-3.048-4.991a.868.868,0,1,1,1.482-.905l2.156,3.529,5.73-3.392a.868.868,0,1,1,.885,1.495Z" transform="translate(-977.596 -201.84)" fill="#78c2ff"/>
              </g>
            </g>
          </g>
        </g>
      </g>
      <g id="Group_108" data-name="Group 108" transform="translate(0 0)">
        <path id="Path_35" data-name="Path 35" d="M946.681,166a10.962,10.962,0,1,1,10.962-10.962A10.975,10.975,0,0,1,946.681,166Zm0-20.359a9.4,9.4,0,1,0,9.4,9.4A9.407,9.407,0,0,0,946.681,145.64Z" transform="translate(-935.719 -144.074)" fill="#78c2ff"/>
      </g>
    </g>
    <g id="Group_116" data-name="Group 116" transform="translate(446.383 167.339)">
      <g id="Group_114" data-name="Group 114" transform="translate(6.364 8.78)">
        <g id="Group_113" data-name="Group 113">
          <g id="Group_112" data-name="Group 112">
            <g id="Group_111" data-name="Group 111">
              <g id="Group_110" data-name="Group 110">
                <path id="Path_36" data-name="Path 36" d="M695.365,384.81l-3.379-5.533a.963.963,0,0,1,1.643-1l2.39,3.913,6.353-3.76a.963.963,0,1,1,.981,1.657Z" transform="translate(-691.844 -377.812)" fill="#78c2ff"/>
              </g>
            </g>
          </g>
        </g>
      </g>
      <g id="Group_115" data-name="Group 115" transform="translate(0 0)">
        <path id="Path_37" data-name="Path 37" d="M657.579,338.077a12.154,12.154,0,1,1,12.154-12.154A12.167,12.167,0,0,1,657.579,338.077Zm0-22.571A10.417,10.417,0,1,0,668,325.923,10.429,10.429,0,0,0,657.579,315.506Z" transform="translate(-645.425 -313.77)" fill="#78c2ff"/>
      </g>
    </g>
    <g id="Group_123" data-name="Group 123" transform="translate(636.058 151.394)">
      <g id="Group_121" data-name="Group 121" transform="translate(3.619 4.993)">
        <g id="Group_120" data-name="Group 120">
          <g id="Group_119" data-name="Group 119">
            <g id="Group_118" data-name="Group 118">
              <g id="Group_117" data-name="Group 117">
                <path id="Path_38" data-name="Path 38" d="M2057.329,237.865l-1.922-3.146a.547.547,0,1,1,.934-.571l1.359,2.225,3.613-2.138a.547.547,0,1,1,.558.942Z" transform="translate(-2055.326 -233.887)" fill="#78c2ff"/>
              </g>
            </g>
          </g>
        </g>
      </g>
      <g id="Group_122" data-name="Group 122" transform="translate(0 0)">
        <path id="Path_39" data-name="Path 39" d="M2035.843,211.292a6.911,6.911,0,1,1,6.911-6.911A6.919,6.919,0,0,1,2035.843,211.292Zm0-12.834a5.924,5.924,0,1,0,5.924,5.923A5.93,5.93,0,0,0,2035.843,198.457Z" transform="translate(-2028.932 -197.47)" fill="#78c2ff"/>
      </g>
    </g>
    <g id="Group_124" data-name="Group 124" transform="translate(544.969 294.222)">
      <rect id="Rectangle_104" data-name="Rectangle 104" width="19.061" height="57.894" transform="translate(19.061 57.894) rotate(180)" fill="#97bfdf"/>
    </g>
    <g id="Group_125" data-name="Group 125" transform="translate(472.204 206)">
      <path id="Path_40" data-name="Path 40" d="M842.139,711.876H989.987a8.371,8.371,0,0,0,8.371-8.371V604.137a8.371,8.371,0,0,0-8.371-8.371H842.139a8.371,8.371,0,0,0-8.371,8.371V703.5A8.372,8.372,0,0,0,842.139,711.876Z" transform="translate(-833.768 -595.766)" fill="#a2cdef"/>
    </g>
    <g id="Group_126" data-name="Group 126" transform="translate(478.65 193.642)">
      <rect id="Rectangle_105" data-name="Rectangle 105" width="151.699" height="110.273" transform="translate(151.699 110.273) rotate(180)" fill="#fff"/>
    </g>
    <g id="Group_127" data-name="Group 127" transform="translate(478.65 193.642)">
      <path id="Path_41" data-name="Path 41" d="M880.786,518.945h151.7V505.626h-151.7Z" transform="translate(-880.786 -505.626)" fill="url(#linear-gradient)"/>
    </g>
    <g id="Group_128" data-name="Group 128" transform="translate(611.888 306.931)">
      <ellipse id="Ellipse_4" data-name="Ellipse 4" cx="6.243" cy="5.309" rx="6.243" ry="5.309" transform="translate(0 0)" fill="#ccc"/>
    </g>
    <rect id="Rectangle_106" data-name="Rectangle 106" width="85.752" height="4.37" transform="translate(511.624 349.931)" fill="#a2cdef"/>
    <path id="Path_42" data-name="Path 42" d="M946.828,540.88H928.81A1.809,1.809,0,0,1,927,539.071v-1.414a1.809,1.809,0,0,1,1.809-1.809h18.018a1.809,1.809,0,0,1,1.809,1.809v1.414A1.809,1.809,0,0,1,946.828,540.88Z" transform="translate(-442.015 -338.062)" fill="#f5f7ff"/>
    <rect id="Rectangle_107" data-name="Rectangle 107" width="79.423" height="2.73" transform="translate(489.764 253.368)" fill="#e6e6e6"/>
    <rect id="Rectangle_108" data-name="Rectangle 108" width="58.908" height="2.73" transform="translate(489.764 258.285)" fill="#e6e6e6"/>
    <rect id="Rectangle_109" data-name="Rectangle 109" width="37.352" height="2.73" transform="translate(489.764 268.969)" fill="#e6e6e6"/>
    <rect id="Rectangle_110" data-name="Rectangle 110" width="67.106" height="2.73" transform="translate(489.764 273.886)" fill="#e6e6e6"/>
    <rect id="Rectangle_111" data-name="Rectangle 111" width="47.75" height="2.73" transform="translate(489.764 285.635)" fill="#e6e6e6"/>
    <rect id="Rectangle_112" data-name="Rectangle 112" width="58.308" height="2.73" transform="translate(489.764 290.551)" fill="#e6e6e6"/>
    <rect id="Rectangle_113" data-name="Rectangle 113" width="1.996" height="7.647" transform="translate(485.888 253.368)" fill="#78c2ff"/>
    <rect id="Rectangle_114" data-name="Rectangle 114" width="1.996" height="7.647" transform="translate(485.888 268.969)" fill="#78c2ff"/>
    <rect id="Rectangle_115" data-name="Rectangle 115" width="1.996" height="7.647" transform="translate(485.888 285.635)" fill="#78c2ff"/>
    <g id="Group_133" data-name="Group 133" transform="translate(586.915 285.786)">
      <g id="Group_129" data-name="Group 129" transform="translate(0 0)">
        <path id="Path_43" data-name="Path 43" d="M1679.126,1188.668h-6.361a2.289,2.289,0,0,1-2.289-2.289v-6.361a2.289,2.289,0,0,1,2.289-2.289h6.361a2.289,2.289,0,0,1,2.289,2.289v6.361A2.288,2.288,0,0,1,1679.126,1188.668Z" transform="translate(-1670.476 -1177.729)" fill="#78c2ff"/>
      </g>
      <g id="Group_132" data-name="Group 132" transform="translate(2.172 3.06)">
        <g id="Group_131" data-name="Group 131">
          <g id="Group_130" data-name="Group 130">
            <path id="Path_44" data-name="Path 44" d="M1689.268,1204.868l-2.766-2.411a.545.545,0,0,1,.716-.821l1.956,1.7,2.789-3.111a.545.545,0,0,1,.811.727Z" transform="translate(-1686.316 -1200.049)" fill="#f3f3f3"/>
          </g>
        </g>
      </g>
    </g>
    <g id="Group_136" data-name="Group 136" transform="translate(586.909 269.115)">
      <g id="Group_135" data-name="Group 135" transform="translate(0 0)">
        <g id="Group_134" data-name="Group 134">
          <path id="Path_45" data-name="Path 45" d="M1678.893,1067.079h-5.963a2.5,2.5,0,0,1-2.493-2.493v-5.964a2.5,2.5,0,0,1,2.493-2.493h5.963a2.5,2.5,0,0,1,2.493,2.493v5.964A2.5,2.5,0,0,1,1678.893,1067.079Zm-5.962-10.256a1.8,1.8,0,0,0-1.8,1.8v5.964a1.8,1.8,0,0,0,1.8,1.8h5.963a1.8,1.8,0,0,0,1.8-1.8v-5.964a1.8,1.8,0,0,0-1.8-1.8Z" transform="translate(-1670.436 -1056.129)" fill="#78c2ff"/>
        </g>
      </g>
    </g>
    <g id="Group_139" data-name="Group 139" transform="translate(603.38 252.449)">
      <g id="Group_138" data-name="Group 138" transform="translate(0 0)">
        <g id="Group_137" data-name="Group 137">
          <path id="Path_46" data-name="Path 46" d="M1799.033,945.52h-5.963a2.5,2.5,0,0,1-2.493-2.493v-5.964a2.5,2.5,0,0,1,2.493-2.493h5.963a2.5,2.5,0,0,1,2.494,2.493v5.964A2.5,2.5,0,0,1,1799.033,945.52Zm-5.962-10.256a1.8,1.8,0,0,0-1.8,1.8v5.964a1.8,1.8,0,0,0,1.8,1.8h5.964a1.8,1.8,0,0,0,1.8-1.8v-5.964a1.8,1.8,0,0,0-1.8-1.8Z" transform="translate(-1790.576 -934.57)" fill="#78c2ff"/>
        </g>
      </g>
    </g>
    <g id="Group_142" data-name="Group 142" transform="translate(603.38 285.78)">
      <g id="Group_141" data-name="Group 141" transform="translate(0 0)">
        <g id="Group_140" data-name="Group 140">
          <path id="Path_47" data-name="Path 47" d="M1799.033,1188.639h-5.963a2.5,2.5,0,0,1-2.493-2.493v-5.964a2.5,2.5,0,0,1,2.493-2.493h5.963a2.5,2.5,0,0,1,2.494,2.493v5.964A2.5,2.5,0,0,1,1799.033,1188.639Zm-5.962-10.256a1.8,1.8,0,0,0-1.8,1.8v5.964a1.8,1.8,0,0,0,1.8,1.8h5.964a1.8,1.8,0,0,0,1.8-1.8v-5.964a1.8,1.8,0,0,0-1.8-1.8Z" transform="translate(-1790.576 -1177.689)" fill="#78c2ff"/>
        </g>
      </g>
    </g>
    <g id="Group_147" data-name="Group 147" transform="translate(603.386 269.12)">
      <g id="Group_143" data-name="Group 143" transform="translate(0)">
        <path id="Path_48" data-name="Path 48" d="M1799.265,1067.109H1792.9a2.289,2.289,0,0,1-2.289-2.289v-6.361a2.289,2.289,0,0,1,2.289-2.289h6.361a2.289,2.289,0,0,1,2.289,2.289v6.361A2.288,2.288,0,0,1,1799.265,1067.109Z" transform="translate(-1790.615 -1056.17)" fill="#78c2ff"/>
      </g>
      <g id="Group_146" data-name="Group 146" transform="translate(2.172 3.06)">
        <g id="Group_145" data-name="Group 145">
          <g id="Group_144" data-name="Group 144">
            <path id="Path_49" data-name="Path 49" d="M1809.408,1083.31l-2.765-2.411a.545.545,0,1,1,.716-.821l1.956,1.7,2.789-3.11a.545.545,0,1,1,.811.727Z" transform="translate(-1806.456 -1078.491)" fill="#f3f3f3"/>
          </g>
        </g>
      </g>
    </g>
    <g id="Group_152" data-name="Group 152" transform="translate(586.915 252.455)">
      <g id="Group_148" data-name="Group 148" transform="translate(0 0)">
        <path id="Path_50" data-name="Path 50" d="M1679.126,945.548h-6.361a2.289,2.289,0,0,1-2.289-2.289V936.9a2.289,2.289,0,0,1,2.289-2.289h6.361a2.289,2.289,0,0,1,2.289,2.289v6.361A2.288,2.288,0,0,1,1679.126,945.548Z" transform="translate(-1670.476 -934.609)" fill="#78c2ff"/>
      </g>
      <g id="Group_151" data-name="Group 151" transform="translate(2.172 3.06)">
        <g id="Group_150" data-name="Group 150">
          <g id="Group_149" data-name="Group 149">
            <path id="Path_51" data-name="Path 51" d="M1689.268,961.749l-2.766-2.411a.545.545,0,0,1,.716-.821l1.956,1.705,2.789-3.111a.545.545,0,1,1,.811.727Z" transform="translate(-1686.316 -956.93)" fill="#f3f3f3"/>
          </g>
        </g>
      </g>
    </g>
    <g id="Group_157" data-name="Group 157" transform="translate(643.913 263.063)">
      <path id="Path_52" data-name="Path 52" d="M2088.84,1012.114c2.583-1.235,5.153,6.986,5.153,6.986,4.39,5.8,10.524-1.916,9.924,6.755-1.05,15.172,17.463,4.771,8.923,20.611s7.541,8.956,2.234,21.728,1.572,28.005-6.414,21.745c0,0-7.032-15.42-14.284-20.191s4.344-10.432,2.076-16.912c-3.3-9.412-11.236-9.042-5.511-19.157S2080.062,1016.312,2088.84,1012.114Z" transform="translate(-2086.223 -1011.988)" fill="url(#linear-gradient-2)"/>
      <g id="Group_153" data-name="Group 153" transform="translate(10.395 16.084)">
        <path id="Path_53" data-name="Path 53" d="M2176.615,1185.371c-3.462-2.434-7.513-19.4-7.755-29.505-.124-5.177-1.654-7.333-3-9.236-1.291-1.819-2.4-3.389-1.756-7,1.24-6.892-2.021-9.867-2.054-9.9l.377-.431c.145.127,3.542,3.2,2.24,10.428-.606,3.37.393,4.779,1.659,6.563,1.328,1.872,2.981,4.2,3.109,9.553.26,10.844,4.4,26.863,7.512,29.051Z" transform="translate(-2162.047 -1129.307)" fill="#fff"/>
      </g>
      <g id="Group_154" data-name="Group 154" transform="translate(21.97 39.421)">
        <path id="Path_54" data-name="Path 54" d="M2250.766,1333.514a7.4,7.4,0,0,1-1.464-.159,3.194,3.194,0,0,1-2.6-2.092c-.933-2.669,1.229-7,2.984-9.094a13.342,13.342,0,0,0,2.653-8.6c-.052-.834-.139-1.606-.215-2.287-.221-1.969-.38-3.392.466-4.342.745-.838,2.184-1.2,4.811-1.212a9.526,9.526,0,0,0,7.893-3.462,8.357,8.357,0,0,1,1.922-1.655h0c2.3-1.253,4.728-1.438,5.783-.438.5.475.924,1.4.094,3.139a12.137,12.137,0,0,1-2.532,3.4c-1.063,1.085-1.766,1.8-1.4,3.23.086.335.185.674.284,1.014.71,2.429,1.515,5.182-2.642,7.051-.882.4-1.686.712-2.4.99-2.9,1.139-4.654,1.826-6.632,6-.383.808-.721,1.574-1.048,2.315C2255.168,1330.842,2253.988,1333.514,2250.766,1333.514Zm16.723-32.4a7.834,7.834,0,0,0-1.782,1.548,10.017,10.017,0,0,1-8.3,3.639c-2.415.011-3.768.326-4.386,1.021-.676.76-.528,2.076-.324,3.9.077.688.164,1.467.218,2.315a13.672,13.672,0,0,1-2.785,9c-1.737,2.069-3.7,6.186-2.882,8.538a2.657,2.657,0,0,0,2.174,1.72c3.915.791,5-1.659,6.787-5.717.328-.744.668-1.514,1.054-2.329,2.075-4.379,4.01-5.139,6.94-6.289.7-.276,1.5-.589,2.37-.98,3.7-1.664,3.035-3.949,2.328-6.368-.1-.346-.2-.691-.289-1.032-.446-1.741.433-2.638,1.546-3.773a11.481,11.481,0,0,0,2.424-3.242c.376-.786.686-1.854.028-2.477-.865-.82-3.063-.595-5.115.525Z" transform="translate(-2246.477 -1299.53)" fill="url(#linear-gradient-2)"/>
      </g>
      <g id="Group_155" data-name="Group 155" transform="translate(24.285 43.994)">
        <path id="Path_55" data-name="Path 55" d="M2263.932,1365.6l-.572-.03c.028-.537.75-13.2,5.833-16.9a20.343,20.343,0,0,0,8.173-11.367c.987-3.455,6.009-4.379,6.223-4.417l.1.564c-.049.009-4.883.9-5.772,4.01a20.891,20.891,0,0,1-8.386,11.672C2264.666,1352.673,2263.939,1365.468,2263.932,1365.6Z" transform="translate(-2263.36 -1332.88)" fill="url(#linear-gradient-4)"/>
      </g>
      <path id="Path_56" data-name="Path 56" d="M2229.359,1105.188c-3.613-1.239-2.863,5.725-4.389,10.878s-16.985,2.248-10.5,15.151-8.206,4.315-3.817,15.575.382,23.3,5.153,20.239,2.68-17.242,7.643-18.927,5.771-3.65.859-8.23,12.873-9.127,8.484-18.376S2233.534,1106.619,2229.359,1105.188Z" transform="translate(-2192.878 -1092.285)" fill="url(#linear-gradient-2)"/>
      <g id="Group_156" data-name="Group 156" transform="translate(22.9 29.055)">
        <path id="Path_57" data-name="Path 57" d="M2255.5,1269.067c-.454-1.928-4.335-18.891-.714-20.941,3.191-1.807,3.113-8.836,2.615-15.474-.44-5.876,7.105-8.622,7.427-8.736l.191.54c-.075.026-7.456,2.715-7.047,8.154.511,6.817.566,14.05-2.9,16.015-2.75,1.557-.218,15.19.99,20.312Z" transform="translate(-2253.259 -1223.916)" fill="#fff"/>
      </g>
      <path id="Path_58" data-name="Path 58" d="M2192.045,1509.19l-5.159,19.572h-11.529l-5.157-19.572Z" transform="translate(-2158.687 -1441.025)" fill="url(#linear-gradient-6)"/>
      <path id="Path_59" data-name="Path 59" d="M2192.039,1509.19s-11.357,2.133-11.357,19.572h-5.331l-5.159-19.572Z" transform="translate(-2158.68 -1441.025)" fill="url(#linear-gradient-7)"/>
    </g>
    <g id="Group_303" data-name="Group 303" transform="translate(595.476 251.349)">
      <g id="Group_162" data-name="Group 162" transform="translate(29.655 80.61)">
        <g id="Group_161" data-name="Group 161">
          <g id="Group_160" data-name="Group 160">
            <g id="Group_159" data-name="Group 159">
              <g id="Group_158" data-name="Group 158">
                <path id="Path_60" data-name="Path 60" d="M1949.23,1515.168s.492,1.932.559,2.223,3.1-.51,3.1-.51l0-2.364A18.035,18.035,0,0,0,1949.23,1515.168Z" transform="translate(-1949.23 -1514.518)" fill="#eea886"/>
              </g>
            </g>
          </g>
        </g>
      </g>
      <g id="Group_167" data-name="Group 167" transform="translate(23.398 82.762)">
        <g id="Group_166" data-name="Group 166">
          <g id="Group_165" data-name="Group 165">
            <g id="Group_164" data-name="Group 164">
              <g id="Group_163" data-name="Group 163">
                <path id="Path_61" data-name="Path 61" d="M1910.346,1530.689a8.389,8.389,0,0,1-1.737,1.905c-.888.617-4.316,1.416-4.817,2.01-.362.429-.864,2.051,4.636,1.311,3.908-.526,5.836-.393,6.188-1.074s-1.115-4.627-1.115-4.627A7.512,7.512,0,0,1,1910.346,1530.689Z" transform="translate(-1903.59 -1530.213)" fill="#112230"/>
              </g>
            </g>
          </g>
        </g>
      </g>
      <g id="Group_235" data-name="Group 235" transform="translate(18.034 22.074)">
        <g id="Group_172" data-name="Group 172" transform="translate(0 2.174)">
          <g id="Group_171" data-name="Group 171" transform="translate(0 0)">
            <g id="Group_170" data-name="Group 170">
              <g id="Group_169" data-name="Group 169">
                <g id="Group_168" data-name="Group 168">
                  <rect id="Rectangle_116" data-name="Rectangle 116" width="1.39" height="112.401" transform="matrix(0.995, -0.098, 0.098, 0.995, 0, 0.136)" fill="#1383d9"/>
                </g>
              </g>
            </g>
          </g>
        </g>
        <g id="Group_177" data-name="Group 177" transform="translate(22.382 0)">
          <g id="Group_176" data-name="Group 176" transform="translate(0)">
            <g id="Group_175" data-name="Group 175">
              <g id="Group_174" data-name="Group 174">
                <g id="Group_173" data-name="Group 173">
                  <rect id="Rectangle_117" data-name="Rectangle 117" width="1.39" height="112.401" transform="matrix(0.995, -0.098, 0.098, 0.995, 0, 0.136)" fill="#1383d9"/>
                </g>
              </g>
            </g>
          </g>
        </g>
        <g id="Group_223" data-name="Group 223" transform="translate(0.875 1.958)">
          <g id="Group_182" data-name="Group 182" transform="translate(0 0)">
            <g id="Group_181" data-name="Group 181">
              <g id="Group_180" data-name="Group 180">
                <g id="Group_179" data-name="Group 179">
                  <g id="Group_178" data-name="Group 178">
                    <rect id="Rectangle_118" data-name="Rectangle 118" width="22.487" height="1.39" transform="translate(0 2.175) rotate(-5.549)" fill="#1383d9"/>
                  </g>
                </g>
              </g>
            </g>
          </g>
          <g id="Group_187" data-name="Group 187" transform="translate(1.009 10.405)">
            <g id="Group_186" data-name="Group 186" transform="translate(0 0)">
              <g id="Group_185" data-name="Group 185">
                <g id="Group_184" data-name="Group 184">
                  <g id="Group_183" data-name="Group 183">
                    <rect id="Rectangle_119" data-name="Rectangle 119" width="22.487" height="1.39" transform="translate(0 2.172) rotate(-5.544)" fill="#1383d9"/>
                  </g>
                </g>
              </g>
            </g>
          </g>
          <g id="Group_192" data-name="Group 192" transform="translate(2.02 20.812)">
            <g id="Group_191" data-name="Group 191" transform="translate(0 0)">
              <g id="Group_190" data-name="Group 190">
                <g id="Group_189" data-name="Group 189">
                  <g id="Group_188" data-name="Group 188">
                    <rect id="Rectangle_120" data-name="Rectangle 120" width="22.488" height="1.39" transform="translate(0 2.172) rotate(-5.544)" fill="#1383d9"/>
                  </g>
                </g>
              </g>
            </g>
          </g>
          <g id="Group_197" data-name="Group 197" transform="translate(3.027 31.221)">
            <g id="Group_196" data-name="Group 196" transform="translate(0 0)">
              <g id="Group_195" data-name="Group 195" transform="translate(0)">
                <g id="Group_194" data-name="Group 194">
                  <g id="Group_193" data-name="Group 193">
                    <rect id="Rectangle_121" data-name="Rectangle 121" width="22.487" height="1.39" transform="matrix(0.995, -0.097, 0.097, 0.995, 0, 2.17)" fill="#1383d9"/>
                  </g>
                </g>
              </g>
            </g>
          </g>
          <g id="Group_202" data-name="Group 202" transform="translate(4.035 41.63)">
            <g id="Group_201" data-name="Group 201" transform="translate(0 0)">
              <g id="Group_200" data-name="Group 200">
                <g id="Group_199" data-name="Group 199">
                  <g id="Group_198" data-name="Group 198">
                    <rect id="Rectangle_122" data-name="Rectangle 122" width="22.487" height="1.39" transform="matrix(0.995, -0.097, 0.097, 0.995, 0, 2.17)" fill="#1383d9"/>
                  </g>
                </g>
              </g>
            </g>
          </g>
          <g id="Group_207" data-name="Group 207" transform="translate(5.048 52.038)">
            <g id="Group_206" data-name="Group 206" transform="translate(0 0)">
              <g id="Group_205" data-name="Group 205">
                <g id="Group_204" data-name="Group 204">
                  <g id="Group_203" data-name="Group 203">
                    <rect id="Rectangle_123" data-name="Rectangle 123" width="22.487" height="1.39" transform="translate(0 2.172) rotate(-5.544)" fill="#1383d9"/>
                  </g>
                </g>
              </g>
            </g>
          </g>
          <g id="Group_212" data-name="Group 212" transform="translate(6.06 62.442)">
            <g id="Group_211" data-name="Group 211" transform="translate(0 0)">
              <g id="Group_210" data-name="Group 210" transform="translate(0)">
                <g id="Group_209" data-name="Group 209">
                  <g id="Group_208" data-name="Group 208">
                    <rect id="Rectangle_124" data-name="Rectangle 124" width="22.487" height="1.39" transform="translate(0 2.172) rotate(-5.544)" fill="#1383d9"/>
                  </g>
                </g>
              </g>
            </g>
          </g>
          <g id="Group_217" data-name="Group 217" transform="translate(7.071 72.851)">
            <g id="Group_216" data-name="Group 216" transform="translate(0 0)">
              <g id="Group_215" data-name="Group 215">
                <g id="Group_214" data-name="Group 214">
                  <g id="Group_213" data-name="Group 213">
                    <rect id="Rectangle_125" data-name="Rectangle 125" width="22.487" height="1.39" transform="translate(0 2.172) rotate(-5.544)" fill="#1383d9"/>
                  </g>
                </g>
              </g>
            </g>
          </g>
          <g id="Group_222" data-name="Group 222" transform="translate(8.078 83.26)">
            <g id="Group_221" data-name="Group 221" transform="translate(0 0)">
              <g id="Group_220" data-name="Group 220">
                <g id="Group_219" data-name="Group 219">
                  <g id="Group_218" data-name="Group 218">
                    <rect id="Rectangle_126" data-name="Rectangle 126" width="22.487" height="1.39" transform="translate(0 2.172) rotate(-5.544)" fill="#1383d9"/>
                  </g>
                </g>
              </g>
            </g>
          </g>
        </g>
        <g id="Group_234" data-name="Group 234" transform="translate(9.966 95.624)">
          <g id="Group_228" data-name="Group 228" transform="translate(0 0)">
            <g id="Group_227" data-name="Group 227">
              <g id="Group_226" data-name="Group 226">
                <g id="Group_225" data-name="Group 225">
                  <g id="Group_224" data-name="Group 224">
                    <rect id="Rectangle_127" data-name="Rectangle 127" width="22.487" height="1.39" transform="translate(0 2.172) rotate(-5.544)" fill="#1383d9"/>
                  </g>
                </g>
              </g>
            </g>
          </g>
          <g id="Group_233" data-name="Group 233" transform="translate(1.007 10.408)">
            <g id="Group_232" data-name="Group 232" transform="translate(0 0)">
              <g id="Group_231" data-name="Group 231" transform="translate(0)">
                <g id="Group_230" data-name="Group 230">
                  <g id="Group_229" data-name="Group 229">
                    <rect id="Rectangle_128" data-name="Rectangle 128" width="22.487" height="1.39" transform="matrix(0.995, -0.097, 0.097, 0.995, 0, 2.17)" fill="#1383d9"/>
                  </g>
                </g>
              </g>
            </g>
          </g>
        </g>
      </g>
      <g id="Group_240" data-name="Group 240" transform="translate(21.458 39.037)">
        <g id="Group_239" data-name="Group 239">
          <g id="Group_238" data-name="Group 238">
            <g id="Group_237" data-name="Group 237">
              <g id="Group_236" data-name="Group 236">
                <path id="Path_62" data-name="Path 62" d="M1893.9,1212.819s-2.2,8.187-2.786,11.113c-.507,2.55-1.525,9.341-1.67,10.956s6.509,17.244,7.2,20.067l6.062-.973s-6.4-16.266-4.727-19.881c2.481-5.376,2.8-5.214,4.759-9.642s6.429-4.533,7.631-12.75C1910.367,1211.707,1895.526,1210.212,1893.9,1212.819Z" transform="translate(-1889.44 -1211.281)" fill="#152b3d"/>
              </g>
            </g>
          </g>
        </g>
      </g>
      <g id="Group_245" data-name="Group 245" transform="translate(29.527 0.428)">
        <g id="Group_244" data-name="Group 244">
          <g id="Group_243" data-name="Group 243">
            <g id="Group_242" data-name="Group 242">
              <g id="Group_241" data-name="Group 241">
                <path id="Path_63" data-name="Path 63" d="M1955.463,930.034s-4.025-1.5-5.881,1.56-1.677,9.2.352,9.952,5.076.36,6.115-1.557a15.357,15.357,0,0,0,1.931-6.541A4.035,4.035,0,0,0,1955.463,930.034Z" transform="translate(-1948.294 -929.665)" fill="#eea886"/>
              </g>
            </g>
          </g>
        </g>
      </g>
      <g id="Group_250" data-name="Group 250" transform="translate(31.727 8.412)">
        <g id="Group_249" data-name="Group 249">
          <g id="Group_248" data-name="Group 248">
            <g id="Group_247" data-name="Group 247">
              <g id="Group_246" data-name="Group 246">
                <path id="Path_64" data-name="Path 64" d="M1964.458,991.608a3.376,3.376,0,0,1-.106,1.575c-.269.52,5.063.533,5.063.533a35.125,35.125,0,0,1,1.253-5.215C1971.488,986.112,1964.458,991.608,1964.458,991.608Z" transform="translate(-1964.342 -987.899)" fill="#eea886"/>
              </g>
            </g>
          </g>
        </g>
      </g>
      <g id="Group_255" data-name="Group 255" transform="translate(29.995 0)">
        <g id="Group_254" data-name="Group 254">
          <g id="Group_253" data-name="Group 253">
            <g id="Group_252" data-name="Group 252">
              <g id="Group_251" data-name="Group 251">
                <path id="Path_65" data-name="Path 65" d="M1959.765,935.555s-.368.607-1.87.371-3.334-2.234-3.961-2.453-.633-.588-.633-.588l-.393.574-.666.042s.607-1.788-.309-2.517.951-5.786,5.768-4.1c0,0,3.7,1.02,3.565,3.124S1960.593,934.508,1959.765,935.555Z" transform="translate(-1951.708 -926.542)" fill="#3a3f47"/>
              </g>
            </g>
          </g>
        </g>
      </g>
      <g id="Group_260" data-name="Group 260" transform="translate(31.569 4.812)">
        <g id="Group_259" data-name="Group 259">
          <g id="Group_258" data-name="Group 258">
            <g id="Group_257" data-name="Group 257">
              <g id="Group_256" data-name="Group 256">
                <path id="Path_66" data-name="Path 66" d="M1963.305,962.408c.084-.353.981-1.361,1.325-.282s-.519,2.532-1,2.408S1963.091,963.3,1963.305,962.408Z" transform="translate(-1963.187 -961.641)" fill="#eea886"/>
              </g>
            </g>
          </g>
        </g>
      </g>
      <g id="Group_264" data-name="Group 264" transform="translate(39.812 15.461)">
        <g id="Group_263" data-name="Group 263">
          <g id="Group_262" data-name="Group 262">
            <g id="Group_261" data-name="Group 261">
              <path id="Path_67" data-name="Path 67" d="M2030.544,1051.366a2.372,2.372,0,0,1-1.058,1.381,1.723,1.723,0,0,1-.918.3l-.239.008h0l-4.182.142s-3.11-10.049,2.722-13.882C2027.05,1039.336,2030.949,1046.523,2030.544,1051.366Z" transform="translate(-2023.318 -1039.318)" fill="#1d3b54"/>
            </g>
          </g>
        </g>
      </g>
      <g id="Group_269" data-name="Group 269" transform="translate(25.439 82.762)">
        <g id="Group_268" data-name="Group 268">
          <g id="Group_267" data-name="Group 267">
            <g id="Group_266" data-name="Group 266">
              <g id="Group_265" data-name="Group 265">
                <path id="Path_68" data-name="Path 68" d="M1927.465,1534.839c-.352.681-2.28.548-6.188,1.074a17.88,17.88,0,0,1-2.57.19l-.228-2.351a17.7,17.7,0,0,0,2.978-1.159,8.39,8.39,0,0,0,1.737-1.905,7.505,7.505,0,0,0,3.156-.476S1927.816,1534.157,1927.465,1534.839Z" transform="translate(-1918.48 -1530.212)" fill="#112230"/>
              </g>
            </g>
          </g>
        </g>
      </g>
      <g id="Group_273" data-name="Group 273" transform="translate(31.424 13.004)">
        <g id="Group_272" data-name="Group 272">
          <g id="Group_271" data-name="Group 271">
            <g id="Group_270" data-name="Group 270">
              <path id="Path_69" data-name="Path 69" d="M1962.55,1021.78s3.282-.763,5.132-.139l.279.259s.563,1.078-1.554,1.171S1960.963,1023.317,1962.55,1021.78Z" transform="translate(-1962.135 -1021.395)" fill="#1d3b54"/>
            </g>
          </g>
        </g>
      </g>
      <g id="Group_278" data-name="Group 278" transform="translate(44.665 89.646)">
        <g id="Group_277" data-name="Group 277">
          <g id="Group_276" data-name="Group 276">
            <g id="Group_275" data-name="Group 275">
              <g id="Group_274" data-name="Group 274">
                <path id="Path_70" data-name="Path 70" d="M2058.71,1581.077s.492,1.932.559,2.223,3.1-.51,3.1-.51l0-2.363A18.265,18.265,0,0,0,2058.71,1581.077Z" transform="translate(-2058.71 -1580.427)" fill="#eea886"/>
              </g>
            </g>
          </g>
        </g>
      </g>
      <g id="Group_283" data-name="Group 283" transform="translate(33.811 39.463)">
        <g id="Group_282" data-name="Group 282">
          <g id="Group_281" data-name="Group 281">
            <g id="Group_280" data-name="Group 280">
              <g id="Group_279" data-name="Group 279">
                <path id="Path_71" data-name="Path 71" d="M1988.119,1214.39a63.839,63.839,0,0,1,1.431,9.12c.3,4.216.853,8.84,1.29,13.25.487,4.916,1.878,12.862,1.951,15.492s2.286,14.122,2.286,14.122l-5.662.651s-3.678-20.308-4.547-22.384-5.177-16.875-5.322-18.536S1988.119,1214.39,1988.119,1214.39Z" transform="translate(-1979.545 -1214.39)" fill="#152b3d"/>
              </g>
            </g>
          </g>
        </g>
      </g>
      <g id="Group_288" data-name="Group 288" transform="translate(38.408 91.798)">
        <g id="Group_287" data-name="Group 287">
          <g id="Group_286" data-name="Group 286">
            <g id="Group_285" data-name="Group 285">
              <g id="Group_284" data-name="Group 284">
                <path id="Path_72" data-name="Path 72" d="M2019.827,1596.6a8.388,8.388,0,0,1-1.737,1.905c-.888.618-4.316,1.416-4.817,2.01-.361.429-.864,2.052,4.637,1.311,3.908-.526,5.836-.393,6.187-1.074s-1.115-4.627-1.115-4.627A7.505,7.505,0,0,1,2019.827,1596.6Z" transform="translate(-2013.071 -1596.123)" fill="#112230"/>
              </g>
            </g>
          </g>
        </g>
      </g>
      <g id="Group_292" data-name="Group 292" transform="translate(21.461 13.388)">
        <g id="Group_291" data-name="Group 291">
          <g id="Group_290" data-name="Group 290">
            <g id="Group_289" data-name="Group 289">
              <path id="Path_73" data-name="Path 73" d="M1892.772,1061.61c-.482-.069,1.2-14.443,1.069-15.344-.086-.6-.072-5.273-.037-8.185l-.526-2.947a13.428,13.428,0,0,0-1.154-.729c-.73-.421-1.646-.9-2.663-1.411.118-.7.2-1.244.232-1.564a5.887,5.887,0,0,1,2.978-4.538,4.907,4.907,0,0,1,.679-.339c.375-.159.742-.313,1.1-.46,2.374-.977,5.389-1.894,5.389-1.894h4.845a41.088,41.088,0,0,1,5.886,1.636,4.113,4.113,0,0,1,.794.436l-.658,13.812s0,.006,0,.009,0,.011,0,.018c-.3,1.943-.609,4.235-.713,5.842-.042.656.708,4.18,1.1,7.414l1.37,7.739S1911.667,1064.312,1892.772,1061.61Z" transform="translate(-1889.461 -1024.198)" fill="#1d3b54"/>
            </g>
          </g>
        </g>
      </g>
      <g id="Group_297" data-name="Group 297" transform="translate(0 2.376)">
        <g id="Group_296" data-name="Group 296">
          <g id="Group_295" data-name="Group 295">
            <g id="Group_294" data-name="Group 294">
              <g id="Group_293" data-name="Group 293">
                <path id="Path_74" data-name="Path 74" d="M1732.961,947.506a2.072,2.072,0,0,0,.487.448s.378.143.641.261a1.968,1.968,0,0,1,.2.1,3.8,3.8,0,0,0,1.072.567c.517.149,2.857.682,2.857.682l.544-1.389.39-1.122a23.8,23.8,0,0,0-2.633-3,1.282,1.282,0,0,0-.135-.048,4.84,4.84,0,0,0-.992-.09c-.082-.015-.907-.108-1.086.065a.812.812,0,0,0-.28.737,1.94,1.94,0,0,0-.5.943,1.205,1.205,0,0,0-.325,1.013S1732.8,947.165,1732.961,947.506Z" transform="translate(-1732.923 -943.875)" fill="#eea886"/>
              </g>
            </g>
          </g>
        </g>
      </g>
      <g id="Group_302" data-name="Group 302" transform="translate(3.566 5.22)">
        <g id="Group_301" data-name="Group 301">
          <g id="Group_300" data-name="Group 300">
            <g id="Group_299" data-name="Group 299">
              <g id="Group_298" data-name="Group 298">
                <path id="Path_75" data-name="Path 75" d="M1780.49,983.609a32.068,32.068,0,0,0-3.661-2.03c-4.507-2.255-10.071-6.343-11.13-6.933-1.627-.908-6.766-7.187-6.766-7.187.265-.946,2.7-2.844,2.7-2.844s7.791,7.38,9.494,8.288c1.464.781,8.7,1.57,10.689,1.775l.509.051C1784.407,977.568,1781.651,984.358,1780.49,983.609Z" transform="translate(-1758.933 -964.615)" fill="#1d3b54"/>
              </g>
            </g>
          </g>
        </g>
      </g>
    </g>
    <rect id="Rectangle_129" data-name="Rectangle 129" width="11.687" height="1.44" transform="translate(493.639 243.778)" fill="#d6d6d6"/>
    <rect id="Rectangle_130" data-name="Rectangle 130" width="17.358" height="1.44" transform="translate(490.804 241.214)" fill="#d6d6d6"/>
    <path id="Path_76" data-name="Path 76" d="M1016.962,689.46a3.018,3.018,0,1,1-3.018-3.018A3.018,3.018,0,0,1,1016.962,689.46Z" transform="translate(-514.435 -468.011)" fill="#78c2ff"/>
    <path id="Path_77" data-name="Path 77" d="M1003.783,745.782v5.739a13.275,13.275,0,0,1-10.94,0v-5.739a5.47,5.47,0,1,1,10.94,0Z" transform="translate(-498.83 -514.495)" fill="#78c2ff"/>
    <g id="Group_304" data-name="Group 304" transform="translate(485.888 211.376)">
      <path id="Path_78" data-name="Path 78" d="M947.176,662.165a13.478,13.478,0,0,1-5.619-1.212,13.594,13.594,0,1,1,11.237,0A13.479,13.479,0,0,1,947.176,662.165Zm0-26.471a12.879,12.879,0,1,0,12.877,12.877A12.891,12.891,0,0,0,947.176,635.693Z" transform="translate(-933.582 -634.976)" fill="url(#linear-gradient-8)"/>
    </g>
    <g id="Group_317" data-name="Group 317" transform="translate(520.365 216.042)">
      <g id="Group_305" data-name="Group 305">
        <rect id="Rectangle_131" data-name="Rectangle 131" width="0.947" height="21.805" fill="#c9e0ff"/>
      </g>
      <g id="Group_306" data-name="Group 306" transform="translate(4.353)">
        <rect id="Rectangle_132" data-name="Rectangle 132" width="0.947" height="21.805" fill="#c9e0ff"/>
      </g>
      <g id="Group_307" data-name="Group 307" transform="translate(8.704)">
        <rect id="Rectangle_133" data-name="Rectangle 133" width="0.947" height="21.805" fill="#c9e0ff"/>
      </g>
      <g id="Group_308" data-name="Group 308" transform="translate(13.057)">
        <rect id="Rectangle_134" data-name="Rectangle 134" width="0.947" height="21.805" fill="#c9e0ff"/>
      </g>
      <g id="Group_309" data-name="Group 309" transform="translate(17.409)">
        <rect id="Rectangle_135" data-name="Rectangle 135" width="0.947" height="21.805" fill="#c9e0ff"/>
      </g>
      <g id="Group_310" data-name="Group 310" transform="translate(21.762)">
        <rect id="Rectangle_136" data-name="Rectangle 136" width="0.947" height="21.805" fill="#c9e0ff"/>
      </g>
      <g id="Group_311" data-name="Group 311" transform="translate(26.114)">
        <rect id="Rectangle_137" data-name="Rectangle 137" width="0.947" height="21.805" fill="#c9e0ff"/>
      </g>
      <g id="Group_312" data-name="Group 312" transform="translate(30.466)">
        <rect id="Rectangle_138" data-name="Rectangle 138" width="0.947" height="21.805" fill="#c9e0ff"/>
      </g>
      <g id="Group_313" data-name="Group 313" transform="translate(34.819)">
        <rect id="Rectangle_139" data-name="Rectangle 139" width="0.947" height="21.805" fill="#c9e0ff"/>
      </g>
      <g id="Group_314" data-name="Group 314" transform="translate(39.17)">
        <rect id="Rectangle_140" data-name="Rectangle 140" width="0.947" height="21.805" fill="#c9e0ff"/>
      </g>
      <g id="Group_315" data-name="Group 315" transform="translate(43.523)">
        <rect id="Rectangle_141" data-name="Rectangle 141" width="0.947" height="21.805" fill="#c9e0ff"/>
      </g>
      <g id="Group_316" data-name="Group 316" transform="translate(47.876)">
        <rect id="Rectangle_142" data-name="Rectangle 142" width="0.947" height="21.805" fill="#c9e0ff"/>
      </g>
    </g>
    <g id="Group_330" data-name="Group 330" transform="translate(520.365 219.189)">
      <g id="Group_318" data-name="Group 318" transform="translate(0 3.372)">
        <rect id="Rectangle_143" data-name="Rectangle 143" width="0.947" height="15.286" fill="#4aafff"/>
      </g>
      <g id="Group_319" data-name="Group 319" transform="translate(4.353 8.654)">
        <rect id="Rectangle_144" data-name="Rectangle 144" width="0.947" height="10.003" fill="#4aafff"/>
      </g>
      <g id="Group_320" data-name="Group 320" transform="translate(8.704 0)">
        <rect id="Rectangle_145" data-name="Rectangle 145" width="0.947" height="18.658" fill="#4aafff"/>
      </g>
      <g id="Group_321" data-name="Group 321" transform="translate(13.057 13.225)">
        <rect id="Rectangle_146" data-name="Rectangle 146" width="0.947" height="5.432" fill="#4aafff"/>
      </g>
      <g id="Group_322" data-name="Group 322" transform="translate(17.409 7.755)">
        <rect id="Rectangle_147" data-name="Rectangle 147" width="0.947" height="10.902" fill="#4aafff"/>
      </g>
      <g id="Group_323" data-name="Group 323" transform="translate(21.762 3.672)">
        <rect id="Rectangle_148" data-name="Rectangle 148" width="0.947" height="14.986" fill="#4aafff"/>
      </g>
      <g id="Group_324" data-name="Group 324" transform="translate(26.114 8.992)">
        <rect id="Rectangle_149" data-name="Rectangle 149" width="0.947" height="9.666" fill="#4aafff"/>
      </g>
      <g id="Group_325" data-name="Group 325" transform="translate(30.466 2.285)">
        <rect id="Rectangle_150" data-name="Rectangle 150" width="0.947" height="16.372" fill="#4aafff"/>
      </g>
      <g id="Group_326" data-name="Group 326" transform="translate(34.819 9.666)">
        <rect id="Rectangle_151" data-name="Rectangle 151" width="0.947" height="8.992" fill="#4aafff"/>
      </g>
      <g id="Group_327" data-name="Group 327" transform="translate(39.17 4.271)">
        <rect id="Rectangle_152" data-name="Rectangle 152" width="0.947" height="14.387" fill="#4aafff"/>
      </g>
      <g id="Group_328" data-name="Group 328" transform="translate(43.523 11.464)">
        <rect id="Rectangle_153" data-name="Rectangle 153" width="0.947" height="7.193" fill="#4aafff"/>
      </g>
      <g id="Group_329" data-name="Group 329" transform="translate(47.876 4.271)">
        <rect id="Rectangle_154" data-name="Rectangle 154" width="0.947" height="14.387" fill="#4aafff"/>
      </g>
    </g>
    <g id="Group_339" data-name="Group 339" transform="translate(584.709 214.365)">
      <g id="Group_332" data-name="Group 332" transform="translate(0 0)">
        <g id="Group_331" data-name="Group 331">
          <path id="Path_79" data-name="Path 79" d="M1678.2,664.92a12.264,12.264,0,1,0-23.1,8.26c.093.26.194.515.3.765a12.265,12.265,0,0,0,22.794-9.025Zm-8.452,12.788a9.184,9.184,0,0,1-11.528-4.988q-.122-.281-.227-.573a9.2,9.2,0,1,1,11.754,5.562Z" transform="translate(-1654.388 -656.782)" fill="#4aafff"/>
        </g>
      </g>
      <g id="Group_334" data-name="Group 334" transform="translate(0.56 0.006)">
        <g id="Group_333" data-name="Group 333">
          <path id="Path_80" data-name="Path 80" d="M1661.4,666.344l-2.93-.915a12.282,12.282,0,0,1,11.341-8.607l.091,3.068a9.209,9.209,0,0,0-8.5,6.453Z" transform="translate(-1658.468 -656.822)" fill="#1a598c"/>
        </g>
      </g>
      <g id="Group_336" data-name="Group 336" transform="translate(0 8.612)">
        <g id="Group_335" data-name="Group 335">
          <path id="Path_81" data-name="Path 81" d="M1658.223,726.924l-2.815,1.225c-.108-.249-.209-.505-.3-.764a12.21,12.21,0,0,1-.16-7.786l2.93.915a9.156,9.156,0,0,0,.12,5.837C1658.065,726.546,1658.142,726.737,1658.223,726.924Z" transform="translate(-1654.387 -719.599)" fill="#2273b5"/>
        </g>
      </g>
      <g id="Group_338" data-name="Group 338" transform="translate(1.021 15.937)">
        <g id="Group_337" data-name="Group 337">
          <path id="Path_82" data-name="Path 82" d="M1663.734,777.307a12.194,12.194,0,0,1-1.9-3.053l2.815-1.225a9.149,9.149,0,0,0,1.425,2.289Z" transform="translate(-1661.833 -773.029)" fill="#3788cc"/>
        </g>
      </g>
    </g>
    <g id="Group_346" data-name="Group 346" transform="translate(611.914 229.506)">
      <g id="Group_341" data-name="Group 341">
        <g id="Group_340" data-name="Group 340">
          <path id="Path_83" data-name="Path 83" d="M1860.064,767.708a5.073,5.073,0,1,0-4.339,9.171c.1.049.207.094.312.135a5.073,5.073,0,0,0,4.027-9.307Zm1.268,6.212a3.8,3.8,0,0,1-4.831,1.913c-.078-.031-.157-.065-.234-.1a3.8,3.8,0,1,1,5.065-1.811Z" transform="translate(-1852.82 -767.22)" fill="#4aafff"/>
        </g>
      </g>
      <g id="Group_343" data-name="Group 343" transform="translate(0 1.595)">
        <g id="Group_342" data-name="Group 342">
          <path id="Path_84" data-name="Path 84" d="M1854.526,784.1l-1.125.589a5.08,5.08,0,0,1,.8-5.835l.924.871a3.809,3.809,0,0,0-.6,4.375Z" transform="translate(-1852.821 -778.854)" fill="#1a598c"/>
        </g>
      </g>
      <g id="Group_345" data-name="Group 345" transform="translate(0.582 6.84)">
        <g id="Group_344" data-name="Group 344">
          <path id="Path_85" data-name="Path 85" d="M1860.163,818.887l-.465,1.182q-.157-.062-.312-.135a5.05,5.05,0,0,1-2.324-2.23l1.125-.589a3.785,3.785,0,0,0,1.742,1.672Q1860.044,818.84,1860.163,818.887Z" transform="translate(-1857.062 -817.113)" fill="#2273b5"/>
        </g>
      </g>
    </g>
    <g id="Group_355" data-name="Group 355" transform="translate(611.914 214.057)">
      <g id="Group_348" data-name="Group 348" transform="translate(0 0)">
        <g id="Group_347" data-name="Group 347">
          <path id="Path_86" data-name="Path 86" d="M1862.479,661.779a5.073,5.073,0,1,0-9.172-4.339c-.049.1-.094.207-.135.312a5.073,5.073,0,0,0,9.307,4.027Zm-6.212,1.268a3.8,3.8,0,0,1-1.913-4.831c.031-.078.065-.157.1-.234a3.8,3.8,0,1,1,1.812,5.065Z" transform="translate(-1852.819 -654.535)" fill="#4aafff"/>
        </g>
      </g>
      <g id="Group_350" data-name="Group 350" transform="translate(2.719 0)">
        <g id="Group_349" data-name="Group 349">
          <path id="Path_87" data-name="Path 87" d="M1873.24,656.239l-.589-1.125a5.081,5.081,0,0,1,5.835.8l-.871.924a3.81,3.81,0,0,0-4.374-.6Z" transform="translate(-1872.651 -654.534)" fill="#4aafff"/>
        </g>
      </g>
      <g id="Group_352" data-name="Group 352" transform="translate(0.354 0.581)">
        <g id="Group_351" data-name="Group 351">
          <path id="Path_88" data-name="Path 88" d="M1856.583,661.87l-1.182-.465c.041-.1.086-.209.135-.312a5.049,5.049,0,0,1,2.231-2.324l.59,1.125a3.786,3.786,0,0,0-1.672,1.742C1856.647,661.713,1856.613,661.792,1856.583,661.87Z" transform="translate(-1855.401 -658.769)" fill="#2273b5"/>
        </g>
      </g>
      <g id="Group_354" data-name="Group 354" transform="translate(0.017 3.217)">
        <g id="Group_353" data-name="Group 353">
          <path id="Path_89" data-name="Path 89" d="M1852.94,679.446a5.038,5.038,0,0,1,.337-1.449l1.182.465a3.775,3.775,0,0,0-.253,1.086Z" transform="translate(-1852.94 -677.997)" fill="#3788cc"/>
        </g>
      </g>
    </g>
    <g id="Group_356" data-name="Group 356" transform="translate(605.957 239.215)">
      <path id="Path_90" data-name="Path 90" d="M1818.843,841.8h-9.473v-.188h9.284v-3.579h.189Z" transform="translate(-1809.37 -838.036)" fill="#e2f3fe"/>
    </g>
    <g id="Group_357" data-name="Group 357" transform="translate(585.269 236.936)">
      <path id="Path_91" data-name="Path 91" d="M1670.791,827.458H1658.47v-.188H1670.6v-5.858h.188Z" transform="translate(-1658.47 -821.412)" fill="#e2f3fe"/>
    </g>
    <g id="Group_358" data-name="Group 358" transform="translate(585.269 240.834)">
      <rect id="Rectangle_155" data-name="Rectangle 155" width="8.478" height="1.13" transform="translate(0)" fill="#4aafff"/>
    </g>
    <g id="Group_359" data-name="Group 359" transform="translate(605.957 240.834)">
      <rect id="Rectangle_156" data-name="Rectangle 156" width="4.987" height="1.13" transform="translate(0)" fill="#4aafff"/>
    </g>
    <g id="Group_386" data-name="Group 386" transform="translate(435.624 278.248)">
      <g id="Group_360" data-name="Group 360" transform="translate(5.298 0)">
        <path id="Path_92" data-name="Path 92" d="M824.075,1114.869s-3.581-.121-4.723,2.814a8.668,8.668,0,0,0,.046,6.254c.851,2.792.921,3.806.509,5.49-.365,1.493-.7,2.265-1.122,3.661s.281,1.241.342,1.343,14.022,1.391,14.022,1.391-.373-3.024-1.356-3.726-1.955-.844-1.207-3.837,1.222-4.382.8-6.552c-.486-2.515-.791-4.087-3.156-5.735A6.348,6.348,0,0,0,824.075,1114.869Z" transform="translate(-818.65 -1114.843)" fill="#3b3b40"/>
      </g>
      <path id="Path_93" data-name="Path 93" d="M809.345,1834.593a33.015,33.015,0,0,0,2.763,3.63s1.763.647,1.94,1.881.147,2.058-1.94,2.117-3.455-.316-3.837-1.58a5.757,5.757,0,0,0-1.218-2.124v2.646h-.47s-.118-2.557-.147-3.027-.338-2.278.654-3.079A2.75,2.75,0,0,1,809.345,1834.593Z" transform="translate(-802.753 -1735.856)" fill="#ccc"/>
      <path id="Path_94" data-name="Path 94" d="M877.9,1813.8a8.434,8.434,0,0,0,.985,1.646c.472.616,1.94,3.145,2.587,3.321s2.645.529,2.822,1.646.264,1.911-1.7,2-3.262.206-4.2-1.176a10.237,10.237,0,0,0-2.44-2.38v3.6h-.764a32.666,32.666,0,0,0-.559-4.016c-.206-.265-.735-3.145,1.088-4.644S877.9,1813.8,877.9,1813.8Z" transform="translate(-861.454 -1717.399)" fill="#ccc"/>
      <path id="Path_95" data-name="Path 95" d="M791.508,1416.742a21.031,21.031,0,0,0-2.888,7.126c-.675,3.836.125,16.652.1,18.547s-1.793,6.613-1.44,10.184,3.3,21.052,3.3,21.052l2.256-.463s-.22-18.12,0-19.619.663-6.963.751-7.58,5.6-16.824,5.6-19.59S797.5,1412.231,791.508,1416.742Z" transform="translate(-786.238 -1374.452)" fill="#eea886"/>
      <path id="Path_96" data-name="Path 96" d="M855.74,1427.436s4.085,15.592,4.57,17.752a45.519,45.519,0,0,1,1.188,4.859,32.115,32.115,0,0,1-.791,5.545l-6.278,24.689-2.6.409s1.506-15.172,1.58-18.083,2.32-7.06,1.879-8.294-7.1-15.475-7.1-15.475S843.146,1422.91,855.74,1427.436Z" transform="translate(-837.979 -1383.882)" fill="#eea886"/>
      <path id="Path_97" data-name="Path 97" d="M816.654,1838.673s-2.017,1.128-3.315-.32a10.229,10.229,0,0,1-1.7-2.847l2.256-.463Z" transform="translate(-807.299 -1736.305)" fill="#eea886"/>
      <path id="Path_98" data-name="Path 98" d="M887.174,1820.473s-1.763.441-2.439,0-2.974-4.325-3.736-4.558c0,0,.738-1.5,2.6-.409C883.6,1815.5,886.674,1819.826,887.174,1820.473Z" transform="translate(-867.153 -1719.105)" fill="#eea886"/>
      <path id="Path_99" data-name="Path 99" d="M803.523,1447.793s-9.449,4.057-23.519,4.057c0,0,1.482-21.319,3.527-25.909s14.56.463,14.56.463S803.523,1443.947,803.523,1447.793Z" transform="translate(-780.004 -1381.627)" fill="#1383d9"/>
      <g id="Group_361" data-name="Group 361" transform="translate(14.246 17.107)">
        <path id="Path_100" data-name="Path 100" d="M903.817,1257.8s-8.618.741-10.751-.208c-1.068-.475-2.514-2.445-3.85-4.6-.227-.367-.451-.74-.669-1.112-1.633-2.783-2.953-5.518-2.953-5.518s-3.943-4.96.254-6.732a5.1,5.1,0,0,1,2.642,2.02,19.5,19.5,0,0,1,2,4.692c.2.775,3.574,7.59,3.786,7.782s2.332.064,3.967.219c2.667.251,5.48.4,5.48.4Z" transform="translate(-883.915 -1239.623)" fill="#474ceb"/>
      </g>
      <g id="Group_362" data-name="Group 362" transform="translate(1.715 15.761)">
        <path id="Path_101" data-name="Path 101" d="M810.023,1242.4c-1.06,2.454-.06,3.273-.546,5.727a75.048,75.048,0,0,0-.567,10.81c.091,1.363-12.086,2.765-14.9.28a36.614,36.614,0,0,1,2.665-8.6,8.071,8.071,0,0,0-.162-3.943c-.1-.26-.51-1.263-1.028-2.531l0,0c-.539-1.318-1.2-2.923-1.749-4.275-.656-1.6-1.168-2.849-1.168-2.849s-.42-3.948,1.219-5.222c1.425-1.106,5.306-1.5,6-1.743a11.924,11.924,0,0,1,4.149-.136,22.866,22.866,0,0,0,2.939,1.182c.758.151,3.7,3.969,4.212,5.363S811.084,1239.947,810.023,1242.4Z" transform="translate(-792.513 -1229.802)" fill="#1383d9"/>
      </g>
      <g id="Group_363" data-name="Group 363" transform="translate(9.174 10.372)">
        <path id="Path_102" data-name="Path 102" d="M851.924,1193.484a52.032,52.032,0,0,0-.344,5.305s-1.823,2.216-4.4-2.708a8.647,8.647,0,0,0-.175-4.739C846.186,1188.577,851.924,1193.484,851.924,1193.484Z" transform="translate(-846.923 -1190.497)" fill="#eea886"/>
      </g>
      <path id="Path_103" data-name="Path 103" d="M832.841,1230.928s1.559,4.606,5.841,4.268,2.03-3.889,2.03-3.889a9.458,9.458,0,0,0-1.368-.67c-.3-.058-4.249-.225-4.249-.225Z" transform="translate(-825.597 -1214.567)" fill="#eea886"/>
      <path id="Path_104" data-name="Path 104" d="M964.668,1278.506H954.462a.811.811,0,0,1-.811-.811V1262.42a.811.811,0,0,1,.811-.811h10.206a.811.811,0,0,1,.811.811V1277.7A.811.811,0,0,1,964.668,1278.506Z" transform="translate(-929.844 -1241.488)" fill="#434343"/>
      <rect id="Rectangle_157" data-name="Rectangle 157" width="10.22" height="14.6" transform="translate(24.611 21.27)" fill="#fff"/>
      <path id="Path_105" data-name="Path 105" d="M928.106,1351.674a1.183,1.183,0,0,0,.641-.184c.439-.331.6-1.146,1.371-1.086s1.134,2.488.94,2.948-1.269.689-2.859.373S928.106,1351.674,928.106,1351.674Z" transform="translate(-907.251 -1318.106)" fill="#eea886"/>
      <path id="Path_106" data-name="Path 106" d="M943,1344.906a24.231,24.231,0,0,1,2.4-.657,5.414,5.414,0,0,1,2.605-.128c.146.218-1.1.406-2.2.719-1.017.288-.775.395-.775.395s-.067-.034,1.094-.143c1.248-.117,2.534-.114,2.661.135.062.122.018.2-.431.317.27-.012.308.058.319.167.053.562-1.768,1.01-2.491,1.188.556-.133.976-.174.776.2-.229.431-2.828.952-3.744,1.225C942.21,1348.624,943,1344.906,943,1344.906Z" transform="translate(-920.398 -1312.593)" fill="#eea886"/>
      <g id="Group_364" data-name="Group 364" transform="translate(34.267 23.271)">
        <path id="Path_107" data-name="Path 107" d="M1029.968,1284.676s1.681-.391,2.222.419a3.155,3.155,0,0,1,.426,2.335c-.135.482-.571,1.723-1.14,1.468C1029.651,1288.08,1029.968,1284.676,1029.968,1284.676Z" transform="translate(-1029.947 -1284.582)" fill="#eea886"/>
      </g>
      <g id="Group_365" data-name="Group 365" transform="translate(35.046 22.419)">
        <path id="Path_108" data-name="Path 108" d="M1036.537,1279.33s-.235-1.136-.69-.942-.044.943-.044.943Z" transform="translate(-1035.632 -1278.366)" fill="#eea886"/>
      </g>
      <g id="Group_366" data-name="Group 366" transform="translate(34.288 23.082)">
        <path id="Path_109" data-name="Path 109" d="M1030.1,1283.488s.027-.649,1.2.019S1030.1,1283.488,1030.1,1283.488Z" transform="translate(-1030.1 -1283.205)" fill="#eea886"/>
      </g>
      <path id="Path_110" data-name="Path 110" d="M917.7,1305.462a28.77,28.77,0,0,0,1.337-3.733,22.479,22.479,0,0,1-.668,4.847c-.227-.367-.451-.74-.669-1.112Z" transform="translate(-898.825 -1276.107)"/>
      <path id="Path_111" data-name="Path 111" d="M927.457,1301.368c0-.038,0-.057,0-.057A.52.52,0,0,1,927.457,1301.368Z" transform="translate(-907.241 -1275.747)" fill="#d1c0ba"/>
      <path id="Path_112" data-name="Path 112" d="M845.912,1300.544l-5.339-9.4s1.865,9.376,3.277,9.691A2.313,2.313,0,0,0,845.912,1300.544Z" transform="translate(-832.269 -1266.974)"/>
      <g id="Group_367" data-name="Group 367" transform="translate(1.345 17.52)">
        <path id="Path_113" data-name="Path 113" d="M791.679,1242.7a3.8,3.8,0,0,0-1.678,4.574,13.827,13.827,0,0,0,2.6,5.482c.8,1.165,2.422,4.3,2.62,4.655s2.157,5.473,3.953,6.055,10.7-2.248,10.9-1.938-.012-3.12-.012-3.12-4.132.3-5.044.243c-1.481-.1-3.856.5-4.428-.778-.671-1.506-3.078-6.459-3.331-7.274S794.054,1241.863,791.679,1242.7Z" transform="translate(-789.816 -1242.638)" fill="#474ceb"/>
      </g>
      <g id="Group_368" data-name="Group 368" transform="translate(7.532 1.241)">
        <path id="Path_114" data-name="Path 114" d="M840.928,1124.561s3.95,2.579,2.666,8.811-5.947,2.806-6.454,2.453-2.072-4.254-2.133-5.956C834.95,1128.266,834.114,1121.842,840.928,1124.561Z" transform="translate(-834.946 -1123.898)" fill="#eea987"/>
      </g>
      <g id="Group_369" data-name="Group 369" transform="translate(7.181 0.66)">
        <path id="Path_115" data-name="Path 115" d="M838.445,1122.154c-.412-.122-1.8,2.565-2.551,3.229a6.925,6.925,0,0,0-2.259,4.151c-.135,1.824-1.674-3.985-1.141-6.141s1.243-5.316,6.057-2.809a6.174,6.174,0,0,1,3.569,6.989S840.527,1122.77,838.445,1122.154Z" transform="translate(-832.383 -1119.661)" fill="#3b3b40"/>
      </g>
      <g id="Group_370" data-name="Group 370" transform="translate(8.177 6.602)">
        <path id="Path_116" data-name="Path 116" d="M841.377,1163.855c-.128-.738-1.755-1.362-1.731-.253s.923,2.387,1.431,2.307S841.494,1164.535,841.377,1163.855Z" transform="translate(-839.645 -1163)" fill="#eea987"/>
      </g>
      <path id="Path_117" data-name="Path 117" d="M853.726,1212.78a5.106,5.106,0,0,0,3.844,2.316c.064-.7.153-1.568.153-1.568A4.624,4.624,0,0,1,853.726,1212.78Z" transform="translate(-843.619 -1199.353)" fill="#a87860"/>
      <g id="Group_385" data-name="Group 385" transform="translate(25.773 22.679)">
        <rect id="Rectangle_158" data-name="Rectangle 158" width="3.588" height="0.756" transform="translate(0 0.323)" fill="#e6e6e6"/>
        <g id="Group_377" data-name="Group 377" transform="translate(4.244)">
          <g id="Group_375" data-name="Group 375" transform="translate(0.956 1.32)">
            <g id="Group_374" data-name="Group 374">
              <g id="Group_373" data-name="Group 373">
                <g id="Group_372" data-name="Group 372">
                  <g id="Group_371" data-name="Group 371">
                    <path id="Path_118" data-name="Path 118" d="M1006.449,1290.94l-.508-.832a.145.145,0,0,1,.247-.151l.359.588.955-.565a.145.145,0,1,1,.147.249Z" transform="translate(-1005.92 -1289.888)" fill="#78c2ff"/>
                  </g>
                </g>
              </g>
            </g>
          </g>
          <g id="Group_376" data-name="Group 376">
            <path id="Path_119" data-name="Path 119" d="M1000.772,1283.916a1.827,1.827,0,1,1,1.827-1.827A1.829,1.829,0,0,1,1000.772,1283.916Zm0-3.392a1.566,1.566,0,1,0,1.566,1.566A1.568,1.568,0,0,0,1000.772,1280.524Z" transform="translate(-998.945 -1280.262)" fill="#78c2ff"/>
          </g>
        </g>
        <g id="Group_384" data-name="Group 384" transform="translate(4.244 4.615)">
          <g id="Group_382" data-name="Group 382" transform="translate(0.956 1.32)">
            <g id="Group_381" data-name="Group 381">
              <g id="Group_380" data-name="Group 380">
                <g id="Group_379" data-name="Group 379">
                  <g id="Group_378" data-name="Group 378">
                    <path id="Path_120" data-name="Path 120" d="M1006.449,1324.6l-.508-.832a.145.145,0,0,1,.247-.151l.359.588.955-.565a.145.145,0,0,1,.147.249Z" transform="translate(-1005.92 -1323.548)" fill="#78c2ff"/>
                  </g>
                </g>
              </g>
            </g>
          </g>
          <g id="Group_383" data-name="Group 383">
            <path id="Path_121" data-name="Path 121" d="M1000.772,1317.575a1.827,1.827,0,1,1,1.827-1.827A1.829,1.829,0,0,1,1000.772,1317.575Zm0-3.393a1.566,1.566,0,1,0,1.566,1.566A1.567,1.567,0,0,0,1000.772,1314.182Z" transform="translate(-998.945 -1313.921)" fill="#78c2ff"/>
          </g>
        </g>
        <rect id="Rectangle_159" data-name="Rectangle 159" width="3.588" height="0.756" transform="translate(0 1.827)" fill="#e6e6e6"/>
        <rect id="Rectangle_160" data-name="Rectangle 160" width="3.588" height="0.756" transform="translate(0 5.253)" fill="#e6e6e6"/>
        <rect id="Rectangle_161" data-name="Rectangle 161" width="3.588" height="0.756" transform="translate(0 6.757)" fill="#e6e6e6"/>
      </g>
    </g>
    <g id="Group_394" data-name="Group 394" transform="translate(466.181 278.083)">
      <path id="Path_122" data-name="Path 122" d="M1010.416,1416.79a9.662,9.662,0,0,1-2.022.521,5.024,5.024,0,0,0-2.478,1.4,38.928,38.928,0,0,0-3.03,3.619c-.047.364.68.243.924-.046s2.563-2.587,2.563-2.587a25.4,25.4,0,0,0-2.585,3.236c.017.34.408.63.889.33a.6.6,0,0,0,1.061.1l1.354-1.353s-.573.825.179.588c.4-.126,1.741-1.832,2.116-2.085a20.207,20.207,0,0,0,1.811-2.437Z" transform="translate(-1002.884 -1375.229)" fill="#eea886"/>
      <path id="Path_123" data-name="Path 123" d="M1067.888,1826.169a9.433,9.433,0,0,1-1.59,2.37c-.6.39-3.959,3.659-4.649,3.959s-2.91.72-2.879,1.77,5.729.72,6.839.33,2.969-2.909,3.719-2.879.48,3.089.48,3.089h.81a23.177,23.177,0,0,0,.99-4.379,41.14,41.14,0,0,0-.66-4.259h-3.059Z" transform="translate(-1051.108 -1728.483)" fill="#162d40"/>
      <path id="Path_124" data-name="Path 124" d="M1177.653,1817.2a6.913,6.913,0,0,1-1.151,2.644c-.715.684-3.4,3.578-4.079,3.889s-1.987.529-2.392,1.027-.163,1.96,2.392,1.8,3.387-.132,3.994-.646,2.567-2.286,3.15-2.333v2.823h.7s1.237-3.71.793-5.273a15.652,15.652,0,0,1-.42-3.686Z" transform="translate(-1146.981 -1720.743)" fill="#162d40"/>
      <path id="Path_125" data-name="Path 125" d="M1219.2,1191.843s1.165,3,.259,5.318c0,0,4.271-.27,4.433-.756s-.172-4.98.416-6.309S1219.2,1191.843,1219.2,1191.843Z" transform="translate(-1189.544 -1179.327)" fill="#eea886"/>
      <g id="Group_389" data-name="Group 389" transform="translate(36.687 51.691)">
        <g id="Group_388" data-name="Group 388">
          <g id="Group_387" data-name="Group 387">
            <path id="Path_126" data-name="Path 126" d="M1271.189,1491.732a3.28,3.28,0,0,0-.21,1.137,5.4,5.4,0,0,1-.264,1.347,12.552,12.552,0,0,0-.225,2.2,9.524,9.524,0,0,1,.51,1.329c.005.31-.061.941.21.924s.487-.57.487-.57a.388.388,0,0,0,.264.34.667.667,0,0,0,.669-.119s.212.27.421.267a.851.851,0,0,0,.646-.234.782.782,0,0,0,.53.056.713.713,0,0,0,.5-.474s.514,0,.618-.272a2.4,2.4,0,0,0,.058-.742,8.24,8.24,0,0,0-1.236-3.408,3.667,3.667,0,0,1-.439-2.832Z" transform="translate(-1270.483 -1490.681)" fill="#eea886"/>
          </g>
        </g>
      </g>
      <g id="Group_390" data-name="Group 390" transform="translate(35.51 57.552)">
        <path id="Path_127" data-name="Path 127" d="M1262.436,1539.151l-.53-3.652a1.079,1.079,0,0,1,.912-1.221l5.791-.84a1.079,1.079,0,0,1,1.221.912l.53,3.652a1.079,1.079,0,0,1-.912,1.221l-5.791.84A1.079,1.079,0,0,1,1262.436,1539.151Zm.487-4.157a.355.355,0,0,0-.3.4l.53,3.652a.355.355,0,0,0,.4.3l5.791-.84a.355.355,0,0,0,.3-.4l-.53-3.652a.355.355,0,0,0-.4-.3Z" transform="translate(-1261.895 -1533.427)" fill="#1383d9"/>
      </g>
      <g id="Group_391" data-name="Group 391" transform="translate(29.403 60.358)">
        <rect id="Rectangle_162" data-name="Rectangle 162" width="21.602" height="15.729" transform="matrix(-0.99, 0.144, -0.144, -0.99, 23.634, 15.566)" fill="#3f6480"/>
      </g>
      <g id="Group_393" data-name="Group 393" transform="translate(37.66 56.072)">
        <g id="Group_392" data-name="Group 392">
          <path id="Path_128" data-name="Path 128" d="M1277.721,1525.507s-.341-1.728.043-2.194.543.15.543.15-.167-.606.308-.8.621.542.621.542a.509.509,0,0,1,.529-.508c.531-.013.513.623.513.623s.388-.7.805-.2a2.639,2.639,0,0,1,.381,2.11s-.106.3-.618.272a.705.705,0,0,1-1.027.418s-.677.583-1.066-.033A.614.614,0,0,1,1277.721,1525.507Z" transform="translate(-1277.581 -1522.636)" fill="#db9c7c"/>
        </g>
      </g>
      <path id="Path_129" data-name="Path 129" d="M1172.085,1234.076s-2.524.874-3.665,1.116-3.527,1.343-3.333,5.485a84.328,84.328,0,0,0,1.165,9.514,36.531,36.531,0,0,1-.323,8.511,32.845,32.845,0,0,0,13.17,0,28.252,28.252,0,0,1-1.23-4.725c.032-.971,4.207-8.964,4.4-10.226s1.035-6.828-.874-8.058-3.463-1.068-4.271-1.618S1173.265,1233.681,1172.085,1234.076Z" transform="translate(-1142.84 -1217.256)" fill="#1383d9"/>
      <path id="Path_130" data-name="Path 130" d="M1071.18,1243.719s-2.786-.076-4.76,4.292-2.459,6.925-2.912,7.54a20.865,20.865,0,0,1-3.592,4.174c-1.553,1.165-8.021,7.727-8.021,7.727l1.775,2.272s9.32-6.6,10.29-7.734,6.866-9.708,7.219-11S1074.256,1245.058,1071.18,1243.719Z" transform="translate(-1045.176 -1225.886)" fill="#1383d9"/>
      <path id="Path_131" data-name="Path 131" d="M1274.309,1271.516c.018,1.747-1.8,13.672-1.8,13.672l-3.429.146s1.1-11.827,1.488-14.545a13.74,13.74,0,0,0-.176-3.407h0c-.122-.863-.284-1.771-.456-2.639-.473-2.4-1.018-4.487-1.018-4.487s-3.09-10.181,1.658-9.434a11.555,11.555,0,0,1,2.177,5.017,59.4,59.4,0,0,1,.971,9.417C1273.629,1267.051,1274.3,1270.23,1274.309,1271.516Z" transform="translate(-1231.595 -1231.98)" fill="#1383d9"/>
      <path id="Path_132" data-name="Path 132" d="M1129.74,1402.787a29.048,29.048,0,0,0-1.2,3.259c-.1.657-3.546,9.244-3.786,11.757-.243,2.54-.971,9.32-1.23,10.291s.583,5.307.712,6.278.065,16.827-1.1,24.658c0,0,2.718,1.165,4.789,0,0,0,3.43-12.232,3.236-19.287s-1.089-10.031.005-12.879,7.5-11.391,8.149-12.3,4.7-5.913.862-11.338S1129.74,1402.787,1129.74,1402.787Z" transform="translate(-1106.652 -1361.343)" fill="#1d3b54"/>
      <path id="Path_133" data-name="Path 133" d="M1197.147,1423.738c-.341,2.266.018,5.243.729,13.527s-1.245,18.315-1.245,18.315a9.939,9.939,0,0,1-5.291,0c.065-.582,0-20.193,0-21.94s-.5-3.731-.631-5.736a40.9,40.9,0,0,0-1.44-6.46c-.214-.771-.436-1.545-.651-2.3h0c-.121-.42-.24-.834-.355-1.234-1.008-3.495-2.363-16.99-2.363-16.99s7.511-6.05,11.168-.354,1.779,9.837,1.65,10.548S1197.487,1421.474,1197.147,1423.738Z" transform="translate(-1160.808 -1359.124)" fill="#1d3b54"/>
      <path id="Path_134" data-name="Path 134" d="M1154.917,1272.324s.506,10.191-1.921,16.064a35.236,35.236,0,0,0,18.348,0s-2.216-7.305-2.039-8.422,4.047-13.995,2.857-17.025S1156.111,1262.765,1154.917,1272.324Z" transform="translate(-1132.415 -1241.475)" fill="#1383d9"/>
      <path id="Path_135" data-name="Path 135" d="M1198.054,1118.537c-1.8-.2-6.472.162-6.116,7.184s2.912,6.6,5.469,5.857,5.6-6.181,5.6-7.637S1203.2,1119.119,1198.054,1118.537Z" transform="translate(-1166.002 -1117.833)" fill="#eea886"/>
      <path id="Path_136" data-name="Path 136" d="M1193.949,1118.312s2.031,2.591,4.074,3.21a7.994,7.994,0,0,0,4.315,3.528s5.849-5.594.931-9.8S1193.916,1116.165,1193.949,1118.312Z" transform="translate(-1167.754 -1113.64)" fill="#7d532f"/>
      <path id="Path_137" data-name="Path 137" d="M1220.336,1159.751a.882.882,0,0,1,1.577-.291c.656.874-.541,2.912-.994,2.912S1220.077,1161.207,1220.336,1159.751Z" transform="translate(-1190.452 -1152.834)" fill="#eea886"/>
      <path id="Path_138" data-name="Path 138" d="M1251.406,1130.383c.147-.222,4.58-2.22,5.5,1.955s-3.571,9.028-4.358,11.116,0,7.038,0,7.038a16.453,16.453,0,0,1-3.166-5.15C1248.486,1142.484,1248.184,1135.274,1251.406,1130.383Z" transform="translate(-1215.067 -1127.508)" fill="#7d532f"/>
      <path id="Path_139" data-name="Path 139" d="M1211.137,1496.17c-.058.129-3.8,8.436-4.764,9.877-.214-.771-.436-1.546-.651-2.3h0S1211.013,1496.352,1211.137,1496.17Z" transform="translate(-1177.914 -1443.726)" fill="#162d40"/>
      <path id="Path_140" data-name="Path 140" d="M1283.814,1309.99a60.368,60.368,0,0,1-.782,8.481c-.123-.863-.285-1.771-.456-2.639C1282.6,1315.713,1283.685,1310.817,1283.814,1309.99Z" transform="translate(-1244.23 -1283.071)"/>
    </g>
  </g>
</svg>
