<?xml version="1.0" encoding="utf-8"?>
<!-- Generator: Adobe Illustrator 16.0.0, SVG Export Plug-In . SVG Version: 6.00 Build 0)  -->
<!DOCTYPE svg PUBLIC "-//W3C//DTD SVG 1.1//EN" "http://www.w3.org/Graphics/SVG/1.1/DTD/svg11.dtd">
<svg version="1.1" id="_x31__px" xmlns="http://www.w3.org/2000/svg" xmlns:xlink="http://www.w3.org/1999/xlink" x="0px" y="0px"
	 width="63.444px" height="64.001px" viewBox="0 -7.501 63.444 64.001" enable-background="new 0 -7.501 63.444 64.001"
	 xml:space="preserve">
<g>
	<g>
		<path fill="#646E7F" d="M42.296,11.933H52.87c0.74,0,1.321-0.582,1.321-1.322S53.61,9.289,52.87,9.289H42.296
			c-0.74,0-1.322,0.582-1.322,1.322S41.556,11.933,42.296,11.933z"/>
		<path fill="#646E7F" d="M52.87,35.724H42.296c-0.74,0-1.322,0.582-1.322,1.322s0.582,1.321,1.322,1.321H52.87
			c0.74,0,1.321-0.581,1.321-1.321S53.61,35.724,52.87,35.724z"/>
		<path fill="#646E7F" d="M52.87,43.654H42.296c-0.74,0-1.322,0.582-1.322,1.322s0.582,1.322,1.322,1.322H52.87
			c0.74,0,1.321-0.582,1.321-1.322S53.61,43.654,52.87,43.654z"/>
		<path fill="#646E7F" d="M10.574,11.933h3.965v3.965c0,0.74,0.582,1.322,1.322,1.322s1.322-0.582,1.322-1.322v-3.965h3.965
			c0.74,0,1.322-0.582,1.322-1.322s-0.582-1.322-1.322-1.322h-3.965V5.324c0-0.74-0.582-1.322-1.322-1.322s-1.322,0.582-1.322,1.322
			v3.965h-3.965c-0.74,0-1.322,0.582-1.322,1.322S9.834,11.933,10.574,11.933z"/>
		<path fill="#646E7F" d="M17.711,41.011l-1.851,1.851l3.04,3.04c0.238,0.264,0.582,0.396,0.925,0.396s0.688-0.132,0.925-0.396
			c0.529-0.502,0.529-1.348,0-1.851L17.711,41.011z"/>
		<path fill="#646E7F" d="M20.751,37.971c0.529-0.502,0.529-1.348,0-1.85c-0.502-0.529-1.348-0.529-1.851,0l-3.04,3.04l1.851,1.851
			L20.751,37.971z"/>
		<path fill="#646E7F" d="M17.703,41.008l-1.845-1.845l0.002-0.003l-3.04-3.04c-0.502-0.529-1.348-0.529-1.85,0
			c-0.529,0.502-0.529,1.348,0,1.85l3.035,3.035l-0.002,0.002l0.005,0.005l-3.037,3.037c-0.529,0.502-0.529,1.348,0,1.851
			c0.238,0.264,0.582,0.396,0.925,0.396c0.344,0,0.688-0.132,0.925-0.396l3.04-3.04l-0.005-0.005L17.703,41.008z"/>
		<path fill="#646E7F" d="M0-7.501V56.5h63.444V-7.501H0z M60.811,23.043H33.178V-4.651h27.633V23.043z M30.266-4.651v27.695H2.633
			V-4.651H30.266z M2.633,25.955h27.633V53.65H2.633V25.955z M33.178,53.65V25.955h27.633V53.65H33.178z"/>
	</g>
</g>
</svg>
