<svg xmlns="http://www.w3.org/2000/svg" width="24" height="24" viewBox="0 0 24 24">
  <g id="Group_962" data-name="Group 962" transform="translate(1556 3505)">
    <path id="Vector" d="M0,0H24V24H0Z" transform="translate(-1556 -3505)" fill="none" opacity="0"/>
    <g id="e850878411a5f6fccb574c9803c837bf" transform="translate(-1563.32 -3560.288)">
      <path id="Path_783" data-name="Path 783" d="M12.339,74.966a2.444,2.444,0,0,1-2.332-2.312L10,63.9a2.483,2.483,0,0,1,2.553-2.276l1.734.013c.253-.86.972-2.612,2.636-2.612.011,0,2.85-.049,4.235,0,.143.02,1.664.319,2.33,2.614h2a2.567,2.567,0,0,1,2.254,2.334l.005,8.638a2.546,2.546,0,0,1-2.256,2.355l-13.129,0-.018-.559v.559Zm.215-12.224a1.366,1.366,0,0,0-1.436,1.209l0,8.607c.221,1.222,1.055,1.289,1.22,1.289l0,0v0l13.093,0a1.418,1.418,0,0,0,1.191-1.3l0-8.5a1.39,1.39,0,0,0-1.189-1.291l-2.381,0a.56.56,0,0,1-.547-.442c-.422-1.923-1.437-2.174-1.481-2.185-.366-.005-.979-.011-1.6-.011-1.242,0-2.495.022-2.5.022-1.217,0-1.655,2.136-1.658,2.158a.561.561,0,0,1-.556.456Z" fill="#292d32" stroke="#292d32" stroke-width="0.5"/>
      <path id="Path_784" data-name="Path 784" d="M294.978,370.057a3.778,3.778,0,1,1,3.778-3.778A3.782,3.782,0,0,1,294.978,370.057Zm0-6.438a2.66,2.66,0,1,0,2.66,2.66A2.663,2.663,0,0,0,294.978,363.619Z" transform="translate(-276.109 -298.005)" fill="#292d32" stroke="#292d32" stroke-width="0.5"/>
      <path id="Path_785" data-name="Path 785" d="M755.965,322.644a.413.413,0,0,1-.375.444h-1.515a.413.413,0,0,1-.375-.444h0a.413.413,0,0,1,.375-.444h1.515a.414.414,0,0,1,.375.444Z" transform="translate(-730.236 -258.435)" fill="#292d32" stroke="#292d32" stroke-width="0.5"/>
    </g>
  </g>
</svg>
