<svg xmlns="http://www.w3.org/2000/svg" width="22" height="22" viewBox="0 0 22 22">
  <g id="Group_7" data-name="Group 7" transform="translate(-721 -682)">
    <path id="Path_2" data-name="Path 2" d="M6.9,0A6.963,6.963,0,1,1,0,6.963,6.933,6.933,0,0,1,6.9,0Z" transform="translate(725.157 686.037)" fill="#fff"/>
    <path id="cancel-74" d="M107,118a11,11,0,1,1,11-11A11,11,0,0,1,107,118Zm5.044-14.208a.53.53,0,0,0,0-.749l-1.124-1.123a.53.53,0,0,0-.749,0l-3.182,3.182-3.182-3.182a.53.53,0,0,0-.749,0l-1.124,1.123a.53.53,0,0,0,0,.749l3.183,3.183-3.183,3.182a.53.53,0,0,0,0,.749l1.124,1.124a.53.53,0,0,0,.749,0l3.182-3.183,3.182,3.183a.53.53,0,0,0,.749,0l1.124-1.124a.53.53,0,0,0,0-.749l-3.183-3.182Z" transform="translate(625 586)" fill="#f82a2a"/>
  </g>
</svg>
