<?xml version="1.0" encoding="UTF-8"?>
<svg xmlns="http://www.w3.org/2000/svg" xmlns:xlink="http://www.w3.org/1999/xlink" width="30pt" height="30pt" viewBox="0 0 30 30" version="1.1">
<g id="surface1">
<path style=" stroke:none;fill-rule:nonzero;fill:rgb(17.254902%,50.588235%,73.333333%);fill-opacity:1;" d="M 12.949219 3.605469 C 13.875 2.003906 16.183594 2.003906 17.109375 3.605469 L 28.273438 22.9375 C 29.195312 24.539062 28.039062 26.542969 26.191406 26.542969 L 3.867188 26.542969 C 2.019531 26.542969 0.863281 24.542969 1.789062 22.9375 Z M 12.949219 3.605469 "/>
<path style=" stroke:none;fill-rule:nonzero;fill:rgb(23.137255%,59.215686%,82.745098%);fill-opacity:1;" d="M 24.574219 25.460938 L 5.308594 25.460938 C 5.097656 25.460938 4.886719 25.429688 4.6875 25.375 C 4.496094 25.320312 4.316406 25.242188 4.144531 25.140625 C 3.820312 24.941406 3.542969 24.660156 3.351562 24.324219 C 3.160156 23.988281 3.054688 23.609375 3.050781 23.226562 C 3.046875 23.027344 3.070312 22.832031 3.121094 22.640625 C 3.175781 22.4375 3.257812 22.246094 3.363281 22.0625 L 12.996094 5.652344 C 13.101562 5.472656 13.230469 5.308594 13.378906 5.167969 C 13.519531 5.03125 13.675781 4.914062 13.847656 4.820312 C 14.179688 4.636719 14.558594 4.539062 14.941406 4.539062 C 15.324219 4.539062 15.703125 4.636719 16.035156 4.820312 C 16.207031 4.914062 16.363281 5.03125 16.503906 5.167969 C 16.652344 5.308594 16.78125 5.472656 16.886719 5.652344 L 26.519531 22.0625 C 26.625 22.246094 26.707031 22.4375 26.761719 22.640625 C 26.8125 22.832031 26.835938 23.027344 26.832031 23.226562 C 26.828125 23.609375 26.722656 23.988281 26.53125 24.324219 C 26.339844 24.660156 26.0625 24.941406 25.738281 25.140625 C 25.566406 25.242188 25.386719 25.320312 25.195312 25.375 C 24.996094 25.429688 24.785156 25.460938 24.574219 25.460938 Z M 24.574219 25.460938 "/>
<path style=" stroke:none;fill-rule:nonzero;fill:rgb(100%,100%,100%);fill-opacity:1;" d="M 14.941406 4.6875 C 14.582031 4.6875 14.230469 4.777344 13.917969 4.945312 C 13.757812 5.035156 13.613281 5.144531 13.480469 5.269531 C 13.34375 5.40625 13.222656 5.558594 13.121094 5.726562 L 3.492188 22.136719 C 3.390625 22.308594 3.3125 22.488281 3.265625 22.675781 C 3.21875 22.855469 3.195312 23.039062 3.195312 23.222656 C 3.199219 23.582031 3.296875 23.9375 3.480469 24.25 C 3.660156 24.566406 3.914062 24.828125 4.222656 25.015625 C 4.378906 25.109375 4.550781 25.183594 4.726562 25.234375 C 4.914062 25.285156 5.109375 25.3125 5.308594 25.3125 L 24.574219 25.3125 C 24.773438 25.3125 24.96875 25.285156 25.15625 25.234375 C 25.332031 25.183594 25.503906 25.109375 25.660156 25.015625 C 25.96875 24.828125 26.222656 24.566406 26.402344 24.25 C 26.585938 23.9375 26.683594 23.582031 26.6875 23.222656 C 26.6875 23.039062 26.664062 22.855469 26.617188 22.675781 C 26.570312 22.488281 26.492188 22.308594 26.390625 22.136719 L 16.761719 5.726562 C 16.660156 5.558594 16.539062 5.40625 16.402344 5.269531 C 16.269531 5.144531 16.125 5.035156 15.964844 4.945312 C 15.652344 4.777344 15.300781 4.6875 14.941406 4.6875 M 14.941406 4.394531 C 15.746094 4.394531 16.550781 4.789062 17.011719 5.578125 L 26.644531 21.988281 C 27.585938 23.589844 26.429688 25.605469 24.574219 25.605469 L 5.308594 25.605469 C 3.453125 25.605469 2.296875 23.589844 3.238281 21.988281 L 12.871094 5.578125 C 13.332031 4.789062 14.136719 4.394531 14.941406 4.394531 Z M 14.941406 4.394531 "/>
<path style=" stroke:none;fill-rule:nonzero;fill:rgb(100%,100%,100%);fill-opacity:1;" d="M 14.835938 8.046875 L 15.164062 8.046875 C 16.074219 8.046875 16.8125 8.910156 16.8125 9.976562 L 16.320312 17.507812 C 16.320312 18.574219 15.9375 19.730469 15.027344 19.730469 C 14.011719 19.699219 13.710938 18.574219 13.710938 17.507812 L 13.1875 9.976562 C 13.1875 8.910156 13.925781 8.046875 14.835938 8.046875 Z M 14.835938 8.046875 "/>
<path style=" stroke:none;fill-rule:nonzero;fill:rgb(100%,100%,100%);fill-opacity:1;" d="M 16.40625 22.207031 C 16.40625 22.984375 15.777344 23.613281 15 23.613281 C 14.222656 23.613281 13.59375 22.984375 13.59375 22.207031 C 13.59375 21.429688 14.222656 20.800781 15 20.800781 C 15.777344 20.800781 16.40625 21.429688 16.40625 22.207031 Z M 16.40625 22.207031 "/>
</g>
</svg>
