<svg width="141" height="45" viewBox="0 0 141 45" fill="none" xmlns="http://www.w3.org/2000/svg">
<path d="M65.0709 22.0096C68.8514 20.7515 69.5367 17.5788 69.5291 14.9926C69.5215 11.0389 66.7332 7.62463 58.4809 7.62463L43.0748 7.62159V37.3032H58.4384C66.7423 37.3032 69.7965 33.0411 69.7965 28.7713C69.7965 23.6005 65.0709 22.0096 65.0709 22.0096ZM50.3866 14.0794H60.7586L60.7951 14.087C61.9651 14.2936 62.8175 15.2889 62.8175 16.4559C62.8175 17.6517 61.9043 18.7777 60.6978 18.9418L50.3912 18.9585L50.3866 14.0794ZM60.2587 30.385H50.3866V25.4178H60.5003L60.5231 25.4208C61.7812 25.5637 62.7355 26.6106 62.7355 27.852C62.7355 29.2089 61.6065 30.3668 60.2587 30.385Z" fill="#006A4D"/>
<path d="M104.292 7.62762H130.324L130.309 14.1037H111.526L111.544 18.8885H128.478V25.3995H111.544V30.5764H130.33L130.325 37.3655H104.292" fill="#006A4D"/>
<path d="M89.1502 7.66417H73.4083V37.3564H80.6365V25.3419L88.5986 25.3343C90.8779 25.3692 92.6511 27.2351 92.6511 29.5387V37.3291L99.7258 37.3261L99.7137 27.7457C99.7137 23.3058 95.4242 21.9929 95.4242 21.9929C95.4242 21.9929 99.8094 20.6831 99.8094 15.4348C99.8094 9.01195 94.2921 7.66417 89.1502 7.66417ZM93.0963 16.8753C92.9656 17.8523 91.9901 18.9114 90.7715 18.9114L80.6107 18.9144V14.1615H90.7745C91.9901 14.1615 92.9413 15.0534 93.0963 16.228" fill="#006A4D"/>
<path d="M38.3888 30.1813C38.2869 30.1828 28.5075 30.3712 25.1312 30.043C19.6976 29.5112 17.7708 25.483 17.7708 22.1979C17.7708 18.0968 20.5652 15.0822 24.8927 14.5169C26.9531 14.2464 38.2095 14.3741 38.3295 14.3741L38.565 14.3786L38.5893 7.62604H38.3508L25.6084 7.65035C24.1892 7.73697 21.837 7.8798 19.4271 8.86442C17.1159 9.92502 15.1011 11.5539 13.5983 13.5794C11.6838 16.1564 10.6703 19.2182 10.6703 22.4274C10.6703 23.4393 10.7508 24.4407 10.9134 25.4025C11.8297 29.9032 14.782 33.6305 19.0138 35.6332C20.4421 36.2623 22.6469 37.0144 27.0899 37.2651L29.4846 37.3153L38.366 37.3229H38.6015L38.6258 30.1783" fill="#006A4D"/>
</svg>
