<?xml version="1.0" encoding="utf-8"?>
<!-- Generator: Adobe Illustrator 16.0.0, SVG Export Plug-In . SVG Version: 6.00 Build 0)  -->
<!DOCTYPE svg PUBLIC "-//W3C//DTD SVG 1.1//EN" "http://www.w3.org/Graphics/SVG/1.1/DTD/svg11.dtd">
<svg version="1.1" id="Layer_1" xmlns="http://www.w3.org/2000/svg" xmlns:xlink="http://www.w3.org/1999/xlink" x="0px" y="0px"
	 width="16.667px" height="16.668px" viewBox="0 0 16.667 16.668" enable-background="new 0 0 16.667 16.668" xml:space="preserve">
<g>
	<path fill-rule="evenodd" clip-rule="evenodd" fill="#666666" d="M0,8.66c0.085-0.217,0.079-0.45,0.122-0.674
		C0.435,6.348,1.214,4.973,2.45,3.861c1.097-0.985,2.384-1.577,3.84-1.798C6.607,2.015,6.926,1.99,7.246,1.986
		c0.414-0.003,0.6,0.177,0.6,0.587c0,2.018,0.002,4.036-0.004,6.053c0,0.163,0.036,0.201,0.199,0.2
		c2.013-0.006,4.025-0.004,6.037-0.004c0.433,0,0.609,0.18,0.603,0.616c-0.05,3.437-2.503,6.393-5.886,7.088
		c-0.26,0.053-0.522,0.095-0.788,0.11c-0.026,0.001-0.056-0.005-0.064,0.032c-0.401,0-0.803,0-1.204,0
		c-0.01-0.035-0.04-0.03-0.065-0.032c-1.456-0.145-2.762-0.665-3.899-1.584c-1.419-1.147-2.308-2.618-2.652-4.416
		C0.08,10.412,0.084,10.178,0,9.961C0,9.528,0,9.093,0,8.66z M7.458,15.693c0.273-0.029,0.511-0.032,0.748-0.064
		c1.347-0.186,2.517-0.747,3.498-1.68c1.137-1.081,1.788-2.415,1.967-3.977c0.015-0.134-0.001-0.18-0.156-0.179
		c-1.996,0.006-3.992,0.001-5.988,0.008C7.269,9.802,7.075,9.726,6.893,9.542C5.475,8.114,4.049,6.694,2.627,5.27
		C2.555,5.197,2.522,5.169,2.44,5.271C1.707,6.172,1.24,7.19,1.056,8.34c-0.157,0.988-0.082,1.959,0.225,2.906
		c0.435,1.338,1.226,2.427,2.373,3.249C4.801,15.317,6.086,15.698,7.458,15.693z M6.869,8.097c0-1.668-0.001-3.327,0.003-4.986
		c0-0.12-0.043-0.127-0.139-0.117C5.415,3.13,4.249,3.626,3.24,4.468C4.448,5.676,5.654,6.882,6.869,8.097z"/>
	<path fill-rule="evenodd" clip-rule="evenodd" fill="#666666" d="M9.897,0c0.175,0.07,0.365,0.059,0.547,0.089
		c3.065,0.505,5.458,2.795,6.081,5.83c0.094,0.458,0.142,0.921,0.143,1.389c0,0.335-0.197,0.538-0.535,0.538
		c-2.256,0.001-4.513,0.001-6.771,0c-0.346,0-0.539-0.198-0.54-0.549c0-2.246,0.001-4.492-0.002-6.737
		C8.82,0.271,8.954,0.096,9.213,0C9.44,0,9.669,0,9.897,0z M9.799,3.938c0,0.922,0.003,1.844-0.003,2.766
		c0,0.131,0.024,0.169,0.164,0.169c1.784-0.005,3.569-0.003,5.353-0.004c0.113,0,0.264,0.037,0.329-0.021
		c0.072-0.063-0.004-0.21-0.013-0.321c-0.005-0.059-0.011-0.119-0.021-0.177c-0.18-1.084-0.599-2.065-1.285-2.924
		c-1.126-1.411-2.592-2.212-4.387-2.417c-0.116-0.013-0.141,0.017-0.14,0.131C9.801,2.072,9.799,3.005,9.799,3.938z"/>
</g>
</svg>
