<?xml version="1.0" encoding="UTF-8"?>
<svg xmlns="http://www.w3.org/2000/svg" xmlns:xlink="http://www.w3.org/1999/xlink" width="30pt" height="30pt" viewBox="0 0 30 30" version="1.1">
<g id="surface1">
<path style=" stroke:none;fill-rule:nonzero;fill:rgb(0%,55.294118%,21.960784%);fill-opacity:1;" d="M 28.886719 15 C 28.886719 22.667969 22.667969 28.886719 15 28.886719 C 7.332031 28.886719 1.113281 22.667969 1.113281 15 C 1.113281 7.332031 7.332031 1.113281 15 1.113281 C 22.667969 1.113281 28.886719 7.332031 28.886719 15 Z M 28.886719 15 "/>
<path style=" stroke:none;fill-rule:nonzero;fill:rgb(14.901961%,65.882353%,23.529412%);fill-opacity:1;" d="M 27.070312 15 C 27.070312 21.667969 21.667969 27.070312 15 27.070312 C 8.332031 27.070312 2.929688 21.667969 2.929688 15 C 2.929688 8.332031 8.332031 2.929688 15 2.929688 C 21.667969 2.929688 27.070312 8.332031 27.070312 15 Z M 27.070312 15 "/>
<path style="fill:none;stroke-width:5;stroke-linecap:butt;stroke-linejoin:miter;stroke:rgb(100%,100%,100%);stroke-opacity:1;stroke-miterlimit:4;" d="M 409.466667 206 C 409.466667 318.4 318.4 409.466667 206 409.466667 C 93.6 409.466667 2.533333 318.4 2.533333 206 C 2.533333 93.6 93.6 2.533333 206 2.533333 C 318.4 2.533333 409.466667 93.6 409.466667 206 Z M 409.466667 206 " transform="matrix(0.0585938,0,0,0.0585938,2.929688,2.929688)"/>
<path style=" stroke:none;fill-rule:nonzero;fill:rgb(100%,100%,100%);fill-opacity:1;" d="M 19.957031 9.316406 L 13.164062 16.105469 L 9.996094 12.9375 L 7.734375 15.199219 L 13.164062 20.632812 L 22.21875 11.578125 Z M 19.957031 9.316406 "/>
</g>
</svg>
