<svg width="28" height="28" viewBox="0 0 28 28" fill="none" xmlns="http://www.w3.org/2000/svg">
<path d="M27.8867 14C27.8867 21.668 21.668 27.8867 14 27.8867C6.33203 27.8867 0.113281 21.668 0.113281 14C0.113281 6.33203 6.33203 0.113281 14 0.113281C21.668 0.113281 27.8867 6.33203 27.8867 14Z" fill="#FF0000"/>
<path d="M26.0703 14C26.0703 20.668 20.668 26.0703 14 26.0703C7.33203 26.0703 1.92969 20.668 1.92969 14C1.92969 7.33203 7.33203 1.92969 14 1.92969C20.668 1.92969 26.0703 7.33203 26.0703 14Z" fill="#CB1919"/>
<path d="M25.9219 14C25.9219 20.586 20.586 25.9219 14 25.9219C7.41407 25.9219 2.07812 20.586 2.07812 14C2.07812 7.41407 7.41407 2.07812 14 2.07812C20.586 2.07812 25.9219 7.41407 25.9219 14Z" stroke="white" stroke-width="0.292969"/>
<path d="M18.957 8.31641L12.1641 15.1055L8.99609 11.9375L6.73438 14.1992L12.1641 19.6328L21.2188 10.5781L18.957 8.31641Z" fill="white"/>
</svg>
