<svg width="28" height="28" viewBox="0 0 28 28" fill="none" xmlns="http://www.w3.org/2000/svg">
<path d="M27.8867 13.9219C27.8867 21.5899 21.668 27.8086 14 27.8086C6.33203 27.8086 0.113281 21.5899 0.113281 13.9219C0.113281 6.2539 6.33203 0.0351562 14 0.0351562C21.668 0.0351562 27.8867 6.2539 27.8867 13.9219Z" fill="#F88A2B"/>
<path d="M26.0703 13.9219C26.0703 20.5899 20.668 25.9922 14 25.9922C7.33203 25.9922 1.92969 20.5899 1.92969 13.9219C1.92969 7.2539 7.33203 1.85156 14 1.85156C20.668 1.85156 26.0703 7.2539 26.0703 13.9219Z" fill="#FBA830"/>
<path d="M25.9219 13.9219C25.9219 20.5079 20.586 25.8438 14 25.8438C7.41407 25.8438 2.07812 20.5079 2.07812 13.9219C2.07812 7.33595 7.41407 2 14 2C20.586 2 25.9219 7.33595 25.9219 13.9219Z" stroke="white" stroke-width="0.292969"/>
<path d="M18.957 8.23828L12.1641 15.0274L8.99609 11.8594L6.73438 14.1211L12.1641 19.5547L21.2188 10.5L18.957 8.23828Z" fill="white"/>
</svg>
