<?xml version="1.0" encoding="utf-8"?>
<!-- Generator: Adobe Illustrator 16.0.0, SVG Export Plug-In . SVG Version: 6.00 Build 0)  -->
<!DOCTYPE svg PUBLIC "-//W3C//DTD SVG 1.1//EN" "http://www.w3.org/Graphics/SVG/1.1/DTD/svg11.dtd">
<svg version="1.1" id="Layer_1" xmlns="http://www.w3.org/2000/svg" xmlns:xlink="http://www.w3.org/1999/xlink" x="0px" y="0px"
	 width="421.187px" height="421.187px" viewBox="276.657 108.407 421.187 421.187"
	 enable-background="new 276.657 108.407 421.187 421.187" xml:space="preserve">
<circle fill="#C6D1DC" cx="487.25" cy="319" r="210.594"/>
<path fill="#65717E" d="M511.89,319l75.414-75.413c6.72-6.72,6.72-17.92,0-24.64c-6.721-6.72-17.921-6.72-24.641,0l-75.413,75.413
	l-75.413-75.413c-6.721-6.72-17.92-6.72-24.64,0c-6.72,6.72-6.72,17.92,0,24.64L462.61,319l-75.414,75.413
	c-6.72,6.721-6.72,17.92,0,24.641c6.72,6.72,17.919,6.72,24.64,0l75.413-75.413l75.413,75.413c6.72,6.72,17.92,6.72,24.641,0
	c6.72-6.721,6.72-17.92,0-24.64l0,0L511.89,319z"/>
</svg>
