<svg xmlns="http://www.w3.org/2000/svg" width="292.192" height="275.444" viewBox="0 0 292.192 275.444">
  <g id="Group_309" data-name="Group 309" transform="translate(-895.949 -560.736)">
    <g id="Group_10" data-name="Group 10" transform="translate(928.922 637.148)">
      <g id="Group_9" data-name="Group 9">
        <path id="Path_77" data-name="Path 77" d="M278.014,188.328c-8.135-11.833-27.18-14.175-37.9-4.561a24.8,24.8,0,0,0-42.28-17.01c1.541-5.362-4.129-10.662-9.738-10.971S177.307,158.5,172.5,161.4s-9.984,5.855-15.593,5.485c-6.04-.431-11.094-4.622-16.764-6.841-13.867-5.362-31.371,4.129-34.452,18.675-15.346-6.163-35.007,3.944-38.89,20.03l224.526,2.65A17.751,17.751,0,0,0,278.014,188.328Z" transform="translate(-66.8 -155.765)" fill="#cddbec"/>
      </g>
    </g>
    <g id="Group_13" data-name="Group 13" transform="translate(1080.362 585.362)">
      <g id="Group_12" data-name="Group 12">
        <g id="Group_11" data-name="Group 11">
          <path id="Path_78" data-name="Path 78" d="M363.291,83.857c.37-2.835-3.575-5.115-6.595-5.362-1.418-.123-2.9.123-4.253-.37-2.958-1.048-4.068-4.807-6.964-5.978-2.157-.924-4.622-.123-6.656.924-2.1,1.048-4.129,2.342-6.41,2.527-2.034.123-4.191-.616-5.978.37-1.294.74-1.972,2.219-3.2,3.143a7.5,7.5,0,0,1-4.191,1.109,12.653,12.653,0,0,0-4.314.678c-1.356.616-2.465,2.034-2.157,3.451Z" transform="translate(-312.516 -71.741)" fill="#cddbec"/>
        </g>
      </g>
    </g>
    <g id="Group_16" data-name="Group 16" transform="translate(907.335 567.496)">
      <g id="Group_15" data-name="Group 15">
        <g id="Group_14" data-name="Group 14">
          <path id="Path_79" data-name="Path 79" d="M60.141,49.5c.247-1.6-2.034-2.9-3.7-3.02a10.543,10.543,0,0,1-2.4-.185c-1.664-.555-2.28-2.65-3.883-3.328a4.419,4.419,0,0,0-3.7.555,11.123,11.123,0,0,1-3.575,1.418c-1.109.062-2.342-.37-3.328.185-.74.431-1.109,1.233-1.787,1.726a3.942,3.942,0,0,1-2.342.616,7.838,7.838,0,0,0-2.4.37,1.975,1.975,0,0,0-1.233,1.911Z" transform="translate(-31.774 -42.753)" fill="#d1e1f5"/>
        </g>
      </g>
    </g>
    <g id="Group_19" data-name="Group 19" transform="translate(1108.763 612.246)">
      <g id="Group_18" data-name="Group 18">
        <g id="Group_17" data-name="Group 17">
          <path id="Path_80" data-name="Path 80" d="M416.964,129.314c.431-3.267-4.129-5.917-7.581-6.163-1.664-.123-3.328.123-4.869-.431-3.39-1.171-4.684-5.547-8.012-6.9-2.465-1.048-5.3-.123-7.642,1.109s-4.746,2.712-7.4,2.9c-2.342.123-4.807-.74-6.841.431-1.479.863-2.28,2.589-3.7,3.575a8.674,8.674,0,0,1-4.807,1.294,13.686,13.686,0,0,0-4.992.8c-1.541.678-2.835,2.342-2.465,4.006Z" transform="translate(-358.597 -115.361)" fill="#d1e1f5"/>
        </g>
      </g>
    </g>
    <g id="Group_22" data-name="Group 22" transform="translate(1119.816 560.736)">
      <g id="Group_21" data-name="Group 21">
        <g id="Group_20" data-name="Group 20">
          <path id="Path_81" data-name="Path 81" d="M417.559,41.655c.308-2.28-2.9-4.191-5.3-4.376a15.99,15.99,0,0,1-3.451-.308c-2.342-.8-3.328-3.883-5.609-4.869-1.726-.74-3.7-.062-5.424.74-1.664.863-3.328,1.911-5.177,2.034-1.6.123-3.39-.493-4.807.308-1.048.616-1.6,1.787-2.589,2.527a6.518,6.518,0,0,1-3.39.924,9.758,9.758,0,0,0-3.513.555,2.712,2.712,0,0,0-1.726,2.835Z" transform="translate(-376.531 -31.784)" fill="#d1e1f5"/>
        </g>
      </g>
    </g>
    <g id="Group_25" data-name="Group 25" transform="translate(914.408 617.699)">
      <g id="Group_24" data-name="Group 24">
        <g id="Group_23" data-name="Group 23">
          <path id="Path_82" data-name="Path 82" d="M73.789,131.6c.247-1.726-2.157-3.082-3.944-3.267a9.229,9.229,0,0,1-2.589-.247c-1.787-.616-2.465-2.9-4.191-3.636a4.884,4.884,0,0,0-4.006.555,9.96,9.96,0,0,1-3.883,1.479c-1.233.062-2.527-.37-3.575.247-.8.431-1.233,1.356-1.911,1.911a4.585,4.585,0,0,1-2.527.678,7.368,7.368,0,0,0-2.589.431,2.046,2.046,0,0,0-1.294,2.1Z" transform="translate(-43.25 -124.208)" fill="#d1e1f5"/>
        </g>
      </g>
    </g>
    <g id="Group_28" data-name="Group 28" transform="translate(943.608 583.534)">
      <g id="Group_27" data-name="Group 27">
        <g id="Group_26" data-name="Group 26">
          <path id="Path_83" data-name="Path 83" d="M155.325,84.26c.493-3.575-4.561-6.533-8.382-6.841-1.787-.123-3.7.123-5.424-.493-3.7-1.294-5.239-6.1-8.875-7.642-2.712-1.171-5.855-.123-8.505,1.171-2.65,1.356-5.239,3.02-8.2,3.2-2.589.185-5.362-.8-7.581.493-1.664.924-2.527,2.835-4.068,4.006a9.336,9.336,0,0,1-5.362,1.418,14.88,14.88,0,0,0-5.485.924c-1.726.8-3.082,2.589-2.773,4.438Z" transform="translate(-90.629 -68.775)" fill="#cddbec"/>
        </g>
      </g>
    </g>
    <g id="Group_60" data-name="Group 60" transform="translate(897.992 727.68)">
      <g id="Group_31" data-name="Group 31">
        <g id="Group_30" data-name="Group 30">
          <g id="Group_29" data-name="Group 29">
            <path id="Path_84" data-name="Path 84" d="M23.571,302.806s-5.239.74-2.28,12.265a133.888,133.888,0,0,0,5.485,17.442s.431,2.589-1.726,2.527c-2.1-.062-6.41-1.787-7.827.493-1.479,2.342-.185,5.177,3.143,8.135s10.293,9.676,10.909,10.293,1.109,1.849-.37,2.034c-1.418.185-11.648-.986-11.957,3.883-.247,4.869,10.293,11.587,11.464,12.388,1.171.74,1.294,1.356,1.048,2.034s-3.636-.062-6.595-.247c-2.9-.185-6.348.062-6.286,2.9s5.609,9.984,21.818,15.223l7.642,1.972,5.609-5.609c11.34-12.7,12.573-21.633,11.217-24.16-1.356-2.465-4.438-.986-6.841.678s-4.992,4.006-5.547,3.513c-.555-.431-.678-1.048-.062-2.28s6.348-12.326,3.7-16.456c-2.712-4.068-10.971,2.034-12.265,2.65-1.356.555-1.541-.8-1.356-1.6.247-.863,2.9-10.169,4.253-14.422,1.356-4.191,1.109-7.334-1.356-8.629-2.4-1.233-5.239,2.4-7.026,3.513s-2.712-1.356-2.712-1.356a136.027,136.027,0,0,0-4.006-17.812c-3.2-11.464-8.2-9.368-8.2-9.368" transform="translate(-16.616 -302.656)" fill="#cddbec"/>
          </g>
        </g>
      </g>
      <g id="Group_35" data-name="Group 35" transform="translate(9.605 10.443)">
        <g id="Group_34" data-name="Group 34">
          <g id="Group_33" data-name="Group 33">
            <g id="Group_32" data-name="Group 32">
              <path id="Path_85" data-name="Path 85" d="M54.141,402.5c-2.342-8.444-6.163-23.42-9.553-36.3s-6.471-24.53-8.69-32.973c-1.109-4.191-2.034-7.581-2.712-9.984-.308-1.171-.555-2.1-.74-2.712a3.27,3.27,0,0,0-.185-.678.972.972,0,0,1-.062-.247.972.972,0,0,0,.062.247,5,5,0,0,1,.185.678c.185.616.431,1.541.8,2.712.678,2.342,1.6,5.732,2.773,9.984,2.342,8.444,5.424,20.092,8.813,32.912,3.39,12.881,7.211,27.919,9.491,36.363" transform="translate(-32.2 -319.6)" fill="#dee7f2"/>
            </g>
          </g>
        </g>
      </g>
      <g id="Group_39" data-name="Group 39" transform="translate(6.523 35.465)">
        <g id="Group_38" data-name="Group 38">
          <g id="Group_37" data-name="Group 37">
            <g id="Group_36" data-name="Group 36">
              <path id="Path_86" data-name="Path 86" d="M27.2,360.2a2.811,2.811,0,0,1,.493.247c.308.185.74.493,1.294.8,1.109.678,2.589,1.726,4.253,2.9,1.6,1.171,3.082,2.157,4.191,2.958a9.363,9.363,0,0,0,1.294.863c.308.185.493.308.431.37a2.809,2.809,0,0,1-.493-.247c-.308-.185-.74-.493-1.294-.8-1.109-.74-2.589-1.726-4.191-2.9-1.6-1.109-3.082-2.157-4.191-2.958-.493-.37-.924-.616-1.294-.863C27.385,360.323,27.2,360.2,27.2,360.2Z" transform="translate(-27.2 -360.2)" fill="#dee7f2"/>
            </g>
          </g>
        </g>
      </g>
      <g id="Group_43" data-name="Group 43" transform="translate(19.156 29.178)">
        <g id="Group_42" data-name="Group 42" transform="translate(0)">
          <g id="Group_41" data-name="Group 41">
            <g id="Group_40" data-name="Group 40">
              <path id="Path_87" data-name="Path 87" d="M47.7,364.052c-.062-.062,1.911-3.2,4.376-7.088s4.5-7.026,4.561-6.964-1.911,3.2-4.376,7.088S47.761,364.113,47.7,364.052Z" transform="translate(-47.698 -349.999)" fill="#e0e0e0"/>
            </g>
          </g>
        </g>
      </g>
      <g id="Group_47" data-name="Group 47" transform="translate(23.41 53.019)">
        <g id="Group_46" data-name="Group 46">
          <g id="Group_45" data-name="Group 45">
            <g id="Group_44" data-name="Group 44">
              <path id="Path_88" data-name="Path 88" d="M54.6,398.923a2.2,2.2,0,0,1,.431-.431c.308-.308.74-.616,1.171-1.048.986-.863,2.4-2.1,3.883-3.513s2.773-2.712,3.7-3.7c.431-.431.8-.863,1.109-1.171.247-.247.431-.431.431-.37,0,0-.123.185-.37.493s-.616.678-1.048,1.171c-.924.986-2.157,2.342-3.636,3.76s-2.9,2.65-3.883,3.451c-.493.431-.924.74-1.233.986C54.785,398.8,54.662,398.923,54.6,398.923Z" transform="translate(-54.6 -388.681)" fill="#e0e0e0"/>
            </g>
          </g>
        </g>
      </g>
      <g id="Group_51" data-name="Group 51" transform="translate(10.468 58.701)">
        <g id="Group_50" data-name="Group 50">
          <g id="Group_49" data-name="Group 49">
            <g id="Group_48" data-name="Group 48">
              <path id="Path_89" data-name="Path 89" d="M33.6,397.9a1.993,1.993,0,0,1,.555.123c.37.123.863.247,1.418.431,1.171.37,2.773.924,4.561,1.479,1.787.616,3.39,1.171,4.561,1.541.555.185.986.37,1.356.493.308.123.493.185.493.247a1.993,1.993,0,0,1-.555-.123c-.37-.123-.863-.247-1.418-.431-1.171-.37-2.773-.924-4.622-1.479-1.787-.616-3.39-1.171-4.561-1.541-.555-.185-.986-.37-1.356-.493C33.785,398.023,33.6,397.962,33.6,397.9Z" transform="translate(-33.6 -397.9)" fill="#dee7f2"/>
            </g>
          </g>
        </g>
      </g>
      <g id="Group_55" data-name="Group 55" transform="translate(12.008 76.882)">
        <g id="Group_54" data-name="Group 54">
          <g id="Group_53" data-name="Group 53">
            <g id="Group_52" data-name="Group 52">
              <path id="Path_90" data-name="Path 90" d="M36.1,427.4s.247.062.678.185c.493.123,1.048.308,1.787.555,1.541.493,3.575,1.109,5.917,1.849,2.28.74,4.376,1.418,5.855,1.972.74.247,1.294.431,1.787.616a2.408,2.408,0,0,1,.616.247s-.247-.062-.678-.185c-.493-.123-1.048-.308-1.787-.555-1.541-.493-3.575-1.109-5.917-1.849-2.28-.74-4.376-1.418-5.855-1.972-.74-.247-1.294-.431-1.787-.616A5.189,5.189,0,0,1,36.1,427.4Z" transform="translate(-36.1 -427.4)" fill="#dee7f2"/>
            </g>
          </g>
        </g>
      </g>
      <g id="Group_59" data-name="Group 59" transform="translate(28.341 68.735)">
        <g id="Group_58" data-name="Group 58">
          <g id="Group_57" data-name="Group 57">
            <g id="Group_56" data-name="Group 56">
              <path id="Path_91" data-name="Path 91" d="M62.6,427.505s.185-.185.493-.555c.37-.37.863-.8,1.479-1.356,1.233-1.171,2.9-2.773,4.746-4.622s3.451-3.575,4.561-4.807c.555-.616.986-1.109,1.356-1.479.308-.37.493-.555.493-.493a2.412,2.412,0,0,1-.431.555c-.308.37-.74.863-1.294,1.541-1.109,1.294-2.712,3.02-4.561,4.869s-3.513,3.451-4.807,4.561a17.093,17.093,0,0,1-1.541,1.294Z" transform="translate(-62.6 -414.181)" fill="#e0e0e0"/>
            </g>
          </g>
        </g>
      </g>
    </g>
    <g id="Group_102" data-name="Group 102" transform="translate(1128.398 730.227)">
      <g id="Group_66" data-name="Group 66">
        <g id="Group_65" data-name="Group 65">
          <g id="Group_64" data-name="Group 64">
            <g id="Group_63" data-name="Group 63">
              <g id="Group_62" data-name="Group 62">
                <g id="Group_61" data-name="Group 61">
                  <path id="Path_92" data-name="Path 92" d="M409.958,398.258c-12.758-7.088-17.565-22.8-19.044-37.349-.247-2.4-.863-4.931-.062-7.211s3.082-4.068,5.239-3.328c1.787.616,2.773,2.589,3.944,4.191a14.014,14.014,0,0,0,6.04,4.684c1.541.616,3.39.863,4.684-.185,1.787-1.418,1.664-4.314,1.294-6.718-.616-4.5-1.233-8.937-1.911-13.436a25.859,25.859,0,0,1-.308-7.211,7.446,7.446,0,0,1,3.7-5.67,4.183,4.183,0,0,1,5.609,2.28c.308.924.247,1.972.493,2.958.185.986.8,2.034,1.726,2.157.924.185,1.726-.616,2.342-1.418a33.784,33.784,0,0,0,4.191-9.368c1.048-3.328,2.034-6.718,3.821-9.615,1.726-2.958,4.376-5.424,7.581-6.1a7.381,7.381,0,0,1,8.2,4.253c1.294,3.266-.123,6.964-1.726,9.984a53.178,53.178,0,0,1-9,12.08,4.572,4.572,0,0,0-1.479,2.219c-.247,1.664,1.356,3.082,2.9,3.39,1.726.37,3.575-.062,5.3-.062,1.787,0,3.76.555,4.684,2.219,1.233,2.342-.308,5.177-1.972,7.088A43.53,43.53,0,0,1,434.55,357.7a14.452,14.452,0,0,0-4.376,3.082,4.682,4.682,0,0,0-.616,5.3,4.062,4.062,0,0,0,4.869,1.233c1.664-.555,3.082-1.787,4.684-2.712,2.9-1.664,6.964-1.972,9.307.616a8.128,8.128,0,0,1,1.664,6.595,18.237,18.237,0,0,1-2.589,6.41,44.066,44.066,0,0,1-16.579,16.394c-6.9,3.76-13.436,5.424-20.955,3.636" transform="translate(-390.455 -306.789)" fill="#cddbec"/>
                </g>
              </g>
            </g>
          </g>
        </g>
      </g>
      <g id="Group_73" data-name="Group 73" transform="translate(21.784 1.547)">
        <g id="Group_72" data-name="Group 72">
          <g id="Group_71" data-name="Group 71">
            <g id="Group_70" data-name="Group 70">
              <g id="Group_69" data-name="Group 69">
                <g id="Group_68" data-name="Group 68">
                  <g id="Group_67" data-name="Group 67">
                    <path id="Path_93" data-name="Path 93" d="M425.8,389.668a225.587,225.587,0,0,1,4.869-24.283c.555-2.1,1.048-4.191,1.6-6.286.555-2.034,1.048-4.129,1.664-6.1a115.8,115.8,0,0,1,4.191-11.094c1.479-3.451,3.02-6.656,4.5-9.676s2.9-5.732,4.253-8.2a81.636,81.636,0,0,1,7.4-11.032c.986-1.233,1.726-2.157,2.28-2.773a3.494,3.494,0,0,1,.616-.678c.123-.185.185-.247.247-.247a1.063,1.063,0,0,1-.185.247q-.185.277-.555.74c-.493.616-1.294,1.6-2.219,2.835a91.318,91.318,0,0,0-7.273,11.094c-1.356,2.465-2.773,5.239-4.191,8.2-1.418,3.02-2.958,6.225-4.438,9.676a114.486,114.486,0,0,0-4.191,11.032c-.616,1.972-1.109,4.006-1.664,6.04-.493,2.1-1.048,4.191-1.6,6.286a224.622,224.622,0,0,0-4.869,24.221" transform="translate(-425.8 -309.3)" fill="#dee7f2"/>
                  </g>
                </g>
              </g>
            </g>
          </g>
        </g>
      </g>
      <g id="Group_80" data-name="Group 80" transform="translate(23.186 19.236)">
        <g id="Group_79" data-name="Group 79">
          <g id="Group_78" data-name="Group 78">
            <g id="Group_77" data-name="Group 77">
              <g id="Group_76" data-name="Group 76">
                <g id="Group_75" data-name="Group 75">
                  <g id="Group_74" data-name="Group 74">
                    <path id="Path_94" data-name="Path 94" d="M434.931,364.009s-.123-.37-.37-.986c-.185-.678-.493-1.6-.8-2.773-.616-2.342-1.418-5.609-2.28-9.245s-1.664-6.841-2.342-9.183c-.308-1.171-.616-2.1-.8-2.773s-.308-.986-.247-1.048a6.315,6.315,0,0,1,.431.986c.247.616.555,1.541.924,2.712.74,2.342,1.6,5.547,2.465,9.183.8,3.575,1.6,6.78,2.157,9.245.247,1.109.493,2.034.678,2.773C434.87,363.577,434.993,363.947,434.931,364.009Z" transform="translate(-428.074 -338)" fill="#e0e0e0"/>
                  </g>
                </g>
              </g>
            </g>
          </g>
        </g>
      </g>
      <g id="Group_87" data-name="Group 87" transform="translate(30.104 35.445)">
        <g id="Group_86" data-name="Group 86">
          <g id="Group_85" data-name="Group 85">
            <g id="Group_84" data-name="Group 84">
              <g id="Group_83" data-name="Group 83">
                <g id="Group_82" data-name="Group 82">
                  <g id="Group_81" data-name="Group 81">
                    <path id="Path_95" data-name="Path 95" d="M467.343,364.3s-.37.123-1.109.308-1.787.431-3.082.74c-2.589.678-6.163,1.726-10.046,3.082s-7.334,2.773-9.8,3.821c-1.233.555-2.219.986-2.9,1.294s-1.048.493-1.109.431c0,0,.37-.247,1.048-.616s1.664-.863,2.9-1.418c2.465-1.171,5.917-2.589,9.8-4.006a86.663,86.663,0,0,1,10.108-2.958c1.294-.308,2.4-.493,3.143-.616A8.2,8.2,0,0,0,467.343,364.3Z" transform="translate(-439.3 -364.3)" fill="#dee7f2"/>
                  </g>
                </g>
              </g>
            </g>
          </g>
        </g>
      </g>
      <g id="Group_94" data-name="Group 94" transform="translate(2.247 43.827)">
        <g id="Group_93" data-name="Group 93">
          <g id="Group_92" data-name="Group 92">
            <g id="Group_91" data-name="Group 91">
              <g id="Group_90" data-name="Group 90">
                <g id="Group_89" data-name="Group 89">
                  <g id="Group_88" data-name="Group 88">
                    <path id="Path_96" data-name="Path 96" d="M413.946,415.372a1.527,1.527,0,0,1-.247-.37c-.185-.308-.37-.616-.616-1.048-.555-.924-1.356-2.28-2.28-3.944-1.849-3.328-4.314-8.074-6.964-13.313s-5.054-9.984-6.841-13.313c-.863-1.664-1.6-3.02-2.157-4.006a9.218,9.218,0,0,1-.555-1.109l-.185-.37a1.526,1.526,0,0,1,.247.37c.185.308.37.616.616,1.048.555.924,1.356,2.28,2.28,3.944,1.849,3.328,4.314,8.074,6.964,13.313s5.054,9.984,6.841,13.313c.863,1.664,1.6,3.02,2.157,4.006a9.218,9.218,0,0,1,.555,1.109A.952.952,0,0,1,413.946,415.372Z" transform="translate(-394.1 -377.9)" fill="#e0e0e0"/>
                  </g>
                </g>
              </g>
            </g>
          </g>
        </g>
      </g>
      <g id="Group_101" data-name="Group 101" transform="translate(22.031 62.748)">
        <g id="Group_100" data-name="Group 100">
          <g id="Group_99" data-name="Group 99">
            <g id="Group_98" data-name="Group 98">
              <g id="Group_97" data-name="Group 97">
                <g id="Group_96" data-name="Group 96">
                  <g id="Group_95" data-name="Group 95">
                    <path id="Path_97" data-name="Path 97" d="M462.871,408.6a2.818,2.818,0,0,0-.37.247,9.037,9.037,0,0,0-1.048.555c-.986.493-2.28,1.171-3.944,1.972-3.328,1.664-7.827,4.068-12.881,6.718-4.992,2.65-9.615,4.992-12.943,6.595-1.664.8-3.02,1.418-4.006,1.849-.431.185-.8.37-1.109.493a.954.954,0,0,1-.37.123,2.819,2.819,0,0,0,.37-.247,9.054,9.054,0,0,0,1.048-.555c.986-.493,2.28-1.171,3.944-1.972,3.328-1.664,7.827-4.068,12.881-6.718,4.992-2.65,9.615-4.992,12.943-6.595,1.664-.8,3.02-1.418,4.006-1.849.431-.185.8-.37,1.109-.493Z" transform="translate(-426.2 -408.6)" fill="#dee7f2"/>
                  </g>
                </g>
              </g>
            </g>
          </g>
        </g>
      </g>
    </g>
    <g id="Floor" transform="translate(895.949 835.81)">
      <g id="Group_105" data-name="Group 105" transform="translate(0)">
        <g id="Group_104" data-name="Group 104">
          <g id="Group_103" data-name="Group 103">
            <path id="Path_98" data-name="Path 98" d="M303.834,478.285c0,.062-65.022.185-145.267.185S13.3,478.408,13.3,478.285c0-.062,65.022-.185,145.267-.185S303.834,478.162,303.834,478.285Z" transform="translate(-13.3 -478.1)" fill="#263238"/>
          </g>
        </g>
      </g>
    </g>
    <g id="Group_178" data-name="Group 178" transform="translate(913.206 676.984)">
      <g id="Group_177" data-name="Group 177" transform="translate(0 0)">
        <g id="Group_176" data-name="Group 176">
          <g id="Group_175" data-name="Group 175">
            <g id="Group_130" data-name="Group 130">
              <g id="Group_111" data-name="Group 111" transform="translate(9.183)">
                <g id="Group_110" data-name="Group 110">
                  <g id="Group_109" data-name="Group 109">
                    <g id="Group_108" data-name="Group 108">
                      <g id="Group_107" data-name="Group 107">
                        <g id="Group_106" data-name="Group 106">
                          <path id="Path_99" data-name="Path 99" d="M282.514,375.96H65.2a9.009,9.009,0,0,1-9-9V229.4a9.009,9.009,0,0,1,9-9H282.514a9.009,9.009,0,0,1,9,9V367.023A9.036,9.036,0,0,1,282.514,375.96Z" transform="translate(-56.2 -220.4)" fill="#455a64"/>
                        </g>
                      </g>
                    </g>
                  </g>
                </g>
              </g>
              <g id="Group_117" data-name="Group 117" transform="translate(0 145.514)">
                <g id="Group_116" data-name="Group 116">
                  <g id="Group_115" data-name="Group 115">
                    <g id="Group_114" data-name="Group 114">
                      <g id="Group_113" data-name="Group 113">
                        <g id="Group_112" data-name="Group 112">
                          <path id="Path_100" data-name="Path 100" d="M285.425,470.121H52.024A10.732,10.732,0,0,1,41.3,459.4v-2.9H296.211v2.9A10.825,10.825,0,0,1,285.425,470.121Z" transform="translate(-41.3 -456.5)" fill="#455a64"/>
                        </g>
                      </g>
                    </g>
                  </g>
                </g>
              </g>
              <g id="Group_123" data-name="Group 123" transform="translate(15.531 6.163)">
                <g id="Group_122" data-name="Group 122">
                  <g id="Group_121" data-name="Group 121">
                    <g id="Group_120" data-name="Group 120">
                      <g id="Group_119" data-name="Group 119">
                        <g id="Group_118" data-name="Group 118">
                          <rect id="Rectangle_1" data-name="Rectangle 1" width="221.999" height="131.4" fill="#263238"/>
                        </g>
                      </g>
                    </g>
                  </g>
                </g>
              </g>
              <g id="Group_129" data-name="Group 129" transform="translate(103.604 144.035)">
                <g id="Group_128" data-name="Group 128">
                  <g id="Group_127" data-name="Group 127">
                    <g id="Group_126" data-name="Group 126">
                      <g id="Group_125" data-name="Group 125">
                        <g id="Group_124" data-name="Group 124">
                          <path id="Path_101" data-name="Path 101" d="M209.4,454.1l3.2,5.054h44.5L260,454.1Z" transform="translate(-209.4 -454.1)" fill="#263238"/>
                        </g>
                      </g>
                    </g>
                  </g>
                </g>
              </g>
            </g>
            <g id="Group_168" data-name="Group 168" transform="translate(19.846 10.601)">
              <g id="Group_167" data-name="Group 167">
                <g id="Group_166" data-name="Group 166">
                  <g id="Group_137" data-name="Group 137" transform="translate(0.185)">
                    <g id="Group_136" data-name="Group 136">
                      <g id="Group_135" data-name="Group 135">
                        <g id="Group_134" data-name="Group 134">
                          <g id="Group_133" data-name="Group 133">
                            <g id="Group_132" data-name="Group 132">
                              <g id="Group_131" data-name="Group 131">
                                <path id="Path_102" data-name="Path 102" d="M285.137,364.131H75.834A2.052,2.052,0,0,1,73.8,362.1V239.634a2.052,2.052,0,0,1,2.034-2.034H285.075a2.052,2.052,0,0,1,2.034,2.034V362.1A2,2,0,0,1,285.137,364.131Z" transform="translate(-73.8 -237.6)" fill="#ebebeb"/>
                              </g>
                            </g>
                          </g>
                        </g>
                      </g>
                    </g>
                  </g>
                  <g id="Group_144" data-name="Group 144" transform="translate(0 9.491)">
                    <g id="Group_143" data-name="Group 143">
                      <g id="Group_142" data-name="Group 142">
                        <g id="Group_141" data-name="Group 141">
                          <g id="Group_140" data-name="Group 140">
                            <g id="Group_139" data-name="Group 139">
                              <g id="Group_138" data-name="Group 138">
                                <path id="Path_103" data-name="Path 103" d="M286.809,370.225H73.5L73.747,253H286.809Z" transform="translate(-73.5 -253)" fill="#fafafa"/>
                              </g>
                            </g>
                          </g>
                        </g>
                      </g>
                    </g>
                  </g>
                  <g id="Group_151" data-name="Group 151" transform="translate(14.299 3.205)">
                    <g id="Group_150" data-name="Group 150">
                      <g id="Group_149" data-name="Group 149">
                        <g id="Group_148" data-name="Group 148">
                          <g id="Group_147" data-name="Group 147">
                            <g id="Group_146" data-name="Group 146">
                              <g id="Group_145" data-name="Group 145">
                                <path id="Path_104" data-name="Path 104" d="M100.151,244.526a1.726,1.726,0,1,1-1.726-1.726A1.723,1.723,0,0,1,100.151,244.526Z" transform="translate(-96.7 -242.8)" fill="#263238"/>
                              </g>
                            </g>
                          </g>
                        </g>
                      </g>
                    </g>
                  </g>
                  <g id="Group_158" data-name="Group 158" transform="translate(3.944 3.205)">
                    <g id="Group_157" data-name="Group 157">
                      <g id="Group_156" data-name="Group 156">
                        <g id="Group_155" data-name="Group 155">
                          <g id="Group_154" data-name="Group 154">
                            <g id="Group_153" data-name="Group 153">
                              <g id="Group_152" data-name="Group 152">
                                <path id="Path_105" data-name="Path 105" d="M83.351,244.526a1.726,1.726,0,1,1-1.726-1.726A1.685,1.685,0,0,1,83.351,244.526Z" transform="translate(-79.9 -242.8)" fill="#263238"/>
                              </g>
                            </g>
                          </g>
                        </g>
                      </g>
                    </g>
                  </g>
                  <g id="Group_165" data-name="Group 165" transform="translate(8.875 3.205)">
                    <g id="Group_164" data-name="Group 164">
                      <g id="Group_163" data-name="Group 163">
                        <g id="Group_162" data-name="Group 162">
                          <g id="Group_161" data-name="Group 161">
                            <g id="Group_160" data-name="Group 160">
                              <g id="Group_159" data-name="Group 159">
                                <path id="Path_106" data-name="Path 106" d="M91.351,244.526a1.726,1.726,0,1,1-1.726-1.726A1.685,1.685,0,0,1,91.351,244.526Z" transform="translate(-87.9 -242.8)" fill="#263238"/>
                              </g>
                            </g>
                          </g>
                        </g>
                      </g>
                    </g>
                  </g>
                </g>
              </g>
            </g>
            <g id="Group_174" data-name="Group 174" transform="translate(9.183 143.911)">
              <g id="Group_173" data-name="Group 173">
                <g id="Group_172" data-name="Group 172">
                  <g id="Group_171" data-name="Group 171">
                    <g id="Group_170" data-name="Group 170">
                      <g id="Group_169" data-name="Group 169">
                        <path id="Path_107" data-name="Path 107" d="M289.416,454.023c0,.062-52.2.123-116.608.123S56.2,454.085,56.2,454.023s52.2-.123,116.608-.123S289.416,453.962,289.416,454.023Z" transform="translate(-56.2 -453.9)" fill="#263238"/>
                      </g>
                    </g>
                  </g>
                </g>
              </g>
            </g>
          </g>
        </g>
      </g>
    </g>
    <g id="Group_180" data-name="Group 180" transform="translate(932.99 696.521)">
      <g id="Group_179" data-name="Group 179">
        <path id="Path_108" data-name="Path 108" d="M264.275,303.132a21.32,21.32,0,0,0-6.78,21.2,17.3,17.3,0,0,0-20.4,20.215c-6.1-4.191-15.47-2.65-19.846,3.328-.123-3.944-.247-8.074-2.342-11.464-2.1-3.328-6.78-5.424-10.108-3.328a9,9,0,0,0,.863-10.539A9.28,9.28,0,0,0,195.8,318.6c-.123-4.746-3.082-38.274-5.547-66.5H169.3c-2.4,27.8-5.3,59.722-5.362,64.282a9.09,9.09,0,0,0-9.861,3.944,9.205,9.205,0,0,0,.863,10.539c-3.328-2.157-8.012-.062-10.108,3.328-2.1,3.328-2.219,7.519-2.342,11.464-4.376-5.978-13.744-7.519-19.846-3.328a17.3,17.3,0,0,0-20.4-20.215,20.772,20.772,0,0,0-28.844-24.1v71.863H286.216V300.235A20.929,20.929,0,0,0,264.275,303.132Z" transform="translate(-73.4 -252.1)" fill="#dee7f2"/>
      </g>
    </g>
    <g id="Group_186" data-name="Group 186" transform="translate(932.866 696.521)">
      <g id="Group_185" data-name="Group 185">
        <path id="Path_110" data-name="Path 110" d="M262.9,355.457a34.225,34.225,0,0,0-26.317-4.869,33.789,33.789,0,0,0-21.51,15.9,19.792,19.792,0,0,0-7.149-5.978,15.92,15.92,0,0,0,.493-1.6,14.237,14.237,0,0,0-17.2-17.072L184.939,252.1h-8.259v82.464c-5.115.8-8.69,6.841-6.9,11.71a11.036,11.036,0,0,0-8.32,6.163c-.493,1.048-.555,3.328-.123,5.855a20.258,20.258,0,0,0-16.024,8.2,33.58,33.58,0,0,0-47.827-11.032C95.326,344.98,83.616,337.522,73.2,340.049v29.892l96.023-.123a7.037,7.037,0,0,0,2.034.308l23.482-.247,92.51.123V340.111C276.833,337.584,265.061,344.98,262.9,355.457Z" transform="translate(-73.2 -252.1)" fill="#d1e1f5"/>
      </g>
    </g>
    <g id="Group_199" data-name="Group 199" transform="translate(1026.028 668.417)">
      <g id="Group_193" data-name="Group 193">
        <g id="Group_192" data-name="Group 192">
          <g id="Group_191" data-name="Group 191">
            <g id="Group_190" data-name="Group 190">
              <path id="Path_112" data-name="Path 112" d="M229.869,206.5a10.133,10.133,0,0,0-4.438,13.374c.986,1.849,2.589,3.451,2.773,5.485.308,3.143-2.65,5.609-3.575,8.629a7.155,7.155,0,0,0,4.869,8.69c1.6.431,3.575.37,4.622,1.6,1.356,1.6.37,4.314,1.541,6.1,1.048,1.6,3.575,1.664,5.177.616s2.465-2.9,3.143-4.746a19.284,19.284,0,0,1,2.219-5.3c1.233-1.726,3.02-2.958,4.5-4.5,3.513-3.7,4.622-9.245,3.821-14.3s-3.266-9.676-5.978-13.991" transform="translate(-224.357 -206.5)" fill="#cfe2fb"/>
            </g>
          </g>
        </g>
      </g>
      <g id="Group_198" data-name="Group 198" opacity="0.3">
        <g id="Group_197" data-name="Group 197">
          <g id="Group_196" data-name="Group 196">
            <g id="Group_195" data-name="Group 195">
              <g id="Group_194" data-name="Group 194">
                <path id="Path_113" data-name="Path 113" d="M229.869,206.5a10.133,10.133,0,0,0-4.438,13.374c.986,1.849,2.589,3.451,2.773,5.485.308,3.143-2.65,5.609-3.575,8.629a7.155,7.155,0,0,0,4.869,8.69c1.6.431,3.575.37,4.622,1.6,1.356,1.6.37,4.314,1.541,6.1,1.048,1.6,3.575,1.664,5.177.616s2.465-2.9,3.143-4.746a19.284,19.284,0,0,1,2.219-5.3c1.233-1.726,3.02-2.958,4.5-4.5,3.513-3.7,4.622-9.245,3.821-14.3s-3.266-9.676-5.978-13.991" transform="translate(-224.357 -206.5)" fill="#cfe2fb"/>
              </g>
            </g>
          </g>
        </g>
      </g>
    </g>
    <g id="Group_203" data-name="Group 203" transform="translate(1031.152 671.129)">
      <g id="Group_202" data-name="Group 202">
        <g id="Group_201" data-name="Group 201">
          <g id="Group_200" data-name="Group 200">
            <path id="Path_114" data-name="Path 114" d="M237.188,210.9a8.086,8.086,0,0,0-3.513,11.094c1.356,2.28,4.068,4.376,3.451,6.964-.431,1.787-2.342,2.835-2.9,4.561-.74,2.28,1.479,4.746,3.883,5.054s4.746-.986,6.533-2.589c6.286-5.547,7.827-16.394,3.883-23.79" transform="translate(-232.671 -210.9)" fill="#b2d3fb"/>
          </g>
        </g>
      </g>
    </g>
    <g id="Group_208" data-name="Group 208" transform="translate(1055.823 635.814)">
      <g id="Group_207" data-name="Group 207" transform="translate(0 0)">
        <g id="Group_206" data-name="Group 206">
          <g id="Group_205" data-name="Group 205">
            <path id="Path_115" data-name="Path 115" d="M273.255,153.6s20.585,13.621,18.366,37.226L272.7,182.321Z" transform="translate(-272.7 -153.6)" fill="#306fdd"/>
          </g>
        </g>
      </g>
    </g>
    <g id="Group_210" data-name="Group 210" transform="translate(1022.11 664.041)">
      <g id="Group_209" data-name="Group 209" transform="translate(0 0)">
        <path id="Path_116" data-name="Path 116" d="M218,199.4l4.684,7.766h24.283l4.684-7.334Z" transform="translate(-218 -199.4)" fill="#263238"/>
      </g>
    </g>
    <g id="Group_212" data-name="Group 212" transform="translate(1020.874 585.73)">
      <g id="Group_211" data-name="Group 211" transform="translate(0 0)">
        <path id="Path_117" data-name="Path 117" d="M232.824,72.376A18,18,0,0,0,216,90.743l1.233,60.4h33.651l1.109-60.4A18.045,18.045,0,0,0,232.824,72.376Z" transform="translate(-215.995 -72.338)" fill="#d4e3ff"/>
      </g>
    </g>
    <g id="Group_218" data-name="Group 218" transform="translate(1002.96 635.814)">
      <g id="Group_217" data-name="Group 217" transform="translate(0 0)">
        <g id="Group_216" data-name="Group 216">
          <g id="Group_215" data-name="Group 215">
            <path id="Path_119" data-name="Path 119" d="M205.462,153.6s-20.585,13.621-18.366,37.226l18.921-8.505Z" transform="translate(-186.929 -153.6)" fill="#306fdd"/>
          </g>
        </g>
      </g>
    </g>
    <g id="Group_222" data-name="Group 222" transform="translate(1021.058 570.237)">
      <g id="Group_221" data-name="Group 221" transform="translate(0 0)">
        <g id="Group_220" data-name="Group 220">
          <g id="Group_219" data-name="Group 219">
            <path id="Path_120" data-name="Path 120" d="M216.3,79.064c7.088-6.225,29.46-6.1,35.439-1.048C250.195,55.582,233.061,47.2,233.061,47.2,215.558,59.342,216.3,79.064,216.3,79.064Z" transform="translate(-216.293 -47.2)" fill="#306fdd"/>
          </g>
        </g>
      </g>
    </g>
    <g id="Group_227" data-name="Group 227" transform="translate(1037.888 570.298)">
      <g id="Group_226" data-name="Group 226" transform="translate(0 0)">
        <g id="Group_225" data-name="Group 225">
          <g id="Group_224" data-name="Group 224">
            <g id="Group_223" data-name="Group 223">
              <path id="Path_121" data-name="Path 121" d="M243.6,47.3l.185.185.555.555c.247.247.555.555.924.863a5.557,5.557,0,0,0,.616.555,6.748,6.748,0,0,1,.616.678c.431.493.924,1.048,1.479,1.6q.74.924,1.664,2.034c.308.37.555.8.863,1.171a9.453,9.453,0,0,1,.863,1.294A26.612,26.612,0,0,1,253.03,59.2a31.955,31.955,0,0,1,2.773,7.211,30.554,30.554,0,0,1,.8,4.253c.123.74.185,1.479.247,2.219s.062,1.541.062,2.342c0,6.286-.062,13.128-.185,20.339-.185,14.422-.37,27.55-.555,36.979-.062,4.746-.123,8.567-.185,11.217,0,1.294-.062,2.342-.062,3.02v-3.02c.062-2.65.062-6.471.123-11.217.123-9.491.308-22.557.493-36.979.062-7.211.185-14.114.185-20.339,0-.8,0-1.541-.062-2.28-.123-.74-.185-1.479-.247-2.219a30.553,30.553,0,0,0-.8-4.253,31.956,31.956,0,0,0-2.773-7.211,25.564,25.564,0,0,0-1.664-2.9c-.247-.431-.616-.863-.863-1.294-.308-.431-.555-.8-.863-1.171-.555-.74-1.109-1.418-1.6-2.034q-.832-.924-1.479-1.664c-.247-.247-.431-.493-.616-.678s-.431-.37-.616-.555l-.924-.924-.555-.555A.27.27,0,0,0,243.6,47.3Z" transform="translate(-243.6 -47.3)" fill="#263238"/>
            </g>
          </g>
        </g>
      </g>
    </g>
    <g id="Group_237" data-name="Group 237" transform="translate(1027.683 605.168)">
      <g id="Group_231" data-name="Group 231" transform="translate(0 0)">
        <g id="Group_230" data-name="Group 230">
          <g id="Group_229" data-name="Group 229">
            <g id="Group_228" data-name="Group 228">
              <ellipse id="Ellipse_1" data-name="Ellipse 1" cx="8.875" cy="8.259" rx="8.875" ry="8.259" transform="translate(0 17.333) rotate(-77.549)" fill="#fafafa"/>
            </g>
          </g>
        </g>
      </g>
      <g id="Group_236" data-name="Group 236" transform="translate(1.576 1.494)">
        <g id="Group_235" data-name="Group 235">
          <g id="Group_234" data-name="Group 234">
            <g id="Group_233" data-name="Group 233">
              <g id="Group_232" data-name="Group 232">
                <path id="Path_122" data-name="Path 122" d="M239.893,106.547h-.123c-.123,0-.247-.062-.431-.062a.67.67,0,0,1-.308-.062h-1.294a6.792,6.792,0,0,0-1.109.123c-.37.123-.863.185-1.294.37a9.5,9.5,0,0,0-2.712,1.726,9.254,9.254,0,0,0-2.219,3.267c-.123.308-.247.678-.37,1.048a1.8,1.8,0,0,0-.123.555c-.062.185-.062.37-.123.555l-.062.308v.308a1.706,1.706,0,0,1-.062.555v.924l.062.308a8.206,8.206,0,0,0,1.849,4.561,7.72,7.72,0,0,0,9.676,2.157,9.042,9.042,0,0,0,3.575-3.39l.185-.247.123-.247c.062-.185.185-.37.247-.555l.185-.555.123-.247.062-.247a1.8,1.8,0,0,0,.123-.555c.062-.185.062-.37.123-.555a6.863,6.863,0,0,0,.123-1.048,8.739,8.739,0,0,0-.616-3.883,8.924,8.924,0,0,0-1.726-2.712c-.308-.37-.678-.616-.986-.924-.37-.247-.616-.431-.924-.616-.123-.062-.308-.185-.431-.247l-.37-.185a1.041,1.041,0,0,0-.308-.123.556.556,0,0,0-.308-.062c-.185-.062-.308-.062-.37-.123a.762.762,0,0,1-.185-.123h.123a.876.876,0,0,1,.37.123,2.669,2.669,0,0,0,.308.062c.123.062.247.062.37.123a.876.876,0,0,0,.37.123,1.545,1.545,0,0,1,.431.247,6.25,6.25,0,0,1,.986.616c.308.247.678.555,1.048.863a7.709,7.709,0,0,1,1.787,2.773,9.81,9.81,0,0,1,.678,3.944,6.791,6.791,0,0,1-.123,1.109c-.062.185-.062.37-.123.555a1.8,1.8,0,0,0-.123.555l-.062.308-.123.247-.185.555c-.062.185-.185.37-.247.555l-.123.247-.185.247a8.573,8.573,0,0,1-3.636,3.451,7.965,7.965,0,0,1-5.362.74,8.147,8.147,0,0,1-4.561-2.9,8.759,8.759,0,0,1-1.849-4.684l-.062-.308v-.924a2.311,2.311,0,0,1,.062-.616v-.308l.062-.308c.062-.185.062-.37.123-.555a1.8,1.8,0,0,0,.123-.555,7.09,7.09,0,0,1,.37-1.048,8.621,8.621,0,0,1,2.28-3.267,7.607,7.607,0,0,1,2.773-1.726,5.948,5.948,0,0,1,1.294-.37,8.661,8.661,0,0,1,1.109-.123h1.294c.123,0,.185.062.308.062a1.2,1.2,0,0,0,.431.062Z" transform="translate(-229.6 -106.3)" fill="#263238"/>
              </g>
            </g>
          </g>
        </g>
      </g>
    </g>
    <g id="Group_240" data-name="Group 240" transform="translate(1020.877 614.119)">
      <g id="Group_239" data-name="Group 239" transform="translate(0 0)">
        <g id="Group_238" data-name="Group 238">
          <path id="Path_123" data-name="Path 123" d="M224.259,118.523c0,.123-1.911.062-4.191.493-2.28.37-4.068,1.109-4.068.986a5.06,5.06,0,0,1,1.109-.555,17.125,17.125,0,0,1,2.9-.8,19.7,19.7,0,0,1,3.02-.247C223.827,118.462,224.259,118.523,224.259,118.523Z" transform="translate(-216 -118.4)" fill="#263238"/>
        </g>
      </g>
    </g>
    <g id="Group_243" data-name="Group 243" transform="translate(1046.023 613.339)">
      <g id="Group_242" data-name="Group 242" transform="translate(0)">
        <g id="Group_241" data-name="Group 241">
          <path id="Path_124" data-name="Path 124" d="M267.154,118.038a5.8,5.8,0,0,1-1.541-.123c-.924-.123-2.219-.247-3.636-.37s-2.712-.123-3.636-.123a6.457,6.457,0,0,1-1.541-.062,5.338,5.338,0,0,1,1.541-.185,25.664,25.664,0,0,1,3.7.062,34.938,34.938,0,0,1,3.636.493A8.84,8.84,0,0,1,267.154,118.038Z" transform="translate(-256.8 -117.134)" fill="#263238"/>
        </g>
      </g>
    </g>
    <g id="Group_246" data-name="Group 246" transform="translate(1021.555 647.647)">
      <g id="Group_245" data-name="Group 245" transform="translate(0 0)">
        <g id="Group_244" data-name="Group 244">
          <path id="Path_125" data-name="Path 125" d="M252.107,173.971h-.37c-.247,0-.616-.062-1.048-.062-.924-.062-2.219-.185-3.76-.308-3.143-.247-7.519-.431-12.326-.431s-9.183.247-12.326.431c-1.541.123-2.835.247-3.76.308a6.719,6.719,0,0,1-1.048.062h-.37a.9.9,0,0,1,.37-.062c.247-.062.616-.062.986-.123.863-.123,2.157-.247,3.76-.431,3.143-.308,7.519-.555,12.388-.555s9.245.247,12.388.555c1.6.123,2.835.308,3.76.37a8.438,8.438,0,0,0,.986.123A1.987,1.987,0,0,1,252.107,173.971Z" transform="translate(-217.1 -172.8)" fill="#263238"/>
        </g>
      </g>
    </g>
    <g id="Group_249" data-name="Group 249" transform="translate(1029.243 622.882)">
      <g id="Group_248" data-name="Group 248" transform="translate(0 0)">
        <g id="Group_247" data-name="Group 247">
          <path id="Path_126" data-name="Path 126" d="M230.391,132.669c0,.062-.185.062-.37.308a.541.541,0,0,0-.062.431.416.416,0,0,0,.37.247.48.48,0,0,0,.431-.185.526.526,0,0,0,0-.431c-.123-.247-.308-.308-.308-.37s.308-.062.493.247a.661.661,0,0,1,.062.678.855.855,0,0,1-.74.431.743.743,0,0,1-.678-.493.816.816,0,0,1,.185-.678C230.083,132.545,230.391,132.607,230.391,132.669Z" transform="translate(-229.573 -132.618)" fill="#263238"/>
        </g>
      </g>
    </g>
    <g id="Group_252" data-name="Group 252" transform="translate(1036.577 626.827)">
      <g id="Group_251" data-name="Group 251" transform="translate(0 0)">
        <g id="Group_250" data-name="Group 250">
          <path id="Path_127" data-name="Path 127" d="M242.291,139.069c0,.062-.185.062-.37.308a.541.541,0,0,0-.062.431.416.416,0,0,0,.37.247.48.48,0,0,0,.431-.185.526.526,0,0,0,0-.431c-.123-.247-.308-.308-.308-.37s.308-.062.493.247a.661.661,0,0,1,.062.678.855.855,0,0,1-.74.431.743.743,0,0,1-.678-.493.816.816,0,0,1,.185-.678C241.983,138.945,242.291,139.007,242.291,139.069Z" transform="translate(-241.473 -139.018)" fill="#263238"/>
        </g>
      </g>
    </g>
    <g id="Group_255" data-name="Group 255" transform="translate(1044.651 623.455)">
      <g id="Group_254" data-name="Group 254" transform="translate(0 0)">
        <g id="Group_253" data-name="Group 253">
          <path id="Path_128" data-name="Path 128" d="M255.391,133.58c0,.062-.185.062-.37.308a.541.541,0,0,0-.062.431.416.416,0,0,0,.37.247.48.48,0,0,0,.431-.185.526.526,0,0,0,0-.431c-.123-.247-.308-.308-.308-.37s.308-.062.493.247a.661.661,0,0,1,.062.678.855.855,0,0,1-.74.431.743.743,0,0,1-.678-.493.816.816,0,0,1,.185-.678C255.144,133.457,255.391,133.58,255.391,133.58Z" transform="translate(-254.573 -133.548)" fill="#263238"/>
        </g>
      </g>
    </g>
    <g id="Group_258" data-name="Group 258" transform="translate(1047.301 617.415)">
      <g id="Group_257" data-name="Group 257" transform="translate(0 0)">
        <g id="Group_256" data-name="Group 256">
          <path id="Path_129" data-name="Path 129" d="M259.691,123.78c0,.062-.185.062-.37.308a.541.541,0,0,0-.062.431.416.416,0,0,0,.37.247.48.48,0,0,0,.431-.185.527.527,0,0,0,0-.431c-.123-.247-.308-.308-.308-.37s.308-.062.493.247a.661.661,0,0,1,.062.678.855.855,0,0,1-.74.431.743.743,0,0,1-.678-.493.816.816,0,0,1,.185-.678A.591.591,0,0,1,259.691,123.78Z" transform="translate(-258.873 -123.748)" fill="#263238"/>
        </g>
      </g>
    </g>
    <g id="Group_261" data-name="Group 261" transform="translate(1026.531 616.842)">
      <g id="Group_260" data-name="Group 260" transform="translate(0)">
        <g id="Group_259" data-name="Group 259">
          <path id="Path_130" data-name="Path 130" d="M225.991,122.869c0,.062-.185.062-.37.308a.541.541,0,0,0-.062.431.416.416,0,0,0,.37.247.48.48,0,0,0,.431-.185.527.527,0,0,0,0-.431c-.123-.247-.308-.308-.308-.37s.308-.062.493.247a.661.661,0,0,1,.062.678.855.855,0,0,1-.74.431.743.743,0,0,1-.678-.493.816.816,0,0,1,.185-.678C225.744,122.745,226.053,122.807,225.991,122.869Z" transform="translate(-225.173 -122.818)" fill="#263238"/>
        </g>
      </g>
    </g>
    <g id="Group_264" data-name="Group 264" transform="translate(1044.785 607.216)">
      <g id="Group_263" data-name="Group 263" transform="translate(0 0)">
        <g id="Group_262" data-name="Group 262">
          <path id="Path_131" data-name="Path 131" d="M255.475,108.556c0-.062.185-.062.37-.308a.541.541,0,0,0,.062-.431.416.416,0,0,0-.37-.247.48.48,0,0,0-.431.185.526.526,0,0,0,0,.431c.123.247.308.308.308.37s-.308.062-.493-.247a.661.661,0,0,1-.062-.678.855.855,0,0,1,.74-.431.743.743,0,0,1,.678.493.816.816,0,0,1-.185.678C255.721,108.679,255.413,108.618,255.475,108.556Z" transform="translate(-254.791 -107.2)" fill="#263238"/>
        </g>
      </g>
    </g>
    <g id="Group_267" data-name="Group 267" transform="translate(1036.65 603.641)">
      <g id="Group_266" data-name="Group 266" transform="translate(0 0)">
        <g id="Group_265" data-name="Group 265">
          <path id="Path_132" data-name="Path 132" d="M242.275,102.756c0-.062.185-.062.37-.308a.541.541,0,0,0,.062-.431.416.416,0,0,0-.37-.247.48.48,0,0,0-.431.185.526.526,0,0,0,0,.431c.123.247.308.308.308.37s-.308.062-.493-.247a.661.661,0,0,1-.062-.678.855.855,0,0,1,.74-.431.743.743,0,0,1,.678.493.816.816,0,0,1-.185.678C242.583,102.879,242.275,102.818,242.275,102.756Z" transform="translate(-241.591 -101.4)" fill="#263238"/>
        </g>
      </g>
    </g>
    <g id="Group_270" data-name="Group 270" transform="translate(1028.699 607.216)">
      <g id="Group_269" data-name="Group 269" transform="translate(0 0)">
        <g id="Group_268" data-name="Group 268">
          <path id="Path_133" data-name="Path 133" d="M229.375,108.556c0-.062.185-.062.37-.308a.541.541,0,0,0,.062-.431.416.416,0,0,0-.37-.247.48.48,0,0,0-.431.185.526.526,0,0,0,0,.431c.123.247.308.308.308.37s-.308.062-.493-.247a.661.661,0,0,1-.062-.678.855.855,0,0,1,.74-.431.743.743,0,0,1,.678.493.816.816,0,0,1-.185.678C229.621,108.679,229.313,108.618,229.375,108.556Z" transform="translate(-228.691 -107.2)" fill="#263238"/>
        </g>
      </g>
    </g>
    <g id="Group_281" data-name="Group 281" transform="translate(1036.347 635.781)">
      <g id="Group_275" data-name="Group 275" transform="translate(0 0)">
        <g id="Group_274" data-name="Group 274">
          <g id="Group_273" data-name="Group 273">
            <g id="Group_272" data-name="Group 272">
              <g id="Group_271" data-name="Group 271">
                <path id="Path_134" data-name="Path 134" d="M241.1,156.045l.74,36.055a1.868,1.868,0,0,0,1.911,1.849h0A1.854,1.854,0,0,0,245.6,192.1c.062-6.471.308-28.351.37-36.116a2.4,2.4,0,0,0-2.773-2.4h0A2.46,2.46,0,0,0,241.1,156.045Z" transform="translate(-241.1 -153.547)" fill="#306fdd"/>
              </g>
            </g>
          </g>
        </g>
      </g>
      <g id="Group_280" data-name="Group 280" transform="translate(0 0)" opacity="0.3">
        <g id="Group_279" data-name="Group 279">
          <g id="Group_278" data-name="Group 278">
            <g id="Group_277" data-name="Group 277">
              <g id="Group_276" data-name="Group 276">
                <path id="Path_135" data-name="Path 135" d="M241.1,156.045l.74,36.055a1.868,1.868,0,0,0,1.911,1.849h0A1.854,1.854,0,0,0,245.6,192.1c.062-6.471.308-28.351.37-36.116a2.4,2.4,0,0,0-2.773-2.4h0A2.46,2.46,0,0,0,241.1,156.045Z" transform="translate(-241.1 -153.547)" fill="#306fdd"/>
              </g>
            </g>
          </g>
        </g>
      </g>
    </g>
    <g id="Group_284" data-name="Group 284" transform="translate(1023.536 572.329)">
      <g id="Group_283" data-name="Group 283" transform="translate(0 0)">
        <g id="Group_282" data-name="Group 282">
          <path id="Path_136" data-name="Path 136" d="M234.234,50.6c.123.123-1.109,1.294-2.835,3.328-.863.986-1.849,2.28-2.9,3.7-.986,1.479-2.034,3.082-3.02,4.869a53.813,53.813,0,0,0-2.4,5.177q-.924,2.5-1.479,4.438c-.74,2.589-1.048,4.191-1.233,4.191-.123,0-.062-1.726.493-4.376a38.833,38.833,0,0,1,1.294-4.622,43.938,43.938,0,0,1,2.4-5.362,40.125,40.125,0,0,1,3.143-4.931c1.109-1.418,2.157-2.65,3.082-3.636A15.2,15.2,0,0,1,234.234,50.6Z" transform="translate(-220.313 -50.595)" fill="#fff"/>
        </g>
      </g>
    </g>
    <g id="Group_287" data-name="Group 287" transform="translate(1004.298 639.379)">
      <g id="Group_286" data-name="Group 286" transform="translate(0 0)">
        <g id="Group_285" data-name="Group 285">
          <path id="Path_137" data-name="Path 137" d="M205.556,159.394c.123.123-1.6,1.233-4.006,3.451-.308.308-.616.555-.924.863s-.616.678-.924.986c-.678.678-1.294,1.479-1.972,2.28a42.9,42.9,0,0,0-3.821,5.793,39.287,39.287,0,0,0-2.65,6.41,30.447,30.447,0,0,0-.8,2.958,13.865,13.865,0,0,0-.308,1.356c-.062.431-.123.863-.185,1.233-.493,3.2-.431,5.239-.616,5.239a4.415,4.415,0,0,1-.185-1.418,3,3,0,0,0-.062-.74v-.924a14.156,14.156,0,0,1,.123-2.219,9.2,9.2,0,0,0,.123-1.294c.062-.431.185-.924.247-1.418a29.914,29.914,0,0,1,.678-3.02,35.969,35.969,0,0,1,2.65-6.595,36.553,36.553,0,0,1,3.944-5.917c.74-.8,1.418-1.6,2.1-2.28.37-.308.678-.678.986-.986.37-.308.678-.555.986-.863a15.22,15.22,0,0,1,1.787-1.356l.74-.555c.247-.123.431-.247.678-.37C205.063,159.579,205.494,159.333,205.556,159.394Z" transform="translate(-189.1 -159.385)" fill="#fff"/>
        </g>
      </g>
    </g>
    <g id="Group_290" data-name="Group 290" transform="translate(991.851 739.417)">
      <g id="Group_289" data-name="Group 289">
        <path id="Path_138" data-name="Path 138" d="M171.244,339.265a4.741,4.741,0,0,1-2.28-4.807,4.813,4.813,0,0,1,3.7-3.821c1.664-.308,3.821.123,4.869-1.233.986-1.233.247-2.835.678-4.807a3.826,3.826,0,0,1,4.006-2.9,5.632,5.632,0,0,1,4.561,2.835,10.647,10.647,0,0,1,1.294,5.978c-.493,4.253-2.773,6.471-5.609,8.259-2.835,1.849-8.2,2.28-11.217.493" transform="translate(-168.905 -321.7)" fill="#e8e8e8"/>
      </g>
    </g>
    <g id="Group_298" data-name="Group 298" transform="translate(1062.849 717.964)">
      <g id="Group_297" data-name="Group 297">
        <path id="Path_141" data-name="Path 141" d="M283.971,292.388a7.263,7.263,0,0,1,13.5,1.726c.616,2.589,0,5.917,2.157,7.519,1.972,1.418,4.5.185,7.581.74a5.92,5.92,0,0,1,4.746,6.04,8.813,8.813,0,0,1-4.191,7.273,16.38,16.38,0,0,1-9.245,2.4c-6.656-.555-10.231-3.944-13.189-8.259s-3.944-12.7-1.356-17.442" transform="translate(-282.478 -288.514)" fill="#e8e8e8"/>
      </g>
    </g>
    <g id="Group_302" data-name="Group 302" transform="translate(1011.076 713.719)">
      <g id="Group_301" data-name="Group 301">
        <path id="Path_142" data-name="Path 142" d="M202.564,280.371a4.522,4.522,0,0,0-2.465,4.068,4.293,4.293,0,1,0,2.465-4.068" transform="translate(-200.097 -280.004)" fill="#e8e8e8"/>
      </g>
    </g>
    <g id="Group_308" data-name="Group 308" transform="translate(1077.826 765.599)">
      <g id="Group_307" data-name="Group 307">
        <path id="Path_144" data-name="Path 144" d="M309.633,364.378a2.421,2.421,0,0,0-1.233,2.034,2.148,2.148,0,1,0,4.191-.74,2.184,2.184,0,0,0-2.958-1.294" transform="translate(-308.4 -364.181)" fill="#e8e8e8"/>
      </g>
    </g>
  </g>
</svg>
