<svg xmlns="http://www.w3.org/2000/svg" width="9.786" height="11.512" viewBox="0 0 9.786 11.512">
  <path id="copy" d="M5.776,10.912H1.7A1.707,1.707,0,0,1,0,9.207V3.431a1.707,1.707,0,0,1,1.7-1.7H5.776a1.707,1.707,0,0,1,1.7,1.7V9.207A1.707,1.707,0,0,1,5.776,10.912ZM1.7,2.579a.853.853,0,0,0-.852.852V9.207a.853.853,0,0,0,.852.852H5.776a.853.853,0,0,0,.852-.852V3.431a.853.853,0,0,0-.852-.852ZM9.186,8.141V1.7A1.707,1.707,0,0,0,7.481,0H2.749a.426.426,0,0,0,0,.852H7.481a.853.853,0,0,1,.852.852V8.141a.426.426,0,0,0,.852,0Zm0,0" transform="translate(0.3 0.3)" fill="#1f65c3" stroke="#1f65c3" stroke-width="0.6"/>
</svg>
