<svg xmlns="http://www.w3.org/2000/svg" width="12.418" height="14.495" viewBox="0 0 12.418 14.495">
  <path id="delete-icon" d="M1.312,4.388H11.17a.992.992,0,0,1,.236.019.7.7,0,0,1,.34.184.641.641,0,0,1,.194.394.9.9,0,0,1-.007.17l-.84,8.7h0V13.9h0a.833.833,0,0,1-.024.106h0v.007h0a.7.7,0,0,1-.646.481H2.038a.728.728,0,0,1-.148-.022.729.729,0,0,1-.137-.057h0a.73.73,0,0,1-.364-.576L.564,5.161a.908.908,0,0,1-.007-.2.634.634,0,0,1,.192-.388A.708.708,0,0,1,1.1,4.39a1.056,1.056,0,0,1,.211-.015ZM.66,1.039H4.376V.708h0a.288.288,0,0,1,0-.032A.708.708,0,0,1,4.584.2h0a.708.708,0,0,1,.5-.2H7.4a.708.708,0,0,1,.673.708h0v.331H11.9a.555.555,0,0,1,.509.523c0,.021,0,.038,0,.059V2.786a.306.306,0,0,1-.306.306H.3a.306.306,0,0,1-.306-.3V1.6h0a.184.184,0,0,1,0-.037h0a.557.557,0,0,1,.458-.512A1.228,1.228,0,0,1,.66,1.039ZM5.632,7.262a.563.563,0,0,1,1.121,0v4.369a.563.563,0,0,1-1.121,0Zm2.8-.024a.541.541,0,0,1,.59-.479.528.528,0,0,1,.533.527L9.32,11.655a.54.54,0,0,1-.59.479.528.528,0,0,1-.533-.527l.236-4.369Zm-5.488.047a.527.527,0,0,1,.531-.527.541.541,0,0,1,.59.479L4.3,11.607a.528.528,0,0,1-.533.527.54.54,0,0,1-.59-.479L2.944,7.286Z" transform="translate(0.008)" fill="#dc5045" fill-rule="evenodd"/>
</svg>
