<svg xmlns="http://www.w3.org/2000/svg" width="12.195" height="13.937" viewBox="0 0 12.195 13.937">
  <path id="delete-317" d="M110.221,41.708h-3.629V40.546a1.165,1.165,0,0,0-1.161-1.161h-1.742a1.165,1.165,0,0,0-1.161,1.161v1.161H98.9a.447.447,0,0,0-.436.436v.871a.447.447,0,0,0,.436.436h11.324a.447.447,0,0,0,.436-.436v-.871A.447.447,0,0,0,110.221,41.708Zm-6.533-.871a.274.274,0,0,1,.29-.29h1.161a.274.274,0,0,1,.29.29v.871h-1.742Zm5.371,3.775h-9a.447.447,0,0,0-.436.436V51.87a1.438,1.438,0,0,0,1.452,1.452h6.968a1.438,1.438,0,0,0,1.452-1.452V45.047a.447.447,0,0,0-.436-.436ZM103.688,51a.274.274,0,0,1-.29.29h-.581a.274.274,0,0,1-.29-.29V46.934a.274.274,0,0,1,.29-.29h.581a.274.274,0,0,1,.29.29Zm2.9,0a.274.274,0,0,1-.29.29h-.581a.274.274,0,0,1-.29-.29V46.934a.274.274,0,0,1,.29-.29h.581a.274.274,0,0,1,.29.29Z" transform="translate(-98.461 -39.385)" fill="#ff7e7e"/>
</svg>
