<?xml version="1.0" encoding="UTF-8"?>
<svg xmlns="http://www.w3.org/2000/svg" xmlns:xlink="http://www.w3.org/1999/xlink" width="30pt" height="30pt" viewBox="0 0 30 30" version="1.1">
<g id="surface1">
<path style=" stroke:none;fill-rule:nonzero;fill:rgb(17.254902%,50.588235%,73.333333%);fill-opacity:1;" d="M 5.917969 1.699219 L 24.433594 1.699219 C 26.40625 1.699219 28.007812 3.300781 28.007812 5.273438 L 28.007812 23.847656 C 28.007812 25.820312 26.40625 27.421875 24.433594 27.421875 L 5.917969 27.421875 C 3.945312 27.421875 2.34375 25.820312 2.34375 23.847656 L 2.34375 5.273438 C 2.34375 3.300781 3.945312 1.699219 5.917969 1.699219 Z M 5.917969 1.699219 "/>
<path style=" stroke:none;fill-rule:nonzero;fill:rgb(27.058824%,65.490196%,90.980392%);fill-opacity:1;" d="M 7.265625 3.046875 L 23.085938 3.046875 C 25.058594 3.046875 26.660156 4.648438 26.660156 6.621094 L 26.660156 22.5 C 26.660156 24.472656 25.058594 26.074219 23.085938 26.074219 L 7.265625 26.074219 C 5.292969 26.074219 3.691406 24.472656 3.691406 22.5 L 3.691406 6.621094 C 3.691406 4.648438 5.292969 3.046875 7.265625 3.046875 Z M 7.265625 3.046875 "/>
<path style="fill:none;stroke-width:5;stroke-linecap:butt;stroke-linejoin:miter;stroke:rgb(100%,100%,100%);stroke-opacity:1;stroke-miterlimit:4;" d="M 61 2.533333 L 331 2.533333 C 363.333333 2.533333 389.533333 28.666667 389.533333 61 L 389.533333 332 C 389.533333 364.333333 363.333333 390.533333 331 390.533333 L 61 390.533333 C 28.666667 390.533333 2.533333 364.333333 2.466667 332 L 2.466667 61 C 2.466667 28.666667 28.666667 2.533333 61 2.533333 Z M 61 2.533333 " transform="matrix(0.0585938,0,0,0.0585938,3.691406,3.046875)"/>
<path style=" stroke:none;fill-rule:nonzero;fill:rgb(100%,100%,100%);fill-opacity:1;" d="M 8.671875 7.148438 L 8.671875 21.992188 L 21.660156 21.992188 L 21.660156 14.570312 L 14.238281 14.570312 L 14.238281 7.148438 Z M 16.09375 7.148438 L 16.09375 12.714844 L 21.660156 12.714844 Z M 10.527344 10.859375 L 12.382812 10.859375 L 12.382812 12.714844 L 10.527344 12.714844 Z M 10.527344 14.570312 L 12.382812 14.570312 L 12.382812 16.425781 L 10.527344 16.425781 Z M 10.527344 18.28125 L 17.949219 18.28125 L 17.949219 20.136719 L 10.527344 20.136719 Z M 10.527344 18.28125 "/>
</g>
</svg>
