<svg xmlns="http://www.w3.org/2000/svg" width="19.608" height="26.144" viewBox="0 0 19.608 26.144">
  <path id="Font_Awesome_5_solid_file-upload" d="M11.438,6.945V0H1.226A1.223,1.223,0,0,0,0,1.226V24.919a1.223,1.223,0,0,0,1.226,1.226H18.383a1.223,1.223,0,0,0,1.226-1.226V8.17H12.664A1.229,1.229,0,0,1,11.438,6.945Zm3.328,11.03H11.438V22.06a.817.817,0,0,1-.817.817H8.987a.817.817,0,0,1-.817-.817V17.975H4.842a.817.817,0,0,1-.575-1.4L9.19,11.691a.871.871,0,0,1,1.228,0l4.923,4.887A.817.817,0,0,1,14.766,17.975ZM19.251,5.362l-5-5A1.225,1.225,0,0,0,13.384,0h-.311V6.536h6.536V6.225A1.222,1.222,0,0,0,19.251,5.362Z" fill="#2196f3"/>
</svg>
