<svg id="drag-drop_1_1_" data-name="drag-drop_1 (1)" xmlns="http://www.w3.org/2000/svg" width="36.13" height="36.116" viewBox="0 0 36.13 36.116">
  <path id="Path_1" data-name="Path 1" d="M8.6,24.1h0a1.722,1.722,0,1,0,0-3.443h0a1.722,1.722,0,1,0,0,3.443ZM0,22.374H0a1.722,1.722,0,0,0,3.443,0h0a1.722,1.722,0,0,0-3.443,0Zm0-6.879H0a1.722,1.722,0,0,0,3.443,0h0a1.722,1.722,0,1,0-3.443,0ZM0,8.608H0a1.722,1.722,0,1,0,3.443,0h0A1.722,1.722,0,1,0,0,8.608ZM0,1.729H0a1.722,1.722,0,1,0,3.443,0h0A1.722,1.722,0,1,0,0,1.729ZM8.594,0h0a1.722,1.722,0,1,0,0,3.443h0A1.722,1.722,0,0,0,8.594,0ZM15.48,0h0a1.722,1.722,0,1,0,0,3.443h0A1.722,1.722,0,0,0,15.48,0ZM22.36,0h0a1.722,1.722,0,0,0,0,3.443h0A1.722,1.722,0,0,0,22.36,0Zm1.722,8.6h0a1.722,1.722,0,1,0-3.443,0h0a1.722,1.722,0,1,0,3.443,0Z" fill="#b4c3d2"/>
  <path id="Path_2" data-name="Path 2" d="M121.774,106.1v-3.443a5.155,5.155,0,0,0-5.158-5.158H102.858a5.155,5.155,0,0,0-5.158,5.158v13.759a5.155,5.155,0,0,0,5.158,5.158H106.3a1.722,1.722,0,1,0,0-3.443h-3.443a1.719,1.719,0,0,1-1.722-1.722V102.651a1.719,1.719,0,0,1,1.722-1.722h13.759a1.719,1.719,0,0,1,1.722,1.722v3.443a1.718,1.718,0,0,0,3.436.007Z" transform="translate(-90.806 -90.621)" fill="#b4c3d2"/>
  <path id="Path_3" data-name="Path 3" d="M245.045,247.079l11.543,3.845-3.168,1.581a1.692,1.692,0,0,0-.769.769l-1.58,3.168L247.226,244.9a1.718,1.718,0,1,0-3.26,1.087l5.158,15.48a1.719,1.719,0,0,0,3.168.226l3.182-6.371,6.371-3.182a1.719,1.719,0,0,0-.226-3.168l-15.48-5.158a1.723,1.723,0,0,0-1.094,3.267Z" transform="translate(-226.665 -226.525)" fill="#b4c3d2"/>
</svg>
