<svg xmlns="http://www.w3.org/2000/svg" width="19" height="19" viewBox="0 0 19 19">
  <g id="Group_18494" data-name="Group 18494" transform="translate(-300 -116)">
    <circle id="Ellipse_27" data-name="Ellipse 27" cx="9.5" cy="9.5" r="9.5" transform="translate(300 116)" fill="#ee4328"/>
    <circle id="Ellipse_28" data-name="Ellipse 28" cx="7.5" cy="7.5" r="7.5" transform="translate(302 118)" fill="#fff"/>
    <path id="warning" d="M24.173,16a8.173,8.173,0,1,0,8.173,8.173A8.173,8.173,0,0,0,24.173,16Zm0,14.594a1.43,1.43,0,1,1,1.43-1.43A1.43,1.43,0,0,1,24.173,30.594Zm1.422-4.9a1.022,1.022,0,0,1-1.022,1.022h-.8a1.022,1.022,0,0,1-1.022-1.022L21.9,18.54a1.022,1.022,0,0,1,1.022-1.022h2.5a1.022,1.022,0,0,1,1.022,1.022Z" transform="translate(285.328 101.327)" fill="#ee4328"/>
  </g>
</svg>
