<svg id="edit-pen-icon" xmlns="http://www.w3.org/2000/svg" width="9.826" height="10.255" viewBox="0 0 9.826 10.255">
  <path id="Path_105" data-name="Path 105" d="M7.884.168A.56.56,0,0,0,7.465,0a.544.544,0,0,0-.411.184l-.925.961L8.721,3.652l.934-.978a.572.572,0,0,0,.157-.419.555.555,0,0,0-.174-.411L7.884.168ZM3.446,9.145c-.34.113-.689.219-1.031.332s-.681.227-1.031.34c-.812.262-1.258.411-1.354.436S0,9.905.2,9.119L.843,6.648.9,6.593l2.55,2.55v0ZM1.84,5.613l3.587-3.74,2.593,2.5L4.39,8.162,1.84,5.613Z" transform="translate(0.013 -0.001)" fill="#008efa" fill-rule="evenodd"/>
</svg>
