<?xml version="1.0" encoding="utf-8"?>
<!-- Generator: Adobe Illustrator 16.0.0, SVG Export Plug-In . SVG Version: 6.00 Build 0)  -->
<!DOCTYPE svg PUBLIC "-//W3C//DTD SVG 1.1//EN" "http://www.w3.org/Graphics/SVG/1.1/DTD/svg11.dtd">
<svg version="1.1" id="Layer_1" xmlns="http://www.w3.org/2000/svg" xmlns:xlink="http://www.w3.org/1999/xlink" x="0px" y="0px"
	 width="34.005px" height="34.007px" viewBox="7.997 2.997 34.005 34.007" enable-background="new 7.997 2.997 34.005 34.007"
	 xml:space="preserve">
<g>
	<path d="M8.225,36.775c0.148,0.147,0.348,0.229,0.553,0.229c0.062,0,0.124-0.008,0.185-0.022l10.076-2.458
		c0.004-0.001,0.007-0.002,0.011-0.004c0.029-0.007,0.058-0.016,0.086-0.027c0.002,0,0.003-0.001,0.005-0.002
		c0.03-0.012,0.06-0.025,0.089-0.042c0.006-0.003,0.011-0.007,0.017-0.009c0.022-0.014,0.044-0.028,0.066-0.045
		c0.007-0.004,0.013-0.009,0.02-0.014c0.025-0.02,0.05-0.041,0.073-0.064l21.225-21.224c1.827-1.828,1.827-4.801,0-6.629
		l-2.095-2.095c-0.886-0.885-2.063-1.373-3.314-1.373c-1.253,0-2.429,0.487-3.314,1.373L10.683,25.594
		c-0.023,0.023-0.044,0.048-0.064,0.073c-0.005,0.007-0.01,0.013-0.015,0.02c-0.016,0.021-0.03,0.044-0.043,0.066
		c-0.003,0.005-0.006,0.011-0.009,0.017c-0.016,0.028-0.031,0.059-0.042,0.089c0,0.001-0.001,0.003-0.001,0.005
		c-0.011,0.028-0.021,0.058-0.028,0.088c-0.001,0.003-0.002,0.006-0.003,0.01L8.019,36.037C7.954,36.303,8.032,36.582,8.225,36.775z
		 M12.34,26.146L29.643,8.843l1.434,1.434L13.774,27.58L12.34,26.146z M32.182,11.382l1.436,1.436L16.315,30.121l-1.437-1.437
		L32.182,11.382z M34.723,13.923l1.434,1.434L18.854,32.66l-1.434-1.434L34.723,13.923z M33.012,5.474
		c0.59-0.59,1.375-0.915,2.21-0.915s1.62,0.325,2.21,0.916l2.094,2.094c1.219,1.218,1.219,3.201,0,4.419l-2.264,2.264l-6.514-6.514
		L33.012,5.474z M11.665,27.681l5.654,5.654l-7.478,1.823L11.665,27.681z"/>
</g>
</svg>
