<svg xmlns="http://www.w3.org/2000/svg" width="41.127" height="41.126" viewBox="0 0 41.127 41.126">
  <g id="Group_973" data-name="Group 973" transform="translate(19017 -1294)">
    <path id="Vector" d="M0,0H41.126V41.126H0Z" transform="translate(-19017 1294)" fill="none"/>
    <g id="power-svgrepo-com" transform="translate(-19029.127 1297)">
      <path id="Path_791" data-name="Path 791" d="M20.78,33.54A11.544,11.544,0,0,1,28,22.848l2.159-4.336A15.181,15.181,0,0,0,28.215,48.16l.415-3.694A11.547,11.547,0,0,1,20.78,33.54Z" transform="translate(-2 -16.398)" fill="#a8d6fb"/>
      <path id="Path_792" data-name="Path 792" d="M182,36.719A15.207,15.207,0,0,0,170.915,22.1l-.425,3.692a11.527,11.527,0,0,1,.706,21.589l-2.218,4.364A15.2,15.2,0,0,0,182,36.719Z" transform="translate(-132.513 -19.577)" fill="#a8d6fb"/>
      <path id="Path_793" data-name="Path 793" d="M90.585,15.3a.844.844,0,0,0-.814-1.243H82.826l1.5-13A.964.964,0,0,0,83.673.038.93.93,0,0,0,83.409,0,.912.912,0,0,0,82.6.507L73.2,19.379a.994.994,0,0,0,.041.929.97.97,0,0,0,.777.488h6.853L79.47,33.3a.866.866,0,0,0,.646.935.9.9,0,0,0,.262.033.914.914,0,0,0,.814-.5Z" transform="translate(-49.59 0)" fill="#1383d9"/>
    </g>
  </g>
</svg>
