<?xml version="1.0" encoding="utf-8"?>
<!-- Generator: Adobe Illustrator 16.0.0, SVG Export Plug-In . SVG Version: 6.00 Build 0)  -->
<!DOCTYPE svg PUBLIC "-//W3C//DTD SVG 1.1//EN" "http://www.w3.org/Graphics/SVG/1.1/DTD/svg11.dtd">
<svg version="1.1" id="_x31__px" xmlns="http://www.w3.org/2000/svg" xmlns:xlink="http://www.w3.org/1999/xlink" x="0px" y="0px"
	 width="63.443px" height="64px" viewBox="0 0 63.443 64" enable-background="new 0 0 63.443 64" xml:space="preserve">
<g>
	<path d="M60.446,7.775H34.771V1.942c0-0.58-0.262-1.128-0.716-1.498c-0.449-0.365-1.045-0.518-1.622-0.412l-31.6,5.833
		c-0.936,0.171-1.611,0.973-1.611,1.91v42.777c0,0.932,0.675,1.738,1.611,1.908l31.6,5.834c0.117,0.022,0.244,0.036,0.363,0.036
		c0.454,0,0.903-0.157,1.259-0.448c0.454-0.369,0.716-0.921,0.716-1.497v-5.833h25.675c1.09,0,1.974-0.872,1.974-1.945V9.72
		C62.419,8.646,61.535,7.775,60.446,7.775z M30.821,54.04L3.172,48.937V9.389l27.648-5.102V54.04z M58.47,46.663H34.771v-3.888
		h5.924c1.091,0,1.977-0.872,1.977-1.945s-0.886-1.944-1.977-1.944h-5.924v-3.889h5.924c1.091,0,1.977-0.871,1.977-1.944
		c0-1.074-0.886-1.944-1.977-1.944h-5.924V27.22h5.924c1.091,0,1.977-0.872,1.977-1.945s-0.886-1.943-1.977-1.943h-5.924v-3.889
		h5.924c1.091,0,1.977-0.872,1.977-1.945c0-1.074-0.886-1.944-1.977-1.944h-5.924v-3.889H58.47V46.663z"/>
	<path d="M48.595,19.442h3.95c1.09,0,1.974-0.872,1.974-1.945c0-1.074-0.884-1.944-1.974-1.944h-3.95
		c-1.09,0-1.974,0.871-1.974,1.944C46.621,18.57,47.505,19.442,48.595,19.442z"/>
	<path d="M48.595,27.22h3.95c1.09,0,1.974-0.872,1.974-1.945s-0.884-1.943-1.974-1.943h-3.95c-1.09,0-1.974,0.87-1.974,1.943
		S47.505,27.22,48.595,27.22z"/>
	<path d="M48.595,34.997h3.95c1.09,0,1.974-0.871,1.974-1.944c0-1.074-0.884-1.944-1.974-1.944h-3.95
		c-1.09,0-1.974,0.87-1.974,1.944C46.621,34.125,47.505,34.997,48.595,34.997z"/>
	<path d="M48.595,42.775h3.95c1.09,0,1.974-0.872,1.974-1.945s-0.884-1.944-1.974-1.944h-3.95c-1.09,0-1.974,0.871-1.974,1.944
		S47.505,42.775,48.595,42.775z"/>
	<path d="M20.137,28.632l6.315-7.992c0.671-0.852,0.518-2.074-0.344-2.73c-0.861-0.665-2.102-0.505-2.773,0.339l-5.849,7.401
		l-4.926-5.542c-0.727-0.813-1.972-0.892-2.789-0.183c-0.821,0.708-0.904,1.938-0.186,2.742l5.432,6.111l-5.506,6.97
		c-0.668,0.849-0.514,2.072,0.347,2.729c0.363,0.276,0.791,0.408,1.212,0.408c0.585,0,1.17-0.255,1.556-0.746l5.041-6.38
		l5.743,6.461c0.391,0.44,0.936,0.665,1.485,0.665c0.462,0,0.924-0.158,1.304-0.482c0.821-0.707,0.905-1.933,0.186-2.74
		L20.137,28.632z"/>
</g>
</svg>
