<?xml version="1.0" encoding="utf-8"?>
<!-- Generator: Adobe Illustrator 16.0.0, SVG Export Plug-In . SVG Version: 6.00 Build 0)  -->
<!DOCTYPE svg PUBLIC "-//W3C//DTD SVG 1.1//EN" "http://www.w3.org/Graphics/SVG/1.1/DTD/svg11.dtd">
<svg version="1.1" id="_x31__px" xmlns="http://www.w3.org/2000/svg" xmlns:xlink="http://www.w3.org/1999/xlink" x="0px" y="0px"
	 width="66.713px" height="62.541px" viewBox="-276.713 170.458 66.713 62.541"
	 enable-background="new -276.713 170.458 66.713 62.541" xml:space="preserve">
<g>
	<path fill="#646E7F" d="M-212.085,178.795h-27.102v-6.254c0-0.622-0.275-1.21-0.755-1.605c-0.476-0.393-1.105-0.555-1.714-0.442
		l-33.356,6.255c-0.988,0.184-1.701,1.042-1.701,2.047v45.865c0,1.001,0.713,1.864,1.701,2.047l33.356,6.255
		c0.125,0.024,0.258,0.037,0.384,0.037c0.479,0,0.955-0.167,1.33-0.479c0.479-0.396,0.755-0.988,0.755-1.604v-6.255h27.102
		c1.151,0,2.085-0.935,2.085-2.085V180.88C-210,179.729-210.934,178.795-212.085,178.795z M-243.356,228.401l-29.187-5.471v-42.404
		l29.187-5.471V228.401z M-214.17,220.491h-25.017v-4.169h6.254c1.151,0,2.085-0.935,2.085-2.085c0-1.151-0.934-2.085-2.085-2.085
		h-6.254v-4.169h6.254c1.151,0,2.085-0.935,2.085-2.085c0-1.151-0.934-2.085-2.085-2.085h-6.254v-4.17h6.254
		c1.151,0,2.085-0.934,2.085-2.084c0-1.151-0.934-2.085-2.085-2.085h-6.254v-4.17h6.254c1.151,0,2.085-0.935,2.085-2.085
		c0-1.151-0.934-2.085-2.085-2.085h-6.254v-4.169h25.017V220.491z"/>
	<path fill="#646E7F" d="M-224.594,191.304h4.17c1.151,0,2.085-0.935,2.085-2.085c0-1.151-0.934-2.085-2.085-2.085h-4.17
		c-1.15,0-2.084,0.934-2.084,2.085C-226.678,190.37-225.744,191.304-224.594,191.304z"/>
	<path fill="#646E7F" d="M-224.594,199.643h4.17c1.151,0,2.085-0.934,2.085-2.084c0-1.151-0.934-2.085-2.085-2.085h-4.17
		c-1.15,0-2.084,0.934-2.084,2.085C-226.678,198.709-225.744,199.643-224.594,199.643z"/>
	<path fill="#646E7F" d="M-224.594,207.983h4.17c1.151,0,2.085-0.935,2.085-2.085c0-1.151-0.934-2.085-2.085-2.085h-4.17
		c-1.15,0-2.084,0.934-2.084,2.085C-226.678,207.048-225.744,207.983-224.594,207.983z"/>
	<path fill="#646E7F" d="M-224.594,216.322h4.17c1.151,0,2.085-0.935,2.085-2.085c0-1.151-0.934-2.085-2.085-2.085h-4.17
		c-1.15,0-2.084,0.934-2.084,2.085C-226.678,215.387-225.744,216.322-224.594,216.322z"/>
	<path fill="#646E7F" d="M-254.633,201.159l6.666-8.57c0.708-0.913,0.546-2.223-0.363-2.927c-0.909-0.714-2.218-0.542-2.927,0.362
		l-6.173,7.938l-5.201-5.944c-0.767-0.871-2.081-0.955-2.944-0.196c-0.867,0.759-0.955,2.077-0.196,2.939l5.733,6.553l-5.813,7.475
		c-0.705,0.908-0.542,2.222,0.367,2.927c0.384,0.296,0.833,0.438,1.28,0.438c0.617,0,1.234-0.275,1.643-0.801l5.321-6.84
		l6.062,6.928c0.413,0.472,0.988,0.713,1.568,0.713c0.488,0,0.976-0.171,1.376-0.517c0.867-0.76,0.955-2.072,0.196-2.94
		L-254.633,201.159z"/>
</g>
</svg>
