<?xml version="1.0" encoding="utf-8"?>
<!-- Generator: Adobe Illustrator 24.3.0, SVG Export Plug-In . SVG Version: 6.00 Build 0)  -->
<svg version="1.1" id="_x31__px" xmlns="http://www.w3.org/2000/svg" xmlns:xlink="http://www.w3.org/1999/xlink" x="0px" y="0px"
	 viewBox="0 0 63.4 64" style="enable-background:new 0 0 63.4 64;" xml:space="preserve">
<style type="text/css">
	.st0{fill:#007D33;}
</style>
<g>
	<path class="st0" d="M60.4,7.8H34.8V1.9c0-0.6-0.3-1.1-0.7-1.5c-0.4-0.4-1-0.5-1.6-0.4L0.8,5.9c-0.9,0.2-1.6,1-1.6,1.9v42.8
		c0,0.9,0.7,1.7,1.6,1.9l31.6,5.8c0.1,0,0.2,0,0.4,0c0.5,0,0.9-0.2,1.3-0.4c0.5-0.4,0.7-0.9,0.7-1.5v-5.8h25.7c1.1,0,2-0.9,2-1.9
		V9.7C62.4,8.6,61.5,7.8,60.4,7.8z M30.8,54L3.2,48.9V9.4l27.6-5.1L30.8,54L30.8,54z M58.5,46.7H34.8v-3.9h5.9c1.1,0,2-0.9,2-1.9
		s-0.9-1.9-2-1.9h-5.9V35h5.9c1.1,0,2-0.9,2-1.9c0-1.1-0.9-1.9-2-1.9h-5.9v-3.9h5.9c1.1,0,2-0.9,2-1.9s-0.9-1.9-2-1.9h-5.9v-3.9h5.9
		c1.1,0,2-0.9,2-1.9c0-1.1-0.9-1.9-2-1.9h-5.9v-3.9h23.7V46.7z"/>
	<path class="st0" d="M48.6,19.4h4c1.1,0,2-0.9,2-1.9c0-1.1-0.9-1.9-2-1.9h-4c-1.1,0-2,0.9-2,1.9C46.6,18.6,47.5,19.4,48.6,19.4z"/>
	<path class="st0" d="M48.6,27.2h4c1.1,0,2-0.9,2-1.9s-0.9-1.9-2-1.9h-4c-1.1,0-2,0.9-2,1.9S47.5,27.2,48.6,27.2z"/>
	<path class="st0" d="M48.6,35h4c1.1,0,2-0.9,2-1.9c0-1.1-0.9-1.9-2-1.9h-4c-1.1,0-2,0.9-2,1.9C46.6,34.1,47.5,35,48.6,35z"/>
	<path class="st0" d="M48.6,42.8h4c1.1,0,2-0.9,2-1.9s-0.9-1.9-2-1.9h-4c-1.1,0-2,0.9-2,1.9S47.5,42.8,48.6,42.8z"/>
	<path class="st0" d="M20.1,28.6l6.3-8c0.7-0.9,0.5-2.1-0.3-2.7c-0.9-0.7-2.1-0.5-2.8,0.3l-5.8,7.4l-4.9-5.5c-0.7-0.8-2-0.9-2.8-0.2
		c-0.8,0.7-0.9,1.9-0.2,2.7l5.4,6.1l-5.5,7c-0.7,0.8-0.5,2.1,0.3,2.7c0.4,0.3,0.8,0.4,1.2,0.4c0.6,0,1.2-0.3,1.6-0.7l5-6.4l5.7,6.5
		c0.4,0.4,0.9,0.7,1.5,0.7c0.5,0,0.9-0.2,1.3-0.5c0.8-0.7,0.9-1.9,0.2-2.7L20.1,28.6z"/>
</g>
</svg>
