<svg xmlns="http://www.w3.org/2000/svg" xmlns:xlink="http://www.w3.org/1999/xlink" width="195" height="166" viewBox="0 0 195 166">
  <defs>
    <radialGradient id="radial-gradient" cx="0.5" cy="0.5" r="0.5" gradientTransform="translate(0 0.211) scale(1 0.578)" gradientUnits="objectBoundingBox">
      <stop offset="0" stop-color="#7d90a2" stop-opacity="0.502"/>
      <stop offset="0.435" stop-color="#8295a8" stop-opacity="0.149"/>
      <stop offset="1" stop-color="#899caf" stop-opacity="0"/>
    </radialGradient>
  </defs>
  <g id="Group_15" data-name="Group 15" transform="translate(-871 -438)">
    <rect id="Rectangle_32" data-name="Rectangle 32" width="178" height="141" rx="21" transform="translate(871 438)" fill="#fff"/>
    <circle id="Ellipse_3" data-name="Ellipse 3" cx="17" cy="17" r="17" transform="translate(1032 471)" fill="#2196f3"/>
    <path id="Path_2" data-name="Path 2" d="M.735-11.4c-1.726,0-2.206.5-2.206,1.138A11.382,11.382,0,0,0-1.2-8.378C-.688-5.6-.279-2.828.113.178.166.516,1.251.5,1.34.178c.391-3.006.765-5.781,1.3-8.556a10.81,10.81,0,0,0,.249-1.886c0-.64-.5-1.138-2.117-1.138ZM.771,6.209A1.939,1.939,0,0,0,2.763,4.163,1.95,1.95,0,0,0,.771,2.153,1.935,1.935,0,0,0-1.2,4.163,1.917,1.917,0,0,0,.735,6.209Z" transform="translate(1048.292 490.597)" fill="#fff"/>
    <g id="Group_11" data-name="Group 11" transform="translate(-6483.744 -1660.413)">
      <path id="Path_4" data-name="Path 4" d="M144.412,156.686a6.943,6.943,0,1,0-4.9-2.046A6.918,6.918,0,0,0,144.412,156.686Z" transform="translate(7281.066 2003)" fill="#66798b"/>
      <path id="Path_5" data-name="Path 5" d="M279.279,156.686a6.943,6.943,0,1,0-4.9-2.046A6.792,6.792,0,0,0,279.279,156.686Z" transform="translate(7180.987 2003)" fill="#66798b"/>
      <path id="Path_6" data-name="Path 6" d="M132.651,275.052c.146-.439,3-9.866,19-9.866,16.517,0,21.194,10.013,21.34,10.378a4.423,4.423,0,0,0,4.02,2.7,3.5,3.5,0,0,0,1.681-.365,4.318,4.318,0,0,0,2.339-5.7c-.292-.658-6.8-15.786-29.452-15.786-23.094,0-27.333,15.786-27.479,16.444l4.239,1.1Z" transform="translate(7291 1918.69)" fill="#66798b"/>
    </g>
    <ellipse id="Ellipse_4" data-name="Ellipse 4" cx="88" cy="6.5" rx="88" ry="6.5" transform="translate(871 591)" fill="url(#radial-gradient)"/>
  </g>
</svg>
