<svg xmlns="http://www.w3.org/2000/svg" width="16.885" height="16.966" viewBox="0 0 16.885 16.966">
  <g id="printer-filled-tool-for-print-button-svgrepo-com" transform="translate(-2.351)">
    <path id="Path_13" data-name="Path 13" d="M238.657,3.3a2,2,0,0,0-.584-1.41l-1.3-1.3A2,2,0,0,0,235.362,0h-4.671a1.04,1.04,0,0,0-1.04,1.04V4.378h9.008V3.3Z" transform="translate(-223.362)" fill="#93a7b9"/>
    <path id="Path_14" data-name="Path 14" d="M3.391,331.255H5.175v-3.611H16.412v3.611H18.2a1.04,1.04,0,0,0,1.04-1.04V323.64a1.04,1.04,0,0,0-1.04-1.04H3.391a1.04,1.04,0,0,0-1.04,1.04v6.575A1.038,1.038,0,0,0,3.391,331.255Zm1.644-7.234a1.092,1.092,0,1,1-1.092,1.092A1.091,1.091,0,0,1,5.035,324.021Z" transform="translate(0 -317.01)" fill="#93a7b9"/>
    <path id="Path_15" data-name="Path 15" d="M234.41,678.475V673.7h-9.159v4.773a.521.521,0,0,0,.52.52h8.119A.519.519,0,0,0,234.41,678.475Zm-6.832-2.648h4.5a.519.519,0,0,1,.515.444.545.545,0,0,1,.005.076.519.519,0,0,1-.52.52h-4.5a.519.519,0,0,1-.52-.52.563.563,0,0,1,.005-.076A.519.519,0,0,1,227.578,675.828Z" transform="translate(-219.038 -662.027)" fill="#93a7b9"/>
  </g>
</svg>
