<svg xmlns="http://www.w3.org/2000/svg" width="12.021" height="10.518" viewBox="0 0 12.021 10.518">
  <g id="Group_17993" data-name="Group 17993" transform="translate(-478.014 -179.464)">
    <g id="Group_17961" data-name="Group 17961" transform="translate(478.014 179.464)">
      <path id="Path_66" data-name="Path 66" d="M590.072,208.1a2.218,2.218,0,0,1-.272.294q-1.4,1.059-2.806,2.105a.664.664,0,0,1-.269.129.367.367,0,0,1-.408-.393c0-.321,0-.642,0-.962,0-.042,0-.084,0-.14h-.134c-.411,0-.821,0-1.232,0a3.34,3.34,0,0,0-3.107,1.9c-.026.048-.048.1-.075.146a.374.374,0,0,1-.708-.188,4.13,4.13,0,0,1,1.8-3.386,3.665,3.665,0,0,1,1.743-.672c.5-.048,1.007-.038,1.511-.053.062,0,.125,0,.2,0v-.128c0-.317,0-.634,0-.951a.387.387,0,0,1,.207-.379.377.377,0,0,1,.427.054q1.474,1.105,2.945,2.213a1.14,1.14,0,0,1,.178.224Z" transform="translate(-578.051 -205.378)" fill="#fff"/>
      <path id="Path_67" data-name="Path 67" d="M482.548,230.891v1.5H480.3v6.76h6.749v-2.968h1.508v.115q0,1.767,0,3.533a.759.759,0,0,1-.823.828h-8.122a.758.758,0,0,1-.822-.817q0-4.067,0-8.134a.758.758,0,0,1,.813-.815h2.941Z" transform="translate(-478.794 -230.141)" fill="#fff"/>
    </g>
  </g>
</svg>
