<?xml version="1.0" encoding="utf-8"?>
<!-- Generator: Adobe Illustrator 16.0.0, SVG Export Plug-In . SVG Version: 6.00 Build 0)  -->
<!DOCTYPE svg PUBLIC "-//W3C//DTD SVG 1.1//EN" "http://www.w3.org/Graphics/SVG/1.1/DTD/svg11.dtd">
<svg version="1.1" id="Layer_1" xmlns="http://www.w3.org/2000/svg" xmlns:xlink="http://www.w3.org/1999/xlink" x="0px" y="0px"
	 width="17.911px" height="10.385px" viewBox="0 0 17.911 10.385" enable-background="new 0 0 17.911 10.385" xml:space="preserve">
<g>
	<path d="M17.725,5.494l0.186-0.301l-0.186-0.301c-0.031-0.05-0.773-1.249-2.215-2.45C13.59,0.844,11.331,0,8.973,0
		S4.35,0.844,2.421,2.44c-1.45,1.2-2.201,2.398-2.233,2.448L0,5.192l0.188,0.304c0.032,0.05,0.783,1.249,2.233,2.448
		c1.929,1.597,4.195,2.44,6.552,2.44s4.617-0.844,6.537-2.441C16.952,6.743,17.694,5.544,17.725,5.494z M14.741,7.083
		c-1.725,1.426-3.666,2.148-5.768,2.148s-4.049-0.724-5.786-2.15C2.289,6.343,1.679,5.596,1.381,5.192
		c0.298-0.404,0.908-1.151,1.807-1.889c1.737-1.427,3.684-2.151,5.786-2.151s4.043,0.724,5.768,2.149
		c0.895,0.739,1.498,1.487,1.793,1.89C16.239,5.595,15.635,6.344,14.741,7.083z"/>
	<path d="M8.956,1.727c-1.91,0-3.465,1.555-3.465,3.465c0,1.91,1.555,3.465,3.465,3.465s3.465-1.555,3.465-3.465
		C12.42,3.282,10.866,1.727,8.956,1.727z M8.956,7.504c-1.273,0-2.311-1.037-2.311-2.312s1.037-2.312,2.311-2.312
		c1.275,0,2.313,1.037,2.313,2.312S10.231,7.504,8.956,7.504z"/>
</g>
</svg>
