<svg xmlns="http://www.w3.org/2000/svg" width="41.127" height="41.126" viewBox="0 0 41.127 41.126">
  <g id="Group_974" data-name="Group 974" transform="translate(19017.063 -1245)">
    <path id="Vector" d="M0,0H41.126V41.126H0Z" transform="translate(-19017.063 1245)" fill="none"/>
    <g id="Group_972" data-name="Group 972" transform="translate(31.998 107.62)">
      <path id="Subtraction_10" data-name="Subtraction 10" d="M18.866,16.157H15.2A.943.943,0,0,1,14.141,15.1q0-.31,0-.62c0-.61,0-1.239,0-1.861a.232.232,0,0,0-.2-.27c-.593-.172-1.16-.345-1.841-.554l-.086-.026-.038-.012-.52-.159-.164.225,0,0,0,0L11.166,12l0,0-.221.3-.006.008-.434.594c-.084.116-.167.232-.249.348l-.032.045c-.11.153-.222.31-.335.462a.988.988,0,0,1-.793.454,1.08,1.08,0,0,1-.635-.23c-1-.727-2.029-1.473-3.131-2.282A.91.91,0,0,1,5.113,10.4c.32-.457.654-.914.977-1.356l.021-.028,0,0,.112-.153q.194-.265.387-.532c.036-.049.069-.1.087-.129l.017-.027L6.542,7.92C6.03,7.2,5.6,6.6,5.152,5.987a.257.257,0,0,0-.186-.056.366.366,0,0,0-.1.012c-.571.178-1.146.368-1.7.552l-.01,0-.206.068-.308.1a1.614,1.614,0,0,1-.5.094.823.823,0,0,1-.643-.287,1.406,1.406,0,0,1-.267-.5C.881,4.945.523,3.849.065,2.422A.939.939,0,0,1,.726,1.141l.242-.079.27-.088L1.257.967,1.509.885V.892L2.8.472,2.9.44l.1-.032A.61.61,0,0,0,3.082.379L4.237,0H7.359a9.7,9.7,0,0,0,9.426,7.348A9.7,9.7,0,0,0,26.211,0H26.8l2.978,0c.028,0,.056,0,.082,0h.182l1.02.365a2.342,2.342,0,0,0,.3.112l.162.054L31.7.595V.59l.665.217,0,0,.258.084.78.255a.939.939,0,0,1,.66,1.26c-.362,1.13-.753,2.325-1.194,3.653a.907.907,0,0,1-.874.706,1.248,1.248,0,0,1-.367-.059c-.773-.238-1.548-.5-2.276-.746a.61.61,0,0,0-.194-.04c-.112,0-.2.06-.294.2-.332.5-.68.97-1.048,1.472l-.076.1-.342.468.6.827.08.111.23.318.173.236,0,.005.053.072,0,0c.16.217.325.44.478.664a.915.915,0,0,1-.213,1.289c-.941.691-2.054,1.506-3.177,2.311a1.033,1.033,0,0,1-.6.216.97.97,0,0,1-.776-.448c-.293-.4-.59-.808-.868-1.192l0,0-.635-.873-.051-.061-.026-.032-.017-.02-.6.2-1.138.368-.013,0-.91.294v2.585C19.992,15.811,19.645,16.157,18.866,16.157Z" transform="translate(-19045.684 1158.922)" fill="#a8d6fb"/>
      <g id="men" transform="translate(-19036.844 1140.807)">
        <path id="Path_805" data-name="Path 805" d="M99.789,367.7c.709.266,1.415.493,2.087.793a10.273,10.273,0,0,1,1.639.9,4.646,4.646,0,0,1,2.026,3.881c.019.486.011.975.008,1.461a.444.444,0,0,1-.091.239,9.827,9.827,0,0,1-5.85,3.87,9.94,9.94,0,0,1-10.41-4.078.575.575,0,0,1-.1-.33c.027-.744.019-1.495.118-2.231a4.255,4.255,0,0,1,2.417-3.369,14.524,14.524,0,0,1,3.107-1.089c.156-.038.167.061.2.148q.888,2.083,1.776,4.169c.03.072.064.14.095.212l.046-.011v-.216c0-.3-.008-.607.008-.911a3.621,3.621,0,0,0-.277-1.813.658.658,0,0,1-.027-.121h1.757c-.061.175-.106.345-.178.5a1.775,1.775,0,0,0-.133.755c.011.607,0,1.214.049,1.832C98.624,370.784,99.2,369.259,99.789,367.7Z" transform="translate(-89.094 -359.094)" fill="#1383d9"/>
        <path id="Path_806" data-name="Path 806" d="M219.328,145.227a6.762,6.762,0,0,1-1.669,4.2,3.756,3.756,0,0,1-.558.512,2.155,2.155,0,0,1-2.8,0,5.364,5.364,0,0,1-1.616-2.185,5.963,5.963,0,0,1-.489-3.623,4.315,4.315,0,0,1,1.191-2.265,3.193,3.193,0,0,1,4.647.008A4.618,4.618,0,0,1,219.328,145.227Z" transform="translate(-207.43 -140.862)" fill="#1383d9"/>
      </g>
    </g>
  </g>
</svg>
