<svg xmlns="http://www.w3.org/2000/svg" width="118.82" height="53.395" viewBox="0 0 118.82 53.395">
  <g id="fca-logo" transform="translate(-8.505 -873.575)">
    <g id="Group_12" data-name="Group 12" transform="translate(8.505 873.575)">
      <g id="logo-logo_1_" transform="translate(0 0)">
        <g id="Group_1" data-name="Group 1" transform="translate(17.159 0)">
          <path id="Path_1" data-name="Path 1" d="M-485.539,577.186a44.586,44.586,0,0,0-6.433,5.468,46.623,46.623,0,0,0-5.427,6.478c-2.368,3.466-4.595,2.58-6.5-1.445a24.937,24.937,0,0,0-5.028-6.877,25.137,25.137,0,0,0-6.872-5.029c-4.018-1.912-4.919-4.139-1.463-6.516a47.88,47.88,0,0,0,6.5-5.41,43.9,43.9,0,0,0,5.441-6.459c2.366-3.469,4.987-2.962,7.088.823a30.514,30.514,0,0,0,5.194,6.707,30.568,30.568,0,0,0,6.718,5.187c3.786,2.1,4.255,4.7.79,7.072" transform="translate(519.406 -555.066)" fill="#afda19"/>
        </g>
        <g id="Group_2" data-name="Group 2" transform="translate(17.037 14.022)">
          <path id="Path_2" data-name="Path 2" d="M-485.5,572.464a44.5,44.5,0,0,0-6.433,5.468,46.574,46.574,0,0,0-5.427,6.478c-2.368,3.465-4.595,2.579-6.5-1.446a24.948,24.948,0,0,0-5.028-6.876,25.128,25.128,0,0,0-6.873-5.028c-4.018-1.912-4.918-4.14-1.463-6.516a47.889,47.889,0,0,0,6.5-5.41,43.894,43.894,0,0,0,5.441-6.459c2.366-3.468,4.987-2.962,7.088.823A30.454,30.454,0,0,0-493,560.2a30.545,30.545,0,0,0,6.717,5.188c3.787,2.1,4.255,4.7.79,7.072" transform="translate(519.364 -550.343)" fill="#de097c"/>
        </g>
        <g id="Group_3" data-name="Group 3" transform="translate(2.566 7.595)">
          <path id="Path_3" data-name="Path 3" d="M-451.66,605.454a37.559,37.559,0,0,0-5.415,4.6,39.294,39.294,0,0,0-4.569,5.454c-1.993,2.916-3.867,2.171-5.474-1.217a21,21,0,0,0-4.233-5.789,21.163,21.163,0,0,0-5.785-4.232c-3.382-1.61-4.14-3.484-1.231-5.485a40.275,40.275,0,0,0,5.468-4.554,36.9,36.9,0,0,0,4.58-5.437c1.993-2.919,4.2-2.493,5.967.693a25.694,25.694,0,0,0,4.372,5.646,25.719,25.719,0,0,0,5.655,4.367c3.187,1.766,3.582,3.957.664,5.953" transform="translate(480.168 -586.834)" fill="#449cc7"/>
        </g>
        <g id="Group_4" data-name="Group 4" transform="translate(0 27.143)">
          <path id="Path_4" data-name="Path 4" d="M-412.247,639.9a28.142,28.142,0,0,0-4.06,3.452,29.335,29.335,0,0,0-3.426,4.088c-1.495,2.189-2.9,1.629-4.1-.911a15.758,15.758,0,0,0-3.174-4.341,15.868,15.868,0,0,0-4.338-3.173c-2.536-1.207-3.1-2.613-.924-4.113a30.194,30.194,0,0,0,4.1-3.415,27.646,27.646,0,0,0,3.434-4.077c1.494-2.188,3.148-1.869,4.474.519a19.239,19.239,0,0,0,3.279,4.234,19.258,19.258,0,0,0,4.24,3.274c2.39,1.325,2.686,2.968.5,4.464" transform="translate(433.624 -625.935)" fill="#e6681a"/>
        </g>
        <g id="Group_5" data-name="Group 5" transform="translate(17.509 31.569)">
          <path id="Path_5" data-name="Path 5" d="M-412.906,643.98a26.847,26.847,0,0,0-3.876,3.294,28.118,28.118,0,0,0-3.27,3.9c-1.427,2.088-2.769,1.555-3.918-.871a15.026,15.026,0,0,0-3.03-4.144,15.153,15.153,0,0,0-4.141-3.03c-2.421-1.152-2.964-2.494-.882-3.926a28.868,28.868,0,0,0,3.914-3.26,26.463,26.463,0,0,0,3.279-3.892c1.426-2.09,3-1.785,4.271.5a18.4,18.4,0,0,0,3.13,4.042,18.415,18.415,0,0,0,4.048,3.125c2.282,1.265,2.564,2.833.476,4.262" transform="translate(433.314 -630.65)" fill="#f3bf0a"/>
        </g>
        <g id="Group_6" data-name="Group 6" transform="translate(25.047 19.326)">
          <path id="Path_6" data-name="Path 6" d="M-347.046,723.265c2.917-2,2.523-4.187-.664-5.953q-.789-.437-1.533-.936a47,47,0,0,1-3.2,3.487q-.311.307-.627.61a30.654,30.654,0,0,1,2.589,2.32c.572.571,1.128,1.166,1.66,1.786q.863-.686,1.777-1.314" transform="translate(353.072 -716.376)" fill="#131312"/>
        </g>
        <g id="Group_7" data-name="Group 7" transform="translate(17.039 23.422)">
          <path id="Path_7" data-name="Path 7" d="M-371.149,704.773a40.8,40.8,0,0,1,3.892-4.5,41.384,41.384,0,0,1,3.638-3.29c-.532-.62-1.088-1.214-1.66-1.786a30.572,30.572,0,0,0-2.589-2.321,47.392,47.392,0,0,1-5.868,4.8c-3.455,2.376-2.555,4.6,1.463,6.516q.573.272,1.124.58" transform="translate(375.877 -692.877)" fill="#1f2354"/>
        </g>
        <g id="Group_8" data-name="Group 8" transform="translate(17.161 12.392)">
          <path id="Path_8" data-name="Path 8" d="M-364.155,712.193a46.991,46.991,0,0,0,3.2-3.487,27.534,27.534,0,0,1-4.122-3.43,28.435,28.435,0,0,1-3.01-3.5q-1.187.943-2.442,1.808c-3.456,2.377-2.555,4.6,1.463,6.516a22.371,22.371,0,0,1,4.283,2.708l.627-.61" transform="translate(372.67 -701.771)" fill="#267836"/>
        </g>
        <g id="Group_9" data-name="Group 9" transform="translate(23.309 31.57)">
          <path id="Path_9" data-name="Path 9" d="M-385.919,672.81c2.088-1.429,1.806-3-.476-4.262a18.413,18.413,0,0,1-4.048-3.125,18.4,18.4,0,0,1-3.13-4.042c-1.265-2.28-2.845-2.585-4.271-.5a25.852,25.852,0,0,1-2.683,3.287,28.236,28.236,0,0,1,4.2,3.5,24.949,24.949,0,0,1,5.028,6.876,12.226,12.226,0,0,0,1.118,1.941c.125-.13.252-.26.38-.389a26.86,26.86,0,0,1,3.876-3.294" transform="translate(400.527 -659.48)" fill="#d81e25"/>
        </g>
        <g id="Group_10" data-name="Group 10" transform="translate(17.511 37.484)">
          <path id="Path_10" data-name="Path 10" d="M-330.764,727.649c1.743-1.192,1.909-2.478.7-3.621a28.237,28.237,0,0,1-3.272,2.643c-1.693,1.164-1.65,2.269-.273,3.261a25.783,25.783,0,0,1,2.848-2.283" transform="translate(334.629 -724.029)" fill="#e14c1e"/>
        </g>
        <g id="Group_11" data-name="Group 11" transform="translate(9.678 27.143)">
          <path id="Path_11" data-name="Path 11" d="M-360.891,705.256c1.538,3.245,3.323,4.067,5.222,1.567a19.325,19.325,0,0,1-4.2-3.253,19.252,19.252,0,0,1-3.279-4.234c-1.1-1.973-2.414-2.534-3.682-1.438.6.5,1.164,1.026,1.707,1.568a21.007,21.007,0,0,1,4.233,5.789" transform="translate(366.831 -697.346)" fill="#213e1c"/>
        </g>
      </g>
      <path id="Path_12" data-name="Path 12" d="M1094.647,1004.867l-1.094-2.943c-2.414,0-4.816,0-7.219.013-.112,0-.278.16-.325.281-.339.868-.654,1.746-.985,2.643h-4.2l6.686-17.45h4.654l6.688,17.456Zm-4.815-13.724c-.919,2.557-1.806,5.023-2.7,7.519h5.407C1091.638,996.162,1090.751,993.7,1089.832,991.143Z" transform="translate(-988.721 -977.634)" fill="#1383d9"/>
      <path id="Path_13" data-name="Path 13" d="M896.895,996.141l3.166,1.538a7.678,7.678,0,0,1-4.8,3.931,9.3,9.3,0,0,1-9.172-2.276,8.3,8.3,0,0,1-2.538-5.99,9,9,0,0,1,1.653-5.771,8.727,8.727,0,0,1,5.619-3.459,9.316,9.316,0,0,1,4.65.2,7.968,7.968,0,0,1,4.592,3.865l-3.182,1.578a4.8,4.8,0,0,0-2.245-2.126,5.18,5.18,0,0,0-6.879,3.043,5.993,5.993,0,0,0,.952,6.151,4.945,4.945,0,0,0,8.026-.441C896.783,996.307,896.835,996.232,896.895,996.141Z" transform="translate(-808.389 -974.436)" fill="#1383d9"/>
      <path id="Path_14" data-name="Path 14" d="M720.328,987.542h12.247v3.217H724.03v3.773h8.349v3.244h-8.364v7.19h-3.687Q720.328,996.284,720.328,987.542Z" transform="translate(-659.191 -977.753)" fill="#1383d9"/>
    </g>
    <g id="Group_14" data-name="Group 14" transform="translate(69.363 904.769)">
      <g id="Group_13" data-name="Group 13" transform="translate(0 0)">
        <path id="Path_15" data-name="Path 15" d="M717.085,1243.36h6.9v1.523h-2.507v7.883h-1.887v-7.883h-2.507Z" transform="translate(-717.085 -1242.794)" fill="#1383d9"/>
        <path id="Path_16" data-name="Path 16" d="M828.18,1272.272h-1.887v-7.466h1.887v1.159a2.589,2.589,0,0,1,2.291-1.267v1.981h-.5c-1.118,0-1.792.431-1.792,1.873Z" transform="translate(-816.914 -1262.299)" fill="#1383d9"/>
        <path id="Path_17" data-name="Path 17" d="M900.312,1264.54a2.952,2.952,0,0,1,2.466,1.186v-1.065h1.9v7.466h-1.9v-1.092a2.944,2.944,0,0,1-2.479,1.213c-1.887,0-3.4-1.55-3.4-3.881S898.411,1264.54,900.312,1264.54Zm.485,1.657a1.991,1.991,0,0,0-1.967,2.17,2.04,2.04,0,0,0,1.967,2.223,2.208,2.208,0,0,0,0-4.393Z" transform="translate(-881.458 -1262.155)" fill="#1383d9"/>
        <path id="Path_18" data-name="Path 18" d="M1019.84,1264.54a3.331,3.331,0,0,1,3.517,2.641h-2.035a1.467,1.467,0,0,0-1.5-1.038c-1.051,0-1.752.8-1.752,2.25s.7,2.237,1.752,2.237a1.423,1.423,0,0,0,1.5-1.024h2.035a3.406,3.406,0,0,1-3.517,2.641,3.858,3.858,0,0,1,0-7.708Z" transform="translate(-990.462 -1262.155)" fill="#1383d9"/>
        <path id="Path_19" data-name="Path 19" d="M1129.12,1236.77h1.887v5.673l2.506-3.167h2.453l-3.288,3.746,3.315,3.72h-2.453l-2.534-3.18v3.18h-1.887Z" transform="translate(-1093.731 -1236.77)" fill="#1383d9"/>
        <path id="Path_20" data-name="Path 20" d="M1231.726,1272.248a3.856,3.856,0,0,1,0-7.708,3.5,3.5,0,0,1,3.679,3.692,4.4,4.4,0,0,1-.054.728h-5.458a1.747,1.747,0,0,0,1.792,1.725,1.538,1.538,0,0,0,1.5-.9h2.035A3.47,3.47,0,0,1,1231.726,1272.248Zm-1.82-4.555h3.544a1.659,1.659,0,0,0-1.779-1.6A1.734,1.734,0,0,0,1229.906,1267.694Z" transform="translate(-1184.1 -1262.155)" fill="#1383d9"/>
        <path id="Path_21" data-name="Path 21" d="M1345.189,1272.272H1343.3v-7.466h1.887v1.159a2.589,2.589,0,0,1,2.291-1.267v1.981h-.5c-1.119,0-1.792.431-1.792,1.873Z" transform="translate(-1289.518 -1262.299)" fill="#1383d9"/>
      </g>
    </g>
  </g>
</svg>
