<svg xmlns="http://www.w3.org/2000/svg" width="12.011" height="16.141" viewBox="0 0 12.011 16.141">
  <g id="file-download" transform="translate(-2.045)">
    <g id="Group_2" data-name="Group 2" transform="translate(2.045)">
      <path id="Path_3" data-name="Path 3" d="M139.355,4.7a.529.529,0,0,1-.522-.53V0h-7.312A.528.528,0,0,0,131,.528v15.08a.532.532,0,0,0,.522.533h10.966a.532.532,0,0,0,.522-.533V4.7Zm.355,6.256-2.06,2.3a.766.766,0,0,1-1.393.006L134.3,10.976c-.386-.594-.041-1.082.765-1.085l.773,0-.015-1.771a1.179,1.179,0,0,1,2.323-.01l.015,1.77.773,0C139.743,9.871,140.091,10.356,139.711,10.953Z" transform="translate(-131)" fill="#2196f3"/>
      <path id="Path_4" data-name="Path 4" d="M694.787,0H694V3.389h3.137V2.608Z" transform="translate(-685.126)" fill="#2196f3"/>
    </g>
  </g>
</svg>
