<svg xmlns="http://www.w3.org/2000/svg" width="16.679" height="20.528" viewBox="0 0 16.679 20.528">
  <g id="file-type-standard-drawing-word-document" transform="translate(-96)">
    <path id="Path_72" data-name="Path 72" d="M97.283,0h10.264l5.132,5.132V19.245a1.283,1.283,0,0,1-1.283,1.283H97.283A1.283,1.283,0,0,1,96,19.245V1.283A1.283,1.283,0,0,1,97.283,0Z" fill="#2a8ff4"/>
    <path id="Path_73" data-name="Path 73" d="M290.807,435.6l1.546-5.667h.028l1.536,5.667h.863l1.944-6.8h-.872l-1.489,5.7h-.038l-1.536-5.7h-.844l-1.546,5.7h-.038l-1.489-5.7H288l1.944,6.8Z" transform="translate(-188.151 -420.204)" fill="#fff"/>
    <path id="Path_74" data-name="Path 74" d="M672,0l5.132,5.132h-3.849A1.283,1.283,0,0,1,672,3.849Z" transform="translate(-564.453)" fill="#b5c8fc"/>
  </g>
</svg>
