<?xml version="1.0" encoding="utf-8"?>
<!-- Generator: Adobe Illustrator 16.0.0, SVG Export Plug-In . SVG Version: 6.00 Build 0)  -->
<!DOCTYPE svg PUBLIC "-//W3C//DTD SVG 1.1//EN" "http://www.w3.org/Graphics/SVG/1.1/DTD/svg11.dtd">
<svg version="1.1" id="Layer_1" xmlns="http://www.w3.org/2000/svg" xmlns:xlink="http://www.w3.org/1999/xlink" x="0px" y="0px"
	 width="12.019px" height="12.42px" viewBox="1.375 0.064 12.019 12.42" enable-background="new 1.375 0.064 12.019 12.42"
	 xml:space="preserve">
<g>
	<g>
		<path fill="none" d="M6.44,6.597l1.345-1.414C7.404,4.785,7.13,4.286,7.017,3.725h-3.31L6.44,6.597z"/>
	</g>
	<g>
		<path fill="#020000" d="M7.785,5.183L6.44,6.597L3.707,3.725h3.31c-0.039-0.191-0.06-0.389-0.06-0.592
			c0-0.14,0.022-0.273,0.041-0.408H1.375l4.603,4.836v4.199l0.979,0.724V7.505l1.644-1.728C8.296,5.624,8.02,5.427,7.785,5.183z"/>
	</g>
</g>
<g>
	<path fill="#020000" d="M10.246,5.561c-1.516,0-2.748-1.233-2.748-2.749c0-1.515,1.232-2.748,2.748-2.748s2.748,1.233,2.748,2.748
		C12.994,4.328,11.762,5.561,10.246,5.561z M10.246,0.765c-1.13,0-2.049,0.918-2.049,2.048s0.919,2.048,2.049,2.048
		s2.049-0.919,2.049-2.048S11.376,0.765,10.246,0.765z"/>
</g>
<path fill="none" stroke="#020000" stroke-miterlimit="10" d="M18.978,8.354"/>
<g>
	<polygon fill="#020000" points="10.017,4.038 8.826,2.948 9.23,2.506 9.979,3.19 11.241,1.809 11.685,2.214 	"/>
</g>
</svg>
