<?xml version="1.0" encoding="utf-8"?>
<!-- Generator: Adobe Illustrator 16.0.0, SVG Export Plug-In . SVG Version: 6.00 Build 0)  -->
<!DOCTYPE svg PUBLIC "-//W3C//DTD SVG 1.1//EN" "http://www.w3.org/Graphics/SVG/1.1/DTD/svg11.dtd">
<svg version="1.1" id="Layer_1" xmlns="http://www.w3.org/2000/svg" xmlns:xlink="http://www.w3.org/1999/xlink" x="0px" y="0px"
	 width="13.121px" height="13.121px" viewBox="0 0 13.121 13.121" enable-background="new 0 0 13.121 13.121" xml:space="preserve">
<g>
	<polygon fill="none" stroke="#020000" stroke-miterlimit="10" points="10.339,3.225 6.44,7.322 2.541,3.225 	"/>
	<polygon fill="#020000" points="7.091,12.484 5.789,11.761 5.789,7.032 7.091,7.032 	"/>
</g>
<g>
	<g>
		<path fill="#FB1E1F" d="M6.562,13.121C2.943,13.121,0,10.178,0,6.561c0-1.753,0.683-3.4,1.921-4.639C3.16,0.683,4.809,0,6.562,0
			c3.617,0,6.56,2.943,6.56,6.561S10.179,13.121,6.562,13.121z M6.562,1C5.075,1,3.679,1.578,2.628,2.629
			C1.578,3.679,1,5.075,1,6.561c0,3.066,2.495,5.561,5.562,5.561c3.065,0,5.56-2.494,5.56-5.561S9.627,1,6.562,1z"/>
	</g>
	<g>
		
			<rect x="0.658" y="6.06" transform="matrix(0.7045 0.7097 -0.7097 0.7045 6.5943 -2.7178)" fill="#FB1E1F" width="11.807" height="1.001"/>
	</g>
</g>
</svg>
