<?xml version="1.0" encoding="utf-8"?>
<!-- Generator: Adobe Illustrator 16.0.0, SVG Export Plug-In . SVG Version: 6.00 Build 0)  -->
<!DOCTYPE svg PUBLIC "-//W3C//DTD SVG 1.1//EN" "http://www.w3.org/Graphics/SVG/1.1/DTD/svg11.dtd">
<svg version="1.1" id="Layer_1" xmlns="http://www.w3.org/2000/svg" xmlns:xlink="http://www.w3.org/1999/xlink" x="0px" y="0px"
	 width="20.95px" height="16.867px" viewBox="0 0 20.95 16.867" enable-background="new 0 0 20.95 16.867" xml:space="preserve">
<path fill-rule="evenodd" clip-rule="evenodd" fill="#666666" d="M0,14.821C0,10.566,0,6.31,0,2.055
	c0.045-0.008,0.041-0.046,0.047-0.078C0.271,0.876,1.264-0.008,2.643,0c4.267,0.024,8.534,0.008,12.801,0.008
	c1.016,0,2.032-0.014,3.047,0.004c1.024,0.019,1.767,0.508,2.232,1.422c0.107,0.211,0.128,0.449,0.227,0.66
	c0,4.242,0,8.484,0,12.726c-0.089,0.108-0.083,0.25-0.126,0.374c-0.355,1.027-1.279,1.672-2.414,1.672c-5.181,0-10.361,0-15.542,0
	c-0.164,0-0.328,0.002-0.491-0.003c-0.99-0.028-1.87-0.666-2.221-1.594C0.1,15.122,0.096,14.955,0,14.821z M10.497,10.238
	c0.77,0,1.541-0.003,2.312,0.004c0.135,0.001,0.167-0.036,0.166-0.168c-0.005-1.091-0.005-2.182,0-3.273
	c0.001-0.135-0.036-0.167-0.167-0.167c-1.542,0.005-3.083,0.005-4.624,0C8.048,6.633,8.016,6.67,8.017,6.802
	c0.006,1.091,0.006,2.182,0,3.273c0,0.135,0.037,0.167,0.168,0.167C8.956,10.235,9.726,10.238,10.497,10.238z M4.01,10.238
	c0.737,0,1.473-0.003,2.209,0.004c0.133,0.001,0.167-0.034,0.167-0.167c-0.006-1.091-0.006-2.182,0-3.273
	c0-0.133-0.034-0.168-0.167-0.167c-1.473,0.005-2.945,0.005-4.419,0C1.667,6.633,1.633,6.668,1.633,6.801
	c0.006,1.091,0.006,2.182,0,3.273c0,0.134,0.034,0.168,0.167,0.167C2.537,10.234,3.274,10.238,4.01,10.238z M16.961,10.238
	c0.729,0,1.458-0.003,2.188,0.004c0.133,0.001,0.167-0.035,0.167-0.167c-0.006-1.091-0.006-2.182,0-3.273
	c0-0.133-0.034-0.168-0.167-0.167c-1.459,0.005-2.918,0.005-4.377,0c-0.134-0.001-0.168,0.034-0.167,0.167
	c0.005,1.091,0.005,2.182,0,3.273c-0.001,0.134,0.033,0.168,0.167,0.167C15.501,10.234,16.231,10.238,16.961,10.238z M10.476,5.001
	c0.777,0,1.555-0.003,2.332,0.003c0.136,0,0.167-0.038,0.166-0.169c-0.005-1.009-0.006-2.018,0-3.027
	c0.001-0.136-0.038-0.167-0.168-0.166c-1.541,0.004-3.082,0.005-4.623-0.001c-0.136,0-0.167,0.037-0.167,0.168
	c0.006,1.009,0.006,2.019,0,3.028c0,0.136,0.038,0.167,0.168,0.166C8.949,4.998,9.712,5.001,10.476,5.001z M10.516,11.875
	c-0.777,0-1.555,0.003-2.333-0.003c-0.133-0.001-0.167,0.033-0.167,0.167c0.006,1.009,0.006,2.019,0,3.027
	c0,0.134,0.034,0.168,0.167,0.167c1.542-0.005,3.083-0.005,4.624,0c0.133,0,0.168-0.034,0.167-0.167
	c-0.005-1.009-0.005-2.018,0-3.027c0.001-0.133-0.033-0.168-0.167-0.167C12.043,11.878,11.28,11.875,10.516,11.875z M4.008,5.001
	c0.736,0,1.473-0.003,2.208,0.002c0.128,0.001,0.171-0.024,0.17-0.164c-0.006-1.008-0.005-2.017,0-3.026
	c0-0.126-0.022-0.172-0.163-0.171C4.99,1.648,3.755,1.644,2.521,1.646C1.977,1.647,1.64,1.983,1.638,2.524
	C1.634,3.294,1.64,4.065,1.633,4.835c0,0.13,0.029,0.17,0.166,0.169C2.535,4.997,3.271,5.001,4.008,5.001z M4.013,11.875
	c-0.736,0-1.473,0.002-2.209-0.003c-0.127-0.001-0.172,0.024-0.17,0.164c0.007,0.77,0.001,1.541,0.004,2.311
	c0.001,0.544,0.337,0.882,0.879,0.883c1.234,0.003,2.468,0,3.702,0.004c0.131,0,0.169-0.031,0.168-0.166
	c-0.006-1.009-0.006-2.018,0-3.027c0-0.13-0.028-0.17-0.165-0.169C5.485,11.879,4.749,11.875,4.013,11.875z M16.94,5.001
	c0.737,0,1.473-0.003,2.209,0.002c0.134,0.001,0.168-0.034,0.167-0.167c-0.006-0.777,0-1.554-0.004-2.332
	c-0.002-0.516-0.344-0.857-0.862-0.858c-1.227-0.004-2.454,0.001-3.681-0.005c-0.138,0-0.165,0.042-0.164,0.17
	C14.61,2.82,14.61,3.83,14.604,4.838c0,0.137,0.039,0.167,0.169,0.166C15.496,4.998,16.219,5.001,16.94,5.001z M16.98,11.875
	c-0.736,0-1.473,0.003-2.209-0.003c-0.134-0.001-0.167,0.035-0.166,0.167c0.005,1.009,0.005,2.018,0,3.027
	c-0.001,0.133,0.033,0.168,0.166,0.167c1.228-0.006,2.454-0.001,3.682-0.004c0.516-0.001,0.857-0.344,0.859-0.861
	c0.004-0.776-0.002-1.554,0.005-2.331c0.001-0.137-0.04-0.167-0.17-0.165C18.425,11.877,17.703,11.875,16.98,11.875z"/>
</svg>
