<svg width="24" height="24" viewBox="0 0 24 24" fill="none" xmlns="http://www.w3.org/2000/svg">
<rect x="4" y="4" width="17" height="15" rx="2" stroke="#292D32" stroke-width="2"/>
<path d="M9.06818 16.2259V9.6804H10.8835V16.2259H9.06818ZM9.98011 8.83665C9.71023 8.83665 9.47869 8.74716 9.28551 8.56818C9.09517 8.38636 9 8.16903 9 7.91619C9 7.66619 9.09517 7.4517 9.28551 7.27273C9.47869 7.09091 9.71023 7 9.98011 7C10.25 7 10.4801 7.09091 10.6705 7.27273C10.8636 7.4517 10.9602 7.66619 10.9602 7.91619C10.9602 8.16903 10.8636 8.38636 10.6705 8.56818C10.4801 8.74716 10.25 8.83665 9.98011 8.83665Z" fill="#292D32"/>
<path d="M12.3377 16.2259V9.6804H14.0977V10.8224H14.1658C14.2852 10.4162 14.4854 10.1094 14.7667 9.90199C15.0479 9.69176 15.3718 9.58665 15.7383 9.58665C15.8292 9.58665 15.9272 9.59233 16.0323 9.60369C16.1374 9.61506 16.2298 9.63068 16.3093 9.65057V11.2614C16.2241 11.2358 16.1062 11.2131 15.9556 11.1932C15.805 11.1733 15.6673 11.1634 15.5423 11.1634C15.2752 11.1634 15.0366 11.2216 14.8263 11.3381C14.619 11.4517 14.4542 11.6108 14.332 11.8153C14.2127 12.0199 14.1531 12.2557 14.1531 12.5227V16.2259H12.3377Z" fill="#292D32"/>
</svg>
