<svg xmlns="http://www.w3.org/2000/svg" width="16.516" height="16.516" viewBox="0 0 16.516 16.516">
  <g id="Group_46" data-name="Group 46" transform="translate(-1179.242 -339.242)">
    <g id="drag-drop-2_1" transform="translate(1179.242 339.242)">
      <path id="Path_30" data-name="Path 30" d="M4.587,12.854h0a.916.916,0,1,0,0-1.832h0a.916.916,0,0,0,0,1.832ZM0,11.935H0a.916.916,0,1,0,1.832,0h0a.916.916,0,0,0-1.832,0ZM0,8.264H0a.916.916,0,1,0,1.832,0h0A.916.916,0,0,0,0,8.264ZM0,4.593H0a.916.916,0,1,0,1.832,0h0A.916.916,0,0,0,0,4.593ZM0,.923H0a.916.916,0,0,0,1.832,0h0A.916.916,0,1,0,0,.923ZM4.584,0h0a.916.916,0,1,0,0,1.832h0A.916.916,0,0,0,4.584,0ZM8.255,0h0a.916.916,0,1,0,0,1.832h0A.915.915,0,0,0,9.167.916.907.907,0,0,0,8.255,0Zm3.671,0h0a.916.916,0,1,0,0,1.832h0a.915.915,0,0,0,.916-.916A.907.907,0,0,0,11.925,0Zm.919,4.587h0a.916.916,0,1,0-1.832,0h0a.916.916,0,0,0,1.832,0Z" fill="#a0b8cb"/>
      <path id="Path_31" data-name="Path 31" d="M116.552,114.716v.916h7.342a.918.918,0,0,1,.916.916v7.342a.918.918,0,0,1-.916.916h-7.342a.918.918,0,0,1-.916-.916v-7.342a.918.918,0,0,1,.916-.916V113.8a2.752,2.752,0,0,0-2.752,2.752v7.342a2.752,2.752,0,0,0,2.752,2.751h7.342a2.752,2.752,0,0,0,2.752-2.751v-7.342a2.752,2.752,0,0,0-2.752-2.752h-7.342Z" transform="translate(-110.129 -110.129)" fill="#2196f3"/>
    </g>
    <rect id="Rectangle_56" data-name="Rectangle 56" width="11" height="10" rx="1" transform="translate(1184 344)" fill="#2196f3"/>
  </g>
</svg>
