<svg width="24" height="24" viewBox="0 0 24 24" fill="none" xmlns="http://www.w3.org/2000/svg">
<rect x="4" y="4" width="17" height="15" rx="2" stroke="#292D32" stroke-width="2"/>
<path d="M9.80098 7V16H8V7H9.80098Z" fill="#292D32"/>
<path d="M11.2827 16V7H14.6434C15.2867 7 15.8358 7.12158 16.2905 7.36475C16.7481 7.60498 17.096 7.94629 17.3345 8.38867C17.5758 8.82812 17.6964 9.34521 17.6964 9.93994C17.6964 10.5376 17.5744 11.0518 17.3304 11.4824C17.0863 11.9102 16.7328 12.2383 16.2697 12.4668C15.8094 12.6953 15.2521 12.8096 14.5977 12.8096H12.3475V11.2803H14.3065C14.6504 11.2803 14.936 11.2305 15.1634 11.1309C15.3907 11.0313 15.5599 10.8818 15.6708 10.6826C15.7845 10.4834 15.8413 10.2358 15.8413 9.93994C15.8413 9.64111 15.7845 9.38916 15.6708 9.18408C15.5599 8.979 15.3893 8.82373 15.1592 8.71826C14.9318 8.60986 14.6448 8.55566 14.2982 8.55566H13.0837V16H11.2827ZM15.8829 11.9043L18 16H16.0119L13.9405 11.9043H15.8829Z" fill="#292D32"/>
</svg>
