<svg xmlns="http://www.w3.org/2000/svg" width="15.148" height="15.148" viewBox="0 0 15.148 15.148">
  <path id="history" d="M143.148,135.574a7.369,7.369,0,0,1-.6,2.939,7.483,7.483,0,0,1-4.033,4.033,7.369,7.369,0,0,1-2.939.6,7.521,7.521,0,0,1-3.225-.715,7.4,7.4,0,0,1-2.6-2.017.352.352,0,0,1-.064-.222.291.291,0,0,1,.084-.2l1.351-1.361a.355.355,0,0,1,.247-.089.307.307,0,0,1,.227.118,5.017,5.017,0,0,0,5.942,1.563,5,5,0,0,0,2.692-2.692,5,5,0,0,0,0-3.915,5,5,0,0,0-2.692-2.692,4.918,4.918,0,0,0-1.958-.4,5.008,5.008,0,0,0-1.854.35,4.9,4.9,0,0,0-1.578,1l1.351,1.361a.561.561,0,0,1,.138.68.59.59,0,0,1-.582.394h-4.418a.64.64,0,0,1-.631-.631v-4.418a.59.59,0,0,1,.394-.582.561.561,0,0,1,.68.138l1.282,1.272a7.655,7.655,0,0,1,2.411-1.543,7.472,7.472,0,0,1,5.744.054,7.483,7.483,0,0,1,4.033,4.033A7.369,7.369,0,0,1,143.148,135.574Zm-6.311-2.84v4.418a.3.3,0,0,1-.316.316h-3.156a.3.3,0,0,1-.316-.316v-.631a.3.3,0,0,1,.316-.316h2.209v-3.471a.3.3,0,0,1,.316-.316h.631a.3.3,0,0,1,.316.316Z" transform="translate(-128 -128)" fill="#93a7b9"/>
</svg>
