<svg xmlns="http://www.w3.org/2000/svg" width="41.127" height="41.126" viewBox="0 0 41.127 41.126">
  <g id="Group_986" data-name="Group 986" transform="translate(19017 -1468)">
    <g id="Group_982" data-name="Group 982">
      <path id="Vector" d="M0,0H41.126V41.126H0Z" transform="translate(-19017 1468)" fill="none"/>
      <g id="Group_987" data-name="Group 987" transform="translate(251.999 -163)">
        <path id="Path_812" data-name="Path 812" d="M6.519,20.328a.753.753,0,0,0-.063-.1c-.1-.172-.21-.342-.317-.538-.1-.212-.21-.41-.305-.594s-.184-.41-.263-.62c-.065-.184-.144-.394-.224-.645a.843.843,0,0,0-.8-.578H2.265a.492.492,0,0,1-.212-.04.5.5,0,0,1-.156-.116.6.6,0,0,1-.116-.156.475.475,0,0,1-.04-.21V13.851a.674.674,0,0,1,.028-.2.712.712,0,0,1,.133-.184.362.362,0,0,1,.156-.1.482.482,0,0,1,.21-.04H4.361a.864.864,0,0,0,.843-.7c.051-.224.1-.433.156-.62.065-.212.133-.41.212-.62a5.477,5.477,0,0,1,.263-.606c.093-.212.2-.394.289-.578a.837.837,0,0,0-.144-1L4.347,7.556c-.012-.012-.012-.012-.028-.012A.566.566,0,0,1,4.2,7.388.366.366,0,0,1,4.175,7.2a.423.423,0,0,1,.04-.2.56.56,0,0,1,.133-.184l2.015-2a.547.547,0,0,1,.184-.133.417.417,0,0,1,.2-.04.423.423,0,0,1,.2.04.8.8,0,0,1,.172.116h.012L8.616,6.29A.845.845,0,0,0,9.7,6.384c.172-.1.342-.21.538-.317s.41-.21.594-.305.41-.184.62-.263c.184-.065.394-.144.645-.224a.843.843,0,0,0,.578-.8V2.188a.492.492,0,0,1,.04-.212,1.22,1.22,0,0,1,.1-.156.376.376,0,0,1,.156-.1.479.479,0,0,1,.212-.04H15.44a.492.492,0,0,1,.212.04.362.362,0,0,1,.156.1,1.017,1.017,0,0,1,.1.156.479.479,0,0,1,.04.212V4.469a.846.846,0,0,0,.578.8c.249.079.461.156.645.224.212.079.422.172.62.263s.382.2.594.305.368.21.538.317a.84.84,0,0,0,1.081-.093L21.5,4.8h.012a.564.564,0,0,1,.172-.116.411.411,0,0,1,.2-.04.423.423,0,0,1,.2.04.538.538,0,0,1,.184.133l2.015,2A.547.547,0,0,1,24.409,7a.411.411,0,0,1,.04.2.366.366,0,0,1-.028.184.633.633,0,0,1-.116.156c-.012,0-.012,0-.028.012L22.643,9.2a.834.834,0,0,0-.144,1c.093.184.2.368.289.578a6.444,6.444,0,0,1,.263.606c.079.21.144.41.212.62.051.184.1.394.156.62a.864.864,0,0,0,.843.7h2.092a.492.492,0,0,1,.212.04.342.342,0,0,1,.156.1.754.754,0,0,1,.133.184.839.839,0,0,1,.028.2v2.873a.492.492,0,0,1-.04.212.7.7,0,0,1-.116.156.436.436,0,0,1-.156.116.482.482,0,0,1-.21.04H24.081a.846.846,0,0,0-.8.578c-.079.249-.156.461-.224.645-.079.212-.172.422-.263.62-.2.389-.389.762-.62,1.132a.753.753,0,0,0-.063.1H24.1c.084-.168.168-.349.256-.536.1-.238.21-.473.305-.711.012-.04.04-.093.054-.133H26.4a2.3,2.3,0,0,0,.855-.156,2.228,2.228,0,0,0,.727-.487,2.039,2.039,0,0,0,.487-.727,2.367,2.367,0,0,0,.156-.855v-2.87a2.273,2.273,0,0,0-.172-.843,2.1,2.1,0,0,0-.473-.711l-.012-.012a2.2,2.2,0,0,0-.711-.489,2.109,2.109,0,0,0-.855-.172H24.969a.252.252,0,0,0-.028-.1c-.079-.249-.156-.5-.249-.739s-.2-.489-.3-.711a.884.884,0,0,1-.051-.1l1.188-1.2a1.966,1.966,0,0,0,.5-.7,2.323,2.323,0,0,0,.172-.855,2.064,2.064,0,0,0-.172-.855,2.328,2.328,0,0,0-.487-.711h-.012l-2.015-2a2.277,2.277,0,0,0-.727-.487,2.157,2.157,0,0,0-.855-.172,2.117,2.117,0,0,0-.855.172,2.091,2.091,0,0,0-.727.487L19.319,4.655l-.079-.04c-.212-.116-.45-.224-.7-.342s-.473-.21-.711-.305c-.04-.012-.093-.04-.133-.054V2.225a2.287,2.287,0,0,0-.156-.855,2.2,2.2,0,0,0-.487-.727,2.291,2.291,0,0,0-.727-.487A2.352,2.352,0,0,0,15.47,0H13.159A2.348,2.348,0,0,0,12.3.156a2.413,2.413,0,0,0-.727.487,2.169,2.169,0,0,0-.487.727,2.3,2.3,0,0,0-.156.855V3.912c-.04.012-.093.04-.133.054-.238.093-.473.2-.711.305s-.487.224-.7.342l-.079.04L8.285,3.637a2.069,2.069,0,0,0-.727-.487A2.2,2.2,0,0,0,6.7,2.977a2.064,2.064,0,0,0-.855.172,2.265,2.265,0,0,0-.727.487l-2.015,2H3.094a2.4,2.4,0,0,0-.487.711,2.138,2.138,0,0,0-.172.853,2.249,2.249,0,0,0,.172.855,1.993,1.993,0,0,0,.5.7l1.186,1.2a.736.736,0,0,1-.051.1c-.1.224-.2.461-.305.711s-.172.487-.249.739a.351.351,0,0,0-.028.1H2.227a2.048,2.048,0,0,0-.855.172,2.14,2.14,0,0,0-.711.487l-.012.012A2.087,2.087,0,0,0,.177,13a2.232,2.232,0,0,0-.177.85v2.87a2.348,2.348,0,0,0,.156.855,2.091,2.091,0,0,0,.487.727,2.146,2.146,0,0,0,.727.487,2.313,2.313,0,0,0,.855.156H3.912c.012.04.04.093.054.133.093.238.2.473.305.711.091.189.172.37.256.536H6.519v0Z" transform="translate(-19263 1640)" fill="#a8d6fb" fill-rule="evenodd"/>
        <g id="picture-svgrepo-com" transform="translate(-19255.512 1649.829)">
          <g id="Group_987-2" data-name="Group 987" transform="translate(0 0)">
            <path id="Path_811" data-name="Path 811" d="M12.5,0H.962A.963.963,0,0,0,0,.962V12.917a.545.545,0,0,0,.544.544H12.5a.963.963,0,0,0,.962-.962V.962A.963.963,0,0,0,12.5,0ZM4.068,1.639A2.078,2.078,0,1,1,1.99,3.717,2.08,2.08,0,0,1,4.068,1.639Zm7.791,9.868a.439.439,0,0,1-.385.228H1.987a.439.439,0,0,1-.37-.675l2.256-3.54a.439.439,0,0,1,.74,0L5.7,9.22,7.814,5.9a.439.439,0,0,1,.74,0l3.289,5.162A.439.439,0,0,1,11.859,11.507Z" transform="translate(0 0)" fill="#1383d9"/>
          </g>
        </g>
      </g>
    </g>
  </g>
</svg>
