<svg xmlns="http://www.w3.org/2000/svg" width="30.086" height="29.908" viewBox="0 0 30.086 29.908"><defs><style>.a{fill:#1383d9;}</style></defs><path class="a" d="M2.124,0H27.962a2.133,2.133,0,0,1,2.124,2.124V27.783a2.133,2.133,0,0,1-2.124,2.124H2.124A2.134,2.134,0,0,1,0,27.783V2.124A2.133,2.133,0,0,1,2.124,0Zm.1,21.625,8.67-8.3a.849.849,0,0,1,1.2.062c.009.009.009.018.018.018l7.7,9.112L21,15.27a.856.856,0,0,1,.982-.7.883.883,0,0,1,.464.232l5.4,5.676V2.638a.371.371,0,0,0-.125-.285.421.421,0,0,0-.285-.125H2.629a.37.37,0,0,0-.285.125.421.421,0,0,0-.125.285V21.625h.009ZM22.164,4.864a3.078,3.078,0,1,1-2.178.9,3.084,3.084,0,0,1,2.178-.9Z" transform="translate(0 0)"/></svg>