<svg xmlns="http://www.w3.org/2000/svg" width="24.2" height="24.2" viewBox="0 0 24.2 24.2">
  <g id="vuesax_linear_camera" data-name="vuesax/linear/camera" transform="translate(-364 -320)">
    <g id="camera" transform="translate(364 320)">
      <path id="Vector" d="M0,0H24.2V24.2H0Z" fill="none" opacity="0"/>
      <g id="Rectangle_7" data-name="Rectangle 7" transform="translate(1.662 1.744)" fill="none" stroke="#000" stroke-width="2">
        <rect width="21.608" height="21.608" rx="4" stroke="none"/>
        <rect x="1" y="1" width="19.608" height="19.608" rx="3" fill="none"/>
      </g>
      <path id="Path_1" data-name="Path 1" d="M2.414-5.584V3.7H.552V-5.584ZM9.035,3.7,6.988.081H6.11V3.7H4.249V-5.584H7.732a4.068,4.068,0,0,1,1.835.379A2.647,2.647,0,0,1,10.7-4.181a2.794,2.794,0,0,1,.379,1.443,2.763,2.763,0,0,1-.532,1.655A2.732,2.732,0,0,1,8.969-.066L11.19,3.7ZM6.11-1.316H7.666A1.554,1.554,0,0,0,8.8-1.681,1.361,1.361,0,0,0,9.168-2.7,1.3,1.3,0,0,0,8.8-3.689a1.592,1.592,0,0,0-1.13-.352H6.11Z" transform="translate(6.595 13.043)"/>
    </g>
  </g>
</svg>
