<svg width="16" height="16" viewBox="0 0 16 16" fill="none" xmlns="http://www.w3.org/2000/svg">
<g clip-path="url(#clip0_3_10)">
<path d="M1.60735 7.73067C1.58197 7.75604 1.56186 7.78619 1.54819 7.81937C1.53452 7.85255 1.52754 7.88811 1.52768 7.924C1.52781 7.95989 1.53504 7.9954 1.54896 8.02848C1.56287 8.06156 1.5832 8.09156 1.60876 8.11675C1.66084 8.16771 1.73085 8.1962 1.80371 8.19607C1.87658 8.19593 1.94648 8.1672 1.99838 8.11604L7.92322 2.19119L13.8488 8.11675C13.9006 8.16821 13.9706 8.19721 14.0437 8.19747C14.1167 8.19774 14.1869 8.16925 14.2391 8.11816C14.2896 8.0669 14.3178 7.99771 14.3174 7.92574C14.317 7.85378 14.2881 7.7849 14.237 7.7342L8.11697 1.61419C8.06545 1.56266 7.99576 1.53341 7.92289 1.53275C7.85002 1.53209 7.7798 1.56006 7.72736 1.61066L1.60735 7.73067Z" fill="#1684D9" stroke="#1684D9" stroke-width="2"/>
</g>
<defs>
<clipPath id="clip0_3_10">
<rect width="15.847" height="15.847" fill="white" transform="translate(15.847 15.847) rotate(180)"/>
</clipPath>
</defs>
</svg>
