<?xml version="1.0" encoding="utf-8"?>
<!-- Generator: Adobe Illustrator 16.0.0, SVG Export Plug-In . SVG Version: 6.00 Build 0)  -->
<!DOCTYPE svg PUBLIC "-//W3C//DTD SVG 1.1//EN" "http://www.w3.org/Graphics/SVG/1.1/DTD/svg11.dtd">
<svg version="1.1" id="Layer_1" xmlns="http://www.w3.org/2000/svg" xmlns:xlink="http://www.w3.org/1999/xlink" x="0px" y="0px"
	 width="29.382px" height="23.759px" viewBox="0 0 29.382 23.759" enable-background="new 0 0 29.382 23.759" xml:space="preserve">
<g>
	<path fill="#FFFFFF" d="M17.509,7.534c0,0.008,0.002,0.015,0.002,0.021c0.003-2.528,1.963-4.6,4.37-4.615s4.392,2.029,4.425,4.558
		c0-0.007,0.002-0.014,0.002-0.021l0.018,2.944l2.801-0.019l-0.018-2.944h-0.003C29.052,3.308,25.821-0.026,21.863,0
		c-3.958,0.025-7.147,3.402-7.152,7.553h-0.003l0.018,2.944l2.801-0.019L17.509,7.534z"/>
	<g>
		<g>
			<path fill="none" d="M11.597,14.63c0-0.926-0.715-1.677-1.597-1.677s-1.597,0.751-1.597,1.677c0,0.728,0.443,1.34,1.059,1.572
				l-0.967,2.96h3.01l-0.967-2.96C11.153,15.97,11.597,15.357,11.597,14.63z"/>
			<g>
				<path fill="none" d="M11.597,14.63c0-0.926-0.715-1.677-1.597-1.677s-1.597,0.751-1.597,1.677c0,0.728,0.443,1.34,1.059,1.572
					l-0.967,2.96h3.01l-0.967-2.96C11.153,15.97,11.597,15.357,11.597,14.63z"/>
				<path fill="#FFFFFF" d="M19.2,10.313h-0.787v0.024H0.618C0.265,10.424,0,10.757,0,11.152v11.766c0,0.462,0.36,0.841,0.8,0.841
					h18.4c0.44,0,0.8-0.379,0.8-0.841V11.152C20,10.69,19.641,10.313,19.2,10.313z M11.505,19.162h-3.01l0.967-2.96
					c-0.615-0.232-1.059-0.845-1.059-1.572c0-0.926,0.715-1.677,1.597-1.677s1.597,0.751,1.597,1.677
					c0,0.728-0.443,1.34-1.059,1.572L11.505,19.162z"/>
			</g>
		</g>
	</g>
</g>
</svg>
