<?xml version="1.0" encoding="utf-8"?>
<!-- Generator: Adobe Illustrator 16.0.0, SVG Export Plug-In . SVG Version: 6.00 Build 0)  -->
<!DOCTYPE svg PUBLIC "-//W3C//DTD SVG 1.1//EN" "http://www.w3.org/Graphics/SVG/1.1/DTD/svg11.dtd">
<svg version="1.1" id="Layer_1" xmlns="http://www.w3.org/2000/svg" xmlns:xlink="http://www.w3.org/1999/xlink" x="0px" y="0px"
	 width="20px" height="23.759px" viewBox="0 0 20 23.759" enable-background="new 0 0 20 23.759" xml:space="preserve">
<g>
	<path fill="#FFFFFF" d="M5.883,7.534c0,0.008,0.002,0.015,0.002,0.021c0.003-2.528,1.962-4.6,4.37-4.615
		c2.407-0.016,4.392,2.029,4.424,4.558c0-0.007,0.002-0.014,0.002-0.021l0.018,2.944l2.8-0.019l-0.018-2.944H17.48
		C17.426,3.308,14.196-0.026,10.238,0C6.28,0.025,3.09,3.402,3.086,7.553H3.083l0.018,2.944l2.8-0.019L5.883,7.534z"/>
	<g>
		<g>
			<path fill="none" d="M11.597,14.63c0-0.926-0.715-1.677-1.597-1.677c-0.882,0-1.596,0.751-1.596,1.677
				c0,0.728,0.443,1.34,1.059,1.572l-0.967,2.96h3.01l-0.967-2.96C11.154,15.97,11.597,15.357,11.597,14.63z"/>
			<g>
				<path fill="none" d="M11.597,14.63c0-0.926-0.715-1.677-1.597-1.677c-0.882,0-1.596,0.751-1.596,1.677
					c0,0.728,0.443,1.34,1.059,1.572l-0.967,2.96h3.01l-0.967-2.96C11.154,15.97,11.597,15.357,11.597,14.63z"/>
				<path fill="#FFFFFF" d="M19.2,10.313h-0.787v0.024H0.618C0.265,10.424,0,10.757,0,11.152v11.766c0,0.462,0.36,0.841,0.8,0.841
					H19.2c0.441,0,0.8-0.379,0.8-0.841V11.152C20,10.69,19.641,10.313,19.2,10.313z M11.505,19.162h-3.01l0.967-2.96
					c-0.616-0.232-1.059-0.845-1.059-1.572c0-0.926,0.714-1.677,1.596-1.677c0.882,0,1.597,0.751,1.597,1.677
					c0,0.728-0.443,1.34-1.059,1.572L11.505,19.162z"/>
			</g>
		</g>
	</g>
</g>
</svg>
