<svg xmlns="http://www.w3.org/2000/svg" width="23.562" height="17.522" viewBox="0 0 23.562 17.522">
  <g id="XMLID_2_" transform="translate(0 -42.299)">
    <path id="XMLID_4_" d="M3.657,110.355H16.065a1.071,1.071,0,0,0,0-2.142H3.657l1.385-1.385a1.071,1.071,0,0,0-1.515-1.515L.314,108.527c-.025.025-.048.051-.071.078l-.015.021c-.016.021-.032.042-.047.064l-.012.02c-.015.023-.029.046-.042.07l-.007.015c-.013.026-.026.053-.038.08l0,.01c-.012.029-.022.058-.032.088,0,0,0,.008,0,.012-.009.029-.017.059-.023.09,0,.009,0,.018,0,.028,0,.025-.009.051-.011.076a1.056,1.056,0,0,0,0,.214c0,.026.007.052.011.077,0,.009,0,.018,0,.027.006.031.014.061.023.091l0,.011c.009.03.02.06.032.089l0,.01c.011.028.024.054.038.081l.007.014c.013.024.028.048.043.071l.012.019c.015.022.031.043.047.064l.015.02c.022.027.046.053.071.078l3.213,3.213a1.071,1.071,0,1,0,1.515-1.515Z" transform="translate(0 -58.225)" fill="#0087ff"/>
    <path id="XMLID_5_" d="M110.3,42.3a8.754,8.754,0,0,0-7.276,3.879,1.071,1.071,0,0,0,1.778,1.195,6.619,6.619,0,1,1,.009,7.387,1.071,1.071,0,0,0-1.775,1.2A8.761,8.761,0,1,0,110.3,42.3Z" transform="translate(-95.502)" fill="#0087ff"/>
  </g>
</svg>
