<svg xmlns="http://www.w3.org/2000/svg" width="41.127" height="41.126" viewBox="0 0 41.127 41.126">
  <g id="Group_985" data-name="Group 985" transform="translate(19017 -1468)">
    <g id="Group_982" data-name="Group 982">
      <path id="Vector" d="M0,0H41.126V41.126H0Z" transform="translate(-19017 1468)" fill="none"/>
      <g id="Group_970" data-name="Group 970" transform="translate(-2.97 368.032)">
        <path id="menu-2-3" d="M156.775,146.14h-8.342a2.291,2.291,0,0,0-2.293,2.293v8.342a2.291,2.291,0,0,0,2.293,2.293h8.342a2.291,2.291,0,0,0,2.293-2.293v-8.341a2.292,2.292,0,0,0-2.292-2.293Zm0,15.6h-8.342a2.291,2.291,0,0,0-2.293,2.293v8.342a2.291,2.291,0,0,0,2.293,2.293h8.342a2.291,2.291,0,0,0,2.293-2.293v-8.342a2.291,2.291,0,0,0-2.292-2.293Z" transform="translate(-19154.172 959.829)" fill="#a8d6fb"/>
        <path id="menu-2-3-2" data-name="menu-2-3" d="M172.378,161.743h-8.342a2.291,2.291,0,0,0-2.293,2.293v8.342a2.291,2.291,0,0,0,2.292,2.293h8.342a2.291,2.291,0,0,0,2.293-2.293v-8.342a2.291,2.291,0,0,0-2.293-2.293Z" transform="translate(-19154.072 959.829)" fill="#a8d6fb"/>
        <path id="menu-2-3-3" data-name="menu-2-3" d="M171.009,146.811a2.29,2.29,0,0,0-1.622-.671h-8.342a2.291,2.291,0,0,0-2.293,2.293v8.342a2.291,2.291,0,0,0,2.293,2.293h8.341a2.292,2.292,0,0,0,2.293-2.293v-8.342A2.289,2.289,0,0,0,171.009,146.811Z" transform="translate(-19151.084 959.828)" fill="#1383d9"/>
      </g>
    </g>
  </g>
</svg>
