<svg xmlns="http://www.w3.org/2000/svg" width="14.731" height="14.731" viewBox="0 0 14.731 14.731">
  <g id="noun_Multiple_Select_1939731" data-name="noun_Multiple Select_1939731" transform="translate(-1 -1)">
    <g id="Group_2234" data-name="Group 2234" transform="translate(1 1)">
      <path id="Path_2612" data-name="Path 2612" d="M11,15.522H1.526A.526.526,0,0,1,1,15V5.526A.526.526,0,0,1,1.526,5H11a.526.526,0,0,1,.526.526V15A.526.526,0,0,1,11,15.522ZM2.052,14.47H10.47V6.052H2.052Z" transform="translate(-1 -0.791)"/>
      <path id="Path_2613" data-name="Path 2613" d="M13,13.522A.526.526,0,0,1,12.47,13V4.052H3.526A.526.526,0,1,1,3.526,3H13a.526.526,0,0,1,.526.526V13A.526.526,0,0,1,13,13.522Z" transform="translate(-0.896 -0.896)"/>
      <path id="Path_2614" data-name="Path 2614" d="M15,11.522A.526.526,0,0,1,14.47,11V2.052H5.526A.526.526,0,1,1,5.526,1H15a.526.526,0,0,1,.526.526V11A.526.526,0,0,1,15,11.522Z" transform="translate(-0.791 -1)"/>
    </g>
  </g>
</svg>
