<svg xmlns="http://www.w3.org/2000/svg" width="13.573" height="17.494" viewBox="0 0 13.573 17.494">
  <g id="pdf-svgrepo-com" transform="translate(-6.5)">
    <path id="Path_4" data-name="Path 4" d="M37.645,24.832a.477.477,0,0,0,.069-.125c-.037-.02-.086-.059-.354-.059a4.342,4.342,0,0,0-.546.033c.246.189.306.285.467.285A.453.453,0,0,0,37.645,24.832Z" transform="translate(-21.171 -17.213)" fill="#93a7b9"/>
    <path id="Path_5" data-name="Path 5" d="M20.233,30.234c.045-.014.307-.134.8-1.036-.645.362-.907.66-.926.828C20.1,30.053,20.091,30.126,20.233,30.234Z" transform="translate(-9.499 -20.391)" fill="#93a7b9"/>
    <path id="Path_6" data-name="Path 6" d="M20.073,11.763V4.216a.7.7,0,0,0-.166-.54L16.4.166A.57.57,0,0,0,16,0H7.243A.782.782,0,0,0,6.5.883V11.763ZM15.85,1.023a.155.155,0,0,1,.265-.109l3.045,3.045a.155.155,0,0,1-.109.265h-3.2ZM10.1,9.578c.055-.491.662-1,1.805-1.529a20.246,20.246,0,0,0,1.143-3.242,2.979,2.979,0,0,1-.38-2,.579.579,0,0,1,.342-.366,1.481,1.481,0,0,1,.306-.052c.152,0,.286.2.38.316s.291.354-.113,2.052a9.638,9.638,0,0,0,1.535,2.281,5.868,5.868,0,0,1,1.013-.108c.472,0,.759.11.875.337a.611.611,0,0,1-.118.651.8.8,0,0,1-.67.359,2.005,2.005,0,0,1-1.27-.689,14.445,14.445,0,0,0-2.663.851,8.558,8.558,0,0,1-.719,1.282c-.309.434-.575.636-.839.636h0a.484.484,0,0,1-.292-.1A.724.724,0,0,1,10.1,9.578Z" fill="#93a7b9"/>
    <path id="Path_7" data-name="Path 7" d="M19.241,45.376a.5.5,0,0,0-.179-.148.667.667,0,0,0-.305-.06h-.371v1.2h.454a.539.539,0,0,0,.179-.031.452.452,0,0,0,.163-.1.494.494,0,0,0,.119-.2.927.927,0,0,0,.045-.311.842.842,0,0,0-.021-.171A.5.5,0,0,0,19.241,45.376Z" transform="translate(-8.3 -31.545)" fill="#93a7b9"/>
    <path id="Path_8" data-name="Path 8" d="M27.476,18.174a21.57,21.57,0,0,1-.807,2.281,15.07,15.07,0,0,1,1.959-.609A10.324,10.324,0,0,1,27.476,18.174Z" transform="translate(-14.086 -12.692)" fill="#93a7b9"/>
    <path id="Path_9" data-name="Path 9" d="M6.5,41v4.524a.732.732,0,0,0,.743.6H19.33a.732.732,0,0,0,.743-.6V41Zm4.945,2.241a.875.875,0,0,1-.219.315.985.985,0,0,1-.338.2,1.3,1.3,0,0,1-.437.07h-.367v1.1H9.589V41.882h.874a1.227,1.227,0,0,1,.383.062,1.043,1.043,0,0,1,.34.185.969.969,0,0,1,.243.3.828.828,0,0,1,.093.394A1.072,1.072,0,0,1,11.445,43.241Zm3.033.718a1.594,1.594,0,0,1-.2.445,1.049,1.049,0,0,1-.278.283,1.4,1.4,0,0,1-.3.155,1.235,1.235,0,0,1-.264.066,1.758,1.758,0,0,1-.177.014h-1.15V41.882h.915a1.739,1.739,0,0,1,.674.122,1.4,1.4,0,0,1,.483.324,1.328,1.328,0,0,1,.287.46,1.526,1.526,0,0,1,.095.53A2.224,2.224,0,0,1,14.478,43.958Zm2.7-1.7h-1.4v.957h1.27v.338h-1.27v1.369h-.5V41.882h1.9Z" transform="translate(0 -28.634)" fill="#93a7b9"/>
    <path id="Path_10" data-name="Path 10" d="M27.944,45.5a.925.925,0,0,0-.353-.243,1.518,1.518,0,0,0-.577-.093h-.289v2.3h.491a.819.819,0,0,0,.726-.322,1.632,1.632,0,0,0,.223-.932,1.579,1.579,0,0,0-.045-.375A.8.8,0,0,0,27.944,45.5Z" transform="translate(-14.125 -31.544)" fill="#93a7b9"/>
    <path id="Path_11" data-name="Path 11" d="M28.326,9.712a.723.723,0,0,0,.029.97C28.641,10.044,28.339,9.708,28.326,9.712Z" transform="translate(-15.119 -6.783)" fill="#93a7b9"/>
  </g>
</svg>
