<svg xmlns="http://www.w3.org/2000/svg" width="49.784" height="49.784" viewBox="0 0 49.784 49.784">
  <g id="Group_518" data-name="Group 518" transform="translate(-783.108 -440.108)">
    <path id="Path_304" data-name="Path 304" d="M2488.718,1665.324s-2.936-1.081-3.09-8.806,0-18.692,0-18.692-.312-10.5,13.749-10.5h16.993l7.261,2.935Z" transform="translate(-1698 -1183)" fill="#c8dbec"/>
    <g id="vuesax_linear_gallery-slash" data-name="vuesax/linear/gallery-slash" transform="translate(291.108 188.108)">
      <g id="gallery-slash" transform="translate(492 252)">
        <path id="Vector" d="M2.842,37.545C.892,35.2,0,31.758,0,26.966V14.52C0,4.149,4.149,0,14.52,0H26.966c4.543,0,7.882.788,10.206,2.551" transform="translate(4.149 4.149)" fill="none" stroke="#0087ff" stroke-linecap="round" stroke-linejoin="round" stroke-width="2.5"/>
        <path id="Vector-2" data-name="Vector" d="M31.136,0c.041.664.062,1.369.062,2.1V14.541c0,10.372-4.149,14.52-14.52,14.52H4.232A26.77,26.77,0,0,1,0,28.771" transform="translate(14.437 16.574)" fill="none" stroke="#0087ff" stroke-linecap="round" stroke-linejoin="round" stroke-width="2.5"/>
        <path id="Vector-3" data-name="Vector" d="M8.3,4.149A4.149,4.149,0,1,1,4.149,0,4.149,4.149,0,0,1,8.3,4.149Z" transform="translate(12.446 12.446)" fill="none" stroke="#0388fe" stroke-linecap="round" stroke-linejoin="round" stroke-width="2.5"/>
        <path id="Vector-4" data-name="Vector" d="M41.486,0,0,41.486" transform="translate(4.149 4.149)" fill="none" stroke="#0087ff" stroke-linecap="round" stroke-linejoin="round" stroke-width="2.5"/>
        <path id="Vector-5" data-name="Vector" d="M0,11.668a1.6,1.6,0,0,0,2.261,0L12.695,1.213a4.131,4.131,0,0,1,5.85,0l3.381,3.4" transform="translate(23.709 22.455)" fill="none" stroke="#0087ff" stroke-linecap="round" stroke-linejoin="round" stroke-width="2.5"/>
        <path id="Vector-6" data-name="Vector" d="M0,0H49.784V49.784H0Z" fill="none" opacity="0"/>
      </g>
    </g>
  </g>
</svg>
