<svg xmlns="http://www.w3.org/2000/svg" width="66.626" height="51.662" viewBox="0 0 66.626 51.662">
  <g id="Group_530" data-name="Group 530" transform="translate(-1680.089 -373.76)">
    <path id="Path_305" data-name="Path 305" d="M1401.191,1562.762l-2.556-2.687-1.18,4.392,38.8,34.543s4.129-4.129,4.326-4.129,7.21-11.536,7.21-11.536l1.114-6.423v-6.882l3.605-2.687,2.95-3.8-7.21,2.1,4.654-4.588.852-2.622-6.751,2.95-2.687-.328-4.129-2.622-3.933-.918-4.588.918-3.933,2.622-1.77,2.491-1.639,3.8v5.965l-6.489-1.049-6.817-2.622Z" transform="translate(290.43 -1183)" fill="#c8dbec" opacity="0.34"/>
    <g id="layer1" transform="translate(1685.112 374.76)">
      <path id="path5" d="M342.923,402.137a24.854,24.854,0,0,1-7.141,1.958,12.47,12.47,0,0,0,5.467-6.879,24.889,24.889,0,0,1-7.9,3.017,12.445,12.445,0,0,0-21.187,11.34,35.3,35.3,0,0,1-25.627-12.991,12.446,12.446,0,0,0,3.848,16.6,12.384,12.384,0,0,1-5.632-1.555c0,.052,0,.1,0,.156a12.442,12.442,0,0,0,9.974,12.192,12.463,12.463,0,0,1-5.615.213,12.445,12.445,0,0,0,11.615,8.634,24.945,24.945,0,0,1-15.441,5.323,25.286,25.286,0,0,1-2.966-.174,35.19,35.19,0,0,0,19.059,5.586c22.869,0,35.375-18.945,35.375-35.376q0-.809-.036-1.609a25.259,25.259,0,0,0,6.2-6.436Z" transform="translate(-282.32 -396.307)" fill="none" stroke="#0087ff" stroke-linecap="round" stroke-linejoin="round" stroke-width="2"/>
    </g>
    <line id="Line_60" data-name="Line 60" x2="54.578" y2="48.157" transform="translate(1681.5 375.853)" fill="none" stroke="#0087ff" stroke-linecap="round" stroke-width="2"/>
  </g>
</svg>
