<svg xmlns="http://www.w3.org/2000/svg" width="15.651" height="12.722" viewBox="0 0 15.651 12.722">
  <g id="options-lines" transform="translate(0 -69.679)">
    <g id="Group_18383" data-name="Group 18383">
      <g id="Group_18375" data-name="Group 18375" transform="translate(0 69.679)">
        <path id="Path_174" data-name="Path 174" d="M1.361,69.679A1.361,1.361,0,1,0,2.722,71.04,1.361,1.361,0,0,0,1.361,69.679Z" transform="translate(0 -69.679)" fill="#1f65c3"/>
      </g>
      <g id="Group_18378" data-name="Group 18378" transform="translate(3.924 70.017)">
        <path id="Path_177" data-name="Path 177" d="M126.041,79.6h-9.68a1.024,1.024,0,0,0,0,2.047h9.68a1.024,1.024,0,0,0,0-2.047Z" transform="translate(-115.338 -79.601)" fill="#1f65c3"/>
      </g>
    </g>
    <g id="Group_18382" data-name="Group 18382" transform="translate(0 0.906)">
      <g id="Group_18376" data-name="Group 18376" transform="translate(0 73.773)">
        <path id="Path_175" data-name="Path 175" d="M1.361,190.032a1.361,1.361,0,1,0,1.361,1.361A1.361,1.361,0,0,0,1.361,190.032Z" transform="translate(0 -190.032)" fill="#1f65c3"/>
      </g>
      <g id="Group_18379" data-name="Group 18379" transform="translate(3.924 74.11)">
        <path id="Path_178" data-name="Path 178" d="M126.041,199.939h-9.68a1.024,1.024,0,0,0,0,2.047h9.68a1.024,1.024,0,0,0,0-2.047Z" transform="translate(-115.338 -199.939)" fill="#1f65c3"/>
      </g>
    </g>
    <g id="Group_18381" data-name="Group 18381" transform="translate(0 0.803)">
      <g id="Group_18377" data-name="Group 18377" transform="translate(0 78.876)">
        <path id="Path_176" data-name="Path 176" d="M1.361,310.37a1.361,1.361,0,1,0,1.361,1.361A1.361,1.361,0,0,0,1.361,310.37Z" transform="translate(0 -310.37)" fill="#1f65c3"/>
      </g>
      <path id="Path_179" data-name="Path 179" d="M126.041,320.291h-9.68a1.023,1.023,0,1,0,0,2.047h9.68a1.023,1.023,0,1,0,0-2.047Z" transform="translate(-111.414 -241.077)" fill="#1f65c3"/>
    </g>
  </g>
</svg>
