<svg xmlns="http://www.w3.org/2000/svg" width="181.837" height="40.475" viewBox="0 0 181.837 40.475">
  <g id="Group_398" data-name="Group 398" transform="translate(-1625 -58.985)">
    <g id="Group_330" data-name="Group 330" transform="translate(1625.03 58.978)">
      <path id="Path_1433" data-name="Path 1433" d="M37.261,35.765c-12.687,6.206-27.938,5.667-33.2-2.294C-1.2,25.376,7.3,12.012,21.2,4.994,34.427-1.752,50.083-.133,54.4,7.287c4.722,8.23-3.373,21.19-17.141,28.478M57.372,9.717C53.862.137,38.207-2.835,22.685,2.971c-15.791,5.8-25.509,18.353-22,27.8,3.508,9.58,19.165,12.552,34.686,6.746,15.791-5.667,25.509-18.221,22-27.8" transform="translate(0)" fill="#19315b"/>
      <path id="Path_1435" data-name="Path 1435" d="M46.208,18.057c-.135.4-1.349,3.508-3.1,7.016-1.754,3.373-4.992,7.96-5.937,8.635s-2.7.54-4.587-.81a23.607,23.607,0,0,1-4.048-2.968c-1.349-1.214-2.833-2.7-4.452-3.913,1.619-2.7,1.349-3.778.27-4.722s-3.643-.135-4.587.944a4.141,4.141,0,0,0-1.889-.81,2.34,2.34,0,0,0-2.429.4,2.019,2.019,0,0,0-.81,2.024,6.172,6.172,0,0,0,1.484,2.968c-.81.944-1.889,1.889-2.564,2.564A15.473,15.473,0,0,1,11.8,30.74a1.545,1.545,0,0,1-1.349,0,4.2,4.2,0,0,1-.944-1.214A12.278,12.278,0,0,1,8.43,24.4c0-2.968-.27-6.746.944-8.635,1.079-1.484,33.877-4.048,36.576-1.889l.4.4c1.079,1.484.135,3.373-.135,3.778m1.349-3.913a5,5,0,0,0-2.429-1.079c-1.079-.27-4.587-.81-7.96-1.214-2.024-.27-5.262-.4-7.691-.54a9.248,9.248,0,0,0,4.048-3.373C35.021,4.97,33,2.271,29.084,1.732c-4.048-.54-8.365,1.349-9.849,4.318-1.349,2.564.135,5.127,3.373,6.072-2.564.54-5.667,1.079-7.286,1.484-2.833.675-5.667,1.484-6.206,2.024-.675.54-2.024,3.643-2.7,7.556A17.406,17.406,0,0,0,8.711,35.871a3.072,3.072,0,0,0,1.214,1.079,3.417,3.417,0,0,0,2.833-.675c.944-.675,2.833-2.159,4.722-3.508,1.754-1.349,3.373-2.564,3.373-2.564A46.462,46.462,0,0,0,27.2,34.792a24.9,24.9,0,0,0,8.77,3.508c1.754.27,2.429.4,2.7.4a3.778,3.778,0,0,0,.81-.135,4.2,4.2,0,0,0,.81-.54h0l.135-.135a11.576,11.576,0,0,0,1.754-3.373c.4-.81,1.484-2.833,3.238-7.016s3.373-8.5,3.508-9.984a4.925,4.925,0,0,0-1.349-3.373" transform="translate(2.121 0.567)" fill="#19315b"/>
      <path id="Path_1436" data-name="Path 1436" d="M55.031,16.815c3.373,0,6.072-2.833,6.072-6.611a6.113,6.113,0,0,0-6.072-6.341A6.223,6.223,0,0,0,48.825,10.2a6.374,6.374,0,0,0,6.206,6.611m0-15.111a8.3,8.3,0,0,1,8.5,8.5,8.573,8.573,0,1,1-17.141,0,8.415,8.415,0,0,1,8.641-8.5" transform="translate(16.239 0.595)" fill="#19315b"/>
      <path id="Path_1437" data-name="Path 1437" d="M59.6,5.4h2.429l2.429,8.365c.135.675.27,1.214.27,1.214h0s.135-.675.27-1.214L67.56,5.4h2.159l2.564,8.365c.135.675.27,1.214.27,1.214h0s.135-.675.27-1.214L75.386,5.4h2.429L73.9,17.412H71.338L68.91,9.718l-.27-1.349h0l-.27,1.349-2.429,7.695H63.378Z" transform="translate(20.851 1.887)" fill="#19315b"/>
      <path id="Path_1438" data-name="Path 1438" d="M82.439,10.057c-.135-2.024-1.349-3.1-2.833-3.1a3.48,3.48,0,0,0-3.508,3.1ZM79.606,5.2c3.373,0,5.127,2.564,5.127,5.532a7.611,7.611,0,0,1-.135.944h-8.77a3.933,3.933,0,0,0,4.048,3.913,5.742,5.742,0,0,0,3.508-1.349l.944,1.619a6.911,6.911,0,0,1-4.587,1.754A6.063,6.063,0,0,1,73.4,11.406,6.025,6.025,0,0,1,79.606,5.2" transform="translate(25.677 1.818)" fill="#19315b"/>
      <path id="Path_1439" data-name="Path 1439" d="M83.235,5.469h2.159V7.9h0a4.842,4.842,0,0,1,4.452-2.7c2.833,0,4.048,1.484,4.048,4.587v7.691H91.6V10.326c0-1.619-.4-2.968-2.294-2.968a4.013,4.013,0,0,0-3.778,2.968,6.05,6.05,0,0,0-.135,1.619v5.532H83.1V5.469Z" transform="translate(29.068 1.818)" fill="#19315b"/>
      <path id="Path_1440" data-name="Path 1440" d="M93.414,14.373a5.164,5.164,0,0,0,3.373,1.349c.944,0,2.024-.54,2.024-1.484,0-2.159-6.072-1.754-6.072-5.667,0-2.159,1.889-3.373,4.318-3.373a5.746,5.746,0,0,1,3.913,1.349L100.026,8.3a4.409,4.409,0,0,0-2.968-1.079c-.944,0-2.024.4-2.024,1.484,0,2.159,6.072,1.619,6.072,5.532,0,2.024-1.754,3.508-4.318,3.508A6.509,6.509,0,0,1,92.2,15.992Z" transform="translate(32.25 1.819)" fill="#19315b"/>
      <path id="Path_1441" data-name="Path 1441" d="M105.767,16.881c1.889,0,3.508-1.619,3.508-4.318,0-2.564-1.349-4.318-3.373-4.318-1.754,0-3.508,1.214-3.508,4.318,0,2.159,1.079,4.318,3.373,4.318M100.1,1.9h2.294V8.376h0a4.306,4.306,0,0,1,3.778-2.024c3.238,0,5.262,2.564,5.262,6.206,0,3.778-2.294,6.206-5.4,6.206a4.306,4.306,0,0,1-3.778-2.024h0V18.5H100.1Z" transform="translate(35.012 0.663)" fill="#19315b"/>
      <path id="Path_1442" data-name="Path 1442" d="M115.776,15.724a4.046,4.046,0,0,0,4.048-4.318,4.092,4.092,0,0,0-4.048-4.183,4.01,4.01,0,0,0-4.048,4.183,3.973,3.973,0,0,0,4.048,4.318m0-10.524a6.277,6.277,0,1,1,0,12.548,6.365,6.365,0,0,1-6.476-6.341A6.173,6.173,0,0,1,115.776,5.2" transform="translate(38.229 1.818)" fill="#19315b"/>
      <path id="Path_1443" data-name="Path 1443" d="M120.235,5.435h2.159V8.4h0a4.017,4.017,0,0,1,3.778-3.1h.54V7.594a1.638,1.638,0,0,0-.675-.135,3.669,3.669,0,0,0-3.373,2.833,5.6,5.6,0,0,0-.27,2.159v4.857H120.1V5.435Z" transform="translate(42.006 1.853)" fill="#19315b"/>
      <path id="Path_1444" data-name="Path 1444" d="M131.576,15.724a4.046,4.046,0,0,0,4.048-4.318,4.092,4.092,0,0,0-4.048-4.183,4.01,4.01,0,0,0-4.048,4.183,3.973,3.973,0,0,0,4.048,4.318m0-10.524a6.277,6.277,0,1,1,0,12.548,6.365,6.365,0,0,1-6.476-6.341A6.173,6.173,0,0,1,131.576,5.2" transform="translate(43.754 1.818)" fill="#19315b"/>
      <path id="Path_1445" data-name="Path 1445" d="M48.3,17.5h1.889v5.8H57.07V17.5h1.754V30.727H57.07V24.921H50.189v5.8H48.3Z" transform="translate(16.899 6.118)" fill="#19315b"/>
      <path id="Path_1446" data-name="Path 1446" d="M64.286,23.878a2.232,2.232,0,0,0-2.294-2.429,2.762,2.762,0,0,0-2.833,2.429ZM61.992,20.1c2.7,0,4.048,2.024,4.048,4.452v.81H59.159a3.157,3.157,0,0,0,3.238,3.1,4.716,4.716,0,0,0,2.833-1.079l.81,1.349A5.437,5.437,0,0,1,62.4,30.084,4.82,4.82,0,0,1,57.4,25.092,4.441,4.441,0,0,1,61.992,20.1" transform="translate(20.079 7.027)" fill="#19315b"/>
      <path id="Path_1447" data-name="Path 1447" d="M68.413,28.565c1.484,0,2.564-1.619,2.564-2.968v-.27h-.4c-1.349,0-3.913.135-3.913,1.754-.135.675.54,1.484,1.754,1.484m2.024-4.722h.4v-.135a1.78,1.78,0,0,0-2.024-2.024,4.928,4.928,0,0,0-2.7.944l-.81-1.349A5.987,5.987,0,0,1,68.818,20.2,3.414,3.414,0,0,1,72.6,23.978v6.072H70.841V28.3h0a3.391,3.391,0,0,1-3.1,1.889c-1.619,0-3.238-.944-3.238-2.833.27-3.373,4.318-3.508,5.937-3.508" transform="translate(22.564 7.062)" fill="#19315b"/>
      <path id="Path_1448" data-name="Path 1448" d="M72.2,17.5h1.889V27.889c0,1.079.4,1.349,1.079,1.349h.27v1.619H74.9c-1.079,0-2.564-.27-2.564-2.7V17.5Z" transform="translate(25.257 6.118)" fill="#19315b"/>
      <path id="Path_1449" data-name="Path 1449" d="M76.314,22.483H75.1V21h1.349V18.3H78.2V21H80.5v1.484H78.2v4.183a1.913,1.913,0,0,0,2.024,2.159h.4v1.619h-.675c-1.214,0-3.643-.4-3.643-3.508V22.483Z" transform="translate(26.27 6.398)" fill="#19315b"/>
      <path id="Path_1450" data-name="Path 1450" d="M80.4,17.5h1.889v5.667h0A3.813,3.813,0,0,1,85.8,21.008c2.294,0,3.238,1.214,3.238,3.643v6.072H87.281V25.056c0-1.349-.27-2.429-1.754-2.429a3.04,3.04,0,0,0-2.968,2.294,3.737,3.737,0,0,0-.135,1.214v4.452H80.535V17.5Z" transform="translate(28.124 6.118)" fill="#19315b"/>
    </g>
  </g>
</svg>
