<svg xmlns="http://www.w3.org/2000/svg" width="24" height="24" viewBox="0 0 24 24">
  <g id="Group_961" data-name="Group 961" transform="translate(1684 3526)">
    <path id="Vector" d="M0,0H24V24H0Z" transform="translate(-1684 -3526)" fill="none"/>
    <g id="Path_782" data-name="Path 782" transform="translate(-1689.979 -3531.979)" fill="none">
      <path d="M17.566,17.566a4.783,4.783,0,1,0-4.783-4.783A4.785,4.785,0,0,0,17.566,17.566Zm0,2.391C14.379,19.957,8,21.554,8,24.74v2.391H27.132V24.74C27.132,21.554,20.752,19.957,17.566,19.957Z" stroke="none"/>
      <path d="M 17.5657958984375 10.49999618530273 C 16.3069953918457 10.49999618530273 15.28289604187012 11.52409553527832 15.28289604187012 12.78289604187012 C 15.28289604187012 14.04169654846191 16.3069953918457 15.0657958984375 17.5657958984375 15.0657958984375 C 18.8245964050293 15.0657958984375 19.84869575500488 14.04169654846191 19.84869575500488 12.78289604187012 C 19.84869575500488 11.52409553527832 18.8245964050293 10.49999618530273 17.5657958984375 10.49999618530273 M 17.5657958984375 22.45724487304688 C 16.47156524658203 22.45724487304688 14.6244068145752 22.7198371887207 12.96435546875 23.30647659301758 C 11.50135612487793 23.82349395751953 10.83672904968262 24.35976409912109 10.59870719909668 24.63159561157227 L 24.53288269042969 24.63159561157227 C 24.29486274719238 24.35976409912109 23.63023567199707 23.82349395751953 22.167236328125 23.30647659301758 C 20.50718688964844 22.7198371887207 18.66002655029297 22.45724487304688 17.5657958984375 22.45724487304688 M 17.5657958984375 7.999996185302734 C 20.20834732055664 7.999996185302734 22.34869575500488 10.14034652709961 22.34869575500488 12.78289604187012 C 22.34869575500488 15.41947555541992 20.20834732055664 17.5657958984375 17.5657958984375 17.5657958984375 C 14.92324638366699 17.5657958984375 12.78289604187012 15.41947555541992 12.78289604187012 12.78289604187012 C 12.78289604187012 10.14034652709961 14.92324638366699 7.999996185302734 17.5657958984375 7.999996185302734 Z M 17.5657958984375 19.95724487304688 C 20.75240707397461 19.95724487304688 27.13159561157227 21.55353546142578 27.13159561157227 24.74014663696289 L 27.13159561157227 27.13159561157227 L 7.999996185302734 27.13159561157227 L 7.999996185302734 24.74014663696289 C 7.999996185302734 21.55353546142578 14.37918663024902 19.95724487304688 17.5657958984375 19.95724487304688 Z" stroke="none" fill="#292d32"/>
    </g>
  </g>
</svg>
