<?xml version="1.0" encoding="utf-8"?>
<!-- Generator: Adobe Illustrator 16.0.0, SVG Export Plug-In . SVG Version: 6.00 Build 0)  -->
<!DOCTYPE svg PUBLIC "-//W3C//DTD SVG 1.1//EN" "http://www.w3.org/Graphics/SVG/1.1/DTD/svg11.dtd">
<svg version="1.1" id="Layer_1" xmlns="http://www.w3.org/2000/svg" xmlns:xlink="http://www.w3.org/1999/xlink" x="0px" y="0px"
	 width="33.865px" height="49.383px" viewBox="0 0 33.865 49.383" enable-background="new 0 0 33.865 49.383" xml:space="preserve">
<g>
	<g>
		<g>
			<path fill="#E62223" d="M16.933,0C7.581,0,0,7.581,0,16.933c0,6.766,3.97,12.601,9.705,15.314l7.158,12.397l7.107-12.312
				c5.837-2.672,9.896-8.561,9.896-15.4C33.865,7.581,26.283,0,16.933,0z M16.933,9.134c4.308,0,7.798,3.492,7.798,7.799
				c0,4.306-3.49,7.799-7.798,7.799c-4.307,0-7.799-3.493-7.799-7.799C9.134,12.626,12.626,9.134,16.933,9.134z"/>
		</g>
	</g>
	<ellipse opacity="0.4" fill="#14191E" cx="16.933" cy="47.582" rx="11.025" ry="1.802"/>
</g>
</svg>
