<svg id="element-3" xmlns="http://www.w3.org/2000/svg" width="19.922" height="19.922" viewBox="0 0 19.922 19.922">
  <path id="Vector" d="M7.056,5.412V1.644C7.056.473,6.524,0,5.2,0H1.851C.531,0,0,.473,0,1.644V5.4C0,6.583.531,7.047,1.851,7.047H5.2C6.524,7.056,7.056,6.583,7.056,5.412Z" transform="translate(11.206 1.66)" fill="#068dfa"/>
  <path id="Vector-2" data-name="Vector" d="M7.056,5.2V1.851C7.056.531,6.524,0,5.2,0H1.851C.531,0,0,.531,0,1.851V5.2c0,1.32.531,1.851,1.851,1.851H5.2C6.524,7.056,7.056,6.524,7.056,5.2Z" transform="translate(11.206 11.206)" fill="#068dfa"/>
  <path id="Vector-3" data-name="Vector" d="M7.056,5.412V1.644C7.056.473,6.524,0,5.2,0H1.851C.531,0,0,.473,0,1.644V5.4C0,6.583.531,7.047,1.851,7.047H5.2C6.524,7.056,7.056,6.583,7.056,5.412Z" transform="translate(1.66 1.66)" fill="#068dfa"/>
  <path id="Vector-4" data-name="Vector" d="M7.056,5.2V1.851C7.056.531,6.524,0,5.2,0H1.851C.531,0,0,.531,0,1.851V5.2c0,1.32.531,1.851,1.851,1.851H5.2C6.524,7.056,7.056,6.524,7.056,5.2Z" transform="translate(1.66 11.206)" fill="#068dfa"/>
  <path id="Vector-5" data-name="Vector" d="M0,0H19.922V19.922H0Z" fill="none" opacity="0"/>
</svg>
