<svg xmlns="http://www.w3.org/2000/svg" width="24" height="24" viewBox="0 0 24 24">
  <g id="vuesax_linear_edit" data-name="vuesax/linear/edit" transform="translate(-620 -252)">
    <g id="edit">
      <path id="Vector" d="M9,0H7C2,0,0,2,0,7v6c0,5,2,7,7,7h6c5,0,7-2,7-7V11" transform="translate(622 254)" fill="none" stroke="#292d32" stroke-linecap="round" stroke-linejoin="round" stroke-width="2.5"/>
      <path id="Vector-2" data-name="Vector" d="M4.54.642.561,4.621a1.37,1.37,0,0,0-.333.667L.011,6.808a.719.719,0,0,0,.858.858l1.52-.217a1.414,1.414,0,0,0,.667-.333L7.035,3.136a1.534,1.534,0,0,0,0-2.495A1.534,1.534,0,0,0,4.54.642Z" transform="translate(634.323 255)" fill="none" stroke="#292d32" stroke-linecap="round" stroke-linejoin="round" stroke-width="1.8"/>
      <path id="Vector-3" data-name="Vector" d="M0,0A3.608,3.608,0,0,0,2.495,2.495" transform="translate(638.293 256.213)" fill="none" stroke="#292d32" stroke-linecap="round" stroke-linejoin="round" stroke-width="1.8"/>
      <path id="Vector-4" data-name="Vector" d="M0,0H24V24H0Z" transform="translate(620 252)" fill="none" opacity="0"/>
      <path id="Vector-5" data-name="Vector" d="M0,0H4" transform="translate(626 264)" fill="none" stroke="#292d32" stroke-linecap="round" stroke-linejoin="round" stroke-width="2.5"/>
      <path id="Vector-6" data-name="Vector" d="M0,0H8" transform="translate(626 268)" fill="none" stroke="#292d32" stroke-linecap="round" stroke-linejoin="round" stroke-width="2.5"/>
    </g>
  </g>
</svg>
