<svg xmlns="http://www.w3.org/2000/svg" width="14.623" height="15.655" viewBox="0 0 14.623 15.655">
  <g id="refresh-button-svgrepo-com" transform="translate(-16.062)">
    <g id="Group_17975" data-name="Group 17975" transform="translate(16.062)">
      <path id="Path_107" data-name="Path 107" d="M17.324,6.543a1.25,1.25,0,0,0,1.153-.766,5.316,5.316,0,0,1,4.9-3.265,5.243,5.243,0,0,1,3.22,1.107l-.7.108a.546.546,0,0,0-.14,1.037L29.6,6.495a.546.546,0,0,0,.77-.5l.02-4.239a.546.546,0,0,0-1-.305l-.53.8a7.819,7.819,0,0,0-12.7,2.537,1.262,1.262,0,0,0,1.162,1.754Z" transform="translate(-16.062)" fill="#007bff"/>
      <path id="Path_108" data-name="Path 108" d="M39.312,284.155a1.255,1.255,0,0,0-2.2.2,5.316,5.316,0,0,1-4.9,3.265,5.243,5.243,0,0,1-3.221-1.107l.7-.108a.546.546,0,0,0,.14-1.037l-3.848-1.731a.546.546,0,0,0-.77.5l-.02,4.239a.546.546,0,0,0,1,.3l.53-.8a7.819,7.819,0,0,0,12.7-2.537A1.261,1.261,0,0,0,39.312,284.155Z" transform="translate(-24.899 -274.478)" fill="#007bff"/>
    </g>
  </g>
</svg>
