<svg xmlns="http://www.w3.org/2000/svg" width="41.126" height="41.126" viewBox="0 0 41.126 41.126">
  <g id="vuesax_bold_clipboard-text" data-name="vuesax/bold/clipboard-text" transform="translate(-108 -252)">
    <g id="clipboard-text" transform="translate(108 252)">
      <path id="Vector" d="M11.293,0H3.239A3.232,3.232,0,0,0,0,3.222V4.832A3.218,3.218,0,0,0,3.222,8.054h8.071a3.218,3.218,0,0,0,3.222-3.222V3.222A3.207,3.207,0,0,0,11.293,0Z" transform="translate(13.298 3.427)" fill="#1383d9"/>
      <path id="Vector-2" data-name="Vector" d="M23.9,1.264a4.966,4.966,0,0,1-4.952,4.952H10.9A4.966,4.966,0,0,1,5.946,1.264,1.28,1.28,0,0,0,4.061.15,7.663,7.663,0,0,0,0,6.919V23.044A7.679,7.679,0,0,0,7.66,30.7H22.191a7.679,7.679,0,0,0,7.66-7.66V6.919A7.663,7.663,0,0,0,25.79.15,1.28,1.28,0,0,0,23.9,1.264ZM15.577,22.05H8.071a1.285,1.285,0,0,1,0-2.57h7.506a1.285,1.285,0,0,1,0,2.57Zm4.49-6.854h-12a1.285,1.285,0,0,1,0-2.57h12a1.285,1.285,0,0,1,0,2.57Z" transform="translate(5.638 6.996)" fill="#a8d6fb"/>
      <path id="Vector-3" data-name="Vector" d="M0,0H41.126V41.126H0Z" transform="translate(41.126 41.126) rotate(180)" fill="none" opacity="0"/>
    </g>
  </g>
</svg>
