<svg width="14" height="15" viewBox="0 0 14 15" fill="none" xmlns="http://www.w3.org/2000/svg">
<path d="M10.02 3.52566C9.17482 2.91493 8.18109 2.58468 7.17908 2.56067C6.1885 2.53696 5.18907 2.81129 4.3162 3.40826C3.99306 3.6293 3.70077 3.87523 3.44105 4.14019C2.5719 5.02642 2.07076 6.12989 1.9579 7.26879C1.84475 8.4112 2.11876 9.59576 2.79962 10.6404C3.00105 10.9493 3.23905 11.2479 3.51391 11.5313C4.12906 12.1649 4.87992 12.6122 5.69479 12.8412C6.49765 13.0666 7.3708 13.0821 8.24709 12.8564C8.56195 12.7753 8.86253 12.6737 9.1431 12.5519C9.40796 12.4369 9.67396 12.294 9.93654 12.123C10.388 11.8296 10.9865 11.967 11.2731 12.4295C11.5597 12.8921 11.4257 13.5058 10.974 13.7991C10.6414 14.0158 10.2783 14.2079 9.89282 14.3753C9.5031 14.5445 9.1091 14.6798 8.71653 14.7808C7.51709 15.0897 6.30908 15.0654 5.18735 14.7504C4.0442 14.4289 2.99648 13.8065 2.14333 12.9278C1.78104 12.5548 1.46446 12.1573 1.19418 11.7421C0.255025 10.3005 -0.122407 8.66064 0.034452 7.07497C0.191596 5.4855 0.882459 3.95487 2.0779 2.73546C2.42276 2.38384 2.81105 2.05739 3.24105 1.76315C4.45678 0.931379 5.84479 0.549307 7.21708 0.582098C8.49567 0.612546 9.76168 1.00252 10.8631 1.72304L10.7517 1.29032C10.6108 0.741075 10.9311 0.178361 11.4668 0.0340229C12.0028 -0.110315 12.552 0.217886 12.6928 0.766839L13.3894 3.47501C13.5594 4.01371 13.2731 4.59312 12.7477 4.77025L10.0091 5.69893C9.48196 5.87694 8.91367 5.58299 8.73996 5.04282C8.56653 4.50265 8.8531 3.92032 9.38053 3.74261L10.02 3.52566V3.52566ZM13.3946 11.0143C13.1669 11.509 12.5903 11.721 12.1071 11.4877C11.6243 11.2543 11.4174 10.6635 11.6454 10.1684C11.7031 10.0428 11.752 9.92572 11.7911 9.81769C11.832 9.70497 11.8697 9.58464 11.9043 9.45728C11.9585 9.25826 11.9993 9.05568 12.0266 8.85094C12.0546 8.64044 12.0691 8.4314 12.0691 8.22704C12.0691 7.68072 12.5014 7.23775 13.0346 7.23775C13.5677 7.23775 14 7.68072 14 8.22704C13.9997 8.53241 13.9803 8.82928 13.9423 9.11503C13.9034 9.40882 13.845 9.69954 13.7674 9.98515C13.7209 10.1567 13.6651 10.3312 13.6009 10.5083C13.5346 10.6907 13.4657 10.8597 13.3946 11.0143V11.0143Z" fill="#828282"/>
</svg>
