<svg xmlns="http://www.w3.org/2000/svg" width="13.573" height="16.966" viewBox="0 0 13.573 16.966">
  <g id="XMLID_5_" transform="translate(-51.2)">
    <path id="XMLID_9_" d="M59.683,0H52.9a1.713,1.713,0,0,0-1.7,1.7V15.27a1.691,1.691,0,0,0,1.7,1.7h10.18a1.713,1.713,0,0,0,1.7-1.7V5.09Zm-1.7,13.573A4.243,4.243,0,0,1,54.1,11.011h1.451a2.921,2.921,0,0,0,2.436,1.266,2.962,2.962,0,1,0-2.621-4.321l1.359,1.359h-3.4V5.922l1.11,1.11A4.154,4.154,0,0,1,57.986,5.09a4.242,4.242,0,1,1,0,8.483Z" transform="translate(0)" fill="#93a7b9"/>
  </g>
</svg>
