<svg xmlns="http://www.w3.org/2000/svg" width="22" height="22" viewBox="0 0 22 22">
  <g id="Group_6" data-name="Group 6" transform="translate(-665.313 -682.313)">
    <circle id="Ellipse_1" data-name="Ellipse 1" cx="11" cy="11" r="11" transform="translate(665.313 682.313)" fill="#1383d9"/>
    <path id="save-52" d="M135.42,128h-6.36a1.06,1.06,0,0,0-1.06,1.06v7.42a1.06,1.06,0,0,0,1.06,1.06h7.42a1.06,1.06,0,0,0,1.06-1.06v-6.36L135.42,128Zm-2.65,8.48a1.59,1.59,0,1,1,1.59-1.59A1.591,1.591,0,0,1,132.77,136.479Zm1.59-5.3h-5.3v-2.12h5.3Z" transform="translate(543.401 560.401)" fill="#fff"/>
  </g>
</svg>
