<svg id="cogwheel" xmlns="http://www.w3.org/2000/svg" width="22.382" height="23.452" viewBox="0 0 22.382 23.452">
  <path id="Path_9773" data-name="Path 9773" d="M142.534,159.1a4.886,4.886,0,1,1,4.886-4.886A4.892,4.892,0,0,1,142.534,159.1Zm0-8.306a3.42,3.42,0,1,0,3.42,3.42A3.424,3.424,0,0,0,142.534,150.8Zm0,0" transform="translate(-131.344 -142.492)" fill="#707070"/>
  <path id="Path_9774" data-name="Path 9774" d="M12.816,23.452H9.565a1.7,1.7,0,0,1-1.643-1.32L7.512,20.3A8.983,8.983,0,0,1,5.6,19.194l-1.781.563a1.694,1.694,0,0,1-1.978-.771l-1.62-2.8A1.708,1.708,0,0,1,.537,14.1l1.381-1.269a9.887,9.887,0,0,1-.062-1.1,10.1,10.1,0,0,1,.062-1.1L.543,9.359A1.706,1.706,0,0,1,.218,7.277l1.63-2.819a1.694,1.694,0,0,1,1.97-.764L5.6,4.258a8.991,8.991,0,0,1,1.91-1.109l.412-1.831A1.693,1.693,0,0,1,9.565,0h3.25a1.7,1.7,0,0,1,1.643,1.32l.411,1.829a8.983,8.983,0,0,1,1.91,1.109L18.56,3.7a1.7,1.7,0,0,1,1.978.771l1.62,2.8a1.708,1.708,0,0,1-.314,2.085l-1.381,1.269a9.919,9.919,0,0,1,0,2.207l1.374,1.263.007.006a1.7,1.7,0,0,1,.319,2.076l-1.63,2.819a1.69,1.69,0,0,1-1.971.763l-1.784-.564A8.994,8.994,0,0,1,14.869,20.3l-.412,1.831A1.691,1.691,0,0,1,12.816,23.452ZM5.752,17.647a.733.733,0,0,1,.466.167A7.527,7.527,0,0,0,8.4,19.077a.732.732,0,0,1,.461.527l.5,2.208a.219.219,0,0,0,.212.174h3.25a.218.218,0,0,0,.211-.172l.5-2.21a.732.732,0,0,1,.461-.527,7.541,7.541,0,0,0,2.178-1.264.73.73,0,0,1,.687-.134L19,18.359a.219.219,0,0,0,.259-.09l1.63-2.819a.239.239,0,0,0-.047-.282L19.2,13.651A.733.733,0,0,1,18.967,13a8.487,8.487,0,0,0,0-2.556A.733.733,0,0,1,19.2,9.8l1.653-1.521a.239.239,0,0,0,.038-.287l-1.62-2.8a.224.224,0,0,0-.266-.1l-2.148.678a.731.731,0,0,1-.687-.134,7.528,7.528,0,0,0-2.178-1.264.732.732,0,0,1-.461-.527l-.5-2.208a.224.224,0,0,0-.214-.172H9.565a.218.218,0,0,0-.211.172l-.5,2.21a.734.734,0,0,1-.461.527A7.52,7.52,0,0,0,6.218,5.638a.735.735,0,0,1-.687.134L3.38,5.093a.222.222,0,0,0-.259.09L1.491,8a.239.239,0,0,0,.05.285L3.189,9.8a.733.733,0,0,1,.229.648,8.486,8.486,0,0,0,0,2.556.734.734,0,0,1-.229.648L1.535,15.173a.239.239,0,0,0-.038.287l1.62,2.8a.225.225,0,0,0,.266.1l2.148-.678A.714.714,0,0,1,5.752,17.647Zm0,0" transform="translate(0)" fill="#707070"/>
</svg>
