<svg xmlns="http://www.w3.org/2000/svg" width="24" height="24" viewBox="0 0 24 24">
  <g id="vuesax_bold_grid-1" data-name="vuesax/bold/grid-1" transform="translate(-428 -252)">
    <g id="grid-1">
      <path id="Vector" d="M0,0H24V24H0Z" transform="translate(452 276) rotate(180)" fill="none" opacity="0"/>
      <g id="table-icon" transform="translate(430 257)">
        <path id="Path_816" data-name="Path 816" d="M.882-3H19.118A.892.892,0,0,1,20-2.1V16.1a.892.892,0,0,1-.882.9H.882A.892.892,0,0,1,0,16.1V-2.1A.892.892,0,0,1,.882-3Zm.5,6.947H6.2a.243.243,0,0,1,.241.245V5.805A.244.244,0,0,1,6.2,6.05H1.38a.244.244,0,0,1-.241-.245V4.192a.242.242,0,0,1,.241-.245ZM13.8,13.665h4.823a.243.243,0,0,1,.241.245v1.614a.244.244,0,0,1-.241.245H13.8a.244.244,0,0,1-.241-.245V13.91a.242.242,0,0,1,.241-.245Zm-6.182,0h4.766a.243.243,0,0,1,.241.245v1.614a.244.244,0,0,1-.241.245H7.617a.244.244,0,0,1-.241-.245V13.91a.242.242,0,0,1,.241-.245Zm-6.237,0H6.2a.243.243,0,0,1,.241.245v1.614a.244.244,0,0,1-.241.245H1.38a.244.244,0,0,1-.241-.245V13.91a.242.242,0,0,1,.241-.245ZM13.8,10.425h4.823a.243.243,0,0,1,.241.245v1.614a.244.244,0,0,1-.241.245H13.8a.244.244,0,0,1-.241-.245V10.67a.242.242,0,0,1,.241-.245Zm-6.182,0h4.766a.243.243,0,0,1,.241.245v1.614a.244.244,0,0,1-.241.245H7.617a.244.244,0,0,1-.241-.245V10.67a.242.242,0,0,1,.241-.245Zm-6.237,0H6.2a.243.243,0,0,1,.241.245v1.614a.244.244,0,0,1-.241.245H1.38a.244.244,0,0,1-.241-.245V10.67a.242.242,0,0,1,.241-.245ZM13.8,7.186h4.823a.243.243,0,0,1,.241.245V9.045a.244.244,0,0,1-.241.245H13.8a.244.244,0,0,1-.241-.245V7.431a.242.242,0,0,1,.241-.245Zm-6.182,0h4.766a.243.243,0,0,1,.241.245V9.045a.244.244,0,0,1-.241.245H7.617a.244.244,0,0,1-.241-.245V7.431a.242.242,0,0,1,.241-.245Zm-6.237,0H6.2a.243.243,0,0,1,.241.245V9.045A.244.244,0,0,1,6.2,9.29H1.38a.244.244,0,0,1-.241-.245V7.431a.242.242,0,0,1,.241-.245ZM13.8,3.947h4.823a.243.243,0,0,1,.241.245V5.805a.244.244,0,0,1-.241.245H13.8a.244.244,0,0,1-.241-.245V4.192a.242.242,0,0,1,.241-.245Zm-6.182,0h4.766a.243.243,0,0,1,.241.245V5.805a.244.244,0,0,1-.241.245H7.617a.244.244,0,0,1-.241-.245V4.192a.242.242,0,0,1,.241-.245Z" transform="translate(0 0)" fill="#008efd" fill-rule="evenodd"/>
      </g>
    </g>
  </g>
</svg>
