<svg xmlns="http://www.w3.org/2000/svg" width="12" height="12" viewBox="0 0 12 12">
  <g id="selection-all-fill" transform="translate(0.051 0.051)">
    <rect id="Rectangle_421" data-name="Rectangle 421" width="12" height="12" transform="translate(-0.051 -0.051)" fill="none"/>
    <path id="Subtraction_17" data-name="Subtraction 17" d="M8.25,9H7.125a.375.375,0,1,1,0-.75H8.25V7.125a.375.375,0,0,1,.75,0V8.25A.75.75,0,0,1,8.25,9Zm-3,0H3.75a.375.375,0,1,1,0-.75h1.5a.375.375,0,1,1,0,.75ZM1.875,9H.75A.75.75,0,0,1,0,8.25V7.125a.375.375,0,1,1,.75,0V8.25H1.875a.375.375,0,1,1,0,.75ZM6.75,7.125H2.25a.375.375,0,0,1-.375-.375V2.25a.375.375,0,0,1,.375-.375h4.5a.375.375,0,0,1,.375.375v4.5A.375.375,0,0,1,6.75,7.125ZM3.539,4.4l-.04,0a.48.48,0,0,0-.369.291l-.293.584a.674.674,0,0,0,.6.977H5.6a.674.674,0,0,0,.564-.3.662.662,0,0,0,.059-.637l-.53-1.239c-.1-.226-.24-.355-.4-.364H5.272a.522.522,0,0,0-.423.322l-.322.577a.353.353,0,0,1-.269.2H4.233a.36.36,0,0,1-.275-.157l-.037-.047A.492.492,0,0,0,3.539,4.4Zm.136-1.659a.572.572,0,1,0,.572.572A.573.573,0,0,0,3.676,2.739ZM8.625,5.625A.375.375,0,0,1,8.25,5.25V3.75a.375.375,0,0,1,.75,0v1.5A.375.375,0,0,1,8.625,5.625Zm-8.25,0A.375.375,0,0,1,0,5.25V3.75a.375.375,0,1,1,.75,0v1.5A.375.375,0,0,1,.375,5.625ZM8.625,2.25a.375.375,0,0,1-.375-.375V.75H7.125a.375.375,0,0,1,0-.75H8.25A.75.75,0,0,1,9,.75V1.875A.375.375,0,0,1,8.625,2.25Zm-8.25,0A.375.375,0,0,1,0,1.875V.75A.75.75,0,0,1,.75,0H1.875a.375.375,0,1,1,0,.75H.75V1.875A.375.375,0,0,1,.375,2.25ZM5.25.75H3.75a.375.375,0,0,1,0-.75h1.5a.375.375,0,0,1,0,.75Z" transform="translate(0.949 0.949)" fill="#fff"/>
  </g>
</svg>
