<svg xmlns="http://www.w3.org/2000/svg" width="24" height="24" viewBox="0 0 24 24">
  <g id="Group_18542" data-name="Group 18542" transform="translate(184 -1938)">
    <rect id="Rectangle_1019" data-name="Rectangle 1019" width="24" height="24" transform="translate(-184 1938)" fill="rgba(255,255,255,0.02)" opacity="0"/>
    <g id="Group_18540" data-name="Group 18540" transform="translate(240 -61)">
      <path id="Path_178" data-name="Path 178" d="M27.728,15.338H26.155V13.174H23.921v2.164H22.3l2.714,2.554,2.716-2.554Zm2.93-10.394H27.921a1.435,1.435,0,0,1-.878-.344,1.24,1.24,0,0,1-.3-.817V1.012H19.508a.077.077,0,0,0-.054.023.058.058,0,0,0-.026.055V13.866a.1.1,0,0,0,.023.054.066.066,0,0,0,.055.023h1.887a4.008,4.008,0,0,0-.325,1.006H19.2a.768.768,0,0,1-.767-.769V.775A.768.768,0,0,1,19.2.006h8.054A.166.166,0,0,1,27.305,0a.359.359,0,0,1,.232.09h.012a.155.155,0,0,1,.031.023L31.55,4.133a.375.375,0,0,1,.116.262.481.481,0,0,1-.012.087v9.7a.771.771,0,0,1-.769.769H28.852a3.931,3.931,0,0,0-.325-1.006h2.049c.023,0,.023-.013.036-.023s.044-.038.044-.054c0-3.415,0-5.51,0-8.923ZM27.646,3.7V1.182l2.838,2.875H28a.372.372,0,0,1-.25-.1.36.36,0,0,1-.1-.25Z" transform="translate(-435.746 2002)" fill="#2a8ff4" fill-rule="evenodd"/>
      <path id="Path_179" data-name="Path 179" d="M0,38.51H12.945v6.219H0Z" transform="translate(-420 1969.098)" fill="#2a8ff4" fill-rule="evenodd"/>
      <path id="Path_180" data-name="Path 180" d="M12.061,48.62h1.714a1.174,1.174,0,0,1,.837.265,1,1,0,0,1,.278.754,1.019,1.019,0,0,1-.3.786,1.317,1.317,0,0,1-.928.283H13.1V51.94H12.06V48.62ZM13.1,50.035h.252a.637.637,0,0,0,.418-.1.331.331,0,0,0,.121-.264.365.365,0,0,0-.1-.265.54.54,0,0,0-.393-.109H13.1v.741Zm2.3-1.415h1.53a1.837,1.837,0,0,1,.731.122,1.2,1.2,0,0,1,.46.351,1.475,1.475,0,0,1,.264.533,2.49,2.49,0,0,1,.082.644,2.211,2.211,0,0,1-.122.826,1.362,1.362,0,0,1-.338.492,1.1,1.1,0,0,1-.463.264,2.43,2.43,0,0,1-.615.09H15.4V48.62Zm1.03.753v1.813h.252a1.064,1.064,0,0,0,.46-.071.49.49,0,0,0,.214-.249,1.568,1.568,0,0,0,.077-.577,1.115,1.115,0,0,0-.172-.722.736.736,0,0,0-.574-.2h-.258Zm2.538-.753h2.548v.714H20v.58h1.292v.67H20V51.94H18.967V48.62Z" transform="translate(-430.304 1960.46)" fill="#fff"/>
    </g>
  </g>
</svg>
