<svg xmlns="http://www.w3.org/2000/svg" width="12.724" height="11.4" viewBox="0 0 12.724 11.4">
  <g id="unlock" transform="translate(0 -0.147)">
    <g id="Group_31" data-name="Group 31" transform="translate(0 4.752)">
      <path id="Path_825" data-name="Path 825" d="M1.123,7.856v4.175a.513.513,0,0,0,.51.509H7.2a.513.513,0,0,0,.51-.509V7.856a.513.513,0,0,0-.51-.511H1.633A.512.512,0,0,0,1.123,7.856ZM4.416,7.9a1.343,1.343,0,0,1,.418,2.62v1.046a.42.42,0,0,1-.418.42h0A.418.418,0,0,1,4,11.567V10.521A1.343,1.343,0,0,1,4.416,7.9Z" transform="translate(-0.286 -6.583)" fill="none"/>
      <circle id="Ellipse_8" data-name="Ellipse 8" cx="0.51" cy="0.51" r="0.51" transform="translate(3.621 2.155)" fill="none"/>
      <path id="Path_826" data-name="Path 826" d="M0,7.6v4.177a1.35,1.35,0,0,0,1.347,1.347H6.915a1.35,1.35,0,0,0,1.347-1.347V7.594a1.342,1.342,0,0,0-.928-1.271H.925A1.346,1.346,0,0,0,0,7.6Zm6.915-.51a.513.513,0,0,1,.51.511v4.175a.513.513,0,0,1-.51.509H1.347a.513.513,0,0,1-.51-.509V7.6a.512.512,0,0,1,.51-.511H6.915Z" transform="translate(0 -6.323)" fill="#2680eb"/>
      <path id="Path_827" data-name="Path 827" d="M4.662,10.71v1.046a.418.418,0,0,0,.416.42h0a.42.42,0,0,0,.418-.42V10.71a1.347,1.347,0,1,0-.837,0Zm.418-1.783a.51.51,0,1,1-.509.509A.51.51,0,0,1,5.081,8.927Z" transform="translate(-0.95 -6.773)" fill="#2680eb"/>
    </g>
    <path id="Path_828" data-name="Path 828" d="M9.311,3.349a2.366,2.366,0,1,1,4.732,0v1.4h.837v-1.4a3.2,3.2,0,1,0-6.4,0v1.4h.836Z" transform="translate(-2.156)" fill="#2680eb"/>
  </g>
</svg>
