<svg xmlns="http://www.w3.org/2000/svg" width="13.634" height="13.634" viewBox="0 0 13.634 13.634">
  <g id="vuesax_bold_eye" data-name="vuesax/bold/eye" transform="translate(-108 -188)">
    <path id="Vector" d="M10.935,3.249A6.362,6.362,0,0,0,5.681,0,5.5,5.5,0,0,0,2.789.846a7.586,7.586,0,0,0-2.363,2.4,3.278,3.278,0,0,0,0,3.232A6.349,6.349,0,0,0,5.681,9.731a5.5,5.5,0,0,0,2.891-.846,7.586,7.586,0,0,0,2.363-2.4A3.278,3.278,0,0,0,10.935,3.249ZM5.681,7.163a2.3,2.3,0,1,1,2.3-2.3A2.292,2.292,0,0,1,5.681,7.163Z" transform="translate(109.136 189.948)" fill="#008efd"/>
    <path id="Vector-2" data-name="Vector" d="M1.619,0A1.622,1.622,0,1,0,3.244,1.625,1.623,1.623,0,0,0,1.619,0Z" transform="translate(113.198 193.192)" fill="#008efd"/>
    <path id="Vector-3" data-name="Vector" d="M0,0H13.634V13.634H0Z" transform="translate(121.634 201.634) rotate(180)" fill="none" opacity="0"/>
  </g>
</svg>
