<svg xmlns="http://www.w3.org/2000/svg" width="24" height="24" viewBox="0 0 24 24">
  <path id="Subtraction_2" data-name="Subtraction 2" d="M12,24A12,12,0,0,1,3.515,3.515,12,12,0,0,1,20.486,20.486,11.922,11.922,0,0,1,12,24ZM8.544,6.3V17.537h4.845c2.249,0,3.7-1.194,3.7-3.043a2.708,2.708,0,0,0-2.173-2.72A2.592,2.592,0,0,0,16.834,9.2c0-1.76-1.434-2.9-3.654-2.9Zm4.523,9.4H10.8V12.676h2.221c1.1,0,1.788.592,1.788,1.546S14.172,15.7,13.067,15.7Zm-.209-4.765H10.8V8.121h2.061c1.064,0,1.674.516,1.674,1.416S13.938,10.937,12.858,10.937Z" fill="#008efd"/>
</svg>
