<svg xmlns="http://www.w3.org/2000/svg" width="8.833" height="10.31" viewBox="0 0 8.833 10.31">
  <path id="delete-icon" d="M.931,3.121H7.943a.706.706,0,0,1,.168.013.5.5,0,0,1,.242.131.456.456,0,0,1,.138.281.643.643,0,0,1-.005.121l-.6,6.186h0v.034h0a.593.593,0,0,1-.017.076h0v.005h0a.5.5,0,0,1-.459.342H1.448a.518.518,0,0,1-.1-.016.518.518,0,0,1-.1-.04h0a.519.519,0,0,1-.259-.41L.4,3.671a.646.646,0,0,1-.005-.139A.451.451,0,0,1,.53,3.255a.5.5,0,0,1,.252-.133.751.751,0,0,1,.15-.011ZM.467.739H3.111V.5h0a.2.2,0,0,1,0-.023A.5.5,0,0,1,3.258.145h0A.5.5,0,0,1,3.612,0H5.264a.5.5,0,0,1,.479.5h0V.739h2.72a.4.4,0,0,1,.362.372v.87a.218.218,0,0,1-.218.218H.21a.218.218,0,0,1-.218-.215V1.136h0a.131.131,0,0,1,0-.026h0A.4.4,0,0,1,.319.746.873.873,0,0,1,.467.739ZM4,5.165a.4.4,0,0,1,.8,0V8.273a.4.4,0,0,1-.8,0ZM6,5.149a.385.385,0,0,1,.42-.341.375.375,0,0,1,.379.375L6.627,8.29a.384.384,0,0,1-.42.341.375.375,0,0,1-.379-.375L6,5.149Zm-3.9.034a.375.375,0,0,1,.378-.375.385.385,0,0,1,.42.341l.168,3.108a.375.375,0,0,1-.379.375.384.384,0,0,1-.42-.341L2.092,5.182Z" transform="translate(0.008)" fill="#008efd" fill-rule="evenodd"/>
</svg>
