<svg xmlns="http://www.w3.org/2000/svg" width="24" height="24" viewBox="0 0 24 24">
  <g id="Group_18541" data-name="Group 18541" transform="translate(147 -1938)">
    <rect id="Rectangle_1018" data-name="Rectangle 1018" width="24" height="24" transform="translate(-147 1938)" fill="rgba(255,255,255,0)" opacity="0"/>
    <g id="Group_18539" data-name="Group 18539" transform="translate(140 -61)">
      <path id="Path_191" data-name="Path 191" d="M27.7,15.289H26.13V13.132H23.9v2.157H22.285l2.706,2.546L27.7,15.289ZM30.619,4.928H27.891a1.43,1.43,0,0,1-.875-.343,1.236,1.236,0,0,1-.3-.814V1.009H19.5a.077.077,0,0,0-.054.023.058.058,0,0,0-.026.055V13.822a.1.1,0,0,0,.023.054.066.066,0,0,0,.055.023h1.881a4,4,0,0,0-.324,1H19.195a.766.766,0,0,1-.765-.766V.772a.766.766,0,0,1,.765-.766h8.028A.165.165,0,0,1,27.277,0a.358.358,0,0,1,.231.09h.012a.154.154,0,0,1,.03.023l3.958,4.006a.374.374,0,0,1,.116.261.48.48,0,0,1-.012.087v9.669a.768.768,0,0,1-.766.766H28.819a3.919,3.919,0,0,0-.324-1h2.042c.023,0,.023-.013.036-.023s.044-.038.044-.054c0-3.4,0-5.493,0-8.9Zm-3-1.237V1.179l2.829,2.865H27.97a.37.37,0,0,1-.25-.1.359.359,0,0,1-.1-.25Z" transform="translate(-298.594 2002)" fill="#2a8ff4" fill-rule="evenodd"/>
      <path id="Path_189" data-name="Path 189" d="M.907,136.76H9.979a.82.82,0,0,1,.907.685V142.7a.82.82,0,0,1-.907.685H.907A.82.82,0,0,1,0,142.7v-5.258A.82.82,0,0,1,.907,136.76Z" transform="translate(-284 1870.171)" fill="#2a8ff4"/>
      <path id="Path_190" data-name="Path 190" d="M41.294,188.1c.011.085.018.158.022.222h.013q.007-.09.03-.217c.015-.085.029-.156.041-.214l.581-2.494h.751l.6,2.456a3.634,3.634,0,0,1,.075.463h.01a3.494,3.494,0,0,1,.063-.45l.481-2.471h.684l-.845,3.573H43l-.573-2.366q-.025-.1-.056-.267c-.021-.11-.034-.189-.039-.24h-.01q-.01.087-.039.259t-.046.254l-.539,2.359h-.813L40.04,185.4h.7l.524,2.5A2.015,2.015,0,0,1,41.294,188.1Z" transform="translate(-321.19 1823.059)" fill="#fff"/>
    </g>
  </g>
</svg>
