<svg xmlns="http://www.w3.org/2000/svg" width="16.677" height="15.633" viewBox="0 0 16.677 15.633">
  <g id="Group_18496" data-name="Group 18496" transform="translate(7819 4095)">
    <rect id="Rectangle_873" data-name="Rectangle 873" width="15" height="12" transform="translate(-7818 -4093)" fill="#fff"/>
    <g id="images" transform="translate(-7819 -4104.35)">
      <path id="Path_176" data-name="Path 176" d="M14.792,9.35H1.886A1.888,1.888,0,0,0,0,11.237V23.1a1.887,1.887,0,0,0,1.886,1.885H14.792A1.886,1.886,0,0,0,16.677,23.1V11.237A1.887,1.887,0,0,0,14.792,9.35Zm-4.008,2.807a1.822,1.822,0,1,1-1.822,1.822A1.822,1.822,0,0,1,10.784,12.157ZM14.2,23.24H2.738a.515.515,0,0,1-.5-.813l3.127-6.193a.526.526,0,0,1,.964-.09l3.144,4.109a.771.771,0,0,0,1.194.076l.769-.779a.732.732,0,0,1,1.163.1l1.992,2.845C14.877,22.905,14.7,23.24,14.2,23.24Z" fill="#2a8ff4"/>
    </g>
  </g>
</svg>
