<svg xmlns="http://www.w3.org/2000/svg" width="24" height="24" viewBox="0 0 24 24">
  <g id="vuesax_bold_grid-1" data-name="vuesax/bold/grid-1" transform="translate(-428 -252)">
    <g id="grid-1">
      <path id="Vector" d="M5.75,0V5.8H0C0,2.19,2.15.02,5.75,0Z" transform="translate(430 254)" fill="#008efd"/>
      <path id="Vector-2" data-name="Vector" d="M5.75,5.8H0V0C3.6.02,5.75,2.19,5.75,5.8Z" transform="translate(444.25 254)" fill="#008efd"/>
      <path id="Vector-3" data-name="Vector" d="M5.75,0C5.71,3.55,3.57,5.68,0,5.7V0Z" transform="translate(444.25 268.3)" fill="#008efd"/>
      <path id="Vector-4" data-name="Vector" d="M5.75,0V5.7C2.18,5.68.04,3.55,0,0Z" transform="translate(430 268.3)" fill="#008efd"/>
      <path id="Vector-5" data-name="Vector" d="M0,0H5.75V5.5H0Z" transform="translate(430 261.3)" fill="#008efd"/>
      <path id="Vector-6" data-name="Vector" d="M0,0H5.75V5.5H0Z" transform="translate(444.25 261.3)" fill="#008efd"/>
      <path id="Vector-7" data-name="Vector" d="M0,0H5.5V5.5H0Z" transform="translate(437.25 261.3)" fill="#008efd"/>
      <path id="Vector-8" data-name="Vector" d="M0,0H5.5V5.8H0Z" transform="translate(437.25 254)" fill="#008efd"/>
      <path id="Vector-9" data-name="Vector" d="M0,0H5.5V5.7H0Z" transform="translate(437.25 268.3)" fill="#008efd"/>
      <path id="Vector-10" data-name="Vector" d="M0,0H24V24H0Z" transform="translate(452 276) rotate(180)" fill="none" opacity="0"/>
    </g>
  </g>
</svg>
