<svg xmlns="http://www.w3.org/2000/svg" width="20" height="20" viewBox="0 0 20 20">
  <g id="vuesax_linear_sms-notification" data-name="vuesax/linear/sms-notification" transform="translate(-684 -250)">
    <g id="sms-notification" transform="translate(684 250)">
      <path id="Vector" d="M16.667,5.833V10c0,2.917-1.667,4.167-4.167,4.167H4.167C1.667,14.167,0,12.917,0,10V4.167C0,1.25,1.667,0,4.167,0H10" transform="translate(1.667 2.917)" fill="none" stroke="#878787" stroke-linecap="round" stroke-linejoin="round" stroke-width="2"/>
      <path id="Vector-2" data-name="Vector" d="M0,0,2.608,2.083a2.638,2.638,0,0,0,3.125,0L6.717,1.3" transform="translate(5.833 7.5)" fill="none" stroke="#878787" stroke-linecap="round" stroke-linejoin="round" stroke-width="2"/>
      <path id="Vector-3" data-name="Vector" d="M4.167,2.083A2.083,2.083,0,1,1,2.083,0,2.083,2.083,0,0,1,4.167,2.083Z" transform="translate(14.167 2.5)" fill="none" stroke="#878787" stroke-linecap="round" stroke-linejoin="round" stroke-width="2"/>
      <path id="Vector-4" data-name="Vector" d="M0,0H20V20H0Z" fill="none" opacity="0"/>
    </g>
  </g>
</svg>
