<svg xmlns="http://www.w3.org/2000/svg" width="20" height="20" viewBox="0 0 20 20">
  <g id="vuesax_linear_sms-tracking" data-name="vuesax/linear/sms-tracking" transform="translate(-620 -250)">
    <g id="sms-tracking" transform="translate(620 250)">
      <path id="Vector" d="M0,4.162C0,1.249,1.666,0,4.165,0h8.329c2.5,0,4.165,1.249,4.165,4.162V9.99c0,2.914-1.666,4.162-4.165,4.162H4.165" transform="translate(1.671 2.924)" fill="none" stroke="#878787" stroke-linecap="round" stroke-linejoin="round" stroke-width="2"/>
      <path id="Vector-2" data-name="Vector" d="M8.354,0,5.74,2.089a2.645,2.645,0,0,1-3.133,0L0,0" transform="translate(5.823 7.497)" fill="none" stroke="#878787" stroke-linecap="round" stroke-linejoin="round" stroke-width="2"/>
      <path id="Vector-3" data-name="Vector" d="M0,0H5.013" transform="translate(1.671 13.75)" fill="none" stroke="#878787" stroke-linecap="round" stroke-linejoin="round" stroke-width="2"/>
      <path id="Vector-4" data-name="Vector" d="M0,0H2.506" transform="translate(1.671 10.417)" fill="none" stroke="#878787" stroke-linecap="round" stroke-linejoin="round" stroke-width="2"/>
      <path id="Vector-5" data-name="Vector" d="M0,0H20V20H0Z" fill="none" opacity="0"/>
    </g>
  </g>
</svg>
