<svg xmlns="http://www.w3.org/2000/svg">

<symbol id="ic-build" viewBox="15.3 85.104 581.4 469.404">
	<g>
	<path d="M557.532,539.208V85.104H186.048v75.276H54.468v378.828H15.3v15.3h581.4v-15.3H557.532z M542.232,99.792v438.804H416.771
		V432.108h-89.964v107.1H200.736V99.792H542.232z M401.472,539.208h-59.976v-91.8h59.976V539.208z M69.768,175.068h116.28v364.14
		H69.768V175.068z"/>
	<path d="M285.192,132.228H232.56v52.632h52.632V132.228z M270.504,169.56H247.86v-22.644h22.644V169.56z"/>
	<path d="M360.468,132.228h-52.632v52.632h52.632V132.228z M345.168,169.56h-22.644v-22.644h22.644V169.56z"/>
	<path d="M435.132,132.228H382.5v52.632h52.632V132.228z M420.444,169.56H397.8v-22.644h22.645V169.56z"/>
	<path d="M510.408,132.228h-52.632v52.632h52.632V132.228z M495.72,169.56h-22.644v-22.644h22.644V169.56z"/>
	<path d="M285.192,206.892H232.56v52.632h52.632V206.892z M270.504,244.224H247.86V221.58h22.644V244.224z"/>
	<path d="M360.468,206.892h-52.632v52.632h52.632V206.892z M345.168,244.224h-22.644V221.58h22.644V244.224z"/>
	<path d="M435.132,206.892H382.5v52.632h52.632V206.892z M420.444,244.224H397.8V221.58h22.645V244.224z"/>
	<path d="M510.408,206.892h-52.632v52.632h52.632V206.892z M495.72,244.224h-22.644V221.58h22.644V244.224z"/>
	<path d="M285.192,282.168H232.56V334.8h52.632V282.168z M270.504,319.5H247.86v-22.644h22.644V319.5z"/>
	<path d="M360.468,282.168h-52.632V334.8h52.632V282.168z M345.168,319.5h-22.644v-22.644h22.644V319.5z"/>
	<path d="M435.132,282.168H382.5V334.8h52.632V282.168z M420.444,319.5H397.8v-22.644h22.645V319.5z"/>
	<path d="M510.408,282.168h-52.632V334.8h52.632V282.168z M495.72,319.5h-22.644v-22.644h22.644V319.5z"/>
	<path d="M285.192,356.832H232.56v52.632h52.632V356.832z M270.504,394.776H247.86v-22.644h22.644V394.776z"/>
	<path d="M360.468,356.832h-52.632v52.632h52.632V356.832z M345.168,394.776h-22.644v-22.644h22.644V394.776z"/>
	<path d="M435.132,356.832H382.5v52.632h52.632V356.832z M420.444,394.776H397.8v-22.644h22.645V394.776z"/>
	<path d="M510.408,356.832h-52.632v52.632h52.632V356.832z M495.72,394.776h-22.644v-22.644h22.644V394.776z"/>
	<path d="M285.192,432.108H232.56v52.632h52.632V432.108z M270.504,469.44H247.86v-22.645h22.644V469.44z"/>
	<path d="M510.408,432.108h-52.632v52.632h52.632V432.108z M495.72,469.44h-22.644v-22.645h22.644V469.44z"/>
	<path d="M101.592,206.892v52.632h52.632v-52.632H101.592z M138.924,244.224H116.28V221.58h22.644V244.224z"/>
	<path d="M101.592,334.8h52.632v-52.632h-52.632V334.8z M116.28,296.856h22.644V319.5H116.28V296.856z"/>
	<path d="M101.592,409.464h52.632v-52.632h-52.632V409.464z M116.28,372.132h22.644v22.644H116.28V372.132z"/>
	<path d="M101.592,484.74h52.632v-52.632h-52.632V484.74z M116.28,446.796h22.644v22.645H116.28V446.796z"/>
</g>
</symbol>
<symbol id="ic-client" viewBox="22.304 13.5 567.392 612">
	<path d="M306,314.719c83.18,0,150.609-67.43,150.609-150.609S389.18,13.5,306,13.5c-83.179,0-150.609,67.43-150.609,150.609
	C155.502,247.242,222.867,314.607,306,314.719z M306,58.36c58.391,0,105.726,47.335,105.726,105.726S364.391,269.811,306,269.811
	c-58.381,0-105.712-47.32-105.726-105.702C200.36,105.76,247.651,58.486,306,58.42V58.36z"/>
<path d="M67.225,625.5c0-131.664,107.112-238.775,238.775-238.775c131.664,0,238.775,107.111,238.775,238.775h44.92
	c-0.006-156.681-127.025-283.69-283.707-283.684c-75.234,0.003-147.386,29.89-200.586,83.086
	C52.024,477.986,22.101,550.22,22.305,625.5H67.225z"/>
</symbol>
<symbol id="ic-home" viewBox="137.425 136.328 404.35 404.351">
<g>
	<g>
		<path d="M312.645,136.328H150.904c-7.444,0-13.479,6.035-13.479,13.479v161.74c0,7.444,6.035,13.479,13.479,13.479h161.741
			c7.443,0,13.479-6.035,13.479-13.479v-161.74C326.123,142.363,320.088,136.328,312.645,136.328z M299.166,298.068H164.382V163.285
			h134.784V298.068z"/>
		<path d="M528.297,136.328h-161.74c-7.443,0-13.478,6.035-13.478,13.479v161.74c0,7.444,6.034,13.479,13.478,13.479h161.74
			c7.444,0,13.479-6.035,13.479-13.479v-161.74C541.775,142.363,535.741,136.328,528.297,136.328z M514.819,298.068H380.036V163.285
			h134.783V298.068z"/>
		<path d="M312.645,351.981H150.904c-7.444,0-13.479,6.035-13.479,13.479V527.2c0,7.443,6.035,13.479,13.479,13.479h161.741
			c7.443,0,13.479-6.035,13.479-13.479V365.46C326.123,358.016,320.088,351.981,312.645,351.981z M299.166,513.722H164.382V378.938
			h134.784V513.722z"/>
		<path d="M528.297,351.981h-161.74c-7.443,0-13.478,6.035-13.478,13.479V527.2c0,7.443,6.034,13.479,13.478,13.479h161.74
			c7.444,0,13.479-6.035,13.479-13.479V365.46C541.775,358.016,535.741,351.981,528.297,351.981z M514.819,513.722H380.036V378.938
			h134.783V513.722z"/>
	</g>
</g>
</symbol>
<symbol id="ic-fca" viewBox="0 64.5 612 510">
<g>
	<path d="M599.25,141H433.5c0-42.177-34.323-76.5-76.5-76.5H255c-42.177,0-76.5,34.323-76.5,76.5H12.75
		C5.737,141,0,146.737,0,153.75v408c0,7.013,5.737,12.75,12.75,12.75h586.5c7.038,0,12.75-5.737,12.75-12.75V270.132v-1.606V153.75
		C612,146.737,606.288,141,599.25,141z M255,90h102c28.152,0,51,22.848,51,51H204C204,112.848,226.874,90,255,90z M25.5,166.5h561
		v103.606c0,41.335-33.584,74.894-74.894,74.894H100.419c-41.31,0-74.919-33.558-74.919-76.5V166.5z M586.5,549h-561V336.854
		c18.406,20.625,45.173,33.646,74.919,33.646h411.188c29.731,0,56.49-13.02,74.894-33.639V549z"/>
	<path d="M306,332.25c21.114,0,38.25-17.162,38.25-38.25s-17.136-38.25-38.25-38.25c-21.088,0-38.25,17.162-38.25,38.25
		S284.912,332.25,306,332.25z M306,281.25c7.038,0,12.75,5.737,12.75,12.75s-5.712,12.75-12.75,12.75s-12.75-5.737-12.75-12.75
		S298.962,281.25,306,281.25z"/>
</g>
</symbol>
<symbol id="ic-region" viewBox="0 64.5 612 510">
<g>
	<g>
		<path fill="none" d="M174.677,281.764c5.765-23.758,11.542-40.6,17.271-51.408c-8.25-4.002-16.181-7.393-24.504-10.991
			c-7.907-3.599-15.104-7.087-21.604-10.698c-6.475-3.611-11.163-7.687-14.786-11.286C97.198,232.718,77.357,282.78,71.641,343.98
			h93.636C165.656,331.74,168.875,305.522,174.677,281.764z"/>
		<path fill="none" d="M270.786,590.763l22.974,1.433V475.793c-36.72,7.246-66.243,13.391-76.341,18.408
			C231.813,529.856,250.271,562.293,270.786,590.763z"/>
		<path fill="none" d="M146.929,531.338c32.081,25.178,63.807,42.534,95.129,51.873c-10.82-14.419-25.251-41.065-43.99-80.013
			C181.176,510.774,164.236,520.113,146.929,531.338z"/>
		<path fill="none" d="M165.277,368.46h-91.91c0,24.48,5.104,46.512,15.19,74.627c10.098,28.079,24.088,52.057,42.497,71.85
			c2.546-2.13,22.399-12.302,59.462-31.078C173.612,434.874,165.277,392.94,165.277,368.46z"/>
		<path fill="none" d="M240.626,131.31c-39.278,10.061-70.306,27.026-93.697,50.82c6.867,6.083,23.795,15.484,51.151,28.421
			C209.267,182.13,223.319,155.79,240.626,131.31z"/>
		<path fill="none" d="M422.99,482.341c15.104,7.956,28.091,14.565,38.531,20c10.465,5.398,17.687,9.254,21.665,12.497
			c15.826-15.838,29.144-37.467,40.71-65.594c11.518-28.128,16.928-56.304,16.928-80.784h-90.49
			C450.334,405.18,441.35,435.119,422.99,482.341z"/>
		<path fill="none" d="M318.24,477.262v114.945l23.354-1.432c13.672-16.903,31.751-48.984,53.354-96.562
			C368.326,484.471,342.72,478.682,318.24,477.262z"/>
		<path fill="none" d="M195.938,425.021c6.12,24.517,10.734,41.212,15.729,50.967c33.905-13.672,57.613-20.747,82.093-20.747V368.46
			H187.284C187.284,380.7,190.148,400.149,195.938,425.021z"/>
		<path fill="none" d="M407.47,520.113c-4.333,11.225-9.303,21.678-14.798,31.727c-5.741,10.098-12.24,20.208-19.793,29.608
			c38.557-7.932,69.572-24.933,93.71-50.11c-5.79-4.725-23.048-14.064-51.897-28.14C414.312,503.602,411.803,509.343,407.47,520.113
			z"/>
		<path fill="none" d="M362.487,461.067c17.663,4.615,30.943,10.086,39.939,15.117c15.899-40.698,23.807-71.005,23.807-107.725
			H318.24v86.781C330.48,454.214,345.205,455.976,362.487,461.067z"/>
		<path fill="none" d="M278.803,123.733c-2.167,0.306-4.676,0.539-7.209,0.906c-21.64,29.523-39.241,61.126-52.95,95.031
			c14.407,4.357,28.018,8.274,42.057,11.175c14.052,3.207,20.82,4.59,33.06,4.59V123.66h-6.634
			C283.882,123.66,281.336,123.33,278.803,123.733z"/>
		<path fill="none" d="M187.284,343.98H293.76v-84.75c-24.48,0-48.201-7.724-83.525-21.42
			C194.408,275.62,187.284,319.5,187.284,343.98z"/>
		<path d="M527.507,218.116c-10.036-16.255-21.566-30.87-34.406-44.027c-2.864,8.666-5.998,17.564-9.303,26.512
			c17.026,16.965,30.796,37.259,41.139,63.538c10.833,27.381,15.888,55.361,15.888,79.841h-91.873
			c0-12.24-1.726-29.768-4.945-46.096c-4.871,11.102-8.458,19.498-9.951,22.742l-8.103,17.185c0.098,2.289,0.281,6.169,0.281,6.169
			H318.24v-84.75c12.24,0,33.99-3.538,55.104-10.159c-3.231-6.353-6.476-12.877-9.756-19.499
			c-12.497,2.705-33.108,4.664-45.349,5.863V122.987c0,0,0.428-21.236,0.832-25.594c-3.305-0.123-6.622-0.306-9.927-0.306
			c-29.56,0-59.18,5.386-89.07,15.839c-29.915,10.771-58.018,27.014-83.966,48.69c-26.279,21.971-47.198,47.871-62.73,78.532
			c-15.839,30.257-24.48,65.594-25.949,105.595c-1.432,81.825,24.492,147.014,78.568,196.403
			c54.052,48.997,114.615,73.514,181.299,73.514c44.651,0,86.817-10.466,126.12-31.371c39.229-21.261,70.98-51.53,95.509-91.886
			c24.125-40.001,36.022-86.5,35.668-139.854C563.909,301.421,551.62,256.696,527.507,218.116z M240.626,131.31
			c-17.307,24.48-31.371,50.82-42.558,79.254c-27.344-12.95-44.285-22.338-51.151-28.421
			C170.32,158.324,201.348,141.359,240.626,131.31z M131.054,197.443c3.623,3.598,8.311,7.295,14.786,10.906
			c6.487,3.599,13.696,7.417,21.604,11.016c8.323,3.611,16.254,7.332,24.504,11.322c-5.729,10.808-11.506,27.271-17.271,51.029
			c-5.802,23.758-9.021,50.025-9.4,62.265H71.641C77.357,282.78,97.198,232.768,131.054,197.443z M88.557,443.087
			c-10.086-28.115-15.19-50.147-15.19-74.627h91.91c0,24.48,8.335,66.304,25.251,115.288
			c-37.063,18.776-56.916,29.254-59.462,31.372C112.645,495.327,98.667,471.166,88.557,443.087z M146.929,531.338
			c17.308-11.225,34.248-20.563,51.151-28.14c18.739,38.947,33.17,65.594,43.99,80.013
			C210.736,573.859,179.01,556.503,146.929,531.338z M293.76,592.195l-22.974-1.433c-20.514-28.47-38.972-60.918-53.367-96.562
			c10.098-5.018,39.621-11.162,76.341-18.396V592.195z M293.76,455.241c-24.48,0-48.201,6.892-82.093,20.563
			c-4.994-9.755-10.025-26.267-16.145-50.771c-5.79-24.884-8.238-44.333-8.238-56.573H293.76V455.241z M293.76,343.98H187.284
			c0-24.48,7.124-68.36,22.95-106.17c35.337,13.697,59.045,21.42,83.525,21.42V343.98L293.76,343.98z M293.76,235.436
			c-12.24,0-19.008-1.432-33.06-4.626c-14.027-2.901-28.066-6.854-42.473-11.212c13.708-33.917,31.53-65.594,53.17-95.117
			c2.534-0.367,5.153-0.428,7.319-0.734c2.534-0.416,5.166-0.085,8.409-0.085h6.634V235.436z M318.24,368.46h107.993
			c0,36.72-7.956,67.026-23.831,107.736c-8.984-5.03-22.24-10.318-39.915-14.933c-17.282-5.092-32.007-7.05-44.247-6.022V368.46z
			 M318.24,592.195V477.249c24.479,1.42,50.062,7.21,76.695,16.952c-21.615,47.577-39.633,79.658-53.305,96.562L318.24,592.195z
			 M372.879,581.436c7.553-9.399,14.052-19.51,19.793-29.608c5.495-10.049,10.465-20.502,14.798-31.726
			c4.333-10.771,6.842-16.512,7.222-16.916c28.85,14.063,46.12,23.415,51.897,28.14
			C442.439,556.503,411.436,573.505,372.879,581.436z M523.896,449.183c-11.566,28.128-24.884,49.902-40.71,65.754
			c-3.966-3.256-11.188-7.308-21.665-12.705c-10.453-5.41-23.428-11.886-38.531-19.842c18.359-47.222,27.344-77.21,27.344-113.93
			h90.49C540.824,392.94,535.414,421.056,523.896,449.183z"/>
	</g>
	<path d="M410.248,23.427c-45.9,1.983-81.445,40.796-79.462,86.696c1.982,45.888,92.13,205.865,92.13,205.865
		s76.023-167.174,74.04-213.062C494.961,57.025,456.124,21.432,410.248,23.427z M416.674,172.021
		c-22.546,0.979-41.641-16.524-42.619-39.083c-0.955-22.559,16.523-41.665,39.106-42.644c22.57-0.979,41.641,16.548,42.62,39.106
		C456.76,151.947,439.27,171.041,416.674,172.021z"/>
</g>
</symbol>
<symbol  id="ic-settings" viewBox="58.752 72.864 493.884 493.271">
	<g>
	<path d="M84.456,272.988c-14.736,2.388-25.598,15.061-25.704,29.988v33.048c0.106,14.928,10.968,27.6,25.704,29.988l23.868,4.284
		c4.816,18.499,12.234,36.219,22.032,52.632l-14.076,20.196c-8.602,12.073-7.313,28.577,3.06,39.168l23.256,23.256
		c10.591,10.373,27.094,11.663,39.168,3.061l20.196-14.076c16.413,9.798,34.134,17.216,52.632,22.032l4.284,23.867
		c2.388,14.736,15.061,25.598,29.988,25.704h33.048c14.928-0.106,27.6-10.968,29.988-25.704l4.283-23.867
		c18.499-4.816,36.22-12.234,52.633-22.032l20.808,14.688c12.073,8.603,28.577,7.313,39.168-3.06l23.256-23.256
		c10.373-10.592,11.663-27.095,3.061-39.168l-14.076-20.196c9.798-16.413,17.216-34.134,22.032-52.632l23.867-4.284
		c14.736-2.388,25.598-15.061,25.704-29.988v-33.66c-0.106-14.928-10.968-27.6-25.704-29.988l-23.867-4.284
		c-4.816-18.499-12.234-36.219-22.032-52.632l14.688-20.196c8.603-12.073,7.313-28.577-3.06-39.168l-23.256-23.256
		c-10.592-10.374-27.095-11.663-39.168-3.06l-20.196,14.076c-16.409-9.805-34.131-17.224-52.632-22.032l-4.284-23.868
		c-2.388-14.736-15.061-25.598-29.988-25.704h-33.66c-14.928,0.106-27.6,10.968-29.988,25.704l-4.284,23.868
		c-18.499,4.816-36.219,12.234-52.632,22.032l-20.196-14.688c-12.074-8.602-28.577-7.313-39.168,3.06l-23.256,23.256
		c-10.374,10.591-11.663,27.094-3.06,39.168l14.076,20.196c-9.797,16.413-17.215,34.134-22.032,52.632L84.456,272.988z
		 M130.356,282.168c4.6-21.366,13.106-41.699,25.092-59.976c2.69-4.085,2.69-9.379,0-13.464l-18.972-26.316
		c-1.791-2.439-1.531-5.82,0.612-7.956l23.256-23.256c2.136-2.143,5.518-2.403,7.956-0.612l26.316,18.972
		c4.084,2.69,9.379,2.69,13.464,0c18.276-11.986,38.609-20.492,59.976-25.092c4.974-0.926,8.865-4.817,9.792-9.792l5.508-31.824
		c0.59-2.896,3.166-4.956,6.12-4.896h33.048c2.954-0.06,5.529,2,6.119,4.896l5.509,31.824c0.926,4.975,4.817,8.866,9.792,9.792
		c21.366,4.6,41.699,13.106,59.976,25.092c4.085,2.69,9.379,2.69,13.464,0l26.316-18.972c2.438-1.791,5.819-1.53,7.956,0.612
		l23.256,23.256c2.143,2.136,2.402,5.517,0.612,7.956l-18.973,26.316c-2.689,4.085-2.689,9.379,0,13.464
		c11.985,18.277,20.492,38.61,25.092,59.976c0.927,4.974,4.818,8.866,9.792,9.792l31.824,5.508c2.896,0.591,4.956,3.166,4.896,6.12
		v33.048c0.06,2.954-2.001,5.529-4.896,6.12l-31.824,5.508c-4.974,0.926-8.865,4.818-9.792,9.792
		c-4.612,21.362-13.118,41.693-25.092,59.976c-2.689,4.085-2.689,9.379,0,13.464l18.973,26.316c1.79,2.438,1.53,5.819-0.612,7.955
		l-23.256,23.257c-2.137,2.143-5.518,2.402-7.956,0.611l-26.316-18.972c-4.085-2.69-9.379-2.69-13.464,0
		c-18.276,11.985-38.609,20.492-59.976,25.092c-4.975,0.927-8.866,4.818-9.792,9.792l-5.509,31.824
		c-0.59,2.896-3.165,4.955-6.119,4.896h-33.048c-2.955,0.06-5.53-2-6.12-4.896l-5.508-31.824c-0.927-4.974-4.818-8.865-9.792-9.792
		c-21.367-4.6-41.7-13.106-59.976-25.092c-4.085-2.69-9.379-2.69-13.464,0L168.3,489.636c-2.438,1.791-5.82,1.531-7.956-0.611
		l-23.256-23.257c-2.143-2.136-2.402-5.517-0.612-7.955l18.972-26.316c2.69-4.085,2.69-9.379,0-13.464
		c-11.986-18.276-20.493-38.61-25.092-59.976c-0.926-4.974-4.818-8.866-9.792-9.792l-31.824-5.508
		c-2.896-0.59-4.956-3.166-4.896-6.12v-33.66c-0.06-2.955,2-5.53,4.896-6.12l31.824-5.508c5.035-0.609,9.173-4.26,10.404-9.18
		H130.356z"/>
	<path d="M306,414.36c52.39,0,94.86-42.471,94.86-94.86S358.39,224.64,306,224.64s-94.86,42.47-94.86,94.86
		S253.61,414.36,306,414.36z M306,249.732c38.87,0.001,70.379,31.513,70.377,70.383c-0.001,38.87-31.513,70.379-70.382,70.377
		s-70.379-31.513-70.377-70.383c0-0.203,0.001-0.406,0.003-0.609c0-38.87,31.51-70.38,70.38-70.38V249.732z"/>
</g>
</symbol>
<symbol id="ic-site" viewBox="0 55.228 612 528.545">
	<g>
	<g>
		<path d="M570.272,55.228H41.727C18.722,55.228,0,73.949,0,96.955v445.091c0,23.005,18.722,41.727,41.727,41.727h528.545
			c23.006,0,41.728-18.722,41.728-41.727V96.955C612,73.949,593.278,55.228,570.272,55.228z M584.182,542.046
			c0,7.678-6.231,13.908-13.909,13.908H41.727c-7.678,0-13.909-6.23-13.909-13.908V166.5h556.363V542.046z M584.182,138.682H27.818
			V96.955c0-7.678,6.231-13.909,13.909-13.909h528.545c7.678,0,13.909,6.231,13.909,13.909V138.682z"/>
		<circle cx="69.545" cy="110.864" r="13.909"/>
		<circle cx="125.182" cy="110.864" r="13.909"/>
		<circle cx="180.818" cy="110.864" r="13.909"/>
		<path d="M111.273,333.409h83.454c7.692,0,13.909-6.217,13.909-13.909v-83.455c0-7.692-6.217-13.909-13.909-13.909h-83.454
			c-7.692,0-13.909,6.217-13.909,13.909V319.5C97.364,327.192,103.581,333.409,111.273,333.409z M125.182,249.955h55.637v55.636
			h-55.637V249.955z"/>
		<path d="M250.364,249.955h153c7.692,0,13.909-6.217,13.909-13.909s-6.217-13.909-13.909-13.909h-153
			c-7.692,0-13.909,6.217-13.909,13.909S242.672,249.955,250.364,249.955z"/>
		<path d="M250.364,291.682h111.273c7.691,0,13.909-6.217,13.909-13.909c0-7.691-6.218-13.909-13.909-13.909H250.364
			c-7.692,0-13.909,6.217-13.909,13.909C236.455,285.464,242.672,291.682,250.364,291.682z"/>
		<path d="M445.091,249.955h55.637c7.691,0,13.909-6.217,13.909-13.909s-6.218-13.909-13.909-13.909h-55.637
			c-7.691,0-13.909,6.217-13.909,13.909S437.399,249.955,445.091,249.955z"/>
		<path d="M250.364,333.409h83.455c7.691,0,13.909-6.217,13.909-13.909s-6.218-13.909-13.909-13.909h-83.455
			c-7.692,0-13.909,6.217-13.909,13.909S242.672,333.409,250.364,333.409z"/>
		<path d="M111.273,500.318h83.454c7.692,0,13.909-6.218,13.909-13.909v-83.455c0-7.691-6.217-13.909-13.909-13.909h-83.454
			c-7.692,0-13.909,6.217-13.909,13.909v83.455C97.364,494.101,103.581,500.318,111.273,500.318z M125.182,416.863h55.637V472.5
			h-55.637V416.863z"/>
		<path d="M459,277.772c0-7.691-6.218-13.909-13.909-13.909h-41.728c-7.691,0-13.909,6.217-13.909,13.909
			c0,7.692,6.218,13.909,13.909,13.909h41.728C452.782,291.682,459,285.464,459,277.772z"/>
		<path d="M250.364,416.863h153c7.692,0,13.909-6.217,13.909-13.909c0-7.691-6.217-13.909-13.909-13.909h-153
			c-7.692,0-13.909,6.217-13.909,13.909C236.455,410.646,242.672,416.863,250.364,416.863z"/>
		<path d="M250.364,458.591h111.273c7.691,0,13.909-6.218,13.909-13.909s-6.218-13.909-13.909-13.909H250.364
			c-7.692,0-13.909,6.218-13.909,13.909S242.672,458.591,250.364,458.591z"/>
		<path d="M500.728,389.045h-55.637c-7.691,0-13.909,6.217-13.909,13.909c0,7.692,6.218,13.909,13.909,13.909h55.637
			c7.691,0,13.909-6.217,13.909-13.909C514.637,395.263,508.419,389.045,500.728,389.045z"/>
		<path d="M445.091,430.772h-41.728c-7.691,0-13.909,6.218-13.909,13.909s6.218,13.909,13.909,13.909h41.728
			c7.691,0,13.909-6.218,13.909-13.909S452.782,430.772,445.091,430.772z"/>
		<path d="M250.364,500.318h83.455c7.691,0,13.909-6.218,13.909-13.909S341.51,472.5,333.818,472.5h-83.455
			c-7.692,0-13.909,6.218-13.909,13.909S242.672,500.318,250.364,500.318z"/>
	</g>
</g>
</symbol>

<symbol id="ic-edit" viewBox="7.997 2.997 34.005 34.007">
	<g>
	<path d="M8.225,36.775c0.148,0.147,0.348,0.229,0.553,0.229c0.062,0,0.124-0.008,0.185-0.022l10.076-2.458
		c0.004-0.001,0.007-0.002,0.011-0.004c0.029-0.007,0.058-0.016,0.086-0.027c0.002,0,0.003-0.001,0.005-0.002
		c0.03-0.012,0.06-0.025,0.089-0.042c0.006-0.003,0.011-0.007,0.017-0.009c0.022-0.014,0.044-0.028,0.066-0.045
		c0.007-0.004,0.013-0.009,0.02-0.014c0.025-0.02,0.05-0.041,0.073-0.064l21.225-21.224c1.827-1.828,1.827-4.801,0-6.629
		l-2.095-2.095c-0.886-0.885-2.063-1.373-3.314-1.373c-1.253,0-2.429,0.487-3.314,1.373L10.683,25.594
		c-0.023,0.023-0.044,0.048-0.064,0.073c-0.005,0.007-0.01,0.013-0.015,0.02c-0.016,0.021-0.03,0.044-0.043,0.066
		c-0.003,0.005-0.006,0.011-0.009,0.017c-0.016,0.028-0.031,0.059-0.042,0.089c0,0.001-0.001,0.003-0.001,0.005
		c-0.011,0.028-0.021,0.058-0.028,0.088c-0.001,0.003-0.002,0.006-0.003,0.01L8.019,36.037C7.954,36.303,8.032,36.582,8.225,36.775z
		 M12.34,26.146L29.643,8.843l1.434,1.434L13.774,27.58L12.34,26.146z M32.182,11.382l1.436,1.436L16.315,30.121l-1.437-1.437
		L32.182,11.382z M34.723,13.923l1.434,1.434L18.854,32.66l-1.434-1.434L34.723,13.923z M33.012,5.474
		c0.59-0.59,1.375-0.915,2.21-0.915s1.62,0.325,2.21,0.916l2.094,2.094c1.219,1.218,1.219,3.201,0,4.419l-2.264,2.264l-6.514-6.514
		L33.012,5.474z M11.665,27.681l5.654,5.654l-7.478,1.823L11.665,27.681z"/>
</g>
</symbol>

<symbol id="ic-delete" viewBox="10.547 1.641 28.914 36.719">
	<g>
	<path d="M35.586,5.703h-4.57V5.477c0-2.109-1.75-3.836-3.859-3.836h-4.313c-2.109,0-3.859,1.727-3.859,3.836v0.227h-4.57
		c-2.109,0-3.867,1.727-3.867,3.836v3.414c0,0.391,0.352,0.719,0.742,0.719h2.227v20.852c0,2.109,1.68,3.836,3.797,3.836h15.383
		c2.109,0,3.797-1.727,3.797-3.836V13.672h2.227c0.391,0,0.742-0.328,0.742-0.719V9.539C39.453,7.43,37.695,5.703,35.586,5.703z
		 M20.391,5.477c0-1.336,1.117-2.43,2.453-2.43h4.313c1.336,0,2.453,1.094,2.453,2.43v0.227h-9.219V5.477z M35.078,34.523
		c0,1.336-1.055,2.43-2.391,2.43H17.313c-1.336,0-2.391-1.094-2.391-2.43V13.672h20.156V34.523z M38.047,12.266H11.953V9.539
		c0-1.336,1.125-2.43,2.461-2.43h21.172c1.336,0,2.461,1.094,2.461,2.43V12.266z"/>
	<path d="M28.984,31.375c0.391,0,0.703-0.313,0.703-0.703V18.953c0-0.391-0.313-0.703-0.703-0.703s-0.703,0.313-0.703,0.703v11.719
		C28.281,31.063,28.594,31.375,28.984,31.375z"/>
	<path d="M21.016,31.375c0.391,0,0.703-0.313,0.703-0.703V18.953c0-0.391-0.313-0.703-0.703-0.703s-0.703,0.313-0.703,0.703v11.719
		C20.313,31.063,20.625,31.375,21.016,31.375z"/>
</g>
</symbol>


</svg>