<?xml version="1.0" encoding="utf-8"?>
<!-- Generator: Adobe Illustrator 16.0.0, SVG Export Plug-In . SVG Version: 6.00 Build 0)  -->
<!DOCTYPE svg PUBLIC "-//W3C//DTD SVG 1.1//EN" "http://www.w3.org/Graphics/SVG/1.1/DTD/svg11.dtd">
<svg version="1.1" id="Layer_1" xmlns="http://www.w3.org/2000/svg" xmlns:xlink="http://www.w3.org/1999/xlink" x="0px" y="0px"
	 width="13.121px" height="13.121px" viewBox="0 0 13.121 13.121" enable-background="new 0 0 13.121 13.121" xml:space="preserve">
<g>
	<path d="M11.605,8.789c-0.231-0.233-0.609-0.233-0.841,0l-1.322,1.323V1.573c0-0.329-0.267-0.596-0.596-0.596
		S8.252,1.244,8.252,1.573v8.539L6.93,8.789c-0.233-0.233-0.609-0.233-0.843,0c-0.233,0.232-0.233,0.61,0,0.843l2.338,2.337
		c0.117,0.117,0.269,0.175,0.422,0.175c0.152,0,0.305-0.058,0.42-0.175l2.339-2.337C11.839,9.399,11.839,9.021,11.605,8.789z"/>
	<path d="M0.967,4.332c0.233,0.233,0.61,0.233,0.843,0L3.132,3.01v8.539c0,0.328,0.266,0.595,0.595,0.595
		c0.329,0,0.594-0.267,0.594-0.595V3.01l1.322,1.322c0.233,0.233,0.609,0.233,0.843,0c0.231-0.232,0.231-0.609,0-0.841L4.148,1.152
		C4.031,1.036,3.879,0.978,3.727,0.978c-0.153,0-0.306,0.058-0.421,0.175L0.967,3.491C0.735,3.723,0.735,4.1,0.967,4.332z"/>
</g>
<path fill="#FB1E1F" d="M6.562,0C4.809,0,3.16,0.683,1.921,1.922C0.683,3.161,0,4.808,0,6.561c0,3.617,2.943,6.56,6.562,6.56
	c3.618,0,6.56-2.941,6.56-6.56C13.122,2.943,10.18,0,6.562,0z M1,6.561c0-1.323,0.48-2.56,1.322-3.56l7.784,7.841
	c-0.963,0.799-2.198,1.28-3.543,1.28C3.495,12.122,1,9.627,1,6.561z M10.814,10.136l-7.781-7.84C4.028,1.471,5.252,1,6.562,1
	c3.065,0,5.56,2.494,5.56,5.561C12.122,7.922,11.629,9.169,10.814,10.136z"/>
</svg>
