<svg width="65" height="65" viewBox="0 0 65 65" fill="none" xmlns="http://www.w3.org/2000/svg">
<path d="M62.1 0H2.9C1.3 0 0 1.3 0 2.9V62C0 63.7 1.3 65 2.9 65H62.1C63.7 65 65 63.7 65 62.1V2.9C65 1.3 63.7 0 62.1 0ZM19.9 62.1H2.9V47.9H19.9V62.1ZM19.9 45.4H2.9V31.3H19.9V45.4ZM42.5 62.1H22.7V47.9H42.5V62.1ZM42.5 45.4H22.7V31.3H42.5V45.4ZM42.5 28.3H22.7V14.1H42.5V28.3ZM62.1 62.1H45.3V47.9H62.1V62.1V62.1ZM62.1 45.4H45.3V31.3H62.1V45.4V45.4ZM62.1 28.3H45.3V14.1H62.1V28.3V28.3Z" fill="#306FDD"/>
<path d="M62.3 2.70001H3V11.2H62.3V2.70001Z" fill="#CCE4FF"/>
<path d="M19.9 14.1H2.90002V28.3H19.9V14.1Z" fill="#CCE4FF"/>
</svg>
