<svg xmlns="http://www.w3.org/2000/svg" width="49.997" height="26.366" viewBox="0 0 49.997 26.366">
  <g id="Group_18001" data-name="Group 18001" transform="translate(-929.758 -730)">
    <g id="picture-svgrepo-com_2_" data-name="picture-svgrepo-com (2)" transform="matrix(0.966, 0.259, -0.259, 0.966, 959.948, 730.626)">
      <g id="Group_17999" data-name="Group 17999">
        <path id="Path_109" data-name="Path 109" d="M19.041,0H1.465A1.467,1.467,0,0,0,0,1.465V19.677a.83.83,0,0,0,.829.829H19.041a1.467,1.467,0,0,0,1.465-1.465V1.465A1.467,1.467,0,0,0,19.041,0ZM6.2,2.5A3.165,3.165,0,1,1,3.031,5.661,3.169,3.169,0,0,1,6.2,2.5ZM18.065,17.529a.669.669,0,0,1-.586.347H3.027a.669.669,0,0,1-.564-1.028L5.9,11.455a.669.669,0,0,1,1.128,0l1.651,2.59L11.9,8.984a.669.669,0,0,1,1.128,0l5.011,7.864A.669.669,0,0,1,18.065,17.529Z" fill="#d5dee8"/>
      </g>
    </g>
    <g id="picture-svgrepo-com_2_2" data-name="picture-svgrepo-com (2)" transform="translate(929.758 739.965) rotate(-30)">
      <g id="Group_17999-2" data-name="Group 17999">
        <path id="Path_109-2" data-name="Path 109" d="M16.914,0H1.3A1.3,1.3,0,0,0,0,1.3V17.479a.737.737,0,0,0,.736.736H16.914a1.3,1.3,0,0,0,1.3-1.3V1.3A1.3,1.3,0,0,0,16.914,0ZM5.5,2.218A2.812,2.812,0,1,1,2.693,5.029,2.815,2.815,0,0,1,5.5,2.218ZM16.047,15.571a.594.594,0,0,1-.521.308H2.689a.594.594,0,0,1-.5-.913l3.053-4.791a.594.594,0,0,1,1,0l1.466,2.3,2.865-4.5a.594.594,0,0,1,1,0l4.451,6.986A.594.594,0,0,1,16.047,15.571Z" fill="#d5dee8"/>
      </g>
    </g>
    <g id="Group_18000" data-name="Group 18000" transform="translate(942.721 730)">
      <rect id="Rectangle_1842" data-name="Rectangle 1842" width="22" height="22" transform="translate(1.884 1.682)" fill="#fff"/>
      <g id="picture-svgrepo-com_2_3" data-name="picture-svgrepo-com (2)">
        <g id="Group_17999-3" data-name="Group 17999">
          <path id="Path_109-3" data-name="Path 109" d="M24.482,0H1.884A1.886,1.886,0,0,0,0,1.884V25.3a1.067,1.067,0,0,0,1.066,1.066H24.482a1.886,1.886,0,0,0,1.884-1.884V1.884A1.886,1.886,0,0,0,24.482,0ZM7.967,3.21A4.07,4.07,0,1,1,3.9,7.279,4.074,4.074,0,0,1,7.967,3.21Zm15.26,19.328a.86.86,0,0,1-.754.446H3.893a.86.86,0,0,1-.725-1.322l4.419-6.934a.86.86,0,0,1,1.45,0l2.122,3.331,4.147-6.508a.86.86,0,0,1,1.45,0L23.2,21.663A.86.86,0,0,1,23.227,22.538Z" fill="#007bff"/>
        </g>
      </g>
    </g>
  </g>
</svg>
