<svg xmlns="http://www.w3.org/2000/svg" width="16.286" height="11.915" viewBox="0 0 16.286 11.915">
  <g id="e8eac4a518175b9a9331b7831bd23ba3_1_" data-name="e8eac4a518175b9a9331b7831bd23ba3 (1)" transform="translate(-10 -141.5)">
    <path id="Path_10327" data-name="Path 10327" d="M383.8,385.731a1.931,1.931,0,0,0,3.862,0h0a1.931,1.931,0,1,0-3.862,0Z" transform="translate(-367.588 -238.273)" fill="#2680eb"/>
    <path id="Path_10328" data-name="Path 10328" d="M18.143,141.5c-5.285,0-8.143,5.958-8.143,5.958s2.883,5.958,8.143,5.958c5.285,0,8.143-5.958,8.143-5.958S23.4,141.5,18.143,141.5Zm0,9.773a3.815,3.815,0,1,1,3.815-3.815A3.816,3.816,0,0,1,18.143,151.273Z" fill="#2680eb"/>
  </g>
</svg>
