<svg xmlns="http://www.w3.org/2000/svg" width="17.525" height="17.525" viewBox="0 0 17.525 17.525">
  <g id="vuesax_bold_house" data-name="vuesax/bold/house" transform="translate(-236 -188)">
    <g id="house" transform="translate(236 188)">
      <path id="Vector" d="M0,0H17.525V17.525H0Z" fill="none" opacity="0"/>
      <path id="Subtraction_1" data-name="Subtraction 1" d="M15.152,14.764H.547a.548.548,0,0,1,0-1.1h.694l.037-8.238A1.441,1.441,0,0,1,1.84,4.285L6.952.312a1.447,1.447,0,0,1,1.8,0l.978.76h2.49a.727.727,0,0,1,.73.723l.014,1.789.9.7a1.447,1.447,0,0,1,.563,1.154v8.23h.731a.548.548,0,0,1,0,1.1Zm-7.3-7.85C5.5,6.914,4.2,9.564,4.19,9.59c.013.026,1.321,2.678,3.659,2.678S11.5,9.617,11.508,9.59C11.5,9.564,10.188,6.914,7.85,6.914ZM7.485,1.971a.5.5,0,0,0-.332.126L5.181,3.849a.5.5,0,0,0,.332.873H9.455a.5.5,0,0,0,.332-.873L7.817,2.1A.5.5,0,0,0,7.485,1.971ZM7.85,11.3A1.715,1.715,0,1,1,9.564,9.59,1.716,1.716,0,0,1,7.85,11.3Zm0-2.582a.868.868,0,1,0,.868.868A.869.869,0,0,0,7.85,8.723Z" transform="translate(0.913 1.849)" fill="#008efd"/>
    </g>
  </g>
</svg>
