<svg width="26" height="24" viewBox="0 0 26 24" fill="none" xmlns="http://www.w3.org/2000/svg">
<path d="M11.5 1.49999L0.400009 20.7C-0.399991 22.2 0.600009 24 2.30001 24H23.6C25.3 24 26.3 22.2 25.5 20.7L14.4 1.49999C13.8 0.399988 12.1 0.399988 11.5 1.49999Z" fill="#FF6D00"/>
<path d="M11.8 4.00001L2.30002 20.5C1.80002 21.4 2.40002 22.5 3.40002 22.5H22.5C23.5 22.5 24.1 21.4 23.6 20.5L14.1 4.00001C13.6 3.10001 12.3 3.10001 11.8 4.00001Z" fill="#1cc20a"/>
<path d="M12 19.2C11.7 19 11.6 18.7 11.6 18.3C11.6 17.9 11.7 17.7 12 17.4C12.2 17.2 12.6 17 13 17C13.4 17 13.7 17.1 14 17.4C14.2 17.6 14.4 17.9 14.4 18.3C14.4 18.7 14.3 18.9 14 19.2C13.7 19.4 13.4 19.6 13.1 19.6C12.6 19.6 12.3 19.5 12 19.2ZM11.7 9.79999H14.3L13.9 16.1H12.2L11.7 9.79999Z" fill="#FF6D00"/>
</svg>
