<svg xmlns="http://www.w3.org/2000/svg" width="24.2" height="24.2" viewBox="0 0 24.2 24.2">
  <g id="vuesax_linear_camera" data-name="vuesax/linear/camera" transform="translate(-364 -320)">
    <g id="camera" transform="translate(364 320)">
      <path id="Vector" d="M0,0H24.2V24.2H0Z" fill="none" opacity="0"/>
      <path id="Water-595b40b65ba036ed117d2756" d="M13.576,3.438,13,4.122s-1.46,1.76-2.945,3.95A30.3,30.3,0,0,0,7.982,11.52,7.766,7.766,0,0,0,7,14.808a6.576,6.576,0,0,0,13.151,0,7.766,7.766,0,0,0-.982-3.288,30.3,30.3,0,0,0-2.078-3.448c-1.485-2.19-2.945-3.95-2.945-3.95Zm0,2.352A37.658,37.658,0,0,1,15.9,8.894a28.891,28.891,0,0,1,1.941,3.288,7.063,7.063,0,0,1,.845,2.626,5.114,5.114,0,0,1-10.229,0,7.062,7.062,0,0,1,.845-2.626,28.88,28.88,0,0,1,1.941-3.288A37.658,37.658,0,0,1,13.576,5.789ZM9.923,14.808a3.668,3.668,0,0,0,3.653,3.653V17a2.194,2.194,0,0,1-2.192-2.192Z" transform="translate(-1.476 -0.31)" stroke="#000" stroke-width="0.5"/>
    </g>
  </g>
</svg>
