<?xml version="1.0" encoding="utf-8"?>
<!-- Generator: Adobe Illustrator 23.0.0, SVG Export Plug-In . SVG Version: 6.00 Build 0)  -->
<svg version="1.1" id="_x31__px" xmlns="http://www.w3.org/2000/svg" xmlns:xlink="http://www.w3.org/1999/xlink" x="0px" y="0px"
	 viewBox="0 0 63.4 64" style="enable-background:new 0 0 63.4 64;" xml:space="preserve">
<style type="text/css">
	.st0{fill:#2A5699;}
</style>
<g>
	<g>
		<path class="st0" d="M61.3,10.7H35.6V4.8c0-0.6-0.3-1.1-0.7-1.5s-1-0.5-1.6-0.4L1.6,8.8C0.7,9,0,9.8,0,10.7v42.8
			c0,0.9,0.7,1.7,1.6,1.9l31.6,5.8c0.1,0,0.2,0,0.4,0c0.5,0,0.9-0.2,1.3-0.4c0.5-0.4,0.7-0.9,0.7-1.5v-5.8h25.7c1.1,0,2-0.9,2-1.9
			v-39C63.3,11.5,62.3,10.7,61.3,10.7z M31.6,56.9L4,51.8V12.3l27.6-5.1L31.6,56.9L31.6,56.9z M59.3,49.6H35.6v-3.9h5.9
			c1.1,0,2-0.9,2-1.9s-0.9-1.9-2-1.9h-5.9v-4h5.9c1.1,0,2-0.9,2-1.9c0-1.1-0.9-1.9-2-1.9h-5.9v-3.9h5.9c1.1,0,2-0.9,2-1.9
			s-0.9-1.9-2-1.9h-5.9v-3.9h5.9c1.1,0,2-0.9,2-1.9c0-1.1-0.9-1.9-2-1.9h-5.9v-3.9h23.7V49.6z"/>
		<path class="st0" d="M49.4,22.3h4c1.1,0,2-0.9,2-1.9c0-1.1-0.9-1.9-2-1.9h-4c-1.1,0-2,0.9-2,1.9C47.4,21.5,48.3,22.3,49.4,22.3z"
			/>
		<path class="st0" d="M49.4,30.1h4c1.1,0,2-0.9,2-1.9s-0.9-1.9-2-1.9h-4c-1.1,0-2,0.9-2,1.9S48.3,30.1,49.4,30.1z"/>
		<path class="st0" d="M49.4,37.9h4c1.1,0,2-0.9,2-1.9c0-1.1-0.9-1.9-2-1.9h-4c-1.1,0-2,0.9-2,1.9S48.3,37.9,49.4,37.9z"/>
		<path class="st0" d="M49.4,45.7h4c1.1,0,2-0.9,2-1.9s-0.9-1.9-2-1.9h-4c-1.1,0-2,0.9-2,1.9S48.3,45.7,49.4,45.7z"/>
		<path class="st0" d="M26.4,26.2C26.4,26.2,26.4,26.2,26.4,26.2c0-0.1,0.1-0.3,0-0.4c-0.1-0.8-0.7-1.3-1.5-1.3
			c-0.6,0-1.1,0.5-1.3,1.1c0,0,0,0,0,0l-2.8,7.7l-1.2-6.7c-0.1-0.4-0.3-0.8-0.6-1c-0.3-0.3-0.8-0.5-1.3-0.4c-0.7,0-1.3,0.5-1.5,1.1
			c0,0,0,0,0,0.1l-2.9,7.6l-1.4-7c0,0,0,0,0,0c-0.1-0.8-0.7-1.3-1.5-1.3c-0.8,0.1-1.3,0.7-1.3,1.5c0,0.1,0,0.2,0,0.3c0,0,0,0,0,0
			l2.1,10.9c0,0,0,0,0,0c0.2,0.8,0.9,1.4,1.7,1.3c0.7,0,1.3-0.6,1.5-1.2c0,0,0,0,0,0l2.8-7.6l1.2,6.9c0,0.2,0.1,0.4,0.2,0.6
			c0.3,0.5,0.9,0.8,1.5,0.8c0.6,0,1.1-0.4,1.4-0.9c0,0,0,0,0,0l4.5-11.5C26.3,26.4,26.4,26.3,26.4,26.2L26.4,26.2z"/>
	</g>
</g>
</svg>
