<svg id="file-type-standard-drawing-word-document" xmlns="http://www.w3.org/2000/svg" width="17.339" height="21.341" viewBox="0 0 17.339 21.341">
  <path id="Path_72" data-name="Path 72" d="M97.334,0H108l5.335,5.335V20.007a1.334,1.334,0,0,1-1.334,1.334H97.334A1.334,1.334,0,0,1,96,20.007V1.334A1.334,1.334,0,0,1,97.334,0Z" transform="translate(-96)" fill="#2a8ff4"/>
  <path id="Path_73" data-name="Path 73" d="M290.918,435.869l1.607-5.891h.03l1.6,5.891h.9l2.021-7.069h-.907l-1.548,5.931h-.039l-1.6-5.931H292.1l-1.607,5.931h-.04l-1.548-5.931H288l2.021,7.069Z" transform="translate(-283.999 -419.864)" fill="#fff"/>
  <path id="Path_74" data-name="Path 74" d="M672,0l5.335,5.335h-4A1.334,1.334,0,0,1,672,4Z" transform="translate(-659.996)" fill="#fff"/>
</svg>
